M48
; DRILL file {KiCad 7.0.9} date Wed Jul 10 12:52:32 2024
; FORMAT={-:-/ absolute / metric / decimal}
; #@! TF.CreationDate,2024-07-10T12:52:32+02:00
; #@! TF.GenerationSoftware,Kicad,Pcbnew,7.0.9
; #@! TF.FileFunction,MixedPlating,1,2
FMAT,2
METRIC
; #@! TA.AperFunction,Plated,PTH,ViaDrill
T1C0.300
; #@! TA.AperFunction,Plated,PTH,ViaDrill
T2C0.400
; #@! TA.AperFunction,Plated,PTH,ComponentDrill
T3C0.600
; #@! TA.AperFunction,Plated,PTH,ViaDrill
T4C0.800
; #@! TA.AperFunction,Plated,PTH,ComponentDrill
T5C0.889
; #@! TA.AperFunction,Plated,PTH,ComponentDrill
T6C1.000
; #@! TA.AperFunction,Plated,PTH,ComponentDrill
T7C1.016
; #@! TA.AperFunction,Plated,PTH,ComponentDrill
T8C1.200
; #@! TA.AperFunction,Plated,PTH,ComponentDrill
T9C1.400
; #@! TA.AperFunction,Plated,PTH,ComponentDrill
T10C1.600
; #@! TA.AperFunction,Plated,PTH,ComponentDrill
T11C1.850
; #@! TA.AperFunction,NonPlated,NPTH,ComponentDrill
T12C0.650
; #@! TA.AperFunction,NonPlated,NPTH,ComponentDrill
T13C3.251
%
G90
G05
T1
X214.95Y-201.625
X257.632Y-126.332
X260.07Y-123.87
X261.45Y-120.641
X261.45Y-124.65
X263.35Y-138.25
X264.6Y-138.25
X266.65Y-124.85
X269.7Y-117.25
X272.529Y-130.35
X276.8Y-114.1
X278.35Y-118.75
X278.35Y-120.25
X282.7Y-125.6
X282.8Y-118.75
X282.8Y-120.25
X283.475Y-122.875
X285.7Y-124.9
X285.85Y-122.494
X285.85Y-123.194
X291.2Y-143.45
X298.556Y-135.7
X305.15Y-134.05
X307.3Y-134.05
T2
X185.0Y-193.1
X185.023Y-190.3
X185.1Y-212.1
X185.15Y-216.4
X188.613Y-190.45
X188.613Y-215.55
X192.44Y-190.45
X192.44Y-215.55
X195.6Y-202.55
X196.267Y-190.45
X196.267Y-215.55
X200.093Y-190.45
X200.093Y-215.55
X203.92Y-190.45
X203.92Y-215.55
X206.9Y-200.6
X206.9Y-201.7
X206.9Y-202.8
X207.747Y-190.45
X207.747Y-215.55
X211.1Y-200.6
X211.1Y-201.7
X211.1Y-202.8
X211.573Y-190.45
X211.573Y-215.55
X211.85Y-207.4
X212.4Y-204.925
X212.9Y-198.7
X213.65Y-202.95
X214.3Y-204.1
X215.4Y-190.45
X215.4Y-215.55
X220.9Y-202.6
X225.75Y-198.2
X228.7Y-201.65
X233.25Y-190.75
X240.75Y-183.3
X247.794Y-112.76
X248.25Y-175.85
X250.75Y-170.55
X250.965Y-159.3
X251.065Y-143.3
X251.3Y-164.85
X253.05Y-161.7
X255.1Y-139.75
X255.85Y-130.9
X256.05Y-173.8
X256.1Y-165.25
X258.365Y-154.29
X258.8Y-155.95
X260.714Y-119.4
X261.282Y-111.545
X261.314Y-115.6
X262.6Y-139.45
X263.129Y-123.4
X263.182Y-106.625
X263.345Y-146.15
X264.37Y-166.947
X264.615Y-145.45
X265.3Y-150.6
X265.515Y-159.31
X265.964Y-116.4
X266.05Y-119.4
X266.279Y-110.15
X267.3Y-166.7
X268.192Y-120.03
X268.564Y-116.5
X268.629Y-110.323
X268.8Y-167.1
X270.335Y-121.25
X270.35Y-160.95
X270.6Y-167.15
X270.937Y-113.023
X271.414Y-119.7
X271.44Y-173.817
X272.125Y-148.71
X273.45Y-153.05
X274.0Y-122.9
X274.234Y-160.184
X274.25Y-118.4
X274.35Y-128.65
X275.564Y-106.65
X275.8Y-191.25
X275.8Y-194.65
X276.05Y-114.95
X276.7Y-151.4
X276.7Y-154.4
X277.25Y-191.25
X277.35Y-194.65
X277.9Y-123.95
X278.25Y-121.65
X279.15Y-117.1
X281.35Y-124.8
X283.55Y-128.55
X283.75Y-156.25
X283.8Y-149.5
X284.2Y-199.6
X285.35Y-200.7
X285.4Y-116.35
X289.6Y-117.7
X290.6Y-126.75
X290.807Y-121.543
X290.9Y-200.75
X292.05Y-199.6
X296.8Y-146.2
X297.05Y-140.6
X298.65Y-121.35
X298.8Y-191.3
X298.8Y-194.8
X300.4Y-191.3
X300.4Y-194.8
X301.1Y-143.445
X303.5Y-139.6
X303.5Y-141.05
X303.5Y-145.845
X303.5Y-147.2
T3
X279.9Y-308.83
X280.05Y-297.83
X281.7Y-303.83
X281.85Y-292.83
T4
X166.7Y-236.35
X172.3Y-236.35
X276.88Y-300.86
T5
X292.714Y-116.999
X292.714Y-119.539
X292.714Y-122.079
X292.714Y-124.619
X295.254Y-118.269
X295.254Y-120.809
X295.254Y-123.349
X295.254Y-125.889
T6
X118.7Y-76.53
X118.7Y-93.04
X118.7Y-109.55
X118.7Y-126.06
X118.7Y-142.57
X118.7Y-159.08
X118.7Y-175.59
X118.7Y-192.1
X118.7Y-208.61
X118.7Y-225.12
X118.7Y-241.63
X118.7Y-258.14
X118.7Y-274.65
X118.7Y-291.16
X118.7Y-307.67
X118.7Y-324.18
X121.24Y-76.53
X121.24Y-93.04
X121.24Y-109.55
X121.24Y-126.06
X121.24Y-142.57
X121.24Y-159.08
X121.24Y-175.59
X121.24Y-192.1
X121.24Y-208.61
X121.24Y-225.12
X121.24Y-241.63
X121.24Y-258.14
X121.24Y-274.65
X121.24Y-291.16
X121.24Y-307.67
X121.24Y-324.18
X123.78Y-76.53
X123.78Y-93.04
X123.78Y-109.55
X123.78Y-126.06
X123.78Y-142.57
X123.78Y-159.08
X123.78Y-175.59
X123.78Y-192.1
X123.78Y-208.61
X123.78Y-225.12
X123.78Y-241.63
X123.78Y-258.14
X123.78Y-274.65
X123.78Y-291.16
X123.78Y-307.67
X123.78Y-324.18
X126.32Y-76.53
X126.32Y-93.04
X126.32Y-109.55
X126.32Y-126.06
X126.32Y-142.57
X126.32Y-159.08
X126.32Y-175.59
X126.32Y-192.1
X126.32Y-208.61
X126.32Y-225.12
X126.32Y-241.63
X126.32Y-258.14
X126.32Y-274.65
X126.32Y-291.16
X126.32Y-307.67
X126.32Y-324.18
X166.7Y-76.53
X166.7Y-93.04
X166.7Y-109.55
X166.7Y-126.06
X166.7Y-142.57
X166.7Y-159.08
X166.7Y-175.59
X166.7Y-192.1
X166.7Y-208.61
X166.7Y-225.12
X166.7Y-241.63
X166.7Y-258.14
X166.7Y-274.65
X166.7Y-291.16
X166.7Y-307.67
X166.7Y-324.18
X169.24Y-76.53
X169.24Y-93.04
X169.24Y-109.55
X169.24Y-126.06
X169.24Y-142.57
X169.24Y-159.08
X169.24Y-175.59
X169.24Y-192.1
X169.24Y-208.61
X169.24Y-225.12
X169.24Y-241.63
X169.24Y-258.14
X169.24Y-274.65
X169.24Y-291.16
X169.24Y-307.67
X169.24Y-324.18
X171.78Y-76.53
X171.78Y-93.04
X171.78Y-109.55
X171.78Y-126.06
X171.78Y-142.57
X171.78Y-159.08
X171.78Y-175.59
X171.78Y-192.1
X171.78Y-208.61
X171.78Y-225.12
X171.78Y-241.63
X171.78Y-258.14
X171.78Y-274.65
X171.78Y-291.16
X171.78Y-307.67
X171.78Y-324.18
X174.32Y-76.53
X174.32Y-93.04
X174.32Y-109.55
X174.32Y-126.06
X174.32Y-142.57
X174.32Y-159.08
X174.32Y-175.59
X174.32Y-192.1
X174.32Y-208.61
X174.32Y-225.12
X174.32Y-241.63
X174.32Y-258.14
X174.32Y-274.65
X174.32Y-291.16
X174.32Y-307.67
X174.32Y-324.18
X252.95Y-322.43
X253.3Y-286.08
X262.95Y-322.43
X263.3Y-286.08
X278.27Y-318.98
X283.35Y-318.98
T7
X287.888Y-115.983
X287.888Y-118.523
X287.888Y-124.365
X287.888Y-126.905
T8
X251.95Y-294.88
X251.95Y-314.88
X264.45Y-294.88
X264.45Y-314.88
X268.05Y-208.1
X268.05Y-270.1
X276.55Y-208.1
X288.05Y-208.1
X288.05Y-270.1
X299.55Y-208.1
X308.05Y-270.1
T9
X85.067Y-72.72
X85.067Y-80.34
X85.067Y-89.23
X85.067Y-96.85
X85.067Y-105.74
X85.067Y-113.36
X85.067Y-122.25
X85.067Y-129.87
X85.067Y-138.76
X85.067Y-146.38
X85.067Y-155.27
X85.067Y-162.89
X85.067Y-171.78
X85.067Y-179.4
X85.067Y-188.29
X85.067Y-195.91
X85.067Y-204.8
X85.067Y-212.42
X85.067Y-221.31
X85.067Y-228.93
X85.067Y-237.82
X85.067Y-245.44
X85.067Y-254.33
X85.067Y-261.95
X85.067Y-270.84
X85.067Y-278.46
X85.067Y-287.35
X85.067Y-294.97
X85.067Y-303.86
X85.067Y-311.48
X85.067Y-320.37
X85.067Y-327.99
X291.76Y-292.83
X291.76Y-300.86
X291.76Y-308.83
T10
X298.556Y-113.443
X298.556Y-129.445
T11
X290.98Y-164.95
X290.98Y-169.65
X290.98Y-174.35
X295.81Y-164.95
X295.81Y-169.65
X295.81Y-174.35
T12
X306.145Y-140.555
X306.145Y-146.335
T13
X301.604Y-115.729
X301.604Y-127.159
T3
G00X305.095Y-139.125
M15
G01X306.195Y-139.125
M16
G05
G00X305.095Y-147.765
M15
G01X306.195Y-147.765
M16
G05
G00X309.425Y-139.125
M15
G01X310.225Y-139.125
M16
G05
G00X309.425Y-147.765
M15
G01X310.225Y-147.765
M16
G05
T0
M30
