0
SECTION
2
HEADER
9
$INSUNITS
70
4
9
$ACADVER
1
AC1014
9
$HANDSEED
5
FFFF
0
ENDSEC
0
SECTION
2
TABLES
0
TABLE
2
VPORT
5
8
100
AcDbSymbolTable
0
ENDTAB
0
TABLE
2
LTYPE
5
5
100
AcDbSymbolTable
0
LTYPE
5
14
100
AcDbSymbolTableRecord
100
AcDbLinetypeTableRecord
2
BYBLOCK
70
0
0
LTYPE
5
15
100
AcDbSymbolTableRecord
100
AcDbLinetypeTableRecord
2
BYLAYER
70
0
0
ENDTAB
0
TABLE
2
LAYER
5
2
100
AcDbSymbolTable
70
2
0
LAYER
5
50
100
AcDbSymbolTableRecord
100
AcDbLayerTableRecord
2
0
70
0
6
CONTINUOUS
0
ENDTAB
0
TABLE
2
STYLE
5
3
100
AcDbSymbolTable
70
1
0
STYLE
5
11
100
AcDbSymbolTableRecord
100
AcDbTextStyleTableRecord
2
STANDARD
70
0
0
ENDTAB
0
TABLE
2
VIEW
5
6
100
AcDbSymbolTable
70
0
0
ENDTAB
0
TABLE
2
UCS
5
7
100
AcDbSymbolTable
70
0
0
ENDTAB
0
TABLE
2
APPID
5
9
100
AcDbSymbolTable
70
2
0
APPID
5
12
100
AcDbSymbolTableRecord
100
AcDbRegAppTableRecord
2
ACAD
70
0
0
ENDTAB
0
TABLE
2
DIMSTYLE
5
A
100
AcDbSymbolTable
70
1
0
ENDTAB
0
TABLE
2
BLOCK_RECORD
5
1
100
AcDbSymbolTable
70
1
0
BLOCK_RECORD
5
1F
100
AcDbSymbolTableRecord
100
AcDbBlockTableRecord
2
*MODEL_SPACE
0
BLOCK_RECORD
5
1B
100
AcDbSymbolTableRecord
100
AcDbBlockTableRecord
2
*PAPER_SPACE
0
ENDTAB
0
ENDSEC
0
SECTION
2
BLOCKS
0
BLOCK
5
20
100
AcDbEntity
100
AcDbBlockBegin
2
*MODEL_SPACE
0
ENDBLK
5
21
100
AcDbEntity
100
AcDbBlockEnd
0
BLOCK
5
1C
100
AcDbEntity
100
AcDbBlockBegin
2
*PAPER_SPACE
0
ENDBLK
5
1D
100
AcDbEntity
100
AcDbBlockEnd
0
ENDSEC
0
SECTION
2
ENTITIES
0
LWPOLYLINE
5
100
100
AcDbEntity
8
0
100
AcDbPolyline
90
8
70
1
43
0.0
10
-4.6126645605624298e-17
20
189
10
0
20
142
42
0.41421356237309515
10
2
20
140
10
294.64999999999998
20
140
42
0.41421356237307422
10
296.64999999999998
20
142
10
296.64999999999998
20
189.00000000000003
42
0.41421356237310025
10
294.64999999999998
20
190.99999999999997
10
1.9999999999999929
20
191
42
0.41421356237309287
0
CIRCLE
5
101
100
AcDbEntity
8
0
100
AcDbCircle
10
4.924999999999998
20
180
30
0
40
2.2499999999999973
210
0
220
0
230
1
0
CIRCLE
5
102
100
AcDbEntity
8
0
100
AcDbCircle
10
4.9249999999999989
20
151
30
0
40
2.2499999999999973
210
0
220
0
230
1
0
CIRCLE
5
103
100
AcDbEntity
8
0
100
AcDbCircle
10
291.72500000000002
20
180
30
0
40
2.2499999999999973
210
0
220
0
230
1
0
CIRCLE
5
104
100
AcDbEntity
8
0
100
AcDbCircle
10
291.72500000000002
20
151
30
0
40
2.2499999999999973
210
0
220
0
230
1
0
LWPOLYLINE
5
105
100
AcDbEntity
8
0
100
AcDbPolyline
90
8
70
1
43
0.0
10
235.72500000000002
20
165.00000000000003
10
235.72500000000002
20
152
42
-0.41421356237312623
10
235.22500000000002
20
151.50000000000003
10
219.57001414002281
20
151.50000000000003
42
-0.41421388025989586
10
219.06984867118001
20
151.9998350192252
10
219.04855695089341
20
164.99980750224071
42
-0.41421390411453568
10
219.54836496260833
20
165.50000000000006
10
235.22500000000002
20
165.5
42
-0.41421356237303258
0
LWPOLYLINE
5
106
100
AcDbEntity
8
0
100
AcDbPolyline
90
8
70
1
43
0.0
10
202.42499999999995
20
151.5
42
-0.41421356237311241
10
200.92500000000001
20
152.99999999999991
10
200.92500000000001
20
154.00000000000003
42
-0.41421356237310197
10
202.42500000000004
20
155.5
10
208.42500000000001
20
155.5
42
-0.41421356237310197
10
209.92500000000004
20
154.00000000000003
10
209.92500000000004
20
153.00000000000003
42
-0.4142135623730846
10
208.42500000000001
20
151.50000000000003
0
LWPOLYLINE
5
107
100
AcDbEntity
8
0
100
AcDbPolyline
90
8
70
1
43
0.0
10
56.425000000000018
20
164.50000000000003
42
-0.41421356237309503
10
55.425000000000011
20
163.5
10
29.925000000000011
20
163.5
42
-0.41421356237309503
10
28.925000000000001
20
164.50000000000003
10
28.925000000000001
20
182.00000000000003
42
-0.41421356237309115
10
29.925000000000001
20
183.00000000000006
10
55.425000000000011
20
183
42
-0.41421356237307944
10
56.425000000000018
20
182.00000000000003
0
CIRCLE
5
108
100
AcDbEntity
8
0
100
AcDbCircle
10
62.925000000000011
20
172.90000000000003
30
0
40
1.7500000000000004
210
0
220
0
230
1
0
CIRCLE
5
109
100
AcDbEntity
8
0
100
AcDbCircle
10
22.425000000000001
20
172.89999999999998
30
0
40
1.7500000000000004
210
0
220
0
230
1
0
CIRCLE
5
110
100
AcDbEntity
8
0
100
AcDbCircle
10
291.72500000000002
20
208.9999999999998
30
0
40
2.2499999999999973
210
0
220
0
230
1
0
LINE
5
111
100
AcDbEntity
8
0
100
AcDbLine
10
17.425000000000001
20
209.50000000000003
30
0
11
279.22500000000002
21
209.50000000000003
31
0
0
ARC
5
112
100
AcDbEntity
8
0
100
AcDbCircle
10
17.425000000000018
20
211.00000000000006
30
0
40
1.5000000000000169
210
0
220
0
230
1
100
AcDbArc
50
180
51
269.99999999999932
0
ARC
5
113
100
AcDbEntity
8
0
100
AcDbCircle
10
279.22500000000008
20
211
30
0
40
1.4999999999999858
210
0
220
0
230
1
100
AcDbArc
50
-90.000000000002188
51
0
0
LWPOLYLINE
5
114
100
AcDbEntity
8
0
100
AcDbPolyline
90
8
70
1
43
0.0
10
2
20
198
10
294.64999999999998
20
198
42
0.41421356237307422
10
296.64999999999998
20
200
10
296.64999999999998
20
247.00000000000003
42
0.41421356237310542
10
294.64999999999998
20
249.00000000000009
10
2.0000000000000013
20
249.00000000000006
42
0.41421356237308915
10
1.3322676295501878e-14
20
247.00000000000003
10
-5.5511151231257827e-16
20
200
42
0.4142135623730962
0
CIRCLE
5
115
100
AcDbEntity
8
0
100
AcDbCircle
10
4.9250000000000043
20
238
30
0
40
2.2499999999999973
210
0
220
0
230
1
0
CIRCLE
5
116
100
AcDbEntity
8
0
100
AcDbCircle
10
291.72500000000002
20
238.00000000000023
30
0
40
2.2499999999999973
210
0
220
0
230
1
0
CIRCLE
5
117
100
AcDbEntity
8
0
100
AcDbCircle
10
4.924999999999998
20
209
30
0
40
2.2499999999999973
210
0
220
0
230
1
0
CIRCLE
5
118
100
AcDbEntity
8
0
100
AcDbCircle
10
-1.1102230246251563e-15
20
128.94999999999999
30
0
40
1.0000000000000009
210
0
220
0
230
1
0
LWPOLYLINE
5
119
100
AcDbEntity
8
0
100
AcDbPolyline
90
8
70
1
43
0.0
10
15.924999999999997
20
225.00000000000006
10
15.925000000000001
20
211
42
0.41421356237309503
10
17.425000000000001
20
209.50000000000003
10
279.22500000000002
20
209.50000000000003
42
0.41421356237309503
10
280.72499999999997
20
211
10
280.72499999999997
20
225.00000000000006
42
0.41421356237309503
10
279.22500000000002
20
226.50000000000006
10
17.425000000000001
20
226.50000000000006
42
0.41421356237309503
0
CIRCLE
5
120
100
AcDbEntity
8
0
100
AcDbCircle
10
167.03578284332977
20
172.75664295673067
30
0
40
3.1000000000000014
210
0
220
0
230
1
0
LINE
5
121
100
AcDbEntity
8
0
100
AcDbLine
10
165.70536937376477
20
169.95664295673066
30
0
11
168.36619631289477
21
169.95664295673066
31
0
0
ENDSEC
0
SECTION
2
OBJECTS
0
DICTIONARY
5
C
100
AcDbDictionary
3
ACAD_GROUP
350
D
3
ACAD_MLINESTYLE
350
17
0
DICTIONARY
5
D
100
AcDbDictionary
0
DICTIONARY
5
1A
330
C
100
AcDbDictionary
0
DICTIONARY
5
17
100
AcDbDictionary
0
ENDSEC
0
EOF
