%TF.GenerationSoftware,KiCad,Pcbnew,7.0.9*%
%TF.CreationDate,2024-10-04T13:57:54+02:00*%
%TF.ProjectId,espnow-sonda,6573706e-6f77-42d7-936f-6e64612e6b69,rev?*%
%TF.SameCoordinates,Original*%
%TF.FileFunction,Soldermask,Top*%
%TF.FilePolarity,Negative*%
%FSLAX46Y46*%
G04 Gerber Fmt 4.6, Leading zero omitted, Abs format (unit mm)*
G04 Created by KiCad (PCBNEW 7.0.9) date 2024-10-04 13:57:54*
%MOMM*%
%LPD*%
G01*
G04 APERTURE LIST*
G04 Aperture macros list*
%AMRoundRect*
0 Rectangle with rounded corners*
0 $1 Rounding radius*
0 $2 $3 $4 $5 $6 $7 $8 $9 X,Y pos of 4 corners*
0 Add a 4 corners polygon primitive as box body*
4,1,4,$2,$3,$4,$5,$6,$7,$8,$9,$2,$3,0*
0 Add four circle primitives for the rounded corners*
1,1,$1+$1,$2,$3*
1,1,$1+$1,$4,$5*
1,1,$1+$1,$6,$7*
1,1,$1+$1,$8,$9*
0 Add four rect primitives between the rounded corners*
20,1,$1+$1,$2,$3,$4,$5,0*
20,1,$1+$1,$4,$5,$6,$7,0*
20,1,$1+$1,$6,$7,$8,$9,0*
20,1,$1+$1,$8,$9,$2,$3,0*%
G04 Aperture macros list end*
%ADD10RoundRect,0.225000X0.250000X-0.225000X0.250000X0.225000X-0.250000X0.225000X-0.250000X-0.225000X0*%
%ADD11C,1.500000*%
%ADD12RoundRect,0.200000X-0.200000X-0.275000X0.200000X-0.275000X0.200000X0.275000X-0.200000X0.275000X0*%
%ADD13R,1.700000X1.700000*%
%ADD14O,1.700000X1.700000*%
%ADD15RoundRect,0.225000X-0.250000X0.225000X-0.250000X-0.225000X0.250000X-0.225000X0.250000X0.225000X0*%
%ADD16RoundRect,0.200000X0.275000X-0.200000X0.275000X0.200000X-0.275000X0.200000X-0.275000X-0.200000X0*%
%ADD17RoundRect,0.218750X-0.256250X0.218750X-0.256250X-0.218750X0.256250X-0.218750X0.256250X0.218750X0*%
%ADD18RoundRect,0.150000X-0.512500X-0.150000X0.512500X-0.150000X0.512500X0.150000X-0.512500X0.150000X0*%
%ADD19RoundRect,0.200000X-0.275000X0.200000X-0.275000X-0.200000X0.275000X-0.200000X0.275000X0.200000X0*%
%ADD20RoundRect,0.100000X-0.100000X0.625000X-0.100000X-0.625000X0.100000X-0.625000X0.100000X0.625000X0*%
%ADD21R,1.880000X1.680000*%
%ADD22RoundRect,0.225000X-0.225000X-0.250000X0.225000X-0.250000X0.225000X0.250000X-0.225000X0.250000X0*%
%ADD23RoundRect,0.218750X0.256250X-0.218750X0.256250X0.218750X-0.256250X0.218750X-0.256250X-0.218750X0*%
%ADD24R,0.900000X1.400000*%
%ADD25RoundRect,0.150000X-0.150000X0.512500X-0.150000X-0.512500X0.150000X-0.512500X0.150000X0.512500X0*%
%ADD26RoundRect,0.112500X0.112500X-0.187500X0.112500X0.187500X-0.112500X0.187500X-0.112500X-0.187500X0*%
%ADD27RoundRect,0.200000X0.200000X0.275000X-0.200000X0.275000X-0.200000X-0.275000X0.200000X-0.275000X0*%
%ADD28RoundRect,0.112500X-0.112500X0.187500X-0.112500X-0.187500X0.112500X-0.187500X0.112500X0.187500X0*%
%ADD29RoundRect,0.225000X0.225000X0.250000X-0.225000X0.250000X-0.225000X-0.250000X0.225000X-0.250000X0*%
%ADD30C,1.800000*%
G04 APERTURE END LIST*
D10*
%TO.C,C19*%
X97270000Y-44805000D03*
X97270000Y-43255000D03*
%TD*%
D11*
%TO.C,TP3*%
X89150000Y-43230000D03*
%TD*%
D12*
%TO.C,R21*%
X92775000Y-55000000D03*
X94425000Y-55000000D03*
%TD*%
D10*
%TO.C,C6*%
X56570000Y-59680000D03*
X56570000Y-58130000D03*
%TD*%
D13*
%TO.C,J2*%
X98200000Y-63930000D03*
D14*
X100740000Y-63930000D03*
X103280000Y-63930000D03*
X105820000Y-63930000D03*
%TD*%
D10*
%TO.C,C5*%
X54770000Y-59680000D03*
X54770000Y-58130000D03*
%TD*%
D15*
%TO.C,C15*%
X96562500Y-58255000D03*
X96562500Y-59805000D03*
%TD*%
D11*
%TO.C,TP1*%
X58650000Y-45030000D03*
%TD*%
D16*
%TO.C,R8*%
X56570000Y-48475000D03*
X56570000Y-46825000D03*
%TD*%
D17*
%TO.C,L1*%
X90870000Y-45622500D03*
X90870000Y-47197500D03*
%TD*%
D18*
%TO.C,U4*%
X99232500Y-43080000D03*
X99232500Y-44980000D03*
X101507500Y-44030000D03*
%TD*%
D19*
%TO.C,R5*%
X51150000Y-54855000D03*
X51150000Y-56505000D03*
%TD*%
D20*
%TO.C,U1*%
X88050000Y-49480000D03*
X87400000Y-49480000D03*
X86750000Y-49480000D03*
X86100000Y-49480000D03*
X86100000Y-53780000D03*
X86750000Y-53780000D03*
X87400000Y-53780000D03*
X88050000Y-53780000D03*
D21*
X87075000Y-51630000D03*
%TD*%
D19*
%TO.C,R16*%
X81600000Y-51230000D03*
X81600000Y-52880000D03*
%TD*%
D16*
%TO.C,R22*%
X101150000Y-52180000D03*
X101150000Y-50530000D03*
%TD*%
D15*
%TO.C,C2*%
X54770000Y-43525000D03*
X54770000Y-45075000D03*
%TD*%
D12*
%TO.C,R18*%
X86175000Y-56630000D03*
X87825000Y-56630000D03*
%TD*%
D22*
%TO.C,C10*%
X86225000Y-58330000D03*
X87775000Y-58330000D03*
%TD*%
D16*
%TO.C,R4*%
X51150000Y-48475000D03*
X51150000Y-46825000D03*
%TD*%
D12*
%TO.C,R19*%
X92625000Y-48600000D03*
X94275000Y-48600000D03*
%TD*%
D23*
%TO.C,L2*%
X91100000Y-58287500D03*
X91100000Y-56712500D03*
%TD*%
D24*
%TO.C,C4*%
X52980000Y-59275000D03*
X49080000Y-59275000D03*
%TD*%
D11*
%TO.C,TP2*%
X58650000Y-58130000D03*
%TD*%
D19*
%TO.C,R7*%
X54770000Y-46825000D03*
X54770000Y-48475000D03*
%TD*%
D13*
%TO.C,J1*%
X50200000Y-63930000D03*
D14*
X52740000Y-63930000D03*
X55280000Y-63930000D03*
X57820000Y-63930000D03*
%TD*%
D25*
%TO.C,U3*%
X98190000Y-50582500D03*
X97240000Y-50582500D03*
X96290000Y-50582500D03*
X96290000Y-52857500D03*
X97240000Y-52857500D03*
X98190000Y-52857500D03*
%TD*%
D16*
%TO.C,R26*%
X78075000Y-46675000D03*
X78075000Y-45025000D03*
%TD*%
D10*
%TO.C,C11*%
X102900000Y-52130000D03*
X102900000Y-50580000D03*
%TD*%
D19*
%TO.C,R10*%
X56570000Y-54855000D03*
X56570000Y-56505000D03*
%TD*%
D16*
%TO.C,R11*%
X54770000Y-56505000D03*
X54770000Y-54855000D03*
%TD*%
D19*
%TO.C,R15*%
X83250000Y-51230000D03*
X83250000Y-52880000D03*
%TD*%
D26*
%TO.C,D1*%
X68700000Y-47130000D03*
X68700000Y-45030000D03*
%TD*%
D11*
%TO.C,TP4*%
X89450000Y-59880000D03*
%TD*%
D16*
%TO.C,R6*%
X52950000Y-48475000D03*
X52950000Y-46825000D03*
%TD*%
D15*
%TO.C,C14*%
X102737500Y-58205000D03*
X102737500Y-59755000D03*
%TD*%
D16*
%TO.C,R1*%
X68700000Y-52505000D03*
X68700000Y-50855000D03*
%TD*%
D22*
%TO.C,C9*%
X87600000Y-45530000D03*
X89150000Y-45530000D03*
%TD*%
D19*
%TO.C,R25*%
X80600000Y-56450000D03*
X80600000Y-58100000D03*
%TD*%
D12*
%TO.C,R24*%
X92775000Y-56950000D03*
X94425000Y-56950000D03*
%TD*%
D19*
%TO.C,R3*%
X68700000Y-61105000D03*
X68700000Y-62755000D03*
%TD*%
D27*
%TO.C,R20*%
X94325000Y-50450000D03*
X92675000Y-50450000D03*
%TD*%
D19*
%TO.C,R12*%
X52950000Y-54855000D03*
X52950000Y-56505000D03*
%TD*%
D12*
%TO.C,R17*%
X87562500Y-47230000D03*
X89212500Y-47230000D03*
%TD*%
D18*
%TO.C,U2*%
X98562500Y-58080000D03*
X98562500Y-59980000D03*
X100837500Y-59030000D03*
%TD*%
D12*
%TO.C,R14*%
X82525000Y-57980000D03*
X84175000Y-57980000D03*
%TD*%
D26*
%TO.C,D4*%
X78400000Y-58130000D03*
X78400000Y-56030000D03*
%TD*%
D28*
%TO.C,D3*%
X68700000Y-56030000D03*
X68700000Y-58130000D03*
%TD*%
D29*
%TO.C,C13*%
X98840000Y-48657500D03*
X97290000Y-48657500D03*
%TD*%
D22*
%TO.C,C8*%
X82575000Y-56180000D03*
X84125000Y-56180000D03*
%TD*%
D15*
%TO.C,C3*%
X56570000Y-43525000D03*
X56570000Y-45075000D03*
%TD*%
D12*
%TO.C,R23*%
X104200000Y-55767500D03*
X105850000Y-55767500D03*
%TD*%
D24*
%TO.C,C1*%
X52980000Y-43930000D03*
X49080000Y-43930000D03*
%TD*%
D22*
%TO.C,C17*%
X82675000Y-49130000D03*
X84225000Y-49130000D03*
%TD*%
D28*
%TO.C,D2*%
X80425000Y-45025000D03*
X80425000Y-47125000D03*
%TD*%
D22*
%TO.C,C12*%
X98240000Y-54582500D03*
X99790000Y-54582500D03*
%TD*%
D30*
%TO.C,R9*%
X61175000Y-60005000D03*
X66235000Y-52385000D03*
X61175000Y-47305000D03*
%TD*%
D22*
%TO.C,C7*%
X83300000Y-47075000D03*
X84850000Y-47075000D03*
%TD*%
D15*
%TO.C,C18*%
X103395000Y-43205000D03*
X103395000Y-44755000D03*
%TD*%
D12*
%TO.C,R13*%
X83250000Y-45075000D03*
X84900000Y-45075000D03*
%TD*%
D15*
%TO.C,C16*%
X89800000Y-52525000D03*
X89800000Y-54075000D03*
%TD*%
D30*
%TO.C,R2*%
X71025000Y-60005000D03*
X76085000Y-52385000D03*
X71025000Y-47305000D03*
%TD*%
D11*
%TO.C,TP5*%
X105150000Y-51080000D03*
%TD*%
M02*
