%TF.GenerationSoftware,KiCad,Pcbnew,7.0.9*%
%TF.CreationDate,2024-10-04T13:57:53+02:00*%
%TF.ProjectId,espnow-sonda,6573706e-6f77-42d7-936f-6e64612e6b69,rev?*%
%TF.SameCoordinates,Original*%
%TF.FileFunction,Copper,L1,Top*%
%TF.FilePolarity,Positive*%
%FSLAX46Y46*%
G04 Gerber Fmt 4.6, Leading zero omitted, Abs format (unit mm)*
G04 Created by KiCad (PCBNEW 7.0.9) date 2024-10-04 13:57:53*
%MOMM*%
%LPD*%
G01*
G04 APERTURE LIST*
G04 Aperture macros list*
%AMRoundRect*
0 Rectangle with rounded corners*
0 $1 Rounding radius*
0 $2 $3 $4 $5 $6 $7 $8 $9 X,Y pos of 4 corners*
0 Add a 4 corners polygon primitive as box body*
4,1,4,$2,$3,$4,$5,$6,$7,$8,$9,$2,$3,0*
0 Add four circle primitives for the rounded corners*
1,1,$1+$1,$2,$3*
1,1,$1+$1,$4,$5*
1,1,$1+$1,$6,$7*
1,1,$1+$1,$8,$9*
0 Add four rect primitives between the rounded corners*
20,1,$1+$1,$2,$3,$4,$5,0*
20,1,$1+$1,$4,$5,$6,$7,0*
20,1,$1+$1,$6,$7,$8,$9,0*
20,1,$1+$1,$8,$9,$2,$3,0*%
G04 Aperture macros list end*
%TA.AperFunction,SMDPad,CuDef*%
%ADD10RoundRect,0.225000X0.250000X-0.225000X0.250000X0.225000X-0.250000X0.225000X-0.250000X-0.225000X0*%
%TD*%
%TA.AperFunction,SMDPad,CuDef*%
%ADD11C,1.500000*%
%TD*%
%TA.AperFunction,SMDPad,CuDef*%
%ADD12RoundRect,0.200000X-0.200000X-0.275000X0.200000X-0.275000X0.200000X0.275000X-0.200000X0.275000X0*%
%TD*%
%TA.AperFunction,ComponentPad*%
%ADD13R,1.700000X1.700000*%
%TD*%
%TA.AperFunction,ComponentPad*%
%ADD14O,1.700000X1.700000*%
%TD*%
%TA.AperFunction,SMDPad,CuDef*%
%ADD15RoundRect,0.225000X-0.250000X0.225000X-0.250000X-0.225000X0.250000X-0.225000X0.250000X0.225000X0*%
%TD*%
%TA.AperFunction,SMDPad,CuDef*%
%ADD16RoundRect,0.200000X0.275000X-0.200000X0.275000X0.200000X-0.275000X0.200000X-0.275000X-0.200000X0*%
%TD*%
%TA.AperFunction,SMDPad,CuDef*%
%ADD17RoundRect,0.218750X-0.256250X0.218750X-0.256250X-0.218750X0.256250X-0.218750X0.256250X0.218750X0*%
%TD*%
%TA.AperFunction,SMDPad,CuDef*%
%ADD18RoundRect,0.150000X-0.512500X-0.150000X0.512500X-0.150000X0.512500X0.150000X-0.512500X0.150000X0*%
%TD*%
%TA.AperFunction,SMDPad,CuDef*%
%ADD19RoundRect,0.200000X-0.275000X0.200000X-0.275000X-0.200000X0.275000X-0.200000X0.275000X0.200000X0*%
%TD*%
%TA.AperFunction,SMDPad,CuDef*%
%ADD20RoundRect,0.100000X-0.100000X0.625000X-0.100000X-0.625000X0.100000X-0.625000X0.100000X0.625000X0*%
%TD*%
%TA.AperFunction,SMDPad,CuDef*%
%ADD21R,1.880000X1.680000*%
%TD*%
%TA.AperFunction,SMDPad,CuDef*%
%ADD22RoundRect,0.225000X-0.225000X-0.250000X0.225000X-0.250000X0.225000X0.250000X-0.225000X0.250000X0*%
%TD*%
%TA.AperFunction,SMDPad,CuDef*%
%ADD23RoundRect,0.218750X0.256250X-0.218750X0.256250X0.218750X-0.256250X0.218750X-0.256250X-0.218750X0*%
%TD*%
%TA.AperFunction,SMDPad,CuDef*%
%ADD24R,0.900000X1.400000*%
%TD*%
%TA.AperFunction,SMDPad,CuDef*%
%ADD25RoundRect,0.150000X-0.150000X0.512500X-0.150000X-0.512500X0.150000X-0.512500X0.150000X0.512500X0*%
%TD*%
%TA.AperFunction,SMDPad,CuDef*%
%ADD26RoundRect,0.112500X0.112500X-0.187500X0.112500X0.187500X-0.112500X0.187500X-0.112500X-0.187500X0*%
%TD*%
%TA.AperFunction,SMDPad,CuDef*%
%ADD27RoundRect,0.200000X0.200000X0.275000X-0.200000X0.275000X-0.200000X-0.275000X0.200000X-0.275000X0*%
%TD*%
%TA.AperFunction,SMDPad,CuDef*%
%ADD28RoundRect,0.112500X-0.112500X0.187500X-0.112500X-0.187500X0.112500X-0.187500X0.112500X0.187500X0*%
%TD*%
%TA.AperFunction,SMDPad,CuDef*%
%ADD29RoundRect,0.225000X0.225000X0.250000X-0.225000X0.250000X-0.225000X-0.250000X0.225000X-0.250000X0*%
%TD*%
%TA.AperFunction,ComponentPad*%
%ADD30C,1.800000*%
%TD*%
%TA.AperFunction,ViaPad*%
%ADD31C,0.800000*%
%TD*%
%TA.AperFunction,Conductor*%
%ADD32C,0.400000*%
%TD*%
%TA.AperFunction,Conductor*%
%ADD33C,0.250000*%
%TD*%
%TA.AperFunction,Conductor*%
%ADD34C,0.500000*%
%TD*%
%TA.AperFunction,Conductor*%
%ADD35C,0.350000*%
%TD*%
G04 APERTURE END LIST*
D10*
%TO.P,C19,1,1*%
%TO.N,GND*%
X97270000Y-44805000D03*
%TO.P,C19,2,2*%
%TO.N,-4V8*%
X97270000Y-43255000D03*
%TD*%
D11*
%TO.P,TP3,1,TP*%
%TO.N,Net-(TP3-TP)*%
X89150000Y-43230000D03*
%TD*%
D12*
%TO.P,R21,1,1*%
%TO.N,Net-(L2-Pad2)*%
X92775000Y-55000000D03*
%TO.P,R21,2,2*%
%TO.N,Net-(U3--)*%
X94425000Y-55000000D03*
%TD*%
D10*
%TO.P,C6,1,1*%
%TO.N,GND*%
X56570000Y-59680000D03*
%TO.P,C6,2,2*%
%TO.N,Net-(TP2-TP)*%
X56570000Y-58130000D03*
%TD*%
D13*
%TO.P,J2,1,Pin_1*%
%TO.N,/VCC5V*%
X98200000Y-63930000D03*
D14*
%TO.P,J2,2,Pin_2*%
%TO.N,/VEE-5V*%
X100740000Y-63930000D03*
%TO.P,J2,3,Pin_3*%
%TO.N,GND*%
X103280000Y-63930000D03*
%TO.P,J2,4,Pin_4*%
%TO.N,/VOUT*%
X105820000Y-63930000D03*
%TD*%
D10*
%TO.P,C5,1,1*%
%TO.N,GND*%
X54770000Y-59680000D03*
%TO.P,C5,2,2*%
%TO.N,Net-(TP2-TP)*%
X54770000Y-58130000D03*
%TD*%
D15*
%TO.P,C15,1,1*%
%TO.N,GND*%
X96562500Y-58255000D03*
%TO.P,C15,2,2*%
%TO.N,4V8*%
X96562500Y-59805000D03*
%TD*%
D11*
%TO.P,TP1,1,TP*%
%TO.N,Net-(TP1-TP)*%
X58650000Y-45030000D03*
%TD*%
D16*
%TO.P,R8,1,1*%
%TO.N,Net-(R8-Pad1)*%
X56570000Y-48475000D03*
%TO.P,R8,2,2*%
%TO.N,Net-(R7-Pad1)*%
X56570000Y-46825000D03*
%TD*%
D17*
%TO.P,L1,1,1*%
%TO.N,Net-(TP3-TP)*%
X90870000Y-45622500D03*
%TO.P,L1,2,2*%
%TO.N,Net-(L1-Pad2)*%
X90870000Y-47197500D03*
%TD*%
D18*
%TO.P,U4,1,VO*%
%TO.N,-4V8*%
X99232500Y-43080000D03*
%TO.P,U4,2,GND*%
%TO.N,GND*%
X99232500Y-44980000D03*
%TO.P,U4,3,VI*%
%TO.N,/VEE-5V*%
X101507500Y-44030000D03*
%TD*%
D19*
%TO.P,R5,1,1*%
%TO.N,/IN_N*%
X51150000Y-54855000D03*
%TO.P,R5,2,2*%
%TO.N,Net-(TP2-TP)*%
X51150000Y-56505000D03*
%TD*%
D20*
%TO.P,U1,1*%
%TO.N,Net-(TP3-TP)*%
X88050000Y-49480000D03*
%TO.P,U1,2,-*%
%TO.N,Net-(U1A--)*%
X87400000Y-49480000D03*
%TO.P,U1,3,+*%
%TO.N,Net-(U1A-+)*%
X86750000Y-49480000D03*
%TO.P,U1,4,V-*%
%TO.N,-4V8*%
X86100000Y-49480000D03*
%TO.P,U1,5,+*%
%TO.N,Net-(U1B-+)*%
X86100000Y-53780000D03*
%TO.P,U1,6,-*%
%TO.N,Net-(U1B--)*%
X86750000Y-53780000D03*
%TO.P,U1,7*%
%TO.N,Net-(TP4-TP)*%
X87400000Y-53780000D03*
%TO.P,U1,8,V+*%
%TO.N,4V8*%
X88050000Y-53780000D03*
D21*
%TO.P,U1,9,V-*%
%TO.N,-4V8*%
X87075000Y-51630000D03*
%TD*%
D19*
%TO.P,R16,1*%
%TO.N,Net-(U1A--)*%
X81600000Y-51230000D03*
%TO.P,R16,2*%
%TO.N,Net-(U1B--)*%
X81600000Y-52880000D03*
%TD*%
D16*
%TO.P,R22,1,1*%
%TO.N,Net-(U3--)*%
X101150000Y-52180000D03*
%TO.P,R22,2,2*%
%TO.N,/VOUT*%
X101150000Y-50530000D03*
%TD*%
D15*
%TO.P,C2,1,1*%
%TO.N,GND*%
X54770000Y-43525000D03*
%TO.P,C2,2,2*%
%TO.N,Net-(TP1-TP)*%
X54770000Y-45075000D03*
%TD*%
D12*
%TO.P,R18,1,1*%
%TO.N,Net-(U1B--)*%
X86175000Y-56630000D03*
%TO.P,R18,2,2*%
%TO.N,Net-(TP4-TP)*%
X87825000Y-56630000D03*
%TD*%
D22*
%TO.P,C10,1,1*%
%TO.N,Net-(U1B--)*%
X86225000Y-58330000D03*
%TO.P,C10,2,2*%
%TO.N,Net-(TP4-TP)*%
X87775000Y-58330000D03*
%TD*%
D16*
%TO.P,R4,1,1*%
%TO.N,/IN_P*%
X51150000Y-48475000D03*
%TO.P,R4,2,2*%
%TO.N,Net-(TP1-TP)*%
X51150000Y-46825000D03*
%TD*%
D12*
%TO.P,R19,1,1*%
%TO.N,Net-(L1-Pad2)*%
X92625000Y-48600000D03*
%TO.P,R19,2,2*%
%TO.N,Net-(U3-+)*%
X94275000Y-48600000D03*
%TD*%
D23*
%TO.P,L2,1,1*%
%TO.N,Net-(TP4-TP)*%
X91100000Y-58287500D03*
%TO.P,L2,2,2*%
%TO.N,Net-(L2-Pad2)*%
X91100000Y-56712500D03*
%TD*%
D24*
%TO.P,C4,1,1*%
%TO.N,Net-(TP2-TP)*%
X52980000Y-59275000D03*
%TO.P,C4,2,2*%
%TO.N,GND*%
X49080000Y-59275000D03*
%TD*%
D11*
%TO.P,TP2,1,TP*%
%TO.N,Net-(TP2-TP)*%
X58650000Y-58130000D03*
%TD*%
D19*
%TO.P,R7,1,1*%
%TO.N,Net-(R7-Pad1)*%
X54770000Y-46825000D03*
%TO.P,R7,2,2*%
%TO.N,Net-(R6-Pad1)*%
X54770000Y-48475000D03*
%TD*%
D13*
%TO.P,J1,1,Pin_1*%
%TO.N,GND*%
X50200000Y-63930000D03*
D14*
%TO.P,J1,2,Pin_2*%
%TO.N,/IN_P*%
X52740000Y-63930000D03*
%TO.P,J1,3,Pin_3*%
%TO.N,/IN_N*%
X55280000Y-63930000D03*
%TO.P,J1,4,Pin_4*%
%TO.N,GND*%
X57820000Y-63930000D03*
%TD*%
D25*
%TO.P,U3,1*%
%TO.N,/VOUT*%
X98190000Y-50582500D03*
%TO.P,U3,2,V-*%
%TO.N,-4V8*%
X97240000Y-50582500D03*
%TO.P,U3,3,+*%
%TO.N,Net-(U3-+)*%
X96290000Y-50582500D03*
%TO.P,U3,4,-*%
%TO.N,Net-(U3--)*%
X96290000Y-52857500D03*
%TO.P,U3,5,~{DISABLE}*%
%TO.N,unconnected-(U3-~{DISABLE}-Pad5)*%
X97240000Y-52857500D03*
%TO.P,U3,6,V+*%
%TO.N,4V8*%
X98190000Y-52857500D03*
%TD*%
D16*
%TO.P,R26,1,1*%
%TO.N,Net-(R2-Pad2)*%
X78075000Y-46675000D03*
%TO.P,R26,2,2*%
%TO.N,Net-(TP1-TP)*%
X78075000Y-45025000D03*
%TD*%
D10*
%TO.P,C11,1,1*%
%TO.N,Net-(U3--)*%
X102900000Y-52130000D03*
%TO.P,C11,2,2*%
%TO.N,/VOUT*%
X102900000Y-50580000D03*
%TD*%
D19*
%TO.P,R10,1,1*%
%TO.N,Net-(R10-Pad1)*%
X56570000Y-54855000D03*
%TO.P,R10,2,2*%
%TO.N,Net-(R10-Pad2)*%
X56570000Y-56505000D03*
%TD*%
D16*
%TO.P,R11,1,1*%
%TO.N,Net-(R10-Pad2)*%
X54770000Y-56505000D03*
%TO.P,R11,2,2*%
%TO.N,Net-(R11-Pad2)*%
X54770000Y-54855000D03*
%TD*%
D19*
%TO.P,R15,1*%
%TO.N,Net-(U1A--)*%
X83250000Y-51230000D03*
%TO.P,R15,2*%
%TO.N,Net-(U1B--)*%
X83250000Y-52880000D03*
%TD*%
D26*
%TO.P,D1,1,1*%
%TO.N,4V8*%
X68700000Y-47130000D03*
%TO.P,D1,2,2*%
%TO.N,Net-(TP1-TP)*%
X68700000Y-45030000D03*
%TD*%
D11*
%TO.P,TP4,1,TP*%
%TO.N,Net-(TP4-TP)*%
X89450000Y-59880000D03*
%TD*%
D16*
%TO.P,R6,1,1*%
%TO.N,Net-(R6-Pad1)*%
X52950000Y-48475000D03*
%TO.P,R6,2,2*%
%TO.N,Net-(TP1-TP)*%
X52950000Y-46825000D03*
%TD*%
D15*
%TO.P,C14,1,1*%
%TO.N,GND*%
X102737500Y-58205000D03*
%TO.P,C14,2,2*%
%TO.N,/VCC5V*%
X102737500Y-59755000D03*
%TD*%
D16*
%TO.P,R1,1,1*%
%TO.N,4V8*%
X68700000Y-52505000D03*
%TO.P,R1,2,2*%
%TO.N,Net-(R1-Pad2)*%
X68700000Y-50855000D03*
%TD*%
D22*
%TO.P,C9,1,1*%
%TO.N,Net-(U1A--)*%
X87600000Y-45530000D03*
%TO.P,C9,2,2*%
%TO.N,Net-(TP3-TP)*%
X89150000Y-45530000D03*
%TD*%
D19*
%TO.P,R25,1,1*%
%TO.N,GND*%
X80600000Y-56450000D03*
%TO.P,R25,2,2*%
%TO.N,Net-(TP2-TP)*%
X80600000Y-58100000D03*
%TD*%
D12*
%TO.P,R24,1,1*%
%TO.N,GND*%
X92775000Y-56950000D03*
%TO.P,R24,2,2*%
%TO.N,Net-(U3--)*%
X94425000Y-56950000D03*
%TD*%
D19*
%TO.P,R3,1,1*%
%TO.N,Net-(R2-Pad1)*%
X68700000Y-61105000D03*
%TO.P,R3,2,2*%
%TO.N,-4V8*%
X68700000Y-62755000D03*
%TD*%
D27*
%TO.P,R20,1,1*%
%TO.N,Net-(U3-+)*%
X94325000Y-50450000D03*
%TO.P,R20,2,2*%
%TO.N,GND*%
X92675000Y-50450000D03*
%TD*%
D19*
%TO.P,R12,1,1*%
%TO.N,Net-(R11-Pad2)*%
X52950000Y-54855000D03*
%TO.P,R12,2,2*%
%TO.N,Net-(TP2-TP)*%
X52950000Y-56505000D03*
%TD*%
D12*
%TO.P,R17,1,1*%
%TO.N,Net-(U1A--)*%
X87562500Y-47230000D03*
%TO.P,R17,2,2*%
%TO.N,Net-(TP3-TP)*%
X89212500Y-47230000D03*
%TD*%
D18*
%TO.P,U2,1,GND*%
%TO.N,GND*%
X98562500Y-58080000D03*
%TO.P,U2,2,VO*%
%TO.N,4V8*%
X98562500Y-59980000D03*
%TO.P,U2,3,VI*%
%TO.N,/VCC5V*%
X100837500Y-59030000D03*
%TD*%
D12*
%TO.P,R14,1,1*%
%TO.N,Net-(TP2-TP)*%
X82525000Y-57980000D03*
%TO.P,R14,2,2*%
%TO.N,Net-(U1B-+)*%
X84175000Y-57980000D03*
%TD*%
D26*
%TO.P,D4,1,1*%
%TO.N,Net-(TP2-TP)*%
X78400000Y-58130000D03*
%TO.P,D4,2,2*%
%TO.N,-4V8*%
X78400000Y-56030000D03*
%TD*%
D28*
%TO.P,D3,1,1*%
%TO.N,4V8*%
X68700000Y-56030000D03*
%TO.P,D3,2,2*%
%TO.N,Net-(TP2-TP)*%
X68700000Y-58130000D03*
%TD*%
D29*
%TO.P,C13,1,1*%
%TO.N,GND*%
X98840000Y-48657500D03*
%TO.P,C13,2,2*%
%TO.N,-4V8*%
X97290000Y-48657500D03*
%TD*%
D22*
%TO.P,C8,1,1*%
%TO.N,GND*%
X82575000Y-56180000D03*
%TO.P,C8,2,2*%
%TO.N,Net-(U1B-+)*%
X84125000Y-56180000D03*
%TD*%
D15*
%TO.P,C3,1,1*%
%TO.N,GND*%
X56570000Y-43525000D03*
%TO.P,C3,2,2*%
%TO.N,Net-(TP1-TP)*%
X56570000Y-45075000D03*
%TD*%
D12*
%TO.P,R23,1,1*%
%TO.N,GND*%
X104200000Y-55767500D03*
%TO.P,R23,2,2*%
%TO.N,/VOUT*%
X105850000Y-55767500D03*
%TD*%
D24*
%TO.P,C1,1,1*%
%TO.N,Net-(TP1-TP)*%
X52980000Y-43930000D03*
%TO.P,C1,2,2*%
%TO.N,GND*%
X49080000Y-43930000D03*
%TD*%
D22*
%TO.P,C17,1,1*%
%TO.N,GND*%
X82675000Y-49130000D03*
%TO.P,C17,2,2*%
%TO.N,-4V8*%
X84225000Y-49130000D03*
%TD*%
D28*
%TO.P,D2,1,1*%
%TO.N,Net-(TP1-TP)*%
X80425000Y-45025000D03*
%TO.P,D2,2,2*%
%TO.N,-4V8*%
X80425000Y-47125000D03*
%TD*%
D22*
%TO.P,C12,1,1*%
%TO.N,GND*%
X98240000Y-54582500D03*
%TO.P,C12,2,2*%
%TO.N,4V8*%
X99790000Y-54582500D03*
%TD*%
D30*
%TO.P,R9,1,1*%
%TO.N,Net-(R10-Pad1)*%
X61175000Y-60005000D03*
%TO.P,R9,2,2*%
%TO.N,GND*%
X66235000Y-52385000D03*
%TO.P,R9,3,3*%
%TO.N,Net-(R8-Pad1)*%
X61175000Y-47305000D03*
%TD*%
D22*
%TO.P,C7,1,1*%
%TO.N,GND*%
X83300000Y-47075000D03*
%TO.P,C7,2,2*%
%TO.N,Net-(U1A-+)*%
X84850000Y-47075000D03*
%TD*%
D15*
%TO.P,C18,1,1*%
%TO.N,GND*%
X103395000Y-43205000D03*
%TO.P,C18,2,2*%
%TO.N,/VEE-5V*%
X103395000Y-44755000D03*
%TD*%
D12*
%TO.P,R13,1,1*%
%TO.N,Net-(TP1-TP)*%
X83250000Y-45075000D03*
%TO.P,R13,2,2*%
%TO.N,Net-(U1A-+)*%
X84900000Y-45075000D03*
%TD*%
D15*
%TO.P,C16,1,1*%
%TO.N,GND*%
X89800000Y-52525000D03*
%TO.P,C16,2,2*%
%TO.N,4V8*%
X89800000Y-54075000D03*
%TD*%
D30*
%TO.P,R2,1,1*%
%TO.N,Net-(R2-Pad1)*%
X71025000Y-60005000D03*
%TO.P,R2,2,2*%
%TO.N,Net-(R2-Pad2)*%
X76085000Y-52385000D03*
%TO.P,R2,3,3*%
%TO.N,Net-(R1-Pad2)*%
X71025000Y-47305000D03*
%TD*%
D11*
%TO.P,TP5,1,TP*%
%TO.N,/VOUT*%
X105150000Y-51080000D03*
%TD*%
D31*
%TO.N,GND*%
X58650000Y-43130000D03*
X96275000Y-44850000D03*
X78825000Y-48375000D03*
X97200000Y-54582500D03*
X104237500Y-58580000D03*
X51150000Y-42530000D03*
X95650000Y-62430000D03*
X49100000Y-47780000D03*
X97500000Y-58050000D03*
X99875000Y-44050000D03*
X72500000Y-56730000D03*
X68700000Y-43580000D03*
X87100000Y-59630000D03*
X85550000Y-63000000D03*
X100050000Y-48650000D03*
X95650000Y-48780000D03*
X57750000Y-59650000D03*
X94400000Y-59380000D03*
X107350000Y-61330000D03*
X81500000Y-55375000D03*
X68700000Y-59530000D03*
X99750000Y-58050000D03*
X104200000Y-54500000D03*
X49100000Y-58000000D03*
X58850000Y-51730000D03*
X91520000Y-49980000D03*
X52950000Y-51730000D03*
X92550000Y-53200000D03*
X88700000Y-52500000D03*
X104400000Y-49130000D03*
X67300000Y-64280000D03*
X82650000Y-48150000D03*
X87050000Y-44030000D03*
X49050000Y-60450000D03*
X49050000Y-42650000D03*
X107250000Y-50980000D03*
X49050000Y-45300000D03*
X99600000Y-56900000D03*
X48700000Y-51980000D03*
X79250000Y-43675000D03*
X80200000Y-51930000D03*
X75500000Y-46725000D03*
X104720000Y-43555000D03*
X92750000Y-58100000D03*
X98150000Y-44950000D03*
X96550000Y-57030000D03*
X83350000Y-59430000D03*
X56600000Y-60800000D03*
%TO.N,4V8*%
X90550000Y-55330000D03*
X99600000Y-52230000D03*
X67950000Y-55000000D03*
X96550000Y-60980000D03*
%TO.N,-4V8*%
X69700000Y-62750000D03*
X78400000Y-56900000D03*
%TO.N,/VEE-5V*%
X103400000Y-46030000D03*
%TO.N,/IN_P*%
X51150000Y-49880000D03*
%TO.N,/IN_N*%
X51200000Y-53530000D03*
%TO.N,Net-(R10-Pad1)*%
X58750000Y-54855000D03*
%TO.N,Net-(U1A--)*%
X84650000Y-50780000D03*
X86700000Y-47230000D03*
%TO.N,Net-(U1B--)*%
X84650000Y-53530000D03*
X86400000Y-55330000D03*
%TD*%
D32*
%TO.N,GND*%
X81500000Y-55375000D02*
X81770000Y-55375000D01*
D33*
X104720000Y-43555000D02*
X104770000Y-43555000D01*
D32*
X99232500Y-44980000D02*
X97445000Y-44980000D01*
D34*
X99720000Y-58080000D02*
X99750000Y-58050000D01*
D32*
X99875000Y-44050000D02*
X99875000Y-44000000D01*
X92775000Y-58075000D02*
X92750000Y-58100000D01*
X97200000Y-54582500D02*
X98240000Y-54582500D01*
D33*
X96737500Y-58080000D02*
X96562500Y-58255000D01*
D34*
X96562500Y-58255000D02*
X96562500Y-57042500D01*
D32*
X99825000Y-44050000D02*
X99875000Y-44050000D01*
D34*
X97500000Y-58050000D02*
X97470000Y-58080000D01*
D33*
X104770000Y-43555000D02*
X104720000Y-43505000D01*
X104720000Y-43505000D02*
X104720000Y-43555000D01*
D32*
X81500000Y-55550000D02*
X80600000Y-56450000D01*
X99875000Y-44000000D02*
X100670000Y-43205000D01*
D34*
X97530000Y-58080000D02*
X97500000Y-58050000D01*
X98562500Y-58080000D02*
X99720000Y-58080000D01*
D33*
X56400000Y-59680000D02*
X54500000Y-59680000D01*
D32*
X83300000Y-47075000D02*
X82625000Y-47750000D01*
D34*
X97470000Y-58080000D02*
X96737500Y-58080000D01*
D32*
X97445000Y-44980000D02*
X97270000Y-44805000D01*
D33*
X96939500Y-54582500D02*
X96915000Y-54558000D01*
X82625000Y-49080000D02*
X82675000Y-49130000D01*
D34*
X103862500Y-58205000D02*
X104237500Y-58580000D01*
X98562500Y-58080000D02*
X97530000Y-58080000D01*
D32*
X99232500Y-44980000D02*
X99232500Y-44642500D01*
X88700000Y-52500000D02*
X89775000Y-52500000D01*
X91700000Y-50150000D02*
X91500000Y-49950000D01*
D33*
X103270000Y-43080000D02*
X103370000Y-43180000D01*
D34*
X99750000Y-58050000D02*
X99780000Y-58080000D01*
D32*
X100670000Y-43205000D02*
X103395000Y-43205000D01*
X100042500Y-48657500D02*
X100050000Y-48650000D01*
D33*
X96562500Y-57042500D02*
X96550000Y-57030000D01*
X104237500Y-58580000D02*
X104187500Y-58530000D01*
D32*
X96320000Y-44805000D02*
X96275000Y-44850000D01*
D33*
X56570000Y-43525000D02*
X54770000Y-43525000D01*
X97200000Y-54582500D02*
X96939500Y-54582500D01*
X90135000Y-52455000D02*
X89975000Y-52455000D01*
D32*
X89775000Y-52500000D02*
X89800000Y-52525000D01*
D34*
X104420000Y-43205000D02*
X104720000Y-43505000D01*
D32*
X92775000Y-56950000D02*
X92775000Y-58075000D01*
X98840000Y-48657500D02*
X100042500Y-48657500D01*
X81770000Y-55375000D02*
X82575000Y-56180000D01*
X97270000Y-44805000D02*
X96320000Y-44805000D01*
D34*
X99780000Y-58080000D02*
X102612500Y-58080000D01*
D33*
X102612500Y-58080000D02*
X102737500Y-58205000D01*
D32*
X92675000Y-50450000D02*
X92675000Y-50325000D01*
X81500000Y-55375000D02*
X81500000Y-55550000D01*
D34*
X102737500Y-58205000D02*
X103862500Y-58205000D01*
D32*
X92440000Y-50180000D02*
X91640000Y-50180000D01*
X82625000Y-47750000D02*
X82625000Y-49080000D01*
X99232500Y-44642500D02*
X99825000Y-44050000D01*
D34*
X103395000Y-43205000D02*
X104420000Y-43205000D01*
%TO.N,/VCC5V*%
X98200000Y-63930000D02*
X98200000Y-62330000D01*
X101562500Y-59755000D02*
X100837500Y-59030000D01*
X102712500Y-59780000D02*
X102737500Y-59755000D01*
X101900000Y-61480000D02*
X102737500Y-60642500D01*
X99050000Y-61480000D02*
X101900000Y-61480000D01*
X102737500Y-59755000D02*
X101562500Y-59755000D01*
X98200000Y-62330000D02*
X99050000Y-61480000D01*
X102737500Y-60642500D02*
X102737500Y-59755000D01*
%TO.N,4V8*%
X99790000Y-52420000D02*
X99790000Y-54582500D01*
X89975000Y-54005000D02*
X88275000Y-54005000D01*
X96550000Y-60680000D02*
X96562500Y-60667500D01*
X67950000Y-55000000D02*
X67950000Y-53255000D01*
X99600000Y-52230000D02*
X99790000Y-52420000D01*
X67950000Y-55280000D02*
X68700000Y-56030000D01*
X67460000Y-51265000D02*
X68700000Y-52505000D01*
X99600000Y-52230000D02*
X98972500Y-52857500D01*
X68700000Y-52505000D02*
X68700000Y-52530000D01*
X67950000Y-53255000D02*
X68700000Y-52505000D01*
X98562500Y-59980000D02*
X96737500Y-59980000D01*
X68700000Y-47130000D02*
X67460000Y-48370000D01*
X96562500Y-60667500D02*
X96562500Y-59805000D01*
X88275000Y-54005000D02*
X88050000Y-53780000D01*
X98972500Y-52857500D02*
X98190000Y-52857500D01*
X90550000Y-55330000D02*
X90400000Y-55180000D01*
X96550000Y-60980000D02*
X96550000Y-60680000D01*
X96737500Y-59980000D02*
X96562500Y-59805000D01*
X67460000Y-48370000D02*
X67460000Y-51265000D01*
X89975000Y-54755000D02*
X90550000Y-55330000D01*
X67950000Y-55000000D02*
X67950000Y-55280000D01*
X89975000Y-54005000D02*
X89975000Y-54755000D01*
%TO.N,-4V8*%
X90940000Y-51230000D02*
X87475000Y-51230000D01*
X80425000Y-50200000D02*
X83155000Y-50200000D01*
X96739999Y-51745000D02*
X94935000Y-51745000D01*
X69695000Y-62755000D02*
X68700000Y-62755000D01*
X96370000Y-43255000D02*
X98545000Y-43255000D01*
X78400000Y-52225000D02*
X80425000Y-50200000D01*
X86100000Y-50655000D02*
X87075000Y-51630000D01*
X97240000Y-51244999D02*
X96739999Y-51745000D01*
X84225000Y-49130000D02*
X85750000Y-49130000D01*
D33*
X97445000Y-43080000D02*
X97270000Y-43255000D01*
X99195000Y-43055000D02*
X99220000Y-43080000D01*
D34*
X97270000Y-48637500D02*
X97290000Y-48657500D01*
X83155000Y-50200000D02*
X84225000Y-49130000D01*
X98545000Y-43255000D02*
X98720000Y-43080000D01*
X98720000Y-43080000D02*
X99232500Y-43080000D01*
X91870000Y-52160000D02*
X90940000Y-51230000D01*
X97240000Y-50582500D02*
X97240000Y-51244999D01*
X78400000Y-56900000D02*
X78400000Y-52430000D01*
X86100000Y-49480000D02*
X86100000Y-50655000D01*
X87115000Y-51590000D02*
X87075000Y-51630000D01*
X94935000Y-51745000D02*
X94520000Y-52160000D01*
X94520000Y-52160000D02*
X91870000Y-52160000D01*
X97240000Y-48707500D02*
X97290000Y-48657500D01*
X87475000Y-51230000D02*
X87075000Y-51630000D01*
X95425000Y-44200000D02*
X96370000Y-43255000D01*
X97240000Y-50582500D02*
X97240000Y-48707500D01*
X78400000Y-53280000D02*
X78400000Y-52430000D01*
X78400000Y-52430000D02*
X78400000Y-52225000D01*
X97290000Y-47365000D02*
X95425000Y-45500000D01*
X95425000Y-45500000D02*
X95425000Y-44200000D01*
X97290000Y-48657500D02*
X97290000Y-47365000D01*
X80425000Y-47125000D02*
X80425000Y-50200000D01*
X85750000Y-49130000D02*
X86100000Y-49480000D01*
X69700000Y-62750000D02*
X69695000Y-62755000D01*
X78400000Y-56030000D02*
X78400000Y-53280000D01*
D32*
%TO.N,Net-(TP1-TP)*%
X54770000Y-45025000D02*
X56570000Y-45025000D01*
X58650000Y-45030000D02*
X56615000Y-45030000D01*
X51150000Y-46825000D02*
X52950000Y-46825000D01*
X52980000Y-43930000D02*
X52850000Y-43930000D01*
X58650000Y-45030000D02*
X68700000Y-45030000D01*
X52980000Y-44200000D02*
X52980000Y-43930000D01*
X79650000Y-45030000D02*
X83205000Y-45030000D01*
X51150000Y-46030000D02*
X52980000Y-44200000D01*
X54770000Y-45075000D02*
X53895000Y-45075000D01*
X53895000Y-45075000D02*
X52980000Y-44160000D01*
X68700000Y-45030000D02*
X79650000Y-45030000D01*
X54720000Y-45125000D02*
X54770000Y-45075000D01*
X51150000Y-46825000D02*
X51150000Y-46030000D01*
X56615000Y-45030000D02*
X56570000Y-45075000D01*
X52980000Y-44160000D02*
X52980000Y-43930000D01*
X83205000Y-45030000D02*
X83250000Y-45075000D01*
X72400000Y-45030000D02*
X76085000Y-45030000D01*
D34*
%TO.N,/VEE-5V*%
X103400000Y-46030000D02*
X103395000Y-46035000D01*
X103395000Y-46025000D02*
X103400000Y-46030000D01*
X102232500Y-44755000D02*
X101507500Y-44030000D01*
X103395000Y-44755000D02*
X102232500Y-44755000D01*
X103395000Y-44755000D02*
X103395000Y-46025000D01*
D32*
%TO.N,Net-(TP2-TP)*%
X82375000Y-58130000D02*
X78400000Y-58130000D01*
X51150000Y-57130000D02*
X52980000Y-58960000D01*
X54475000Y-58155000D02*
X54500000Y-58130000D01*
D35*
X56400000Y-58130000D02*
X56250000Y-58130000D01*
D32*
X52980000Y-58960000D02*
X52980000Y-59275000D01*
X51150000Y-56505000D02*
X52950000Y-56505000D01*
X53922500Y-58130000D02*
X52777500Y-59275000D01*
X51150000Y-56505000D02*
X51150000Y-57130000D01*
X82525000Y-57980000D02*
X82375000Y-58130000D01*
X54500000Y-58130000D02*
X53922500Y-58130000D01*
X78400000Y-58130000D02*
X54500000Y-58130000D01*
%TO.N,/VOUT*%
X105850000Y-55767500D02*
X105850000Y-63900000D01*
X105850000Y-51780000D02*
X105850000Y-51992500D01*
X104600000Y-50530000D02*
X105150000Y-51080000D01*
X105150000Y-51080000D02*
X105850000Y-51780000D01*
X105850000Y-63900000D02*
X105820000Y-63930000D01*
X101150000Y-50530000D02*
X104600000Y-50530000D01*
X98190000Y-50582500D02*
X98242500Y-50530000D01*
X98242500Y-50530000D02*
X101150000Y-50530000D01*
X105850000Y-51992500D02*
X105850000Y-55767500D01*
%TO.N,Net-(TP4-TP)*%
X89450000Y-59880000D02*
X91000000Y-58330000D01*
X87900000Y-58330000D02*
X89450000Y-59880000D01*
X87400000Y-53780000D02*
X87400000Y-54980000D01*
X91000000Y-58330000D02*
X91000000Y-58287500D01*
X87400000Y-54980000D02*
X87825000Y-55405000D01*
D33*
X91232500Y-58492500D02*
X91232500Y-58340000D01*
D32*
X87825000Y-55405000D02*
X87825000Y-56630000D01*
X87775000Y-58330000D02*
X87900000Y-58330000D01*
X87775000Y-58330000D02*
X87775000Y-56680000D01*
X87775000Y-56680000D02*
X87825000Y-56630000D01*
%TO.N,/IN_P*%
X51150000Y-48475000D02*
X51150000Y-49880000D01*
%TO.N,/IN_N*%
X51150000Y-54855000D02*
X51150000Y-53580000D01*
X51150000Y-53580000D02*
X51200000Y-53530000D01*
%TO.N,Net-(L1-Pad2)*%
X90870000Y-47197500D02*
X91222500Y-47197500D01*
X91222500Y-47197500D02*
X92625000Y-48600000D01*
%TO.N,Net-(L2-Pad2)*%
X91100000Y-56712500D02*
X92525000Y-55287500D01*
%TO.N,Net-(R6-Pad1)*%
X52950000Y-48475000D02*
X54770000Y-48475000D01*
%TO.N,Net-(R10-Pad2)*%
X54770000Y-56505000D02*
X56570000Y-56505000D01*
%TO.N,Net-(R10-Pad1)*%
X58750000Y-54855000D02*
X56570000Y-54855000D01*
%TO.N,Net-(U1A-+)*%
X84900000Y-47025000D02*
X84850000Y-47075000D01*
X85225000Y-47075000D02*
X86750000Y-48600000D01*
X84900000Y-45075000D02*
X84900000Y-47025000D01*
X86750000Y-48600000D02*
X86750000Y-49480000D01*
X84850000Y-47075000D02*
X85225000Y-47075000D01*
D33*
%TO.N,Net-(U1B-+)*%
X86100000Y-53780000D02*
X86100000Y-54250000D01*
D32*
X86100000Y-54250000D02*
X84170000Y-56180000D01*
D33*
X84170000Y-56180000D02*
X84125000Y-56180000D01*
D32*
X84175000Y-57980000D02*
X84175000Y-56230000D01*
%TO.N,Net-(U1A--)*%
X84650000Y-50780000D02*
X84425000Y-51005000D01*
X87400000Y-49480000D02*
X87400000Y-45730000D01*
X86700000Y-47230000D02*
X87562500Y-47230000D01*
X83250000Y-51230000D02*
X84200000Y-51230000D01*
X84200000Y-51230000D02*
X84650000Y-50780000D01*
X87400000Y-45730000D02*
X87600000Y-45530000D01*
X81600000Y-51230000D02*
X83250000Y-51230000D01*
%TO.N,Net-(TP3-TP)*%
X88050000Y-48630000D02*
X89150000Y-47530000D01*
X89150000Y-47530000D02*
X89150000Y-45530000D01*
X88050000Y-49480000D02*
X88050000Y-48630000D01*
X90870000Y-43740000D02*
X90870000Y-45622500D01*
X90360000Y-43230000D02*
X90870000Y-43740000D01*
X89150000Y-45530000D02*
X89150000Y-43230000D01*
X89150000Y-43230000D02*
X90360000Y-43230000D01*
%TO.N,Net-(U1B--)*%
X86225000Y-56680000D02*
X86175000Y-56630000D01*
X83250000Y-52880000D02*
X84150000Y-52880000D01*
X86750000Y-53780000D02*
X86750000Y-54980000D01*
X86175000Y-55555000D02*
X86400000Y-55330000D01*
X86175000Y-56630000D02*
X86175000Y-55555000D01*
X84150000Y-52880000D02*
X84650000Y-53530000D01*
X86450000Y-55280000D02*
X86400000Y-55330000D01*
X86225000Y-58330000D02*
X86225000Y-56680000D01*
X86750000Y-54980000D02*
X86450000Y-55280000D01*
X81600000Y-52880000D02*
X83250000Y-52880000D01*
%TO.N,Net-(U3-+)*%
X96250000Y-50622500D02*
X96290000Y-50582500D01*
X96157500Y-50450000D02*
X96290000Y-50582500D01*
X94325000Y-50450000D02*
X94325000Y-48650000D01*
X94325000Y-50450000D02*
X96157500Y-50450000D01*
X94325000Y-48650000D02*
X94275000Y-48600000D01*
%TO.N,Net-(U3--)*%
X102850000Y-52180000D02*
X102900000Y-52130000D01*
X96215000Y-52932500D02*
X96300000Y-53017500D01*
X96300000Y-53017500D02*
X96300000Y-55567500D01*
X94425000Y-56950000D02*
X94425000Y-54025000D01*
X101150000Y-55230000D02*
X101150000Y-52180000D01*
X94425000Y-54025000D02*
X95592500Y-52857500D01*
X100350000Y-56030000D02*
X101150000Y-55230000D01*
X96300000Y-55567500D02*
X96762500Y-56030000D01*
X96762500Y-56030000D02*
X100350000Y-56030000D01*
X101150000Y-52180000D02*
X102850000Y-52180000D01*
X95592500Y-52857500D02*
X96290000Y-52857500D01*
%TO.N,Net-(R1-Pad2)*%
X68700000Y-50855000D02*
X68700000Y-49630000D01*
X68700000Y-49630000D02*
X71025000Y-47305000D01*
%TO.N,Net-(R2-Pad1)*%
X69925000Y-61105000D02*
X71025000Y-60005000D01*
X68700000Y-61105000D02*
X69925000Y-61105000D01*
%TO.N,Net-(R7-Pad1)*%
X54770000Y-46825000D02*
X56570000Y-46825000D01*
%TO.N,Net-(R8-Pad1)*%
X56570000Y-48475000D02*
X60005000Y-48475000D01*
X60005000Y-48475000D02*
X61175000Y-47305000D01*
%TO.N,Net-(R11-Pad2)*%
X52950000Y-54855000D02*
X54770000Y-54855000D01*
%TO.N,Net-(R2-Pad2)*%
X78050000Y-46675000D02*
X76085000Y-48640000D01*
X76085000Y-48640000D02*
X76085000Y-52385000D01*
X78075000Y-46675000D02*
X78050000Y-46675000D01*
%TD*%
%TA.AperFunction,Conductor*%
%TO.N,GND*%
G36*
X80543834Y-51245047D02*
G01*
X80599767Y-51286919D01*
X80624184Y-51352383D01*
X80624500Y-51361229D01*
X80624500Y-51486616D01*
X80626423Y-51507778D01*
X80630913Y-51557192D01*
X80630913Y-51557194D01*
X80630914Y-51557196D01*
X80681522Y-51719606D01*
X80759785Y-51849069D01*
X80769530Y-51865188D01*
X80871661Y-51967319D01*
X80905146Y-52028642D01*
X80900162Y-52098334D01*
X80871661Y-52142681D01*
X80769531Y-52244810D01*
X80769530Y-52244811D01*
X80681522Y-52390393D01*
X80630913Y-52552807D01*
X80625782Y-52609275D01*
X80624500Y-52623384D01*
X80624500Y-53136616D01*
X80624825Y-53140188D01*
X80630913Y-53207192D01*
X80630913Y-53207194D01*
X80630914Y-53207196D01*
X80681522Y-53369606D01*
X80725176Y-53441819D01*
X80769530Y-53515188D01*
X80889811Y-53635469D01*
X80889813Y-53635470D01*
X80889815Y-53635472D01*
X81035394Y-53723478D01*
X81197804Y-53774086D01*
X81268384Y-53780500D01*
X81268387Y-53780500D01*
X81931613Y-53780500D01*
X81931616Y-53780500D01*
X82002196Y-53774086D01*
X82164606Y-53723478D01*
X82310185Y-53635472D01*
X82315259Y-53630398D01*
X82328839Y-53616819D01*
X82390162Y-53583334D01*
X82416520Y-53580500D01*
X82433480Y-53580500D01*
X82500519Y-53600185D01*
X82521161Y-53616819D01*
X82539811Y-53635469D01*
X82539813Y-53635470D01*
X82539815Y-53635472D01*
X82685394Y-53723478D01*
X82847804Y-53774086D01*
X82918384Y-53780500D01*
X82918387Y-53780500D01*
X83581613Y-53780500D01*
X83581616Y-53780500D01*
X83652196Y-53774086D01*
X83653515Y-53773674D01*
X83654330Y-53773661D01*
X83658631Y-53772806D01*
X83658786Y-53773587D01*
X83723372Y-53772516D01*
X83782768Y-53809310D01*
X83808345Y-53853736D01*
X83822817Y-53898274D01*
X83822821Y-53898284D01*
X83917467Y-54062216D01*
X84014093Y-54169530D01*
X84044129Y-54202888D01*
X84197265Y-54314148D01*
X84197270Y-54314151D01*
X84370192Y-54391142D01*
X84370197Y-54391144D01*
X84555354Y-54430500D01*
X84555355Y-54430500D01*
X84629480Y-54430500D01*
X84696519Y-54450185D01*
X84742274Y-54502989D01*
X84752218Y-54572147D01*
X84723193Y-54635703D01*
X84717161Y-54642181D01*
X84191160Y-55168181D01*
X84129837Y-55201666D01*
X84103479Y-55204500D01*
X83851663Y-55204500D01*
X83851644Y-55204501D01*
X83752292Y-55214650D01*
X83752289Y-55214651D01*
X83591305Y-55267996D01*
X83591294Y-55268001D01*
X83446959Y-55357029D01*
X83446953Y-55357033D01*
X83437324Y-55366663D01*
X83376000Y-55400146D01*
X83306308Y-55395159D01*
X83261965Y-55366660D01*
X83252732Y-55357427D01*
X83252728Y-55357424D01*
X83108492Y-55268457D01*
X83108481Y-55268452D01*
X82947606Y-55215144D01*
X82848322Y-55205000D01*
X82825000Y-55205000D01*
X82825000Y-56306000D01*
X82805315Y-56373039D01*
X82752511Y-56418794D01*
X82701000Y-56430000D01*
X82449000Y-56430000D01*
X82381961Y-56410315D01*
X82336206Y-56357511D01*
X82325000Y-56306000D01*
X82325000Y-55204999D01*
X82301693Y-55205000D01*
X82301674Y-55205001D01*
X82202392Y-55215144D01*
X82041518Y-55268452D01*
X82041507Y-55268457D01*
X81897271Y-55357424D01*
X81897267Y-55357427D01*
X81777427Y-55477267D01*
X81777424Y-55477271D01*
X81688457Y-55621507D01*
X81688453Y-55621516D01*
X81639191Y-55770178D01*
X81599418Y-55827622D01*
X81534902Y-55854445D01*
X81466126Y-55842130D01*
X81433804Y-55818854D01*
X81309877Y-55694927D01*
X81164395Y-55606980D01*
X81164396Y-55606980D01*
X81002105Y-55556409D01*
X81002106Y-55556409D01*
X80931572Y-55550000D01*
X80850000Y-55550000D01*
X80850000Y-56576000D01*
X80830315Y-56643039D01*
X80777511Y-56688794D01*
X80726000Y-56700000D01*
X79625001Y-56700000D01*
X79625001Y-56706582D01*
X79631408Y-56777102D01*
X79631409Y-56777107D01*
X79681981Y-56939396D01*
X79769927Y-57084877D01*
X79872015Y-57186965D01*
X79905500Y-57248288D01*
X79900516Y-57317980D01*
X79872018Y-57362325D01*
X79841161Y-57393181D01*
X79779841Y-57426666D01*
X79753481Y-57429500D01*
X79345468Y-57429500D01*
X79278429Y-57409815D01*
X79232674Y-57357011D01*
X79222730Y-57287853D01*
X79227537Y-57267182D01*
X79231495Y-57255000D01*
X79285674Y-57088256D01*
X79305460Y-56900000D01*
X79285674Y-56711744D01*
X79227179Y-56531716D01*
X79206231Y-56495432D01*
X79167113Y-56427677D01*
X79150500Y-56365677D01*
X79150500Y-56200000D01*
X79625000Y-56200000D01*
X80350000Y-56200000D01*
X80350000Y-55550000D01*
X80349999Y-55549999D01*
X80268417Y-55550000D01*
X80197897Y-55556408D01*
X80197892Y-55556409D01*
X80035603Y-55606981D01*
X79890122Y-55694927D01*
X79769927Y-55815122D01*
X79681980Y-55960604D01*
X79631409Y-56122893D01*
X79625000Y-56193427D01*
X79625000Y-56200000D01*
X79150500Y-56200000D01*
X79150500Y-52587229D01*
X79170185Y-52520190D01*
X79186819Y-52499548D01*
X80412819Y-51273548D01*
X80474142Y-51240063D01*
X80543834Y-51245047D01*
G37*
%TD.AperFunction*%
%TA.AperFunction,Conductor*%
G36*
X97249937Y-54040185D02*
G01*
X97295692Y-54092989D01*
X97305636Y-54162147D01*
X97300605Y-54183500D01*
X97300144Y-54184889D01*
X97300144Y-54184891D01*
X97290000Y-54284177D01*
X97290000Y-54332500D01*
X98366000Y-54332500D01*
X98433039Y-54352185D01*
X98478794Y-54404989D01*
X98490000Y-54456500D01*
X98490000Y-54708500D01*
X98470315Y-54775539D01*
X98417511Y-54821294D01*
X98366000Y-54832500D01*
X97290001Y-54832500D01*
X97290001Y-54880822D01*
X97300144Y-54980107D01*
X97353452Y-55140981D01*
X97356507Y-55147532D01*
X97355211Y-55148136D01*
X97371535Y-55207798D01*
X97350611Y-55274461D01*
X97296968Y-55319230D01*
X97247556Y-55329500D01*
X97124500Y-55329500D01*
X97057461Y-55309815D01*
X97011706Y-55257011D01*
X97000500Y-55205500D01*
X97000500Y-54144500D01*
X97020185Y-54077461D01*
X97072989Y-54031706D01*
X97124500Y-54020500D01*
X97182898Y-54020500D01*
X97249937Y-54040185D01*
G37*
%TD.AperFunction*%
%TA.AperFunction,Conductor*%
G36*
X88787423Y-52000185D02*
G01*
X88833178Y-52052989D01*
X88843122Y-52122147D01*
X88838089Y-52143507D01*
X88835143Y-52152393D01*
X88825000Y-52251677D01*
X88825000Y-52275000D01*
X90786108Y-52275000D01*
X90822954Y-52254879D01*
X90892646Y-52259862D01*
X90936996Y-52288364D01*
X91294269Y-52645637D01*
X91306049Y-52659268D01*
X91320389Y-52678530D01*
X91320391Y-52678532D01*
X91360409Y-52712110D01*
X91364399Y-52715766D01*
X91370227Y-52721594D01*
X91395947Y-52741931D01*
X91454788Y-52791304D01*
X91460818Y-52795270D01*
X91460785Y-52795319D01*
X91467143Y-52799369D01*
X91467175Y-52799319D01*
X91473320Y-52803109D01*
X91473323Y-52803111D01*
X91542936Y-52835572D01*
X91611567Y-52870040D01*
X91611572Y-52870041D01*
X91618361Y-52872513D01*
X91618340Y-52872570D01*
X91625455Y-52875043D01*
X91625475Y-52874986D01*
X91632330Y-52877258D01*
X91701015Y-52891439D01*
X91707558Y-52892790D01*
X91782279Y-52910500D01*
X91782289Y-52910500D01*
X91789452Y-52911338D01*
X91789444Y-52911397D01*
X91796945Y-52912164D01*
X91796951Y-52912105D01*
X91804140Y-52912734D01*
X91804144Y-52912733D01*
X91804145Y-52912734D01*
X91880918Y-52910500D01*
X94249480Y-52910500D01*
X94316519Y-52930185D01*
X94362274Y-52982989D01*
X94372218Y-53052147D01*
X94343193Y-53115703D01*
X94337161Y-53122181D01*
X93945966Y-53513375D01*
X93943240Y-53515942D01*
X93896818Y-53557068D01*
X93861586Y-53608109D01*
X93859368Y-53611124D01*
X93821124Y-53659939D01*
X93821119Y-53659948D01*
X93816960Y-53669188D01*
X93805942Y-53688723D01*
X93800187Y-53697061D01*
X93800183Y-53697067D01*
X93800182Y-53697070D01*
X93800180Y-53697074D01*
X93800179Y-53697077D01*
X93778189Y-53755055D01*
X93776757Y-53758513D01*
X93751305Y-53815068D01*
X93749477Y-53825042D01*
X93743453Y-53846653D01*
X93739860Y-53856127D01*
X93739859Y-53856128D01*
X93732384Y-53917685D01*
X93731821Y-53921386D01*
X93720642Y-53982390D01*
X93720642Y-53982395D01*
X93724387Y-54044302D01*
X93724500Y-54048047D01*
X93724500Y-54183480D01*
X93704815Y-54250519D01*
X93688181Y-54271161D01*
X93687681Y-54271661D01*
X93626358Y-54305146D01*
X93556666Y-54300162D01*
X93512319Y-54271661D01*
X93410188Y-54169530D01*
X93384991Y-54154298D01*
X93264606Y-54081522D01*
X93102196Y-54030914D01*
X93102194Y-54030913D01*
X93102192Y-54030913D01*
X93052778Y-54026423D01*
X93031616Y-54024500D01*
X92518384Y-54024500D01*
X92499145Y-54026248D01*
X92447807Y-54030913D01*
X92285393Y-54081522D01*
X92139811Y-54169530D01*
X92019530Y-54289811D01*
X91931522Y-54435393D01*
X91880913Y-54597807D01*
X91877832Y-54631714D01*
X91874650Y-54666740D01*
X91874500Y-54668386D01*
X91874500Y-54895980D01*
X91854815Y-54963019D01*
X91838181Y-54983661D01*
X91638698Y-55183143D01*
X91577375Y-55216628D01*
X91507683Y-55211644D01*
X91451750Y-55169772D01*
X91433086Y-55133780D01*
X91420197Y-55094113D01*
X91390081Y-55001423D01*
X91377181Y-54961721D01*
X91377178Y-54961715D01*
X91282533Y-54797784D01*
X91155871Y-54657112D01*
X91155870Y-54657111D01*
X91002734Y-54545851D01*
X91002729Y-54545848D01*
X90848136Y-54477018D01*
X90794899Y-54431768D01*
X90774578Y-54364919D01*
X90775215Y-54351132D01*
X90775500Y-54348345D01*
X90775499Y-53801656D01*
X90772522Y-53772516D01*
X90765349Y-53702292D01*
X90765348Y-53702289D01*
X90755138Y-53671476D01*
X90712003Y-53541303D01*
X90711999Y-53541297D01*
X90711998Y-53541294D01*
X90622970Y-53396959D01*
X90622967Y-53396955D01*
X90613339Y-53387327D01*
X90579854Y-53326004D01*
X90584838Y-53256312D01*
X90613345Y-53211959D01*
X90622573Y-53202731D01*
X90711542Y-53058492D01*
X90711547Y-53058481D01*
X90764855Y-52897606D01*
X90774999Y-52798322D01*
X90775000Y-52798309D01*
X90775000Y-52775000D01*
X88825000Y-52775000D01*
X88806343Y-52793657D01*
X88745020Y-52827141D01*
X88675328Y-52822156D01*
X88620288Y-52781462D01*
X88578282Y-52726718D01*
X88578277Y-52726714D01*
X88553495Y-52707698D01*
X88512293Y-52651270D01*
X88508357Y-52585206D01*
X88508262Y-52585196D01*
X88508322Y-52584628D01*
X88508138Y-52581524D01*
X88508305Y-52580808D01*
X88509089Y-52577488D01*
X88509091Y-52577483D01*
X88515500Y-52517873D01*
X88515500Y-52104500D01*
X88535185Y-52037461D01*
X88587989Y-51991706D01*
X88639500Y-51980500D01*
X88720384Y-51980500D01*
X88787423Y-52000185D01*
G37*
%TD.AperFunction*%
%TA.AperFunction,Conductor*%
G36*
X80013363Y-45747767D02*
G01*
X80067113Y-45779555D01*
X80215844Y-45822765D01*
X80237635Y-45824480D01*
X80250593Y-45825500D01*
X80250594Y-45825499D01*
X80250595Y-45825500D01*
X80483134Y-45825499D01*
X80599405Y-45825499D01*
X80606354Y-45824952D01*
X80634156Y-45822765D01*
X80782887Y-45779555D01*
X80836636Y-45747767D01*
X80899756Y-45730500D01*
X82391533Y-45730500D01*
X82458572Y-45750185D01*
X82488182Y-45780620D01*
X82489898Y-45779276D01*
X82494524Y-45785180D01*
X82494526Y-45785182D01*
X82494528Y-45785185D01*
X82614815Y-45905472D01*
X82716063Y-45966679D01*
X82728880Y-45974427D01*
X82776068Y-46025955D01*
X82787906Y-46094815D01*
X82760637Y-46159143D01*
X82729828Y-46186082D01*
X82622268Y-46252426D01*
X82502427Y-46372267D01*
X82502424Y-46372271D01*
X82413457Y-46516507D01*
X82413452Y-46516518D01*
X82360144Y-46677393D01*
X82350000Y-46776677D01*
X82350000Y-46825000D01*
X83426000Y-46825000D01*
X83493039Y-46844685D01*
X83538794Y-46897489D01*
X83550000Y-46949000D01*
X83550000Y-48049999D01*
X83559796Y-48059795D01*
X83593473Y-48069684D01*
X83639228Y-48122488D01*
X83649172Y-48191646D01*
X83620147Y-48255202D01*
X83591531Y-48279537D01*
X83546959Y-48307029D01*
X83546953Y-48307033D01*
X83537324Y-48316663D01*
X83476000Y-48350146D01*
X83406308Y-48345159D01*
X83361965Y-48316660D01*
X83352732Y-48307427D01*
X83352728Y-48307424D01*
X83208492Y-48218457D01*
X83208483Y-48218453D01*
X83134995Y-48194101D01*
X83077550Y-48154327D01*
X83050728Y-48089811D01*
X83050000Y-48076395D01*
X83050000Y-47325000D01*
X82350001Y-47325000D01*
X82350001Y-47373322D01*
X82360144Y-47472607D01*
X82413452Y-47633481D01*
X82413457Y-47633492D01*
X82502424Y-47777728D01*
X82502427Y-47777732D01*
X82622267Y-47897572D01*
X82622271Y-47897575D01*
X82766507Y-47986542D01*
X82766518Y-47986547D01*
X82840004Y-48010898D01*
X82897449Y-48050670D01*
X82924272Y-48115186D01*
X82925000Y-48128604D01*
X82925000Y-49256000D01*
X82905315Y-49323039D01*
X82852511Y-49368794D01*
X82801000Y-49380000D01*
X81725001Y-49380000D01*
X81691820Y-49413181D01*
X81630497Y-49446666D01*
X81604139Y-49449500D01*
X81299500Y-49449500D01*
X81232461Y-49429815D01*
X81186706Y-49377011D01*
X81175500Y-49325500D01*
X81175500Y-48880000D01*
X81725000Y-48880000D01*
X82425000Y-48880000D01*
X82425000Y-48154999D01*
X82401693Y-48155000D01*
X82401674Y-48155001D01*
X82302392Y-48165144D01*
X82141518Y-48218452D01*
X82141507Y-48218457D01*
X81997271Y-48307424D01*
X81997267Y-48307427D01*
X81877427Y-48427267D01*
X81877424Y-48427271D01*
X81788457Y-48571507D01*
X81788452Y-48571518D01*
X81735144Y-48732393D01*
X81725000Y-48831677D01*
X81725000Y-48880000D01*
X81175500Y-48880000D01*
X81175500Y-47081298D01*
X81175500Y-47081291D01*
X81160241Y-46950745D01*
X81157977Y-46944524D01*
X81150499Y-46902115D01*
X81150499Y-46875595D01*
X81148383Y-46848698D01*
X81147765Y-46840844D01*
X81104555Y-46692113D01*
X81028672Y-46563802D01*
X81025717Y-46558805D01*
X81025710Y-46558796D01*
X80916203Y-46449289D01*
X80916194Y-46449282D01*
X80791343Y-46375446D01*
X80782887Y-46370445D01*
X80634156Y-46327235D01*
X80634153Y-46327234D01*
X80634151Y-46327234D01*
X80599407Y-46324500D01*
X80599405Y-46324500D01*
X80366865Y-46324500D01*
X80250595Y-46324501D01*
X80215847Y-46327234D01*
X80208044Y-46329501D01*
X80067113Y-46370445D01*
X80067111Y-46370445D01*
X80067111Y-46370446D01*
X79933805Y-46449282D01*
X79933796Y-46449289D01*
X79824289Y-46558796D01*
X79824282Y-46558805D01*
X79757836Y-46671161D01*
X79745445Y-46692113D01*
X79720877Y-46776677D01*
X79702234Y-46840847D01*
X79702234Y-46840849D01*
X79699500Y-46875593D01*
X79699500Y-46917301D01*
X79696158Y-46945896D01*
X79680475Y-47012071D01*
X79674500Y-47037280D01*
X79674500Y-49837769D01*
X79654815Y-49904808D01*
X79638181Y-49925450D01*
X77914358Y-51649272D01*
X77900729Y-51661051D01*
X77881468Y-51675390D01*
X77847898Y-51715397D01*
X77844253Y-51719376D01*
X77838409Y-51725222D01*
X77818059Y-51750959D01*
X77768695Y-51809789D01*
X77764729Y-51815819D01*
X77764682Y-51815788D01*
X77760630Y-51822147D01*
X77760679Y-51822177D01*
X77756889Y-51828321D01*
X77724424Y-51897941D01*
X77689960Y-51966566D01*
X77687488Y-51973357D01*
X77687432Y-51973336D01*
X77684960Y-51980450D01*
X77685015Y-51980469D01*
X77682743Y-51987325D01*
X77677920Y-52010683D01*
X77645084Y-52072356D01*
X77584118Y-52106487D01*
X77514378Y-52102239D01*
X77458005Y-52060961D01*
X77436276Y-52016046D01*
X77434918Y-52010683D01*
X77414157Y-51928700D01*
X77320924Y-51716151D01*
X77297632Y-51680500D01*
X77193983Y-51521852D01*
X77193980Y-51521849D01*
X77193979Y-51521847D01*
X77036784Y-51351087D01*
X77036779Y-51351083D01*
X77036777Y-51351081D01*
X76853634Y-51208535D01*
X76853622Y-51208527D01*
X76850473Y-51206823D01*
X76849433Y-51205790D01*
X76849334Y-51205726D01*
X76849347Y-51205705D01*
X76800887Y-51157599D01*
X76785500Y-51097773D01*
X76785500Y-48981519D01*
X76805185Y-48914480D01*
X76821819Y-48893838D01*
X78103838Y-47611819D01*
X78165161Y-47578334D01*
X78191519Y-47575500D01*
X78406613Y-47575500D01*
X78406616Y-47575500D01*
X78477196Y-47569086D01*
X78639606Y-47518478D01*
X78785185Y-47430472D01*
X78905472Y-47310185D01*
X78993478Y-47164606D01*
X79044086Y-47002196D01*
X79050500Y-46931616D01*
X79050500Y-46418384D01*
X79044086Y-46347804D01*
X78993478Y-46185394D01*
X78905472Y-46039815D01*
X78905470Y-46039813D01*
X78905469Y-46039811D01*
X78807839Y-45942181D01*
X78774354Y-45880858D01*
X78779338Y-45811166D01*
X78821210Y-45755233D01*
X78886674Y-45730816D01*
X78895520Y-45730500D01*
X79607628Y-45730500D01*
X79950244Y-45730500D01*
X80013363Y-45747767D01*
G37*
%TD.AperFunction*%
%TA.AperFunction,Conductor*%
G36*
X90087575Y-47923094D02*
G01*
X90131923Y-47951595D01*
X90164608Y-47984280D01*
X90164612Y-47984283D01*
X90307704Y-48072544D01*
X90307707Y-48072545D01*
X90307713Y-48072549D01*
X90467315Y-48125436D01*
X90565826Y-48135500D01*
X91118481Y-48135500D01*
X91185520Y-48155185D01*
X91206162Y-48171819D01*
X91688181Y-48653837D01*
X91721666Y-48715160D01*
X91724500Y-48741518D01*
X91724500Y-48931616D01*
X91726229Y-48950646D01*
X91730913Y-49002192D01*
X91730913Y-49002194D01*
X91730914Y-49002196D01*
X91781522Y-49164606D01*
X91863272Y-49299837D01*
X91869530Y-49310188D01*
X91989809Y-49430467D01*
X91989811Y-49430468D01*
X91989815Y-49430472D01*
X92003797Y-49438924D01*
X92050983Y-49490448D01*
X92062824Y-49559307D01*
X92035557Y-49623636D01*
X92027329Y-49632721D01*
X91919926Y-49740124D01*
X91831980Y-49885604D01*
X91781409Y-50047893D01*
X91775000Y-50118427D01*
X91775000Y-50200000D01*
X92801000Y-50200000D01*
X92868039Y-50219685D01*
X92913794Y-50272489D01*
X92925000Y-50324000D01*
X92925000Y-50576000D01*
X92905315Y-50643039D01*
X92852511Y-50688794D01*
X92801000Y-50700000D01*
X91775001Y-50700000D01*
X91775001Y-50704271D01*
X91755316Y-50771310D01*
X91702512Y-50817065D01*
X91633354Y-50827009D01*
X91569798Y-50797984D01*
X91563320Y-50791952D01*
X91515729Y-50744361D01*
X91503949Y-50730730D01*
X91496482Y-50720701D01*
X91489612Y-50711472D01*
X91489610Y-50711470D01*
X91449587Y-50677886D01*
X91445612Y-50674244D01*
X91442690Y-50671322D01*
X91439780Y-50668411D01*
X91414040Y-50648059D01*
X91355209Y-50598694D01*
X91349180Y-50594729D01*
X91349212Y-50594680D01*
X91342853Y-50590628D01*
X91342822Y-50590679D01*
X91336680Y-50586891D01*
X91336678Y-50586890D01*
X91336677Y-50586889D01*
X91297474Y-50568608D01*
X91267058Y-50554424D01*
X91232894Y-50537267D01*
X91198433Y-50519960D01*
X91198431Y-50519959D01*
X91198430Y-50519959D01*
X91191645Y-50517489D01*
X91191665Y-50517433D01*
X91184549Y-50514959D01*
X91184531Y-50515015D01*
X91177671Y-50512742D01*
X91149841Y-50506996D01*
X91102434Y-50497207D01*
X91053472Y-50485603D01*
X91027719Y-50479499D01*
X91020547Y-50478661D01*
X91020553Y-50478601D01*
X91013055Y-50477835D01*
X91013050Y-50477895D01*
X91005860Y-50477265D01*
X90929083Y-50479500D01*
X88830433Y-50479500D01*
X88763394Y-50459815D01*
X88717639Y-50407011D01*
X88707695Y-50337853D01*
X88715872Y-50308048D01*
X88721562Y-50294310D01*
X88735044Y-50261762D01*
X88750500Y-50144361D01*
X88750500Y-49480468D01*
X88750500Y-48971519D01*
X88770185Y-48904480D01*
X88786819Y-48883838D01*
X89099354Y-48571303D01*
X89433016Y-48237640D01*
X89494337Y-48204157D01*
X89509466Y-48201833D01*
X89539696Y-48199086D01*
X89702106Y-48148478D01*
X89847685Y-48060472D01*
X89956562Y-47951594D01*
X90017883Y-47918110D01*
X90087575Y-47923094D01*
G37*
%TD.AperFunction*%
%TA.AperFunction,Conductor*%
G36*
X108642539Y-40040185D02*
G01*
X108688294Y-40092989D01*
X108699500Y-40144500D01*
X108699500Y-65695500D01*
X108679815Y-65762539D01*
X108627011Y-65808294D01*
X108575500Y-65819500D01*
X46704500Y-65819500D01*
X46637461Y-65799815D01*
X46591706Y-65747011D01*
X46580500Y-65695500D01*
X46580500Y-64827844D01*
X48850000Y-64827844D01*
X48856401Y-64887372D01*
X48856403Y-64887379D01*
X48906645Y-65022086D01*
X48906649Y-65022093D01*
X48992809Y-65137187D01*
X48992812Y-65137190D01*
X49107906Y-65223350D01*
X49107913Y-65223354D01*
X49242620Y-65273596D01*
X49242627Y-65273598D01*
X49302155Y-65279999D01*
X49302172Y-65280000D01*
X49950000Y-65280000D01*
X49950000Y-64365501D01*
X50057685Y-64414680D01*
X50164237Y-64430000D01*
X50235763Y-64430000D01*
X50342315Y-64414680D01*
X50450000Y-64365501D01*
X50450000Y-65280000D01*
X51097828Y-65280000D01*
X51097844Y-65279999D01*
X51157372Y-65273598D01*
X51157379Y-65273596D01*
X51292086Y-65223354D01*
X51292093Y-65223350D01*
X51407187Y-65137190D01*
X51407190Y-65137187D01*
X51493350Y-65022093D01*
X51493354Y-65022086D01*
X51542422Y-64890529D01*
X51584293Y-64834595D01*
X51649757Y-64810178D01*
X51718030Y-64825030D01*
X51746285Y-64846181D01*
X51868599Y-64968495D01*
X51965384Y-65036265D01*
X52062165Y-65104032D01*
X52062167Y-65104033D01*
X52062170Y-65104035D01*
X52276337Y-65203903D01*
X52504592Y-65265063D01*
X52681034Y-65280500D01*
X52739999Y-65285659D01*
X52740000Y-65285659D01*
X52740001Y-65285659D01*
X52798966Y-65280500D01*
X52975408Y-65265063D01*
X53203663Y-65203903D01*
X53417830Y-65104035D01*
X53611401Y-64968495D01*
X53778495Y-64801401D01*
X53908425Y-64615842D01*
X53963002Y-64572217D01*
X54032500Y-64565023D01*
X54094855Y-64596546D01*
X54111575Y-64615842D01*
X54241500Y-64801395D01*
X54241505Y-64801401D01*
X54408599Y-64968495D01*
X54505384Y-65036265D01*
X54602165Y-65104032D01*
X54602167Y-65104033D01*
X54602170Y-65104035D01*
X54816337Y-65203903D01*
X55044592Y-65265063D01*
X55221034Y-65280500D01*
X55279999Y-65285659D01*
X55280000Y-65285659D01*
X55280001Y-65285659D01*
X55338966Y-65280500D01*
X55515408Y-65265063D01*
X55743663Y-65203903D01*
X55957830Y-65104035D01*
X56151401Y-64968495D01*
X56318495Y-64801401D01*
X56448730Y-64615405D01*
X56503307Y-64571781D01*
X56572805Y-64564587D01*
X56635160Y-64596110D01*
X56651879Y-64615405D01*
X56781890Y-64801078D01*
X56948917Y-64968105D01*
X57142421Y-65103600D01*
X57356507Y-65203429D01*
X57356516Y-65203433D01*
X57570000Y-65260634D01*
X57570000Y-64365501D01*
X57677685Y-64414680D01*
X57784237Y-64430000D01*
X57855763Y-64430000D01*
X57962315Y-64414680D01*
X58070000Y-64365501D01*
X58070000Y-65260633D01*
X58283483Y-65203433D01*
X58283492Y-65203429D01*
X58497578Y-65103600D01*
X58691082Y-64968105D01*
X58858105Y-64801082D01*
X58993600Y-64607578D01*
X59093429Y-64393492D01*
X59093432Y-64393486D01*
X59150636Y-64180000D01*
X58253686Y-64180000D01*
X58279493Y-64139844D01*
X58320000Y-64001889D01*
X58320000Y-63858111D01*
X58279493Y-63720156D01*
X58253686Y-63680000D01*
X59150636Y-63680000D01*
X59150635Y-63679999D01*
X59093432Y-63466513D01*
X59093429Y-63466507D01*
X58993600Y-63252422D01*
X58993599Y-63252420D01*
X58858113Y-63058926D01*
X58858108Y-63058920D01*
X58691082Y-62891894D01*
X58497578Y-62756399D01*
X58283492Y-62656570D01*
X58283486Y-62656567D01*
X58070000Y-62599364D01*
X58070000Y-63494498D01*
X57962315Y-63445320D01*
X57855763Y-63430000D01*
X57784237Y-63430000D01*
X57677685Y-63445320D01*
X57570000Y-63494498D01*
X57570000Y-62599364D01*
X57569999Y-62599364D01*
X57356513Y-62656567D01*
X57356507Y-62656570D01*
X57142422Y-62756399D01*
X57142420Y-62756400D01*
X56948926Y-62891886D01*
X56948920Y-62891891D01*
X56781891Y-63058920D01*
X56781890Y-63058922D01*
X56651880Y-63244595D01*
X56597303Y-63288219D01*
X56527804Y-63295412D01*
X56465450Y-63263890D01*
X56448730Y-63244594D01*
X56318494Y-63058597D01*
X56151402Y-62891506D01*
X56151395Y-62891501D01*
X55957834Y-62755967D01*
X55957830Y-62755965D01*
X55945038Y-62750000D01*
X55743663Y-62656097D01*
X55743659Y-62656096D01*
X55743655Y-62656094D01*
X55515413Y-62594938D01*
X55515403Y-62594936D01*
X55280001Y-62574341D01*
X55279999Y-62574341D01*
X55044596Y-62594936D01*
X55044586Y-62594938D01*
X54816344Y-62656094D01*
X54816335Y-62656098D01*
X54602171Y-62755964D01*
X54602169Y-62755965D01*
X54408597Y-62891505D01*
X54241505Y-63058597D01*
X54111575Y-63244158D01*
X54056998Y-63287783D01*
X53987500Y-63294977D01*
X53925145Y-63263454D01*
X53908425Y-63244158D01*
X53778494Y-63058597D01*
X53611402Y-62891506D01*
X53611395Y-62891501D01*
X53417834Y-62755967D01*
X53417830Y-62755965D01*
X53405038Y-62750000D01*
X53203663Y-62656097D01*
X53203659Y-62656096D01*
X53203655Y-62656094D01*
X52975413Y-62594938D01*
X52975403Y-62594936D01*
X52740001Y-62574341D01*
X52739999Y-62574341D01*
X52504596Y-62594936D01*
X52504586Y-62594938D01*
X52276344Y-62656094D01*
X52276335Y-62656098D01*
X52062171Y-62755964D01*
X52062169Y-62755965D01*
X51868600Y-62891503D01*
X51746284Y-63013819D01*
X51684961Y-63047303D01*
X51615269Y-63042319D01*
X51559336Y-63000447D01*
X51542421Y-62969470D01*
X51493354Y-62837913D01*
X51493350Y-62837906D01*
X51407190Y-62722812D01*
X51407187Y-62722809D01*
X51292093Y-62636649D01*
X51292086Y-62636645D01*
X51157379Y-62586403D01*
X51157372Y-62586401D01*
X51097844Y-62580000D01*
X50450000Y-62580000D01*
X50450000Y-63494498D01*
X50342315Y-63445320D01*
X50235763Y-63430000D01*
X50164237Y-63430000D01*
X50057685Y-63445320D01*
X49950000Y-63494498D01*
X49950000Y-62580000D01*
X49302155Y-62580000D01*
X49242627Y-62586401D01*
X49242620Y-62586403D01*
X49107913Y-62636645D01*
X49107906Y-62636649D01*
X48992812Y-62722809D01*
X48992809Y-62722812D01*
X48906649Y-62837906D01*
X48906645Y-62837913D01*
X48856403Y-62972620D01*
X48856401Y-62972627D01*
X48850000Y-63032155D01*
X48850000Y-63680000D01*
X49766314Y-63680000D01*
X49740507Y-63720156D01*
X49700000Y-63858111D01*
X49700000Y-64001889D01*
X49740507Y-64139844D01*
X49766314Y-64180000D01*
X48850000Y-64180000D01*
X48850000Y-64827844D01*
X46580500Y-64827844D01*
X46580500Y-59525000D01*
X48130000Y-59525000D01*
X48130000Y-60022844D01*
X48136401Y-60082372D01*
X48136403Y-60082379D01*
X48186645Y-60217086D01*
X48186649Y-60217093D01*
X48272809Y-60332187D01*
X48272812Y-60332190D01*
X48387906Y-60418350D01*
X48387913Y-60418354D01*
X48522620Y-60468596D01*
X48522627Y-60468598D01*
X48582155Y-60474999D01*
X48582172Y-60475000D01*
X48830000Y-60475000D01*
X48830000Y-59525000D01*
X49330000Y-59525000D01*
X49330000Y-60475000D01*
X49577828Y-60475000D01*
X49577844Y-60474999D01*
X49637372Y-60468598D01*
X49637379Y-60468596D01*
X49772086Y-60418354D01*
X49772093Y-60418350D01*
X49887187Y-60332190D01*
X49887190Y-60332187D01*
X49973350Y-60217093D01*
X49973354Y-60217086D01*
X50023596Y-60082379D01*
X50023598Y-60082372D01*
X50029999Y-60022844D01*
X50030000Y-60022827D01*
X50030000Y-59525000D01*
X49330000Y-59525000D01*
X48830000Y-59525000D01*
X48130000Y-59525000D01*
X46580500Y-59525000D01*
X46580500Y-59025000D01*
X48130000Y-59025000D01*
X48830000Y-59025000D01*
X48830000Y-58075000D01*
X49330000Y-58075000D01*
X49330000Y-59025000D01*
X50030000Y-59025000D01*
X50030000Y-58527172D01*
X50029999Y-58527155D01*
X50023598Y-58467627D01*
X50023596Y-58467620D01*
X49973354Y-58332913D01*
X49973350Y-58332906D01*
X49887190Y-58217812D01*
X49887187Y-58217809D01*
X49772093Y-58131649D01*
X49772086Y-58131645D01*
X49637379Y-58081403D01*
X49637372Y-58081401D01*
X49577844Y-58075000D01*
X49330000Y-58075000D01*
X48830000Y-58075000D01*
X48582155Y-58075000D01*
X48522627Y-58081401D01*
X48522620Y-58081403D01*
X48387913Y-58131645D01*
X48387906Y-58131649D01*
X48272812Y-58217809D01*
X48272809Y-58217812D01*
X48186649Y-58332906D01*
X48186645Y-58332913D01*
X48136403Y-58467620D01*
X48136401Y-58467627D01*
X48130000Y-58527155D01*
X48130000Y-59025000D01*
X46580500Y-59025000D01*
X46580500Y-56761613D01*
X50174500Y-56761613D01*
X50180913Y-56832192D01*
X50180913Y-56832194D01*
X50180914Y-56832196D01*
X50231522Y-56994606D01*
X50319528Y-57140185D01*
X50437879Y-57258536D01*
X50466141Y-57302251D01*
X50468451Y-57308343D01*
X50474474Y-57329946D01*
X50476304Y-57339930D01*
X50501759Y-57396490D01*
X50503189Y-57399941D01*
X50525182Y-57457930D01*
X50529826Y-57464657D01*
X50530936Y-57466266D01*
X50541961Y-57485813D01*
X50546120Y-57495055D01*
X50546124Y-57495060D01*
X50550558Y-57500719D01*
X50583944Y-57543334D01*
X50584371Y-57543878D01*
X50586591Y-57546896D01*
X50621812Y-57597924D01*
X50621816Y-57597928D01*
X50621817Y-57597929D01*
X50668250Y-57639064D01*
X50670941Y-57641598D01*
X51340959Y-58311616D01*
X51993181Y-58963838D01*
X52026666Y-59025161D01*
X52029500Y-59051519D01*
X52029500Y-60022870D01*
X52029501Y-60022876D01*
X52035908Y-60082483D01*
X52086202Y-60217328D01*
X52086206Y-60217335D01*
X52172452Y-60332544D01*
X52172455Y-60332547D01*
X52287664Y-60418793D01*
X52287671Y-60418797D01*
X52422517Y-60469091D01*
X52422516Y-60469091D01*
X52429214Y-60469811D01*
X52482127Y-60475500D01*
X53477872Y-60475499D01*
X53537483Y-60469091D01*
X53672331Y-60418796D01*
X53778795Y-60339096D01*
X53844256Y-60314680D01*
X53912529Y-60329531D01*
X53941212Y-60353732D01*
X53942320Y-60352625D01*
X54067267Y-60477572D01*
X54067271Y-60477575D01*
X54211507Y-60566542D01*
X54211518Y-60566547D01*
X54372393Y-60619855D01*
X54471683Y-60629999D01*
X54519999Y-60629998D01*
X54520000Y-60629998D01*
X54520000Y-59930000D01*
X55020000Y-59930000D01*
X55020000Y-60629999D01*
X55068308Y-60629999D01*
X55068322Y-60629998D01*
X55167607Y-60619855D01*
X55328481Y-60566547D01*
X55328492Y-60566542D01*
X55472728Y-60477575D01*
X55472732Y-60477572D01*
X55582319Y-60367986D01*
X55643642Y-60334501D01*
X55713334Y-60339485D01*
X55757681Y-60367986D01*
X55867267Y-60477572D01*
X55867271Y-60477575D01*
X56011507Y-60566542D01*
X56011518Y-60566547D01*
X56172393Y-60619855D01*
X56271683Y-60629999D01*
X56319999Y-60629998D01*
X56320000Y-60629998D01*
X56320000Y-59930000D01*
X56820000Y-59930000D01*
X56820000Y-60629999D01*
X56868308Y-60629999D01*
X56868322Y-60629998D01*
X56967607Y-60619855D01*
X57128481Y-60566547D01*
X57128492Y-60566542D01*
X57272728Y-60477575D01*
X57272732Y-60477572D01*
X57392572Y-60357732D01*
X57392575Y-60357728D01*
X57481542Y-60213492D01*
X57481547Y-60213481D01*
X57534855Y-60052606D01*
X57544999Y-59953322D01*
X57545000Y-59953309D01*
X57545000Y-59930000D01*
X56820000Y-59930000D01*
X56320000Y-59930000D01*
X55020000Y-59930000D01*
X54520000Y-59930000D01*
X54520000Y-59554000D01*
X54539685Y-59486961D01*
X54592489Y-59441206D01*
X54644000Y-59430000D01*
X57544999Y-59430000D01*
X57544999Y-59406692D01*
X57544998Y-59406677D01*
X57534855Y-59307392D01*
X57481547Y-59146518D01*
X57481542Y-59146507D01*
X57403262Y-59019597D01*
X57384821Y-58952205D01*
X57405743Y-58885542D01*
X57459385Y-58840772D01*
X57508800Y-58830500D01*
X57549366Y-58830500D01*
X57616405Y-58850185D01*
X57650941Y-58883377D01*
X57685499Y-58932732D01*
X57688402Y-58936877D01*
X57843123Y-59091598D01*
X58022361Y-59217102D01*
X58220670Y-59309575D01*
X58432023Y-59366207D01*
X58614926Y-59382208D01*
X58649998Y-59385277D01*
X58650000Y-59385277D01*
X58650002Y-59385277D01*
X58678254Y-59382805D01*
X58867977Y-59366207D01*
X59079330Y-59309575D01*
X59277639Y-59217102D01*
X59456877Y-59091598D01*
X59611598Y-58936877D01*
X59649059Y-58883376D01*
X59703635Y-58839752D01*
X59750634Y-58830500D01*
X60069945Y-58830500D01*
X60136984Y-58850185D01*
X60182739Y-58902989D01*
X60192683Y-58972147D01*
X60163658Y-59035703D01*
X60161211Y-59038441D01*
X60095147Y-59110208D01*
X60066016Y-59141852D01*
X59939075Y-59336151D01*
X59845842Y-59548699D01*
X59788866Y-59773691D01*
X59788864Y-59773702D01*
X59769700Y-60004993D01*
X59769700Y-60005006D01*
X59788864Y-60236297D01*
X59788866Y-60236308D01*
X59845842Y-60461300D01*
X59939075Y-60673848D01*
X60066016Y-60868147D01*
X60066019Y-60868151D01*
X60066021Y-60868153D01*
X60223216Y-61038913D01*
X60223219Y-61038915D01*
X60223222Y-61038918D01*
X60406365Y-61181464D01*
X60406371Y-61181468D01*
X60406374Y-61181470D01*
X60610497Y-61291936D01*
X60724487Y-61331068D01*
X60830015Y-61367297D01*
X60830017Y-61367297D01*
X60830019Y-61367298D01*
X61058951Y-61405500D01*
X61058952Y-61405500D01*
X61291048Y-61405500D01*
X61291049Y-61405500D01*
X61519981Y-61367298D01*
X61739503Y-61291936D01*
X61943626Y-61181470D01*
X61960604Y-61168256D01*
X62027476Y-61116207D01*
X62126784Y-61038913D01*
X62283979Y-60868153D01*
X62284431Y-60867462D01*
X62327863Y-60800983D01*
X62410924Y-60673849D01*
X62504157Y-60461300D01*
X62561134Y-60236305D01*
X62561135Y-60236297D01*
X62580300Y-60005006D01*
X62580300Y-60004993D01*
X62561135Y-59773702D01*
X62561133Y-59773691D01*
X62504157Y-59548699D01*
X62410924Y-59336151D01*
X62283983Y-59141852D01*
X62283980Y-59141849D01*
X62283979Y-59141847D01*
X62188823Y-59038480D01*
X62157903Y-58975828D01*
X62165763Y-58906402D01*
X62209911Y-58852247D01*
X62276328Y-58830556D01*
X62280055Y-58830500D01*
X68216789Y-58830500D01*
X68279909Y-58847767D01*
X68342113Y-58884555D01*
X68490844Y-58927765D01*
X68514011Y-58929588D01*
X68525593Y-58930500D01*
X68525594Y-58930499D01*
X68525595Y-58930500D01*
X68758134Y-58930499D01*
X68874405Y-58930499D01*
X68881354Y-58929952D01*
X68909156Y-58927765D01*
X69057887Y-58884555D01*
X69120090Y-58847767D01*
X69183211Y-58830500D01*
X69919945Y-58830500D01*
X69986984Y-58850185D01*
X70032739Y-58902989D01*
X70042683Y-58972147D01*
X70013658Y-59035703D01*
X70011211Y-59038441D01*
X69945147Y-59110208D01*
X69916016Y-59141852D01*
X69789075Y-59336151D01*
X69695842Y-59548699D01*
X69638866Y-59773691D01*
X69638864Y-59773702D01*
X69619700Y-60004993D01*
X69619700Y-60005006D01*
X69638865Y-60236304D01*
X69638865Y-60236306D01*
X69642349Y-60250062D01*
X69639723Y-60319882D01*
X69599766Y-60377199D01*
X69535164Y-60403814D01*
X69522143Y-60404500D01*
X69516520Y-60404500D01*
X69449481Y-60384815D01*
X69428839Y-60368181D01*
X69410188Y-60349530D01*
X69392931Y-60339098D01*
X69264606Y-60261522D01*
X69102196Y-60210914D01*
X69102194Y-60210913D01*
X69102192Y-60210913D01*
X69052778Y-60206423D01*
X69031616Y-60204500D01*
X68368384Y-60204500D01*
X68349145Y-60206248D01*
X68297807Y-60210913D01*
X68135393Y-60261522D01*
X67989811Y-60349530D01*
X67869530Y-60469811D01*
X67781522Y-60615393D01*
X67730913Y-60777807D01*
X67725782Y-60834275D01*
X67724500Y-60848384D01*
X67724500Y-61361616D01*
X67726423Y-61382778D01*
X67730913Y-61432192D01*
X67730913Y-61432194D01*
X67730914Y-61432196D01*
X67781522Y-61594606D01*
X67859785Y-61724069D01*
X67869530Y-61740188D01*
X67971661Y-61842319D01*
X68005146Y-61903642D01*
X68000162Y-61973334D01*
X67971661Y-62017681D01*
X67869531Y-62119810D01*
X67869530Y-62119811D01*
X67781522Y-62265393D01*
X67730913Y-62427807D01*
X67728397Y-62455500D01*
X67724500Y-62498384D01*
X67724500Y-63011616D01*
X67726423Y-63032778D01*
X67730913Y-63082192D01*
X67730913Y-63082194D01*
X67730914Y-63082196D01*
X67781522Y-63244606D01*
X67812235Y-63295412D01*
X67869530Y-63390188D01*
X67989811Y-63510469D01*
X67989813Y-63510470D01*
X67989815Y-63510472D01*
X68135394Y-63598478D01*
X68297804Y-63649086D01*
X68368384Y-63655500D01*
X68368387Y-63655500D01*
X69031613Y-63655500D01*
X69031616Y-63655500D01*
X69102196Y-63649086D01*
X69264606Y-63598478D01*
X69264616Y-63598471D01*
X69271449Y-63595398D01*
X69272167Y-63596993D01*
X69330649Y-63581546D01*
X69377694Y-63592221D01*
X69420190Y-63611142D01*
X69420196Y-63611144D01*
X69512775Y-63630822D01*
X69605354Y-63650500D01*
X69605355Y-63650500D01*
X69794644Y-63650500D01*
X69794646Y-63650500D01*
X69979803Y-63611144D01*
X70152730Y-63534151D01*
X70305871Y-63422888D01*
X70432533Y-63282216D01*
X70527179Y-63118284D01*
X70585674Y-62938256D01*
X70605460Y-62750000D01*
X70585674Y-62561744D01*
X70527179Y-62381716D01*
X70432533Y-62217784D01*
X70305871Y-62077112D01*
X70159809Y-61970992D01*
X70117144Y-61915662D01*
X70111165Y-61846049D01*
X70143771Y-61784254D01*
X70181800Y-61757600D01*
X70191500Y-61753234D01*
X70194942Y-61751809D01*
X70252930Y-61729818D01*
X70261266Y-61724062D01*
X70280821Y-61713034D01*
X70290057Y-61708878D01*
X70338896Y-61670613D01*
X70341876Y-61668421D01*
X70392929Y-61633183D01*
X70434065Y-61586748D01*
X70436599Y-61584056D01*
X70612038Y-61408617D01*
X70673359Y-61375134D01*
X70720127Y-61373991D01*
X70811816Y-61389291D01*
X70908951Y-61405500D01*
X70908952Y-61405500D01*
X71141048Y-61405500D01*
X71141049Y-61405500D01*
X71369981Y-61367298D01*
X71589503Y-61291936D01*
X71793626Y-61181470D01*
X71810604Y-61168256D01*
X71877476Y-61116207D01*
X71976784Y-61038913D01*
X72133979Y-60868153D01*
X72134431Y-60867462D01*
X72177863Y-60800983D01*
X72260924Y-60673849D01*
X72354157Y-60461300D01*
X72411134Y-60236305D01*
X72411135Y-60236297D01*
X72430300Y-60005006D01*
X72430300Y-60004993D01*
X72411135Y-59773702D01*
X72411133Y-59773691D01*
X72354157Y-59548699D01*
X72260924Y-59336151D01*
X72133983Y-59141852D01*
X72133980Y-59141849D01*
X72133979Y-59141847D01*
X72038823Y-59038480D01*
X72007903Y-58975828D01*
X72015763Y-58906402D01*
X72059911Y-58852247D01*
X72126328Y-58830556D01*
X72130055Y-58830500D01*
X77916789Y-58830500D01*
X77979909Y-58847767D01*
X78042113Y-58884555D01*
X78190844Y-58927765D01*
X78214011Y-58929588D01*
X78225593Y-58930500D01*
X78225594Y-58930499D01*
X78225595Y-58930500D01*
X78458134Y-58930499D01*
X78574405Y-58930499D01*
X78581354Y-58929952D01*
X78609156Y-58927765D01*
X78757887Y-58884555D01*
X78820090Y-58847767D01*
X78883211Y-58830500D01*
X79815151Y-58830500D01*
X79882190Y-58850185D01*
X79888569Y-58854718D01*
X79889813Y-58855470D01*
X79889815Y-58855472D01*
X80035394Y-58943478D01*
X80197804Y-58994086D01*
X80268384Y-59000500D01*
X80268387Y-59000500D01*
X80931613Y-59000500D01*
X80931616Y-59000500D01*
X81002196Y-58994086D01*
X81164606Y-58943478D01*
X81310185Y-58855472D01*
X81310186Y-58855470D01*
X81316604Y-58851591D01*
X81317588Y-58853219D01*
X81373292Y-58831040D01*
X81384849Y-58830500D01*
X81888377Y-58830500D01*
X81952527Y-58848383D01*
X82035394Y-58898478D01*
X82197804Y-58949086D01*
X82268384Y-58955500D01*
X82268387Y-58955500D01*
X82781613Y-58955500D01*
X82781616Y-58955500D01*
X82852196Y-58949086D01*
X83014606Y-58898478D01*
X83160185Y-58810472D01*
X83193226Y-58777431D01*
X83262319Y-58708339D01*
X83323642Y-58674854D01*
X83393334Y-58679838D01*
X83437681Y-58708339D01*
X83539811Y-58810469D01*
X83539813Y-58810470D01*
X83539815Y-58810472D01*
X83685394Y-58898478D01*
X83847804Y-58949086D01*
X83918384Y-58955500D01*
X83918387Y-58955500D01*
X84431613Y-58955500D01*
X84431616Y-58955500D01*
X84502196Y-58949086D01*
X84664606Y-58898478D01*
X84810185Y-58810472D01*
X84930472Y-58690185D01*
X85018478Y-58544606D01*
X85032115Y-58500840D01*
X85070850Y-58442694D01*
X85134874Y-58414718D01*
X85203860Y-58425798D01*
X85255904Y-58472416D01*
X85274500Y-58537729D01*
X85274500Y-58628336D01*
X85274501Y-58628355D01*
X85284650Y-58727707D01*
X85284651Y-58727710D01*
X85337996Y-58888694D01*
X85338001Y-58888705D01*
X85427029Y-59033040D01*
X85427032Y-59033044D01*
X85546955Y-59152967D01*
X85546959Y-59152970D01*
X85691294Y-59241998D01*
X85691297Y-59241999D01*
X85691303Y-59242003D01*
X85852292Y-59295349D01*
X85951655Y-59305500D01*
X86498344Y-59305499D01*
X86498352Y-59305498D01*
X86498355Y-59305498D01*
X86552760Y-59299940D01*
X86597708Y-59295349D01*
X86758697Y-59242003D01*
X86903044Y-59152968D01*
X86912319Y-59143693D01*
X86973642Y-59110208D01*
X87043334Y-59115192D01*
X87087681Y-59143693D01*
X87096955Y-59152967D01*
X87096959Y-59152970D01*
X87241294Y-59241998D01*
X87241297Y-59241999D01*
X87241303Y-59242003D01*
X87402292Y-59295349D01*
X87501655Y-59305500D01*
X87833480Y-59305499D01*
X87900519Y-59325183D01*
X87921161Y-59341818D01*
X88175125Y-59595782D01*
X88208610Y-59657105D01*
X88210971Y-59694268D01*
X88208071Y-59727431D01*
X88194723Y-59879997D01*
X88194723Y-59880002D01*
X88201138Y-59953322D01*
X88212437Y-60082483D01*
X88213793Y-60097975D01*
X88213793Y-60097979D01*
X88270422Y-60309322D01*
X88270424Y-60309326D01*
X88270425Y-60309330D01*
X88316661Y-60408484D01*
X88362897Y-60507638D01*
X88369380Y-60516896D01*
X88488402Y-60686877D01*
X88643123Y-60841598D01*
X88822361Y-60967102D01*
X89020670Y-61059575D01*
X89232023Y-61116207D01*
X89414926Y-61132208D01*
X89449998Y-61135277D01*
X89450000Y-61135277D01*
X89450002Y-61135277D01*
X89478254Y-61132805D01*
X89667977Y-61116207D01*
X89879330Y-61059575D01*
X90077639Y-60967102D01*
X90256877Y-60841598D01*
X90411598Y-60686877D01*
X90537102Y-60507639D01*
X90629575Y-60309330D01*
X90686207Y-60097977D01*
X90705277Y-59880000D01*
X90689027Y-59694265D01*
X90702793Y-59625770D01*
X90724868Y-59595787D01*
X91058840Y-59261816D01*
X91120161Y-59228334D01*
X91146519Y-59225500D01*
X91404169Y-59225500D01*
X91404174Y-59225500D01*
X91502685Y-59215436D01*
X91662287Y-59162549D01*
X91805391Y-59074281D01*
X91924281Y-58955391D01*
X92012549Y-58812287D01*
X92065436Y-58652685D01*
X92075500Y-58554174D01*
X92075500Y-58020826D01*
X92073883Y-58005000D01*
X95587500Y-58005000D01*
X96312500Y-58005000D01*
X96812500Y-58005000D01*
X97360000Y-58005000D01*
X97360000Y-57955000D01*
X101762500Y-57955000D01*
X102487500Y-57955000D01*
X102487500Y-57255000D01*
X102987500Y-57255000D01*
X102987500Y-57955000D01*
X103712499Y-57955000D01*
X103712499Y-57931692D01*
X103712498Y-57931677D01*
X103702355Y-57832392D01*
X103649047Y-57671518D01*
X103649042Y-57671507D01*
X103560075Y-57527271D01*
X103560072Y-57527267D01*
X103440232Y-57407427D01*
X103440228Y-57407424D01*
X103295992Y-57318457D01*
X103295981Y-57318452D01*
X103135106Y-57265144D01*
X103035822Y-57255000D01*
X102987500Y-57255000D01*
X102487500Y-57255000D01*
X102487499Y-57254999D01*
X102439193Y-57255000D01*
X102439175Y-57255001D01*
X102339892Y-57265144D01*
X102179018Y-57318452D01*
X102179007Y-57318457D01*
X102034771Y-57407424D01*
X102034767Y-57407427D01*
X101914927Y-57527267D01*
X101914924Y-57527271D01*
X101825957Y-57671507D01*
X101825952Y-57671518D01*
X101772644Y-57832393D01*
X101762500Y-57931677D01*
X101762500Y-57955000D01*
X97360000Y-57955000D01*
X97360000Y-57954000D01*
X97379685Y-57886961D01*
X97432489Y-57841206D01*
X97484000Y-57830000D01*
X98312500Y-57830000D01*
X98312500Y-57280000D01*
X98812500Y-57280000D01*
X98812500Y-57830000D01*
X99722295Y-57830000D01*
X99722295Y-57829998D01*
X99722100Y-57827513D01*
X99676281Y-57669801D01*
X99592685Y-57528447D01*
X99592678Y-57528438D01*
X99476561Y-57412321D01*
X99476552Y-57412314D01*
X99335196Y-57328717D01*
X99335193Y-57328716D01*
X99177495Y-57282900D01*
X99177489Y-57282899D01*
X99140644Y-57280000D01*
X98812500Y-57280000D01*
X98312500Y-57280000D01*
X97984356Y-57280000D01*
X97947510Y-57282899D01*
X97947504Y-57282900D01*
X97789806Y-57328716D01*
X97789803Y-57328717D01*
X97648447Y-57412314D01*
X97648438Y-57412321D01*
X97526800Y-57533960D01*
X97525728Y-57532888D01*
X97476218Y-57568637D01*
X97406450Y-57572420D01*
X97347212Y-57539407D01*
X97265232Y-57457427D01*
X97265228Y-57457424D01*
X97120992Y-57368457D01*
X97120981Y-57368452D01*
X96960106Y-57315144D01*
X96860822Y-57305000D01*
X96812500Y-57305000D01*
X96812500Y-58005000D01*
X96312500Y-58005000D01*
X96312500Y-57305000D01*
X96312499Y-57304999D01*
X96264193Y-57305000D01*
X96264175Y-57305001D01*
X96164892Y-57315144D01*
X96004018Y-57368452D01*
X96004007Y-57368457D01*
X95859771Y-57457424D01*
X95859767Y-57457427D01*
X95739927Y-57577267D01*
X95739924Y-57577271D01*
X95650957Y-57721507D01*
X95650952Y-57721518D01*
X95597644Y-57882393D01*
X95587500Y-57981677D01*
X95587500Y-58005000D01*
X92073883Y-58005000D01*
X92070301Y-57969935D01*
X92083070Y-57901243D01*
X92130950Y-57850358D01*
X92198740Y-57833437D01*
X92257811Y-57851217D01*
X92285605Y-57868019D01*
X92447894Y-57918590D01*
X92447893Y-57918590D01*
X92518408Y-57924998D01*
X92518426Y-57924999D01*
X92524999Y-57924998D01*
X92525000Y-57924998D01*
X92525000Y-56824000D01*
X92544685Y-56756961D01*
X92597489Y-56711206D01*
X92649000Y-56700000D01*
X92901000Y-56700000D01*
X92968039Y-56719685D01*
X93013794Y-56772489D01*
X93025000Y-56824000D01*
X93025000Y-57924999D01*
X93031581Y-57924999D01*
X93102102Y-57918591D01*
X93102107Y-57918590D01*
X93264396Y-57868018D01*
X93409877Y-57780072D01*
X93409878Y-57780071D01*
X93511963Y-57677985D01*
X93573286Y-57644499D01*
X93642977Y-57649483D01*
X93687326Y-57677984D01*
X93789811Y-57780469D01*
X93789813Y-57780470D01*
X93789815Y-57780472D01*
X93935394Y-57868478D01*
X94097804Y-57919086D01*
X94168384Y-57925500D01*
X94168387Y-57925500D01*
X94681613Y-57925500D01*
X94681616Y-57925500D01*
X94752196Y-57919086D01*
X94914606Y-57868478D01*
X95060185Y-57780472D01*
X95180472Y-57660185D01*
X95268478Y-57514606D01*
X95319086Y-57352196D01*
X95325500Y-57281616D01*
X95325500Y-56618384D01*
X95319086Y-56547804D01*
X95268478Y-56385394D01*
X95180472Y-56239815D01*
X95180470Y-56239813D01*
X95180469Y-56239811D01*
X95161819Y-56221161D01*
X95128334Y-56159838D01*
X95125500Y-56133480D01*
X95125500Y-55816519D01*
X95145185Y-55749480D01*
X95161821Y-55728836D01*
X95180469Y-55710188D01*
X95180472Y-55710185D01*
X95268478Y-55564606D01*
X95319086Y-55402196D01*
X95325500Y-55331616D01*
X95325500Y-54668384D01*
X95319086Y-54597804D01*
X95268478Y-54435394D01*
X95219565Y-54354483D01*
X95201730Y-54286931D01*
X95223247Y-54220457D01*
X95237992Y-54202664D01*
X95387821Y-54052835D01*
X95449142Y-54019353D01*
X95518834Y-54024337D01*
X95574767Y-54066209D01*
X95599184Y-54131673D01*
X95599500Y-54140519D01*
X95599500Y-55544451D01*
X95599387Y-55548196D01*
X95596294Y-55599334D01*
X95595642Y-55610106D01*
X95600964Y-55639148D01*
X95606821Y-55671112D01*
X95607384Y-55674813D01*
X95614859Y-55736370D01*
X95614860Y-55736374D01*
X95618451Y-55745843D01*
X95624474Y-55767446D01*
X95626304Y-55777430D01*
X95651759Y-55833990D01*
X95653189Y-55837441D01*
X95675182Y-55895430D01*
X95675183Y-55895431D01*
X95680936Y-55903766D01*
X95691961Y-55923313D01*
X95696120Y-55932555D01*
X95696122Y-55932557D01*
X95729765Y-55975500D01*
X95734371Y-55981378D01*
X95736591Y-55984396D01*
X95771812Y-56035424D01*
X95771816Y-56035428D01*
X95771817Y-56035429D01*
X95818250Y-56076564D01*
X95820941Y-56079098D01*
X96250899Y-56509056D01*
X96253435Y-56511750D01*
X96294571Y-56558183D01*
X96345630Y-56593427D01*
X96348612Y-56595621D01*
X96397443Y-56633877D01*
X96397447Y-56633880D01*
X96397446Y-56633880D01*
X96406677Y-56638034D01*
X96426231Y-56649062D01*
X96434566Y-56654816D01*
X96434568Y-56654816D01*
X96434570Y-56654818D01*
X96492579Y-56676817D01*
X96495976Y-56678224D01*
X96543270Y-56699509D01*
X96552564Y-56703693D01*
X96552565Y-56703693D01*
X96552569Y-56703695D01*
X96562534Y-56705521D01*
X96584156Y-56711548D01*
X96587277Y-56712731D01*
X96593628Y-56715140D01*
X96638751Y-56720618D01*
X96655174Y-56722613D01*
X96658871Y-56723175D01*
X96719894Y-56734358D01*
X96775252Y-56731009D01*
X96781803Y-56730613D01*
X96785548Y-56730500D01*
X100326952Y-56730500D01*
X100330697Y-56730613D01*
X100338042Y-56731057D01*
X100392606Y-56734358D01*
X100430314Y-56727447D01*
X100453621Y-56723177D01*
X100457325Y-56722613D01*
X100475170Y-56720446D01*
X100518872Y-56715140D01*
X100528335Y-56711550D01*
X100549961Y-56705522D01*
X100550893Y-56705351D01*
X100559932Y-56703695D01*
X100616512Y-56678229D01*
X100619942Y-56676809D01*
X100677930Y-56654818D01*
X100686266Y-56649062D01*
X100705821Y-56638034D01*
X100715057Y-56633878D01*
X100763896Y-56595613D01*
X100766876Y-56593421D01*
X100817929Y-56558183D01*
X100859065Y-56511748D01*
X100861599Y-56509056D01*
X101353155Y-56017500D01*
X103300001Y-56017500D01*
X103300001Y-56099082D01*
X103306408Y-56169602D01*
X103306409Y-56169607D01*
X103356981Y-56331896D01*
X103444927Y-56477377D01*
X103565122Y-56597572D01*
X103710604Y-56685519D01*
X103710603Y-56685519D01*
X103872894Y-56736090D01*
X103872893Y-56736090D01*
X103943408Y-56742498D01*
X103943426Y-56742499D01*
X103949999Y-56742498D01*
X103950000Y-56742498D01*
X103950000Y-56017500D01*
X103300001Y-56017500D01*
X101353155Y-56017500D01*
X101629056Y-55741599D01*
X101631748Y-55739065D01*
X101678183Y-55697929D01*
X101713417Y-55646883D01*
X101715620Y-55643887D01*
X101753878Y-55595056D01*
X101758037Y-55585813D01*
X101769061Y-55566268D01*
X101774818Y-55557930D01*
X101790150Y-55517500D01*
X103300000Y-55517500D01*
X103950000Y-55517500D01*
X103950000Y-54792500D01*
X103949999Y-54792499D01*
X103943436Y-54792500D01*
X103943417Y-54792501D01*
X103872897Y-54798908D01*
X103872892Y-54798909D01*
X103710603Y-54849481D01*
X103565122Y-54937427D01*
X103444927Y-55057622D01*
X103356980Y-55203104D01*
X103306409Y-55365393D01*
X103300000Y-55435927D01*
X103300000Y-55517500D01*
X101790150Y-55517500D01*
X101796810Y-55499939D01*
X101798232Y-55496503D01*
X101823695Y-55439931D01*
X101825522Y-55429959D01*
X101831546Y-55408347D01*
X101835140Y-55398872D01*
X101842613Y-55337324D01*
X101843177Y-55333619D01*
X101849764Y-55297674D01*
X101854358Y-55272606D01*
X101850613Y-55210696D01*
X101850500Y-55206951D01*
X101850500Y-53004500D01*
X101870185Y-52937461D01*
X101922989Y-52891706D01*
X101974500Y-52880500D01*
X102098126Y-52880500D01*
X102165165Y-52900185D01*
X102185807Y-52916819D01*
X102196955Y-52927967D01*
X102196959Y-52927970D01*
X102341294Y-53016998D01*
X102341297Y-53016999D01*
X102341303Y-53017003D01*
X102502292Y-53070349D01*
X102601655Y-53080500D01*
X103198344Y-53080499D01*
X103198352Y-53080498D01*
X103198355Y-53080498D01*
X103252760Y-53074940D01*
X103297708Y-53070349D01*
X103458697Y-53017003D01*
X103603044Y-52927968D01*
X103722968Y-52808044D01*
X103812003Y-52663697D01*
X103865349Y-52502708D01*
X103875500Y-52403345D01*
X103875499Y-51856656D01*
X103874101Y-51842971D01*
X103886870Y-51774279D01*
X103934750Y-51723394D01*
X104002540Y-51706473D01*
X104068717Y-51728888D01*
X104099030Y-51759241D01*
X104188402Y-51886877D01*
X104343123Y-52041598D01*
X104522361Y-52167102D01*
X104720670Y-52259575D01*
X104932023Y-52316207D01*
X105036307Y-52325330D01*
X105101376Y-52350782D01*
X105142354Y-52407373D01*
X105149500Y-52448858D01*
X105149500Y-54950980D01*
X105129815Y-55018019D01*
X105113181Y-55038661D01*
X105112327Y-55039515D01*
X105051004Y-55073000D01*
X104981312Y-55068016D01*
X104936965Y-55039515D01*
X104834877Y-54937427D01*
X104689395Y-54849480D01*
X104689396Y-54849480D01*
X104527105Y-54798909D01*
X104527106Y-54798909D01*
X104456572Y-54792500D01*
X104450000Y-54792500D01*
X104450000Y-56742499D01*
X104456581Y-56742499D01*
X104527102Y-56736091D01*
X104527107Y-56736090D01*
X104689396Y-56685518D01*
X104834877Y-56597572D01*
X104834878Y-56597571D01*
X104936963Y-56495485D01*
X104998286Y-56461999D01*
X105067977Y-56466983D01*
X105112275Y-56495432D01*
X105113131Y-56496288D01*
X105146651Y-56557590D01*
X105149500Y-56584019D01*
X105149500Y-62686282D01*
X105129815Y-62753321D01*
X105096624Y-62787857D01*
X104948594Y-62891508D01*
X104781508Y-63058594D01*
X104651269Y-63244595D01*
X104596692Y-63288219D01*
X104527193Y-63295412D01*
X104464839Y-63263890D01*
X104448119Y-63244594D01*
X104318113Y-63058926D01*
X104318108Y-63058920D01*
X104151082Y-62891894D01*
X103957578Y-62756399D01*
X103743492Y-62656570D01*
X103743486Y-62656567D01*
X103530000Y-62599364D01*
X103530000Y-63494498D01*
X103422315Y-63445320D01*
X103315763Y-63430000D01*
X103244237Y-63430000D01*
X103137685Y-63445320D01*
X103030000Y-63494498D01*
X103030000Y-62599364D01*
X103029999Y-62599364D01*
X102816513Y-62656567D01*
X102816507Y-62656570D01*
X102602422Y-62756399D01*
X102602420Y-62756400D01*
X102408926Y-62891886D01*
X102408920Y-62891891D01*
X102241891Y-63058920D01*
X102241890Y-63058922D01*
X102111880Y-63244595D01*
X102057303Y-63288219D01*
X101987804Y-63295412D01*
X101925450Y-63263890D01*
X101908730Y-63244594D01*
X101778494Y-63058597D01*
X101611402Y-62891506D01*
X101611395Y-62891501D01*
X101417834Y-62755967D01*
X101417830Y-62755965D01*
X101405038Y-62750000D01*
X101203663Y-62656097D01*
X101203659Y-62656096D01*
X101203655Y-62656094D01*
X100975413Y-62594938D01*
X100975403Y-62594936D01*
X100740001Y-62574341D01*
X100739999Y-62574341D01*
X100504596Y-62594936D01*
X100504586Y-62594938D01*
X100276344Y-62656094D01*
X100276335Y-62656098D01*
X100062171Y-62755964D01*
X100062169Y-62755965D01*
X99868600Y-62891503D01*
X99746673Y-63013430D01*
X99685350Y-63046914D01*
X99615658Y-63041930D01*
X99559725Y-63000058D01*
X99542810Y-62969081D01*
X99493797Y-62837671D01*
X99493793Y-62837664D01*
X99407547Y-62722455D01*
X99407544Y-62722452D01*
X99292335Y-62636206D01*
X99292328Y-62636202D01*
X99227539Y-62612038D01*
X99171605Y-62570167D01*
X99147188Y-62504703D01*
X99162039Y-62436430D01*
X99183185Y-62408181D01*
X99324550Y-62266816D01*
X99385871Y-62233334D01*
X99412229Y-62230500D01*
X101836295Y-62230500D01*
X101854265Y-62231809D01*
X101878023Y-62235289D01*
X101930068Y-62230735D01*
X101935470Y-62230500D01*
X101943704Y-62230500D01*
X101943709Y-62230500D01*
X101955327Y-62229141D01*
X101976276Y-62226693D01*
X101989028Y-62225577D01*
X102052797Y-62219999D01*
X102052805Y-62219996D01*
X102059866Y-62218539D01*
X102059878Y-62218598D01*
X102067243Y-62216965D01*
X102067229Y-62216906D01*
X102074246Y-62215241D01*
X102074255Y-62215241D01*
X102146423Y-62188974D01*
X102219334Y-62164814D01*
X102219343Y-62164807D01*
X102225882Y-62161760D01*
X102225908Y-62161816D01*
X102232690Y-62158532D01*
X102232663Y-62158478D01*
X102239106Y-62155240D01*
X102239117Y-62155237D01*
X102303283Y-62113034D01*
X102368656Y-62072712D01*
X102368662Y-62072705D01*
X102374325Y-62068229D01*
X102374363Y-62068277D01*
X102380200Y-62063522D01*
X102380161Y-62063475D01*
X102385696Y-62058830D01*
X102438385Y-62002983D01*
X103009175Y-61432192D01*
X103223142Y-61218224D01*
X103236771Y-61206447D01*
X103256030Y-61192110D01*
X103289601Y-61152101D01*
X103293261Y-61148106D01*
X103299090Y-61142278D01*
X103304626Y-61135277D01*
X103319440Y-61116540D01*
X103319720Y-61116207D01*
X103325448Y-61109379D01*
X103368802Y-61057714D01*
X103368806Y-61057705D01*
X103372774Y-61051675D01*
X103372825Y-61051708D01*
X103376872Y-61045356D01*
X103376820Y-61045324D01*
X103380612Y-61039175D01*
X103413075Y-60969558D01*
X103436886Y-60922147D01*
X103447540Y-60900933D01*
X103447542Y-60900921D01*
X103450009Y-60894146D01*
X103450067Y-60894167D01*
X103452543Y-60887046D01*
X103452486Y-60887028D01*
X103454757Y-60880173D01*
X103470292Y-60804934D01*
X103487998Y-60730228D01*
X103488000Y-60730221D01*
X103488000Y-60730210D01*
X103488838Y-60723048D01*
X103488898Y-60723055D01*
X103489664Y-60715555D01*
X103489605Y-60715550D01*
X103490234Y-60708360D01*
X103490106Y-60703975D01*
X103488000Y-60631582D01*
X103488000Y-60556874D01*
X103507685Y-60489835D01*
X103524319Y-60469193D01*
X103532212Y-60461300D01*
X103560468Y-60433044D01*
X103649503Y-60288697D01*
X103702849Y-60127708D01*
X103713000Y-60028345D01*
X103712999Y-59481656D01*
X103707956Y-59432292D01*
X103702849Y-59382292D01*
X103702848Y-59382289D01*
X103689437Y-59341818D01*
X103649503Y-59221303D01*
X103649499Y-59221297D01*
X103649498Y-59221294D01*
X103560470Y-59076959D01*
X103560467Y-59076955D01*
X103550839Y-59067327D01*
X103517354Y-59006004D01*
X103522338Y-58936312D01*
X103550845Y-58891959D01*
X103560073Y-58882731D01*
X103649042Y-58738492D01*
X103649047Y-58738481D01*
X103702355Y-58577606D01*
X103712499Y-58478322D01*
X103712500Y-58478309D01*
X103712500Y-58455000D01*
X101896308Y-58455000D01*
X101829269Y-58435315D01*
X101808631Y-58418685D01*
X101751865Y-58361919D01*
X101702806Y-58332906D01*
X101610396Y-58278255D01*
X101610393Y-58278254D01*
X101452573Y-58232402D01*
X101452567Y-58232401D01*
X101415696Y-58229500D01*
X101415694Y-58229500D01*
X100259306Y-58229500D01*
X100259304Y-58229500D01*
X100222432Y-58232401D01*
X100222426Y-58232402D01*
X100064606Y-58278254D01*
X100064603Y-58278255D01*
X99923137Y-58361917D01*
X99916969Y-58366702D01*
X99915664Y-58365019D01*
X99863954Y-58393246D01*
X99794263Y-58388251D01*
X99746558Y-58356247D01*
X99722296Y-58330000D01*
X98812500Y-58330000D01*
X98812500Y-58880000D01*
X99140644Y-58880000D01*
X99177489Y-58877100D01*
X99177495Y-58877099D01*
X99335193Y-58831283D01*
X99335196Y-58831282D01*
X99483271Y-58743712D01*
X99484290Y-58745435D01*
X99539526Y-58723744D01*
X99608045Y-58737418D01*
X99658293Y-58785966D01*
X99674500Y-58847257D01*
X99674500Y-59212104D01*
X99654815Y-59279143D01*
X99602011Y-59324898D01*
X99532853Y-59334842D01*
X99484502Y-59314330D01*
X99483580Y-59315890D01*
X99358643Y-59242003D01*
X99335398Y-59228256D01*
X99335397Y-59228255D01*
X99335396Y-59228255D01*
X99335393Y-59228254D01*
X99177573Y-59182402D01*
X99177567Y-59182401D01*
X99140696Y-59179500D01*
X99140694Y-59179500D01*
X97984306Y-59179500D01*
X97984304Y-59179500D01*
X97947432Y-59182401D01*
X97947426Y-59182402D01*
X97802267Y-59224576D01*
X97767672Y-59229500D01*
X97517925Y-59229500D01*
X97450886Y-59209815D01*
X97412387Y-59170598D01*
X97385468Y-59126956D01*
X97375839Y-59117327D01*
X97342354Y-59056004D01*
X97347338Y-58986312D01*
X97375845Y-58941959D01*
X97385071Y-58932734D01*
X97475202Y-58786609D01*
X97527150Y-58739885D01*
X97596113Y-58728662D01*
X97643862Y-58744974D01*
X97789803Y-58831282D01*
X97789806Y-58831283D01*
X97947504Y-58877099D01*
X97947510Y-58877100D01*
X97984356Y-58880000D01*
X98312500Y-58880000D01*
X98312500Y-58330000D01*
X97577500Y-58330000D01*
X97577500Y-58381000D01*
X97557815Y-58448039D01*
X97505011Y-58493794D01*
X97453500Y-58505000D01*
X95587501Y-58505000D01*
X95587501Y-58528322D01*
X95597644Y-58627607D01*
X95650952Y-58788481D01*
X95650957Y-58788492D01*
X95739922Y-58932725D01*
X95739927Y-58932732D01*
X95749160Y-58941965D01*
X95782645Y-59003288D01*
X95777661Y-59072980D01*
X95749163Y-59117324D01*
X95739533Y-59126953D01*
X95739529Y-59126959D01*
X95650501Y-59271294D01*
X95650496Y-59271305D01*
X95597151Y-59432290D01*
X95587000Y-59531647D01*
X95587000Y-60078337D01*
X95587001Y-60078355D01*
X95597150Y-60177707D01*
X95597151Y-60177710D01*
X95650496Y-60338694D01*
X95650501Y-60338705D01*
X95730414Y-60468263D01*
X95748855Y-60535655D01*
X95732265Y-60595356D01*
X95722822Y-60611712D01*
X95722821Y-60611714D01*
X95668922Y-60777598D01*
X95664326Y-60791744D01*
X95644540Y-60980000D01*
X95664326Y-61168256D01*
X95664327Y-61168259D01*
X95722818Y-61348277D01*
X95722821Y-61348284D01*
X95817467Y-61512216D01*
X95944129Y-61652888D01*
X96097265Y-61764148D01*
X96097270Y-61764151D01*
X96270192Y-61841142D01*
X96270197Y-61841144D01*
X96455354Y-61880500D01*
X96455355Y-61880500D01*
X96644644Y-61880500D01*
X96644646Y-61880500D01*
X96829803Y-61841144D01*
X97002730Y-61764151D01*
X97155871Y-61652888D01*
X97282533Y-61512216D01*
X97377179Y-61348284D01*
X97435674Y-61168256D01*
X97455460Y-60980000D01*
X97443631Y-60867458D01*
X97456200Y-60798732D01*
X97503932Y-60747708D01*
X97566952Y-60730500D01*
X97767672Y-60730500D01*
X97802267Y-60735424D01*
X97947426Y-60777597D01*
X97947429Y-60777597D01*
X97947431Y-60777598D01*
X97950049Y-60777804D01*
X97984304Y-60780500D01*
X97984306Y-60780500D01*
X98388770Y-60780500D01*
X98455809Y-60800185D01*
X98501564Y-60852989D01*
X98511508Y-60922147D01*
X98482483Y-60985703D01*
X98476451Y-60992181D01*
X97714358Y-61754272D01*
X97700729Y-61766051D01*
X97681468Y-61780390D01*
X97647898Y-61820397D01*
X97644253Y-61824376D01*
X97638409Y-61830222D01*
X97618059Y-61855959D01*
X97568695Y-61914789D01*
X97564729Y-61920819D01*
X97564682Y-61920788D01*
X97560630Y-61927147D01*
X97560679Y-61927177D01*
X97556889Y-61933321D01*
X97524424Y-62002941D01*
X97489960Y-62071566D01*
X97487488Y-62078357D01*
X97487432Y-62078336D01*
X97484960Y-62085450D01*
X97485015Y-62085469D01*
X97482742Y-62092327D01*
X97478467Y-62113034D01*
X97467207Y-62167565D01*
X97455908Y-62215240D01*
X97449498Y-62242286D01*
X97448661Y-62249454D01*
X97448601Y-62249447D01*
X97447835Y-62256945D01*
X97447895Y-62256951D01*
X97447265Y-62264140D01*
X97449500Y-62340916D01*
X97449500Y-62455500D01*
X97429815Y-62522539D01*
X97377011Y-62568294D01*
X97325505Y-62579500D01*
X97302132Y-62579500D01*
X97302123Y-62579501D01*
X97242516Y-62585908D01*
X97107671Y-62636202D01*
X97107664Y-62636206D01*
X96992455Y-62722452D01*
X96992452Y-62722455D01*
X96906206Y-62837664D01*
X96906202Y-62837671D01*
X96855908Y-62972517D01*
X96849501Y-63032116D01*
X96849500Y-63032135D01*
X96849500Y-64827870D01*
X96849501Y-64827876D01*
X96855908Y-64887483D01*
X96906202Y-65022328D01*
X96906206Y-65022335D01*
X96992452Y-65137544D01*
X96992455Y-65137547D01*
X97107664Y-65223793D01*
X97107671Y-65223797D01*
X97242517Y-65274091D01*
X97242516Y-65274091D01*
X97249444Y-65274835D01*
X97302127Y-65280500D01*
X99097872Y-65280499D01*
X99157483Y-65274091D01*
X99292331Y-65223796D01*
X99407546Y-65137546D01*
X99493796Y-65022331D01*
X99542810Y-64890916D01*
X99584681Y-64834984D01*
X99650145Y-64810566D01*
X99718418Y-64825417D01*
X99746673Y-64846569D01*
X99868599Y-64968495D01*
X99965384Y-65036265D01*
X100062165Y-65104032D01*
X100062167Y-65104033D01*
X100062170Y-65104035D01*
X100276337Y-65203903D01*
X100504592Y-65265063D01*
X100681034Y-65280500D01*
X100739999Y-65285659D01*
X100740000Y-65285659D01*
X100740001Y-65285659D01*
X100798966Y-65280500D01*
X100975408Y-65265063D01*
X101203663Y-65203903D01*
X101417830Y-65104035D01*
X101611401Y-64968495D01*
X101778495Y-64801401D01*
X101908730Y-64615405D01*
X101963307Y-64571781D01*
X102032805Y-64564587D01*
X102095160Y-64596110D01*
X102111879Y-64615405D01*
X102241890Y-64801078D01*
X102408917Y-64968105D01*
X102602421Y-65103600D01*
X102816507Y-65203429D01*
X102816516Y-65203433D01*
X103030000Y-65260634D01*
X103030000Y-64365501D01*
X103137685Y-64414680D01*
X103244237Y-64430000D01*
X103315763Y-64430000D01*
X103422315Y-64414680D01*
X103530000Y-64365501D01*
X103530000Y-65260633D01*
X103743483Y-65203433D01*
X103743492Y-65203429D01*
X103957578Y-65103600D01*
X104151082Y-64968105D01*
X104318105Y-64801082D01*
X104448119Y-64615405D01*
X104502696Y-64571781D01*
X104572195Y-64564588D01*
X104634549Y-64596110D01*
X104651269Y-64615405D01*
X104781505Y-64801401D01*
X104948599Y-64968495D01*
X105045384Y-65036265D01*
X105142165Y-65104032D01*
X105142167Y-65104033D01*
X105142170Y-65104035D01*
X105356337Y-65203903D01*
X105584592Y-65265063D01*
X105761034Y-65280500D01*
X105819999Y-65285659D01*
X105820000Y-65285659D01*
X105820001Y-65285659D01*
X105878966Y-65280500D01*
X106055408Y-65265063D01*
X106283663Y-65203903D01*
X106497830Y-65104035D01*
X106691401Y-64968495D01*
X106858495Y-64801401D01*
X106994035Y-64607830D01*
X107093903Y-64393663D01*
X107155063Y-64165408D01*
X107175659Y-63930000D01*
X107155063Y-63694592D01*
X107093903Y-63466337D01*
X106994035Y-63252171D01*
X106988731Y-63244595D01*
X106858494Y-63058597D01*
X106691404Y-62891508D01*
X106691402Y-62891506D01*
X106691401Y-62891505D01*
X106691396Y-62891501D01*
X106691393Y-62891499D01*
X106603376Y-62829868D01*
X106559751Y-62775291D01*
X106550500Y-62728294D01*
X106550500Y-56584019D01*
X106570185Y-56516980D01*
X106586821Y-56496336D01*
X106605469Y-56477688D01*
X106605472Y-56477685D01*
X106693478Y-56332106D01*
X106744086Y-56169696D01*
X106750500Y-56099116D01*
X106750500Y-55435884D01*
X106744086Y-55365304D01*
X106693478Y-55202894D01*
X106605472Y-55057315D01*
X106605470Y-55057313D01*
X106605469Y-55057311D01*
X106586819Y-55038661D01*
X106553334Y-54977338D01*
X106550500Y-54950980D01*
X106550500Y-51803035D01*
X106550613Y-51799290D01*
X106554357Y-51737394D01*
X106543177Y-51676386D01*
X106542615Y-51672689D01*
X106535140Y-51611129D01*
X106535139Y-51611125D01*
X106531546Y-51601651D01*
X106525519Y-51580029D01*
X106523694Y-51570070D01*
X106523694Y-51570068D01*
X106518425Y-51558362D01*
X106498243Y-51513520D01*
X106496809Y-51510057D01*
X106489274Y-51490188D01*
X106474818Y-51452070D01*
X106469060Y-51443728D01*
X106458032Y-51424176D01*
X106453877Y-51414943D01*
X106453876Y-51414942D01*
X106453875Y-51414939D01*
X106425403Y-51378599D01*
X106415633Y-51366128D01*
X106413417Y-51363117D01*
X106409579Y-51357556D01*
X106387697Y-51291201D01*
X106388102Y-51276311D01*
X106388823Y-51268080D01*
X106403511Y-51100181D01*
X106405277Y-51080001D01*
X106405277Y-51079997D01*
X106399556Y-51014606D01*
X106386207Y-50862023D01*
X106333187Y-50664151D01*
X106329577Y-50650677D01*
X106329576Y-50650676D01*
X106329575Y-50650670D01*
X106237102Y-50452362D01*
X106237100Y-50452359D01*
X106237099Y-50452357D01*
X106111599Y-50273124D01*
X106038475Y-50200000D01*
X105956877Y-50118402D01*
X105818978Y-50021844D01*
X105777638Y-49992897D01*
X105632996Y-49925450D01*
X105579330Y-49900425D01*
X105579326Y-49900424D01*
X105579322Y-49900422D01*
X105367977Y-49843793D01*
X105150002Y-49824723D01*
X105149998Y-49824723D01*
X105011715Y-49836821D01*
X104932023Y-49843793D01*
X104932020Y-49843793D01*
X104879482Y-49857871D01*
X104817490Y-49856624D01*
X104817301Y-49857656D01*
X104810958Y-49856493D01*
X104810506Y-49856484D01*
X104809929Y-49856304D01*
X104799946Y-49854474D01*
X104778343Y-49848451D01*
X104768874Y-49844860D01*
X104768870Y-49844859D01*
X104707313Y-49837384D01*
X104703612Y-49836821D01*
X104642608Y-49825642D01*
X104642603Y-49825642D01*
X104580697Y-49829387D01*
X104576952Y-49829500D01*
X103701874Y-49829500D01*
X103634835Y-49809815D01*
X103614193Y-49793181D01*
X103603044Y-49782032D01*
X103603040Y-49782029D01*
X103458705Y-49693001D01*
X103458699Y-49692998D01*
X103458697Y-49692997D01*
X103383650Y-49668129D01*
X103297709Y-49639651D01*
X103198346Y-49629500D01*
X102601662Y-49629500D01*
X102601644Y-49629501D01*
X102502292Y-49639650D01*
X102502289Y-49639651D01*
X102341305Y-49692996D01*
X102341294Y-49693001D01*
X102196959Y-49782029D01*
X102196955Y-49782032D01*
X102185807Y-49793181D01*
X102124484Y-49826666D01*
X102098126Y-49829500D01*
X101966520Y-49829500D01*
X101899481Y-49809815D01*
X101878839Y-49793181D01*
X101860188Y-49774530D01*
X101714606Y-49686522D01*
X101709218Y-49684843D01*
X101552196Y-49635914D01*
X101552194Y-49635913D01*
X101552192Y-49635913D01*
X101502778Y-49631423D01*
X101481616Y-49629500D01*
X100818384Y-49629500D01*
X100799145Y-49631248D01*
X100747807Y-49635913D01*
X100585393Y-49686522D01*
X100439811Y-49774530D01*
X100439810Y-49774531D01*
X100421161Y-49793181D01*
X100359838Y-49826666D01*
X100333480Y-49829500D01*
X99355912Y-49829500D01*
X99288873Y-49809815D01*
X99243118Y-49757011D01*
X99233174Y-49687853D01*
X99262199Y-49624297D01*
X99316908Y-49587794D01*
X99373481Y-49569047D01*
X99373492Y-49569042D01*
X99517728Y-49480075D01*
X99517732Y-49480072D01*
X99637572Y-49360232D01*
X99637575Y-49360228D01*
X99726542Y-49215992D01*
X99726547Y-49215981D01*
X99779855Y-49055106D01*
X99789999Y-48955822D01*
X99790000Y-48955809D01*
X99790000Y-48907500D01*
X98714000Y-48907500D01*
X98646961Y-48887815D01*
X98601206Y-48835011D01*
X98590000Y-48783500D01*
X98590000Y-47682500D01*
X99090000Y-47682500D01*
X99090000Y-48407500D01*
X99789999Y-48407500D01*
X99789999Y-48359192D01*
X99789998Y-48359177D01*
X99779855Y-48259892D01*
X99726547Y-48099018D01*
X99726542Y-48099007D01*
X99637575Y-47954771D01*
X99637572Y-47954767D01*
X99517732Y-47834927D01*
X99517728Y-47834924D01*
X99373492Y-47745957D01*
X99373481Y-47745952D01*
X99212606Y-47692644D01*
X99113322Y-47682500D01*
X99090000Y-47682500D01*
X98590000Y-47682500D01*
X98590000Y-47682499D01*
X98566693Y-47682500D01*
X98566674Y-47682501D01*
X98467392Y-47692644D01*
X98306518Y-47745952D01*
X98306507Y-47745957D01*
X98229597Y-47793397D01*
X98162205Y-47811838D01*
X98095541Y-47790916D01*
X98050772Y-47737274D01*
X98040500Y-47687859D01*
X98040500Y-47428705D01*
X98041809Y-47410735D01*
X98045289Y-47386974D01*
X98040736Y-47334939D01*
X98040500Y-47329532D01*
X98040500Y-47321296D01*
X98040500Y-47321291D01*
X98036691Y-47288705D01*
X98029998Y-47212203D01*
X98029995Y-47212194D01*
X98028538Y-47205135D01*
X98028598Y-47205122D01*
X98026965Y-47197757D01*
X98026906Y-47197772D01*
X98025241Y-47190749D01*
X98025241Y-47190745D01*
X97998971Y-47118568D01*
X97974814Y-47045665D01*
X97974812Y-47045662D01*
X97971761Y-47039118D01*
X97971815Y-47039092D01*
X97968533Y-47032312D01*
X97968480Y-47032340D01*
X97965238Y-47025886D01*
X97965237Y-47025883D01*
X97923038Y-46961723D01*
X97882712Y-46896344D01*
X97882711Y-46896343D01*
X97882710Y-46896341D01*
X97878234Y-46890681D01*
X97878280Y-46890643D01*
X97873519Y-46884799D01*
X97873474Y-46884838D01*
X97868834Y-46879308D01*
X97864896Y-46875593D01*
X97833365Y-46845844D01*
X97812982Y-46826613D01*
X96953047Y-45966679D01*
X96919562Y-45905356D01*
X96924546Y-45835665D01*
X96966418Y-45779731D01*
X97012428Y-45762569D01*
X97020000Y-45754998D01*
X97020000Y-45055000D01*
X97520000Y-45055000D01*
X97520000Y-45754999D01*
X97568308Y-45754999D01*
X97568322Y-45754998D01*
X97667607Y-45744855D01*
X97828481Y-45691547D01*
X97828492Y-45691542D01*
X97972727Y-45602576D01*
X98035350Y-45539953D01*
X98096673Y-45506468D01*
X98166365Y-45511452D01*
X98210713Y-45539953D01*
X98318438Y-45647678D01*
X98318447Y-45647685D01*
X98459803Y-45731282D01*
X98459806Y-45731283D01*
X98617504Y-45777099D01*
X98617510Y-45777100D01*
X98654356Y-45780000D01*
X98982500Y-45780000D01*
X98982500Y-45230000D01*
X99482500Y-45230000D01*
X99482500Y-45780000D01*
X99810644Y-45780000D01*
X99847489Y-45777100D01*
X99847495Y-45777099D01*
X100005193Y-45731283D01*
X100005196Y-45731282D01*
X100146552Y-45647685D01*
X100146561Y-45647678D01*
X100262678Y-45531561D01*
X100262685Y-45531552D01*
X100346281Y-45390198D01*
X100392100Y-45232486D01*
X100392295Y-45230001D01*
X100392295Y-45230000D01*
X99482500Y-45230000D01*
X98982500Y-45230000D01*
X98154000Y-45230000D01*
X98086961Y-45210315D01*
X98041206Y-45157511D01*
X98030000Y-45106000D01*
X98030000Y-45055000D01*
X97520000Y-45055000D01*
X97020000Y-45055000D01*
X97020000Y-44679000D01*
X97039685Y-44611961D01*
X97092489Y-44566206D01*
X97144000Y-44555000D01*
X98161000Y-44555000D01*
X98228039Y-44574685D01*
X98273794Y-44627489D01*
X98285000Y-44679000D01*
X98285000Y-44730000D01*
X98982500Y-44730000D01*
X98982500Y-44180000D01*
X98907924Y-44180000D01*
X98840885Y-44160315D01*
X98795130Y-44107511D01*
X98785186Y-44038353D01*
X98814211Y-43974797D01*
X98858805Y-43945040D01*
X98857791Y-43942864D01*
X98864327Y-43939816D01*
X98864334Y-43939814D01*
X98864339Y-43939810D01*
X98870882Y-43936760D01*
X98870908Y-43936816D01*
X98877690Y-43933532D01*
X98877663Y-43933478D01*
X98884106Y-43930240D01*
X98884117Y-43930237D01*
X98915800Y-43909398D01*
X98928722Y-43900900D01*
X98995549Y-43880507D01*
X98996861Y-43880500D01*
X99810696Y-43880500D01*
X99829131Y-43879049D01*
X99847569Y-43877598D01*
X99847571Y-43877597D01*
X99847573Y-43877597D01*
X99889191Y-43865505D01*
X100005398Y-43831744D01*
X100146865Y-43748081D01*
X100146864Y-43748081D01*
X100153580Y-43744110D01*
X100154655Y-43745928D01*
X100209532Y-43724381D01*
X100278050Y-43738059D01*
X100328296Y-43786609D01*
X100344500Y-43847895D01*
X100344500Y-44212742D01*
X100324815Y-44279781D01*
X100272011Y-44325536D01*
X100202853Y-44335480D01*
X100154142Y-44314814D01*
X100153271Y-44316288D01*
X100005196Y-44228717D01*
X100005193Y-44228716D01*
X99847495Y-44182900D01*
X99847489Y-44182899D01*
X99810644Y-44180000D01*
X99482500Y-44180000D01*
X99482500Y-44730000D01*
X100392294Y-44730000D01*
X100416557Y-44703752D01*
X100476518Y-44667885D01*
X100546352Y-44670129D01*
X100586012Y-44694530D01*
X100586969Y-44693298D01*
X100593132Y-44698078D01*
X100593135Y-44698081D01*
X100734602Y-44781744D01*
X100776224Y-44793836D01*
X100892426Y-44827597D01*
X100892429Y-44827597D01*
X100892431Y-44827598D01*
X100904722Y-44828565D01*
X100929304Y-44830500D01*
X100929306Y-44830500D01*
X101195270Y-44830500D01*
X101262309Y-44850185D01*
X101282951Y-44866819D01*
X101656770Y-45240638D01*
X101668551Y-45254270D01*
X101682888Y-45273528D01*
X101722909Y-45307111D01*
X101726897Y-45310766D01*
X101732716Y-45316585D01*
X101732720Y-45316588D01*
X101732723Y-45316591D01*
X101758459Y-45336940D01*
X101817286Y-45386302D01*
X101817287Y-45386302D01*
X101817289Y-45386304D01*
X101823318Y-45390270D01*
X101823285Y-45390319D01*
X101829647Y-45394372D01*
X101829679Y-45394321D01*
X101835819Y-45398108D01*
X101835823Y-45398111D01*
X101854056Y-45406613D01*
X101905441Y-45430575D01*
X101934817Y-45445328D01*
X101974067Y-45465040D01*
X101974069Y-45465040D01*
X101980857Y-45467511D01*
X101980836Y-45467567D01*
X101987957Y-45470043D01*
X101987976Y-45469986D01*
X101994822Y-45472254D01*
X101994827Y-45472257D01*
X101994832Y-45472258D01*
X101994835Y-45472259D01*
X102070065Y-45487792D01*
X102144779Y-45505500D01*
X102144782Y-45505500D01*
X102144786Y-45505501D01*
X102151953Y-45506339D01*
X102151946Y-45506398D01*
X102159444Y-45507164D01*
X102159450Y-45507105D01*
X102166639Y-45507734D01*
X102166643Y-45507733D01*
X102166644Y-45507734D01*
X102243417Y-45505500D01*
X102452907Y-45505500D01*
X102519946Y-45525185D01*
X102565701Y-45577989D01*
X102575645Y-45647147D01*
X102570838Y-45667818D01*
X102514327Y-45841740D01*
X102514326Y-45841744D01*
X102494540Y-46030000D01*
X102514326Y-46218256D01*
X102514327Y-46218259D01*
X102572818Y-46398277D01*
X102572821Y-46398284D01*
X102667467Y-46562216D01*
X102734039Y-46636151D01*
X102794129Y-46702888D01*
X102947265Y-46814148D01*
X102947270Y-46814151D01*
X103120192Y-46891142D01*
X103120197Y-46891144D01*
X103305354Y-46930500D01*
X103305355Y-46930500D01*
X103494644Y-46930500D01*
X103494646Y-46930500D01*
X103679803Y-46891144D01*
X103852730Y-46814151D01*
X104005871Y-46702888D01*
X104132533Y-46562216D01*
X104227179Y-46398284D01*
X104285674Y-46218256D01*
X104305460Y-46030000D01*
X104285674Y-45841744D01*
X104227179Y-45661716D01*
X104226118Y-45659878D01*
X104187682Y-45593304D01*
X104171209Y-45525404D01*
X104194062Y-45459377D01*
X104207385Y-45443626D01*
X104217968Y-45433044D01*
X104307003Y-45288697D01*
X104360349Y-45127708D01*
X104370500Y-45028345D01*
X104370499Y-44481656D01*
X104360349Y-44382292D01*
X104307003Y-44221303D01*
X104306999Y-44221297D01*
X104306998Y-44221294D01*
X104217970Y-44076959D01*
X104217967Y-44076955D01*
X104208339Y-44067327D01*
X104174854Y-44006004D01*
X104179838Y-43936312D01*
X104208345Y-43891959D01*
X104217573Y-43882731D01*
X104306542Y-43738492D01*
X104306547Y-43738481D01*
X104359855Y-43577606D01*
X104369999Y-43478322D01*
X104370000Y-43478309D01*
X104370000Y-43455000D01*
X102566308Y-43455000D01*
X102499269Y-43435315D01*
X102478631Y-43418685D01*
X102421865Y-43361919D01*
X102280398Y-43278256D01*
X102280397Y-43278255D01*
X102280396Y-43278255D01*
X102280393Y-43278254D01*
X102122573Y-43232402D01*
X102122567Y-43232401D01*
X102085696Y-43229500D01*
X102085694Y-43229500D01*
X100929306Y-43229500D01*
X100929304Y-43229500D01*
X100892432Y-43232401D01*
X100892426Y-43232402D01*
X100734606Y-43278254D01*
X100734603Y-43278255D01*
X100586420Y-43365890D01*
X100585345Y-43364073D01*
X100530448Y-43385620D01*
X100461932Y-43371931D01*
X100411694Y-43323373D01*
X100395500Y-43262104D01*
X100395500Y-42955000D01*
X102420000Y-42955000D01*
X103145000Y-42955000D01*
X103145000Y-42255000D01*
X103645000Y-42255000D01*
X103645000Y-42955000D01*
X104369999Y-42955000D01*
X104369999Y-42931692D01*
X104369998Y-42931677D01*
X104359855Y-42832392D01*
X104306547Y-42671518D01*
X104306542Y-42671507D01*
X104217575Y-42527271D01*
X104217572Y-42527267D01*
X104097732Y-42407427D01*
X104097728Y-42407424D01*
X103953492Y-42318457D01*
X103953481Y-42318452D01*
X103792606Y-42265144D01*
X103693322Y-42255000D01*
X103645000Y-42255000D01*
X103145000Y-42255000D01*
X103144999Y-42254999D01*
X103096693Y-42255000D01*
X103096675Y-42255001D01*
X102997392Y-42265144D01*
X102836518Y-42318452D01*
X102836507Y-42318457D01*
X102692271Y-42407424D01*
X102692267Y-42407427D01*
X102572427Y-42527267D01*
X102572424Y-42527271D01*
X102483457Y-42671507D01*
X102483452Y-42671518D01*
X102430144Y-42832393D01*
X102420000Y-42931677D01*
X102420000Y-42955000D01*
X100395500Y-42955000D01*
X100395500Y-42864304D01*
X100393352Y-42837014D01*
X100392598Y-42827431D01*
X100384825Y-42800677D01*
X100348650Y-42676164D01*
X100346744Y-42669602D01*
X100263081Y-42528135D01*
X100263079Y-42528133D01*
X100263076Y-42528129D01*
X100146870Y-42411923D01*
X100146862Y-42411917D01*
X100005396Y-42328255D01*
X100005393Y-42328254D01*
X99847573Y-42282402D01*
X99847567Y-42282401D01*
X99810696Y-42279500D01*
X99810694Y-42279500D01*
X98654306Y-42279500D01*
X98654304Y-42279500D01*
X98617432Y-42282401D01*
X98617426Y-42282402D01*
X98459606Y-42328254D01*
X98459603Y-42328255D01*
X98318137Y-42411917D01*
X98318133Y-42411920D01*
X98290003Y-42440050D01*
X98261871Y-42468182D01*
X98200551Y-42501666D01*
X98174192Y-42504500D01*
X98071874Y-42504500D01*
X98004835Y-42484815D01*
X97984193Y-42468181D01*
X97973044Y-42457032D01*
X97973040Y-42457029D01*
X97828705Y-42368001D01*
X97828699Y-42367998D01*
X97828697Y-42367997D01*
X97708760Y-42328254D01*
X97667709Y-42314651D01*
X97568346Y-42304500D01*
X96971662Y-42304500D01*
X96971644Y-42304501D01*
X96872292Y-42314650D01*
X96872289Y-42314651D01*
X96711305Y-42367996D01*
X96711294Y-42368001D01*
X96566959Y-42457029D01*
X96566955Y-42457032D01*
X96555807Y-42468181D01*
X96494484Y-42501666D01*
X96468126Y-42504500D01*
X96433705Y-42504500D01*
X96415735Y-42503191D01*
X96391972Y-42499710D01*
X96346533Y-42503686D01*
X96339931Y-42504264D01*
X96334530Y-42504500D01*
X96326289Y-42504500D01*
X96304579Y-42507037D01*
X96293724Y-42508306D01*
X96278419Y-42509645D01*
X96217199Y-42515001D01*
X96210132Y-42516460D01*
X96210120Y-42516404D01*
X96202763Y-42518035D01*
X96202777Y-42518092D01*
X96195743Y-42519759D01*
X96123575Y-42546025D01*
X96050675Y-42570181D01*
X96044126Y-42573236D01*
X96044101Y-42573183D01*
X96037308Y-42576471D01*
X96037334Y-42576523D01*
X96030880Y-42579764D01*
X95966708Y-42621971D01*
X95901347Y-42662285D01*
X95895683Y-42666765D01*
X95895647Y-42666719D01*
X95889798Y-42671484D01*
X95889835Y-42671528D01*
X95884310Y-42676164D01*
X95831598Y-42732034D01*
X94939358Y-43624272D01*
X94925729Y-43636051D01*
X94906468Y-43650390D01*
X94872898Y-43690397D01*
X94869253Y-43694376D01*
X94863409Y-43700222D01*
X94843059Y-43725959D01*
X94793695Y-43784789D01*
X94789729Y-43790819D01*
X94789682Y-43790788D01*
X94785630Y-43797147D01*
X94785679Y-43797177D01*
X94781889Y-43803321D01*
X94749424Y-43872941D01*
X94714960Y-43941566D01*
X94712488Y-43948357D01*
X94712432Y-43948336D01*
X94709960Y-43955450D01*
X94710015Y-43955469D01*
X94707742Y-43962327D01*
X94700198Y-43998868D01*
X94692207Y-44037565D01*
X94682871Y-44076959D01*
X94674498Y-44112286D01*
X94673661Y-44119454D01*
X94673601Y-44119447D01*
X94672835Y-44126945D01*
X94672895Y-44126951D01*
X94672265Y-44134140D01*
X94674500Y-44210916D01*
X94674500Y-45436294D01*
X94673191Y-45454263D01*
X94669710Y-45478025D01*
X94674264Y-45530064D01*
X94674500Y-45535470D01*
X94674500Y-45543709D01*
X94678306Y-45576274D01*
X94685000Y-45652791D01*
X94686461Y-45659867D01*
X94686403Y-45659878D01*
X94688034Y-45667237D01*
X94688092Y-45667224D01*
X94689757Y-45674250D01*
X94716025Y-45746424D01*
X94740185Y-45819331D01*
X94743236Y-45825874D01*
X94743182Y-45825898D01*
X94746470Y-45832688D01*
X94746521Y-45832663D01*
X94749761Y-45839113D01*
X94749762Y-45839114D01*
X94749763Y-45839117D01*
X94775386Y-45878075D01*
X94791965Y-45903283D01*
X94832287Y-45968655D01*
X94836766Y-45974319D01*
X94836719Y-45974356D01*
X94841482Y-45980202D01*
X94841528Y-45980164D01*
X94846173Y-45985700D01*
X94893129Y-46030000D01*
X94902018Y-46038386D01*
X95712332Y-46848700D01*
X96503181Y-47639548D01*
X96536666Y-47700871D01*
X96539500Y-47727229D01*
X96539500Y-47855626D01*
X96519815Y-47922665D01*
X96503181Y-47943307D01*
X96492032Y-47954455D01*
X96492029Y-47954459D01*
X96403001Y-48098794D01*
X96402996Y-48098805D01*
X96349651Y-48259790D01*
X96339500Y-48359147D01*
X96339500Y-48955837D01*
X96339501Y-48955855D01*
X96349650Y-49055207D01*
X96349651Y-49055210D01*
X96402996Y-49216194D01*
X96403001Y-49216205D01*
X96411759Y-49230403D01*
X96430200Y-49297795D01*
X96409278Y-49364459D01*
X96355636Y-49409228D01*
X96306221Y-49419500D01*
X96074304Y-49419500D01*
X96037432Y-49422401D01*
X96037426Y-49422402D01*
X95879606Y-49468254D01*
X95879603Y-49468255D01*
X95738137Y-49551917D01*
X95738129Y-49551923D01*
X95621923Y-49668129D01*
X95621914Y-49668140D01*
X95609802Y-49688622D01*
X95558733Y-49736305D01*
X95503071Y-49749500D01*
X95149500Y-49749500D01*
X95082461Y-49729815D01*
X95036706Y-49677011D01*
X95025500Y-49625500D01*
X95025500Y-49352976D01*
X95043382Y-49288829D01*
X95118478Y-49164606D01*
X95169086Y-49002196D01*
X95175500Y-48931616D01*
X95175500Y-48268384D01*
X95169086Y-48197804D01*
X95118478Y-48035394D01*
X95030472Y-47889815D01*
X95030470Y-47889813D01*
X95030469Y-47889811D01*
X94910188Y-47769530D01*
X94871185Y-47745952D01*
X94764606Y-47681522D01*
X94602196Y-47630914D01*
X94602194Y-47630913D01*
X94602192Y-47630913D01*
X94552778Y-47626423D01*
X94531616Y-47624500D01*
X94018384Y-47624500D01*
X93999145Y-47626248D01*
X93947807Y-47630913D01*
X93785393Y-47681522D01*
X93639811Y-47769530D01*
X93639810Y-47769531D01*
X93537681Y-47871661D01*
X93476358Y-47905146D01*
X93406666Y-47900162D01*
X93362319Y-47871661D01*
X93260188Y-47769530D01*
X93221185Y-47745952D01*
X93114606Y-47681522D01*
X92952196Y-47630914D01*
X92952194Y-47630913D01*
X92952192Y-47630913D01*
X92902778Y-47626423D01*
X92881616Y-47624500D01*
X92881613Y-47624500D01*
X92691518Y-47624500D01*
X92624479Y-47604815D01*
X92603837Y-47588181D01*
X92227864Y-47212208D01*
X91850004Y-46834347D01*
X91819979Y-46785670D01*
X91793321Y-46705221D01*
X91782549Y-46672713D01*
X91782545Y-46672707D01*
X91782544Y-46672704D01*
X91694283Y-46529612D01*
X91694280Y-46529608D01*
X91662353Y-46497681D01*
X91628868Y-46436358D01*
X91633852Y-46366666D01*
X91662353Y-46322319D01*
X91663303Y-46321369D01*
X91694281Y-46290391D01*
X91782549Y-46147287D01*
X91835436Y-45987685D01*
X91845500Y-45889174D01*
X91845500Y-45355826D01*
X91835436Y-45257315D01*
X91782549Y-45097713D01*
X91782545Y-45097707D01*
X91782544Y-45097704D01*
X91694283Y-44954612D01*
X91694280Y-44954608D01*
X91606819Y-44867147D01*
X91573334Y-44805824D01*
X91570500Y-44779466D01*
X91570500Y-43763047D01*
X91570613Y-43759302D01*
X91574358Y-43697394D01*
X91563175Y-43636371D01*
X91562613Y-43632674D01*
X91560618Y-43616251D01*
X91555140Y-43571128D01*
X91551548Y-43561656D01*
X91545521Y-43540034D01*
X91543695Y-43530071D01*
X91543695Y-43530069D01*
X91518223Y-43473474D01*
X91516812Y-43470065D01*
X91494818Y-43412070D01*
X91489063Y-43403733D01*
X91478036Y-43384182D01*
X91473879Y-43374946D01*
X91473878Y-43374943D01*
X91456287Y-43352490D01*
X91435630Y-43326122D01*
X91433410Y-43323106D01*
X91402452Y-43278256D01*
X91398183Y-43272071D01*
X91351750Y-43230935D01*
X91349056Y-43228399D01*
X90871598Y-42750941D01*
X90869064Y-42748250D01*
X90827929Y-42701817D01*
X90827928Y-42701816D01*
X90827924Y-42701812D01*
X90777148Y-42666765D01*
X90776892Y-42666588D01*
X90773887Y-42664377D01*
X90725060Y-42626124D01*
X90725055Y-42626120D01*
X90715813Y-42621961D01*
X90696266Y-42610936D01*
X90687931Y-42605183D01*
X90687932Y-42605183D01*
X90687930Y-42605182D01*
X90629941Y-42583189D01*
X90626490Y-42581759D01*
X90569930Y-42556304D01*
X90559946Y-42554474D01*
X90538343Y-42548451D01*
X90528874Y-42544860D01*
X90528870Y-42544859D01*
X90467313Y-42537384D01*
X90463612Y-42536821D01*
X90402608Y-42525642D01*
X90402603Y-42525642D01*
X90340697Y-42529387D01*
X90336952Y-42529500D01*
X90250634Y-42529500D01*
X90183595Y-42509815D01*
X90149059Y-42476623D01*
X90111601Y-42423127D01*
X90111596Y-42423121D01*
X89956881Y-42268406D01*
X89956877Y-42268402D01*
X89777639Y-42142898D01*
X89777640Y-42142898D01*
X89777638Y-42142897D01*
X89678484Y-42096661D01*
X89579330Y-42050425D01*
X89579326Y-42050424D01*
X89579322Y-42050422D01*
X89367977Y-41993793D01*
X89150002Y-41974723D01*
X89149998Y-41974723D01*
X89004682Y-41987436D01*
X88932023Y-41993793D01*
X88932020Y-41993793D01*
X88720677Y-42050422D01*
X88720668Y-42050426D01*
X88522361Y-42142898D01*
X88522357Y-42142900D01*
X88343121Y-42268402D01*
X88188402Y-42423121D01*
X88062900Y-42602357D01*
X88062898Y-42602361D01*
X87970426Y-42800668D01*
X87970422Y-42800677D01*
X87913793Y-43012020D01*
X87913793Y-43012024D01*
X87894723Y-43229997D01*
X87894723Y-43230002D01*
X87898945Y-43278255D01*
X87910651Y-43412068D01*
X87913793Y-43447975D01*
X87913793Y-43447979D01*
X87970422Y-43659322D01*
X87970424Y-43659326D01*
X87970425Y-43659330D01*
X87989494Y-43700223D01*
X88062897Y-43857638D01*
X88073613Y-43872942D01*
X88188402Y-44036877D01*
X88188406Y-44036881D01*
X88343121Y-44191596D01*
X88343127Y-44191601D01*
X88360873Y-44204027D01*
X88396134Y-44228717D01*
X88396623Y-44229059D01*
X88440248Y-44283635D01*
X88449500Y-44330634D01*
X88449500Y-44590612D01*
X88429815Y-44657651D01*
X88377011Y-44703406D01*
X88307853Y-44713350D01*
X88260403Y-44696150D01*
X88133705Y-44618001D01*
X88133699Y-44617998D01*
X88133697Y-44617997D01*
X88133694Y-44617996D01*
X87972709Y-44564651D01*
X87873346Y-44554500D01*
X87326662Y-44554500D01*
X87326644Y-44554501D01*
X87227292Y-44564650D01*
X87227289Y-44564651D01*
X87066305Y-44617996D01*
X87066294Y-44618001D01*
X86921959Y-44707029D01*
X86921955Y-44707032D01*
X86802032Y-44826955D01*
X86802029Y-44826959D01*
X86713001Y-44971294D01*
X86712996Y-44971305D01*
X86659651Y-45132290D01*
X86649500Y-45231647D01*
X86649500Y-45828337D01*
X86649501Y-45828355D01*
X86659650Y-45927707D01*
X86659651Y-45927710D01*
X86693206Y-46028971D01*
X86699500Y-46067975D01*
X86699500Y-46209075D01*
X86679815Y-46276114D01*
X86627011Y-46321869D01*
X86601281Y-46330365D01*
X86420197Y-46368855D01*
X86420192Y-46368857D01*
X86247270Y-46445848D01*
X86247265Y-46445851D01*
X86094132Y-46557109D01*
X86094129Y-46557111D01*
X86094129Y-46557112D01*
X86023086Y-46636013D01*
X85993769Y-46668573D01*
X85934282Y-46705221D01*
X85864425Y-46703890D01*
X85813938Y-46673281D01*
X85797451Y-46656794D01*
X85767426Y-46608117D01*
X85737003Y-46516303D01*
X85725594Y-46497807D01*
X85647970Y-46371959D01*
X85647967Y-46371955D01*
X85636819Y-46360807D01*
X85603334Y-46299484D01*
X85600500Y-46273126D01*
X85600500Y-45891519D01*
X85620185Y-45824480D01*
X85636821Y-45803836D01*
X85655469Y-45785188D01*
X85655472Y-45785185D01*
X85743478Y-45639606D01*
X85794086Y-45477196D01*
X85800500Y-45406616D01*
X85800500Y-44743384D01*
X85794086Y-44672804D01*
X85743478Y-44510394D01*
X85655472Y-44364815D01*
X85655470Y-44364813D01*
X85655469Y-44364811D01*
X85535188Y-44244530D01*
X85509030Y-44228717D01*
X85389606Y-44156522D01*
X85227196Y-44105914D01*
X85227194Y-44105913D01*
X85227192Y-44105913D01*
X85177778Y-44101423D01*
X85156616Y-44099500D01*
X84643384Y-44099500D01*
X84624145Y-44101248D01*
X84572807Y-44105913D01*
X84410393Y-44156522D01*
X84264811Y-44244530D01*
X84264810Y-44244531D01*
X84162681Y-44346661D01*
X84101358Y-44380146D01*
X84031666Y-44375162D01*
X83987319Y-44346661D01*
X83885188Y-44244530D01*
X83859030Y-44228717D01*
X83739606Y-44156522D01*
X83577196Y-44105914D01*
X83577194Y-44105913D01*
X83577192Y-44105913D01*
X83527778Y-44101423D01*
X83506616Y-44099500D01*
X82993384Y-44099500D01*
X82974145Y-44101248D01*
X82922807Y-44105913D01*
X82760393Y-44156522D01*
X82614811Y-44244530D01*
X82614810Y-44244531D01*
X82566163Y-44293180D01*
X82504840Y-44326666D01*
X82478481Y-44329500D01*
X80916665Y-44329500D01*
X80853545Y-44312232D01*
X80782887Y-44270445D01*
X80634156Y-44227235D01*
X80634153Y-44227234D01*
X80634151Y-44227234D01*
X80599407Y-44224500D01*
X80599405Y-44224500D01*
X80366865Y-44224500D01*
X80250595Y-44224501D01*
X80215847Y-44227234D01*
X80208044Y-44229501D01*
X80067113Y-44270445D01*
X80067111Y-44270445D01*
X80067111Y-44270446D01*
X80044810Y-44283635D01*
X79996454Y-44312232D01*
X79933335Y-44329500D01*
X78896520Y-44329500D01*
X78829481Y-44309815D01*
X78808839Y-44293181D01*
X78785188Y-44269530D01*
X78785123Y-44269491D01*
X78639606Y-44181522D01*
X78477196Y-44130914D01*
X78477194Y-44130913D01*
X78477192Y-44130913D01*
X78427778Y-44126423D01*
X78406616Y-44124500D01*
X77743384Y-44124500D01*
X77724145Y-44126248D01*
X77672807Y-44130913D01*
X77510393Y-44181522D01*
X77364811Y-44269530D01*
X77364810Y-44269531D01*
X77341161Y-44293181D01*
X77279838Y-44326666D01*
X77253480Y-44329500D01*
X69183211Y-44329500D01*
X69120090Y-44312232D01*
X69097339Y-44298777D01*
X69057887Y-44275445D01*
X68909156Y-44232235D01*
X68909153Y-44232234D01*
X68909151Y-44232234D01*
X68874407Y-44229500D01*
X68874405Y-44229500D01*
X68641865Y-44229500D01*
X68525595Y-44229501D01*
X68490847Y-44232234D01*
X68455950Y-44242372D01*
X68342113Y-44275445D01*
X68342111Y-44275445D01*
X68342111Y-44275446D01*
X68279910Y-44312232D01*
X68216789Y-44329500D01*
X59750634Y-44329500D01*
X59683595Y-44309815D01*
X59649059Y-44276623D01*
X59644092Y-44269530D01*
X59616063Y-44229500D01*
X59611601Y-44223127D01*
X59611596Y-44223121D01*
X59456881Y-44068406D01*
X59456877Y-44068402D01*
X59307739Y-43963974D01*
X59277638Y-43942897D01*
X59143826Y-43880500D01*
X59079330Y-43850425D01*
X59079326Y-43850424D01*
X59079322Y-43850422D01*
X58867977Y-43793793D01*
X58650002Y-43774723D01*
X58649998Y-43774723D01*
X58534976Y-43784786D01*
X58432023Y-43793793D01*
X58432020Y-43793793D01*
X58220677Y-43850422D01*
X58220668Y-43850426D01*
X58022361Y-43942898D01*
X58022357Y-43942900D01*
X57843124Y-44068400D01*
X57688398Y-44223127D01*
X57650941Y-44276623D01*
X57596365Y-44320248D01*
X57549366Y-44329500D01*
X57536557Y-44329500D01*
X57469518Y-44309815D01*
X57423763Y-44257011D01*
X57413819Y-44187853D01*
X57431019Y-44140403D01*
X57481542Y-44058492D01*
X57481547Y-44058481D01*
X57534855Y-43897606D01*
X57544999Y-43798322D01*
X57545000Y-43798309D01*
X57545000Y-43775000D01*
X54644000Y-43775000D01*
X54576961Y-43755315D01*
X54531206Y-43702511D01*
X54520000Y-43651000D01*
X54520000Y-43275000D01*
X55020000Y-43275000D01*
X56320000Y-43275000D01*
X56320000Y-42575000D01*
X56820000Y-42575000D01*
X56820000Y-43275000D01*
X57544999Y-43275000D01*
X57544999Y-43251692D01*
X57544998Y-43251677D01*
X57534855Y-43152392D01*
X57481547Y-42991518D01*
X57481542Y-42991507D01*
X57392575Y-42847271D01*
X57392572Y-42847267D01*
X57272732Y-42727427D01*
X57272728Y-42727424D01*
X57128492Y-42638457D01*
X57128481Y-42638452D01*
X56967606Y-42585144D01*
X56868322Y-42575000D01*
X56820000Y-42575000D01*
X56320000Y-42575000D01*
X56319999Y-42574999D01*
X56271693Y-42575000D01*
X56271675Y-42575001D01*
X56172392Y-42585144D01*
X56011518Y-42638452D01*
X56011507Y-42638457D01*
X55867271Y-42727424D01*
X55867267Y-42727427D01*
X55757681Y-42837014D01*
X55696358Y-42870499D01*
X55626666Y-42865515D01*
X55582319Y-42837014D01*
X55472732Y-42727427D01*
X55472728Y-42727424D01*
X55328492Y-42638457D01*
X55328481Y-42638452D01*
X55167606Y-42585144D01*
X55068322Y-42575000D01*
X55020000Y-42575000D01*
X55020000Y-43275000D01*
X54520000Y-43275000D01*
X54520000Y-42575000D01*
X54519999Y-42574999D01*
X54471693Y-42575000D01*
X54471675Y-42575001D01*
X54372392Y-42585144D01*
X54211518Y-42638452D01*
X54211507Y-42638457D01*
X54067271Y-42727424D01*
X53942320Y-42852375D01*
X53940493Y-42850548D01*
X53893303Y-42883937D01*
X53823502Y-42887049D01*
X53778792Y-42865901D01*
X53778276Y-42865515D01*
X53725893Y-42826301D01*
X53672330Y-42786203D01*
X53672328Y-42786202D01*
X53537482Y-42735908D01*
X53537483Y-42735908D01*
X53477883Y-42729501D01*
X53477881Y-42729500D01*
X53477873Y-42729500D01*
X53477864Y-42729500D01*
X52482129Y-42729500D01*
X52482123Y-42729501D01*
X52422516Y-42735908D01*
X52287671Y-42786202D01*
X52287664Y-42786206D01*
X52172455Y-42872452D01*
X52172452Y-42872455D01*
X52086206Y-42987664D01*
X52086202Y-42987671D01*
X52035908Y-43122517D01*
X52029501Y-43182116D01*
X52029500Y-43182135D01*
X52029500Y-44108480D01*
X52009815Y-44175519D01*
X51993181Y-44196161D01*
X50670966Y-45518375D01*
X50668240Y-45520942D01*
X50621818Y-45562068D01*
X50586586Y-45613109D01*
X50584368Y-45616124D01*
X50546124Y-45664939D01*
X50546119Y-45664948D01*
X50541960Y-45674188D01*
X50530942Y-45693723D01*
X50525187Y-45702061D01*
X50525183Y-45702067D01*
X50525182Y-45702070D01*
X50525180Y-45702074D01*
X50525179Y-45702077D01*
X50503189Y-45760055D01*
X50501757Y-45763513D01*
X50476305Y-45820068D01*
X50474477Y-45830042D01*
X50468453Y-45851653D01*
X50464860Y-45861127D01*
X50464859Y-45861128D01*
X50457384Y-45922685D01*
X50456821Y-45926386D01*
X50445642Y-45987390D01*
X50445641Y-45987400D01*
X50446624Y-46003645D01*
X50431021Y-46071751D01*
X50410532Y-46098810D01*
X50319529Y-46189813D01*
X50231522Y-46335393D01*
X50180913Y-46497807D01*
X50178023Y-46529612D01*
X50174917Y-46563802D01*
X50174500Y-46568386D01*
X50174500Y-47081613D01*
X50180913Y-47152192D01*
X50180913Y-47152194D01*
X50180914Y-47152196D01*
X50231522Y-47314606D01*
X50300447Y-47428622D01*
X50319530Y-47460188D01*
X50421661Y-47562319D01*
X50455146Y-47623642D01*
X50450162Y-47693334D01*
X50421661Y-47737681D01*
X50319531Y-47839810D01*
X50319530Y-47839811D01*
X50231522Y-47985393D01*
X50180913Y-48147807D01*
X50176930Y-48191646D01*
X50174500Y-48218384D01*
X50174500Y-48731616D01*
X50174571Y-48732393D01*
X50180913Y-48802192D01*
X50180913Y-48802194D01*
X50180914Y-48802196D01*
X50231522Y-48964606D01*
X50313272Y-49099837D01*
X50319530Y-49110188D01*
X50401349Y-49192007D01*
X50434834Y-49253330D01*
X50429850Y-49323022D01*
X50419860Y-49341662D01*
X50420716Y-49342156D01*
X50322821Y-49511715D01*
X50322818Y-49511722D01*
X50265590Y-49687853D01*
X50264326Y-49691744D01*
X50244540Y-49880000D01*
X50264326Y-50068256D01*
X50264327Y-50068259D01*
X50322818Y-50248277D01*
X50322821Y-50248284D01*
X50417467Y-50412216D01*
X50521543Y-50527804D01*
X50544129Y-50552888D01*
X50697265Y-50664148D01*
X50697270Y-50664151D01*
X50870192Y-50741142D01*
X50870197Y-50741144D01*
X51055354Y-50780500D01*
X51055355Y-50780500D01*
X51244644Y-50780500D01*
X51244646Y-50780500D01*
X51429803Y-50741144D01*
X51602730Y-50664151D01*
X51755871Y-50552888D01*
X51882533Y-50412216D01*
X51977179Y-50248284D01*
X52035674Y-50068256D01*
X52055460Y-49880000D01*
X52035674Y-49691744D01*
X51977179Y-49511716D01*
X51894663Y-49368794D01*
X51879284Y-49342156D01*
X51881781Y-49340714D01*
X51862533Y-49286763D01*
X51878360Y-49218710D01*
X51898645Y-49192011D01*
X51962321Y-49128335D01*
X52023640Y-49094853D01*
X52093332Y-49099837D01*
X52137680Y-49128338D01*
X52239811Y-49230469D01*
X52239813Y-49230470D01*
X52239815Y-49230472D01*
X52385394Y-49318478D01*
X52547804Y-49369086D01*
X52618384Y-49375500D01*
X52618387Y-49375500D01*
X53281613Y-49375500D01*
X53281616Y-49375500D01*
X53352196Y-49369086D01*
X53514606Y-49318478D01*
X53660185Y-49230472D01*
X53660254Y-49230403D01*
X53678839Y-49211819D01*
X53740162Y-49178334D01*
X53766520Y-49175500D01*
X53953480Y-49175500D01*
X54020519Y-49195185D01*
X54041161Y-49211819D01*
X54059811Y-49230469D01*
X54059813Y-49230470D01*
X54059815Y-49230472D01*
X54205394Y-49318478D01*
X54367804Y-49369086D01*
X54438384Y-49375500D01*
X54438387Y-49375500D01*
X55101613Y-49375500D01*
X55101616Y-49375500D01*
X55172196Y-49369086D01*
X55334606Y-49318478D01*
X55480185Y-49230472D01*
X55518650Y-49192007D01*
X55582319Y-49128339D01*
X55643642Y-49094854D01*
X55713334Y-49099838D01*
X55757681Y-49128339D01*
X55859811Y-49230469D01*
X55859813Y-49230470D01*
X55859815Y-49230472D01*
X56005394Y-49318478D01*
X56167804Y-49369086D01*
X56238384Y-49375500D01*
X56238387Y-49375500D01*
X56901613Y-49375500D01*
X56901616Y-49375500D01*
X56972196Y-49369086D01*
X57134606Y-49318478D01*
X57280185Y-49230472D01*
X57280254Y-49230403D01*
X57298839Y-49211819D01*
X57360162Y-49178334D01*
X57386520Y-49175500D01*
X59981952Y-49175500D01*
X59985697Y-49175613D01*
X59993042Y-49176057D01*
X60047606Y-49179358D01*
X60085314Y-49172447D01*
X60108621Y-49168177D01*
X60112325Y-49167613D01*
X60137089Y-49164606D01*
X60173872Y-49160140D01*
X60183335Y-49156550D01*
X60204961Y-49150522D01*
X60205893Y-49150351D01*
X60214932Y-49148695D01*
X60271512Y-49123229D01*
X60274942Y-49121809D01*
X60332930Y-49099818D01*
X60341266Y-49094062D01*
X60360821Y-49083034D01*
X60370057Y-49078878D01*
X60418896Y-49040613D01*
X60421876Y-49038421D01*
X60472929Y-49003183D01*
X60514065Y-48956748D01*
X60516599Y-48954056D01*
X60762038Y-48708617D01*
X60823359Y-48675134D01*
X60870127Y-48673991D01*
X60961816Y-48689291D01*
X61058951Y-48705500D01*
X61058952Y-48705500D01*
X61291048Y-48705500D01*
X61291049Y-48705500D01*
X61519981Y-48667298D01*
X61739503Y-48591936D01*
X61943626Y-48481470D01*
X61956914Y-48471128D01*
X62072818Y-48380916D01*
X62126784Y-48338913D01*
X62283979Y-48168153D01*
X62410924Y-47973849D01*
X62504157Y-47761300D01*
X62561134Y-47536305D01*
X62561135Y-47536297D01*
X62580300Y-47305006D01*
X62580300Y-47304993D01*
X62561135Y-47073702D01*
X62561133Y-47073691D01*
X62504157Y-46848699D01*
X62410924Y-46636151D01*
X62283983Y-46441852D01*
X62283980Y-46441849D01*
X62283979Y-46441847D01*
X62126784Y-46271087D01*
X62126779Y-46271083D01*
X62126777Y-46271081D01*
X61943634Y-46128535D01*
X61943628Y-46128531D01*
X61739504Y-46018064D01*
X61739495Y-46018061D01*
X61604687Y-45971781D01*
X61547672Y-45931396D01*
X61521541Y-45866596D01*
X61534592Y-45797956D01*
X61582681Y-45747268D01*
X61644950Y-45730500D01*
X68216789Y-45730500D01*
X68279909Y-45747767D01*
X68342113Y-45784555D01*
X68490844Y-45827765D01*
X68514011Y-45829588D01*
X68525593Y-45830500D01*
X68525594Y-45830499D01*
X68525595Y-45830500D01*
X68758134Y-45830499D01*
X68874405Y-45830499D01*
X68881354Y-45829952D01*
X68909156Y-45827765D01*
X69057887Y-45784555D01*
X69120090Y-45747767D01*
X69183211Y-45730500D01*
X70555050Y-45730500D01*
X70622089Y-45750185D01*
X70667844Y-45802989D01*
X70677788Y-45872147D01*
X70648763Y-45935703D01*
X70595313Y-45971781D01*
X70460504Y-46018061D01*
X70460495Y-46018064D01*
X70256371Y-46128531D01*
X70256365Y-46128535D01*
X70073222Y-46271081D01*
X70073219Y-46271084D01*
X70073216Y-46271086D01*
X70073216Y-46271087D01*
X70051069Y-46295145D01*
X69916016Y-46441852D01*
X69789075Y-46636151D01*
X69695843Y-46848698D01*
X69683778Y-46896344D01*
X69670002Y-46950745D01*
X69669705Y-46951916D01*
X69634165Y-47012071D01*
X69571744Y-47043463D01*
X69502261Y-47036125D01*
X69447776Y-46992386D01*
X69425587Y-46926133D01*
X69425499Y-46921475D01*
X69425499Y-46880595D01*
X69424815Y-46871908D01*
X69422765Y-46845844D01*
X69379555Y-46697113D01*
X69300715Y-46563802D01*
X69300713Y-46563800D01*
X69300710Y-46563796D01*
X69191203Y-46454289D01*
X69191194Y-46454282D01*
X69101752Y-46401387D01*
X69057887Y-46375445D01*
X68909156Y-46332235D01*
X68909153Y-46332234D01*
X68909151Y-46332234D01*
X68874407Y-46329500D01*
X68874405Y-46329500D01*
X68641865Y-46329500D01*
X68525595Y-46329501D01*
X68490847Y-46332234D01*
X68455950Y-46342372D01*
X68342113Y-46375445D01*
X68342111Y-46375445D01*
X68342111Y-46375446D01*
X68208805Y-46454282D01*
X68208796Y-46454289D01*
X68099289Y-46563796D01*
X68099282Y-46563805D01*
X68020444Y-46697114D01*
X68020442Y-46697117D01*
X68008412Y-46738528D01*
X67977017Y-46791614D01*
X66974358Y-47794272D01*
X66960729Y-47806051D01*
X66941468Y-47820390D01*
X66907898Y-47860397D01*
X66904253Y-47864376D01*
X66898409Y-47870222D01*
X66878059Y-47895959D01*
X66828695Y-47954789D01*
X66824729Y-47960819D01*
X66824682Y-47960788D01*
X66820630Y-47967147D01*
X66820679Y-47967177D01*
X66816889Y-47973321D01*
X66784424Y-48042941D01*
X66749960Y-48111566D01*
X66747488Y-48118357D01*
X66747432Y-48118336D01*
X66744960Y-48125450D01*
X66745015Y-48125469D01*
X66742742Y-48132327D01*
X66735414Y-48167819D01*
X66727207Y-48207565D01*
X66720079Y-48237642D01*
X66709498Y-48282286D01*
X66708661Y-48289454D01*
X66708601Y-48289447D01*
X66707835Y-48296945D01*
X66707895Y-48296951D01*
X66707265Y-48304140D01*
X66709500Y-48380916D01*
X66709500Y-50898414D01*
X66689815Y-50965453D01*
X66637011Y-51011208D01*
X66567853Y-51021152D01*
X66565091Y-51020723D01*
X66351007Y-50985000D01*
X66118993Y-50985000D01*
X65890139Y-51023188D01*
X65670706Y-51098520D01*
X65670698Y-51098523D01*
X65466644Y-51208952D01*
X65436200Y-51232646D01*
X65436200Y-51232647D01*
X66102466Y-51898913D01*
X66092685Y-51900320D01*
X65961900Y-51960048D01*
X65853239Y-52054202D01*
X65775507Y-52175156D01*
X65751923Y-52255476D01*
X65083812Y-51587365D01*
X64999516Y-51716391D01*
X64999514Y-51716395D01*
X64906317Y-51928864D01*
X64849361Y-52153781D01*
X64830202Y-52384994D01*
X64830202Y-52385005D01*
X64849361Y-52616218D01*
X64906317Y-52841135D01*
X64999516Y-53053609D01*
X65083811Y-53182633D01*
X65751922Y-52514523D01*
X65775507Y-52594844D01*
X65853239Y-52715798D01*
X65961900Y-52809952D01*
X66092685Y-52869680D01*
X66102464Y-52871086D01*
X65436199Y-53537351D01*
X65466650Y-53561050D01*
X65670697Y-53671476D01*
X65670706Y-53671479D01*
X65890139Y-53746811D01*
X66118993Y-53785000D01*
X66351007Y-53785000D01*
X66579860Y-53746811D01*
X66799293Y-53671479D01*
X66799302Y-53671476D01*
X67003351Y-53561050D01*
X67007638Y-53558249D01*
X67009094Y-53560477D01*
X67063601Y-53538599D01*
X67132220Y-53551760D01*
X67182831Y-53599930D01*
X67199500Y-53662027D01*
X67199500Y-54465677D01*
X67182887Y-54527677D01*
X67122821Y-54631714D01*
X67068496Y-54798909D01*
X67064326Y-54811744D01*
X67044540Y-55000000D01*
X67064326Y-55188256D01*
X67064327Y-55188259D01*
X67122818Y-55368277D01*
X67122821Y-55368284D01*
X67217464Y-55532212D01*
X67217468Y-55532217D01*
X67240399Y-55557685D01*
X67261090Y-55593281D01*
X67262136Y-55592794D01*
X67268237Y-55605879D01*
X67268184Y-55605903D01*
X67271469Y-55612688D01*
X67271521Y-55612663D01*
X67274761Y-55619113D01*
X67274762Y-55619114D01*
X67274763Y-55619117D01*
X67293029Y-55646889D01*
X67316965Y-55683283D01*
X67357287Y-55748655D01*
X67361766Y-55754319D01*
X67361719Y-55754356D01*
X67366482Y-55760202D01*
X67366528Y-55760164D01*
X67371173Y-55765700D01*
X67421772Y-55813437D01*
X67427019Y-55818387D01*
X67707748Y-56099116D01*
X67977017Y-56368384D01*
X68008412Y-56421469D01*
X68020445Y-56462887D01*
X68049353Y-56511767D01*
X68099282Y-56596194D01*
X68099289Y-56596203D01*
X68208796Y-56705710D01*
X68208805Y-56705717D01*
X68224737Y-56715139D01*
X68342113Y-56784555D01*
X68490844Y-56827765D01*
X68514011Y-56829588D01*
X68525593Y-56830500D01*
X68525594Y-56830499D01*
X68525595Y-56830500D01*
X68758134Y-56830499D01*
X68874405Y-56830499D01*
X68881354Y-56829952D01*
X68909156Y-56827765D01*
X69057887Y-56784555D01*
X69191198Y-56705715D01*
X69300715Y-56596198D01*
X69379555Y-56462887D01*
X69422765Y-56314156D01*
X69425500Y-56279405D01*
X69425499Y-56258175D01*
X69428851Y-56232722D01*
X69428815Y-56232717D01*
X69429189Y-56230162D01*
X69429729Y-56226064D01*
X69429862Y-56225566D01*
X69434570Y-56193427D01*
X69455289Y-56051977D01*
X69453841Y-56035429D01*
X69439998Y-55877203D01*
X69439997Y-55877201D01*
X69437548Y-55869811D01*
X69431793Y-55852440D01*
X69425499Y-55813437D01*
X69425499Y-55780595D01*
X69424284Y-55765157D01*
X69422765Y-55745844D01*
X69379555Y-55597113D01*
X69300715Y-55463802D01*
X69300713Y-55463800D01*
X69300710Y-55463796D01*
X69191203Y-55354289D01*
X69191194Y-55354282D01*
X69057885Y-55275444D01*
X69057882Y-55275443D01*
X69016471Y-55263412D01*
X68963385Y-55232017D01*
X68885480Y-55154112D01*
X68851995Y-55092789D01*
X68849840Y-55053470D01*
X68850913Y-55043259D01*
X68855460Y-55000000D01*
X68835674Y-54811744D01*
X68777179Y-54631716D01*
X68742787Y-54572147D01*
X68717113Y-54527677D01*
X68700500Y-54465677D01*
X68700500Y-53617229D01*
X68720185Y-53550190D01*
X68736819Y-53529548D01*
X68824548Y-53441819D01*
X68885871Y-53408334D01*
X68912229Y-53405500D01*
X69031613Y-53405500D01*
X69031616Y-53405500D01*
X69102196Y-53399086D01*
X69264606Y-53348478D01*
X69410185Y-53260472D01*
X69530472Y-53140185D01*
X69618478Y-52994606D01*
X69669086Y-52832196D01*
X69675500Y-52761616D01*
X69675500Y-52248384D01*
X69669086Y-52177804D01*
X69618478Y-52015394D01*
X69530472Y-51869815D01*
X69530470Y-51869813D01*
X69530469Y-51869811D01*
X69428339Y-51767681D01*
X69394854Y-51706358D01*
X69399838Y-51636666D01*
X69428339Y-51592319D01*
X69530468Y-51490189D01*
X69530469Y-51490188D01*
X69530472Y-51490185D01*
X69618478Y-51344606D01*
X69669086Y-51182196D01*
X69675500Y-51111616D01*
X69675500Y-50598384D01*
X69669086Y-50527804D01*
X69618478Y-50365394D01*
X69530472Y-50219815D01*
X69530470Y-50219813D01*
X69530469Y-50219811D01*
X69436819Y-50126161D01*
X69403334Y-50064838D01*
X69400500Y-50038480D01*
X69400500Y-49971517D01*
X69420185Y-49904478D01*
X69436814Y-49883841D01*
X70612038Y-48708616D01*
X70673359Y-48675133D01*
X70720122Y-48673990D01*
X70908951Y-48705500D01*
X70908952Y-48705500D01*
X71141048Y-48705500D01*
X71141049Y-48705500D01*
X71369981Y-48667298D01*
X71589503Y-48591936D01*
X71793626Y-48481470D01*
X71806914Y-48471128D01*
X71922818Y-48380916D01*
X71976784Y-48338913D01*
X72133979Y-48168153D01*
X72260924Y-47973849D01*
X72354157Y-47761300D01*
X72411134Y-47536305D01*
X72411135Y-47536297D01*
X72430300Y-47305006D01*
X72430300Y-47304993D01*
X72411135Y-47073702D01*
X72411133Y-47073691D01*
X72354157Y-46848699D01*
X72260924Y-46636151D01*
X72133983Y-46441852D01*
X72133980Y-46441849D01*
X72133979Y-46441847D01*
X71976784Y-46271087D01*
X71976779Y-46271083D01*
X71976777Y-46271081D01*
X71793634Y-46128535D01*
X71793628Y-46128531D01*
X71589504Y-46018064D01*
X71589495Y-46018061D01*
X71454687Y-45971781D01*
X71397672Y-45931396D01*
X71371541Y-45866596D01*
X71384592Y-45797956D01*
X71432681Y-45747268D01*
X71494950Y-45730500D01*
X72357628Y-45730500D01*
X76127372Y-45730500D01*
X77254480Y-45730500D01*
X77321519Y-45750185D01*
X77367274Y-45802989D01*
X77377218Y-45872147D01*
X77348193Y-45935703D01*
X77342161Y-45942181D01*
X77244531Y-46039810D01*
X77244530Y-46039811D01*
X77156522Y-46185393D01*
X77105913Y-46347807D01*
X77099500Y-46418386D01*
X77099500Y-46583480D01*
X77079815Y-46650519D01*
X77063181Y-46671161D01*
X75605966Y-48128375D01*
X75603240Y-48130942D01*
X75556818Y-48172068D01*
X75521586Y-48223109D01*
X75519368Y-48226124D01*
X75481124Y-48274939D01*
X75481119Y-48274948D01*
X75476960Y-48284188D01*
X75465942Y-48303723D01*
X75460187Y-48312061D01*
X75460183Y-48312067D01*
X75460182Y-48312070D01*
X75460180Y-48312074D01*
X75460179Y-48312077D01*
X75438189Y-48370055D01*
X75436757Y-48373513D01*
X75411305Y-48430068D01*
X75409477Y-48440042D01*
X75403453Y-48461653D01*
X75399860Y-48471127D01*
X75399859Y-48471128D01*
X75392384Y-48532685D01*
X75391821Y-48536386D01*
X75380642Y-48597390D01*
X75380642Y-48597395D01*
X75384387Y-48659302D01*
X75384500Y-48663047D01*
X75384500Y-51097773D01*
X75364815Y-51164812D01*
X75319527Y-51206823D01*
X75316377Y-51208527D01*
X75316365Y-51208535D01*
X75133222Y-51351081D01*
X75133219Y-51351084D01*
X75133216Y-51351086D01*
X75133216Y-51351087D01*
X75127261Y-51357556D01*
X74976016Y-51521852D01*
X74849075Y-51716151D01*
X74755842Y-51928699D01*
X74698866Y-52153691D01*
X74698864Y-52153702D01*
X74679700Y-52384993D01*
X74679700Y-52385006D01*
X74698864Y-52616297D01*
X74698866Y-52616308D01*
X74755842Y-52841300D01*
X74849075Y-53053848D01*
X74976016Y-53248147D01*
X74976019Y-53248151D01*
X74976021Y-53248153D01*
X75133216Y-53418913D01*
X75133219Y-53418915D01*
X75133222Y-53418918D01*
X75316365Y-53561464D01*
X75316371Y-53561468D01*
X75316374Y-53561470D01*
X75443742Y-53630398D01*
X75519652Y-53671479D01*
X75520497Y-53671936D01*
X75608921Y-53702292D01*
X75740015Y-53747297D01*
X75740017Y-53747297D01*
X75740019Y-53747298D01*
X75968951Y-53785500D01*
X75968952Y-53785500D01*
X76201048Y-53785500D01*
X76201049Y-53785500D01*
X76429981Y-53747298D01*
X76649503Y-53671936D01*
X76853626Y-53561470D01*
X76857765Y-53558249D01*
X77007354Y-53441819D01*
X77036784Y-53418913D01*
X77193979Y-53248153D01*
X77320924Y-53053849D01*
X77411944Y-52846344D01*
X77456900Y-52792859D01*
X77523636Y-52772169D01*
X77590964Y-52790844D01*
X77637507Y-52842954D01*
X77649500Y-52896155D01*
X77649500Y-56365677D01*
X77632887Y-56427677D01*
X77572821Y-56531714D01*
X77514388Y-56711552D01*
X77514326Y-56711744D01*
X77494540Y-56900000D01*
X77514326Y-57088256D01*
X77540368Y-57168406D01*
X77572463Y-57267182D01*
X77574458Y-57337023D01*
X77538378Y-57396856D01*
X77475677Y-57427684D01*
X77454532Y-57429500D01*
X69183211Y-57429500D01*
X69120090Y-57412232D01*
X69116003Y-57409815D01*
X69057887Y-57375445D01*
X68909156Y-57332235D01*
X68909153Y-57332234D01*
X68909151Y-57332234D01*
X68874407Y-57329500D01*
X68874405Y-57329500D01*
X68641865Y-57329500D01*
X68525595Y-57329501D01*
X68490847Y-57332234D01*
X68463480Y-57340185D01*
X68342113Y-57375445D01*
X68342111Y-57375445D01*
X68342111Y-57375446D01*
X68326249Y-57384827D01*
X68288035Y-57407427D01*
X68279910Y-57412232D01*
X68216789Y-57429500D01*
X59750634Y-57429500D01*
X59683595Y-57409815D01*
X59649059Y-57376623D01*
X59611601Y-57323127D01*
X59611596Y-57323121D01*
X59456881Y-57168406D01*
X59456877Y-57168402D01*
X59277639Y-57042898D01*
X59277640Y-57042898D01*
X59277638Y-57042897D01*
X59174076Y-56994606D01*
X59079330Y-56950425D01*
X59079326Y-56950424D01*
X59079322Y-56950422D01*
X58867977Y-56893793D01*
X58650002Y-56874723D01*
X58649998Y-56874723D01*
X58504682Y-56887436D01*
X58432023Y-56893793D01*
X58432020Y-56893793D01*
X58220677Y-56950422D01*
X58220668Y-56950426D01*
X58022361Y-57042898D01*
X58022357Y-57042900D01*
X57843124Y-57168400D01*
X57688398Y-57323127D01*
X57650941Y-57376623D01*
X57596365Y-57420248D01*
X57549366Y-57429500D01*
X57421874Y-57429500D01*
X57354835Y-57409815D01*
X57334193Y-57393181D01*
X57328516Y-57387504D01*
X57295031Y-57326181D01*
X57300015Y-57256489D01*
X57328516Y-57212142D01*
X57400468Y-57140189D01*
X57400469Y-57140188D01*
X57400472Y-57140185D01*
X57488478Y-56994606D01*
X57539086Y-56832196D01*
X57545500Y-56761616D01*
X57545500Y-56248384D01*
X57539086Y-56177804D01*
X57488478Y-56015394D01*
X57400472Y-55869815D01*
X57400470Y-55869813D01*
X57400469Y-55869811D01*
X57298338Y-55767680D01*
X57264853Y-55706357D01*
X57269837Y-55636665D01*
X57298511Y-55592145D01*
X57298763Y-55591893D01*
X57299014Y-55591644D01*
X57360404Y-55558281D01*
X57386520Y-55555500D01*
X58141844Y-55555500D01*
X58208883Y-55575185D01*
X58214729Y-55579182D01*
X58297265Y-55639148D01*
X58297270Y-55639151D01*
X58470192Y-55716142D01*
X58470197Y-55716144D01*
X58655354Y-55755500D01*
X58655355Y-55755500D01*
X58844644Y-55755500D01*
X58844646Y-55755500D01*
X59029803Y-55716144D01*
X59202730Y-55639151D01*
X59355871Y-55527888D01*
X59482533Y-55387216D01*
X59577179Y-55223284D01*
X59635674Y-55043256D01*
X59655460Y-54855000D01*
X59635674Y-54666744D01*
X59577179Y-54486716D01*
X59482533Y-54322784D01*
X59355871Y-54182112D01*
X59355870Y-54182111D01*
X59202734Y-54070851D01*
X59202729Y-54070848D01*
X59029807Y-53993857D01*
X59029802Y-53993855D01*
X58874817Y-53960913D01*
X58844646Y-53954500D01*
X58655354Y-53954500D01*
X58625183Y-53960913D01*
X58470197Y-53993855D01*
X58470192Y-53993857D01*
X58297270Y-54070848D01*
X58297265Y-54070851D01*
X58214729Y-54130818D01*
X58148923Y-54154298D01*
X58141844Y-54154500D01*
X57386520Y-54154500D01*
X57319481Y-54134815D01*
X57298839Y-54118181D01*
X57280188Y-54099530D01*
X57270499Y-54093673D01*
X57134606Y-54011522D01*
X56972196Y-53960914D01*
X56972194Y-53960913D01*
X56972192Y-53960913D01*
X56922778Y-53956423D01*
X56901616Y-53954500D01*
X56238384Y-53954500D01*
X56219145Y-53956248D01*
X56167807Y-53960913D01*
X56005393Y-54011522D01*
X55859811Y-54099530D01*
X55859810Y-54099531D01*
X55757681Y-54201661D01*
X55696358Y-54235146D01*
X55626666Y-54230162D01*
X55582319Y-54201661D01*
X55480188Y-54099530D01*
X55470499Y-54093673D01*
X55334606Y-54011522D01*
X55172196Y-53960914D01*
X55172194Y-53960913D01*
X55172192Y-53960913D01*
X55122778Y-53956423D01*
X55101616Y-53954500D01*
X54438384Y-53954500D01*
X54419145Y-53956248D01*
X54367807Y-53960913D01*
X54205393Y-54011522D01*
X54059811Y-54099530D01*
X54059810Y-54099531D01*
X54041161Y-54118181D01*
X53979838Y-54151666D01*
X53953480Y-54154500D01*
X53766520Y-54154500D01*
X53699481Y-54134815D01*
X53678839Y-54118181D01*
X53660188Y-54099530D01*
X53650499Y-54093673D01*
X53514606Y-54011522D01*
X53352196Y-53960914D01*
X53352194Y-53960913D01*
X53352192Y-53960913D01*
X53302778Y-53956423D01*
X53281616Y-53954500D01*
X52618384Y-53954500D01*
X52599145Y-53956248D01*
X52547807Y-53960913D01*
X52385393Y-54011522D01*
X52239813Y-54099529D01*
X52137680Y-54201662D01*
X52076357Y-54235146D01*
X52006665Y-54230162D01*
X51962303Y-54201646D01*
X51959658Y-54199001D01*
X51926185Y-54137671D01*
X51931182Y-54067980D01*
X51939969Y-54049336D01*
X51941798Y-54046168D01*
X52027179Y-53898284D01*
X52085674Y-53718256D01*
X52105460Y-53530000D01*
X52085674Y-53341744D01*
X52027179Y-53161716D01*
X51932533Y-52997784D01*
X51805871Y-52857112D01*
X51799054Y-52852159D01*
X51652734Y-52745851D01*
X51652729Y-52745848D01*
X51479807Y-52668857D01*
X51479802Y-52668855D01*
X51334001Y-52637865D01*
X51294646Y-52629500D01*
X51105354Y-52629500D01*
X51072897Y-52636398D01*
X50920197Y-52668855D01*
X50920192Y-52668857D01*
X50747270Y-52745848D01*
X50747265Y-52745851D01*
X50594129Y-52857111D01*
X50467466Y-52997785D01*
X50372821Y-53161715D01*
X50372818Y-53161722D01*
X50338964Y-53265916D01*
X50314326Y-53341744D01*
X50294540Y-53530000D01*
X50314326Y-53718256D01*
X50314327Y-53718259D01*
X50372818Y-53898277D01*
X50372821Y-53898284D01*
X50423428Y-53985938D01*
X50439901Y-54053839D01*
X50417048Y-54119865D01*
X50403723Y-54135619D01*
X50319529Y-54219813D01*
X50231522Y-54365393D01*
X50180913Y-54527807D01*
X50176884Y-54572147D01*
X50174500Y-54598384D01*
X50174500Y-55111616D01*
X50176423Y-55132778D01*
X50180913Y-55182192D01*
X50180913Y-55182194D01*
X50180914Y-55182196D01*
X50213118Y-55285544D01*
X50231522Y-55344606D01*
X50319530Y-55490188D01*
X50421661Y-55592319D01*
X50455146Y-55653642D01*
X50450162Y-55723334D01*
X50421661Y-55767681D01*
X50319531Y-55869810D01*
X50319530Y-55869811D01*
X50231522Y-56015393D01*
X50180913Y-56177807D01*
X50174500Y-56248386D01*
X50174500Y-56761613D01*
X46580500Y-56761613D01*
X46580500Y-44180000D01*
X48130000Y-44180000D01*
X48130000Y-44677844D01*
X48136401Y-44737372D01*
X48136403Y-44737379D01*
X48186645Y-44872086D01*
X48186649Y-44872093D01*
X48272809Y-44987187D01*
X48272812Y-44987190D01*
X48387906Y-45073350D01*
X48387913Y-45073354D01*
X48522620Y-45123596D01*
X48522627Y-45123598D01*
X48582155Y-45129999D01*
X48582172Y-45130000D01*
X48830000Y-45130000D01*
X48830000Y-44180000D01*
X49330000Y-44180000D01*
X49330000Y-45130000D01*
X49577828Y-45130000D01*
X49577844Y-45129999D01*
X49637372Y-45123598D01*
X49637379Y-45123596D01*
X49772086Y-45073354D01*
X49772093Y-45073350D01*
X49887187Y-44987190D01*
X49887190Y-44987187D01*
X49973350Y-44872093D01*
X49973354Y-44872086D01*
X50023596Y-44737379D01*
X50023598Y-44737372D01*
X50029999Y-44677844D01*
X50030000Y-44677827D01*
X50030000Y-44180000D01*
X49330000Y-44180000D01*
X48830000Y-44180000D01*
X48130000Y-44180000D01*
X46580500Y-44180000D01*
X46580500Y-43680000D01*
X48130000Y-43680000D01*
X48830000Y-43680000D01*
X48830000Y-42730000D01*
X49330000Y-42730000D01*
X49330000Y-43680000D01*
X50030000Y-43680000D01*
X50030000Y-43182172D01*
X50029999Y-43182155D01*
X50023598Y-43122627D01*
X50023596Y-43122620D01*
X49973354Y-42987913D01*
X49973350Y-42987906D01*
X49887190Y-42872812D01*
X49887187Y-42872809D01*
X49772093Y-42786649D01*
X49772086Y-42786645D01*
X49637379Y-42736403D01*
X49637372Y-42736401D01*
X49577844Y-42730000D01*
X49330000Y-42730000D01*
X48830000Y-42730000D01*
X48582155Y-42730000D01*
X48522627Y-42736401D01*
X48522620Y-42736403D01*
X48387913Y-42786645D01*
X48387906Y-42786649D01*
X48272812Y-42872809D01*
X48272809Y-42872812D01*
X48186649Y-42987906D01*
X48186645Y-42987913D01*
X48136403Y-43122620D01*
X48136401Y-43122627D01*
X48130000Y-43182155D01*
X48130000Y-43680000D01*
X46580500Y-43680000D01*
X46580500Y-40144500D01*
X46600185Y-40077461D01*
X46652989Y-40031706D01*
X46704500Y-40020500D01*
X108575500Y-40020500D01*
X108642539Y-40040185D01*
G37*
%TD.AperFunction*%
%TD*%
M02*
