%TF.GenerationSoftware,KiCad,Pcbnew,7.0.9*%
%TF.CreationDate,2024-10-04T13:57:53+02:00*%
%TF.ProjectId,espnow-sonda,6573706e-6f77-42d7-936f-6e64612e6b69,rev?*%
%TF.SameCoordinates,Original*%
%TF.FileFunction,Copper,L2,Bot*%
%TF.FilePolarity,Positive*%
%FSLAX46Y46*%
G04 Gerber Fmt 4.6, Leading zero omitted, Abs format (unit mm)*
G04 Created by KiCad (PCBNEW 7.0.9) date 2024-10-04 13:57:53*
%MOMM*%
%LPD*%
G01*
G04 APERTURE LIST*
%TA.AperFunction,ComponentPad*%
%ADD10R,1.700000X1.700000*%
%TD*%
%TA.AperFunction,ComponentPad*%
%ADD11O,1.700000X1.700000*%
%TD*%
%TA.AperFunction,ComponentPad*%
%ADD12C,1.800000*%
%TD*%
%TA.AperFunction,ViaPad*%
%ADD13C,0.800000*%
%TD*%
%TA.AperFunction,Conductor*%
%ADD14C,0.500000*%
%TD*%
%TA.AperFunction,Conductor*%
%ADD15C,0.400000*%
%TD*%
G04 APERTURE END LIST*
D10*
%TO.P,J2,1,Pin_1*%
%TO.N,/VCC5V*%
X98200000Y-63930000D03*
D11*
%TO.P,J2,2,Pin_2*%
%TO.N,/VEE-5V*%
X100740000Y-63930000D03*
%TO.P,J2,3,Pin_3*%
%TO.N,GND*%
X103280000Y-63930000D03*
%TO.P,J2,4,Pin_4*%
%TO.N,/VOUT*%
X105820000Y-63930000D03*
%TD*%
D10*
%TO.P,J1,1,Pin_1*%
%TO.N,GND*%
X50200000Y-63930000D03*
D11*
%TO.P,J1,2,Pin_2*%
%TO.N,/IN_P*%
X52740000Y-63930000D03*
%TO.P,J1,3,Pin_3*%
%TO.N,/IN_N*%
X55280000Y-63930000D03*
%TO.P,J1,4,Pin_4*%
%TO.N,GND*%
X57820000Y-63930000D03*
%TD*%
D12*
%TO.P,R9,1,1*%
%TO.N,Net-(R10-Pad1)*%
X61175000Y-60005000D03*
%TO.P,R9,2,2*%
%TO.N,GND*%
X66235000Y-52385000D03*
%TO.P,R9,3,3*%
%TO.N,Net-(R8-Pad1)*%
X61175000Y-47305000D03*
%TD*%
%TO.P,R2,1,1*%
%TO.N,Net-(R2-Pad1)*%
X71025000Y-60005000D03*
%TO.P,R2,2,2*%
%TO.N,Net-(R2-Pad2)*%
X76085000Y-52385000D03*
%TO.P,R2,3,3*%
%TO.N,Net-(R1-Pad2)*%
X71025000Y-47305000D03*
%TD*%
D13*
%TO.N,GND*%
X58650000Y-43130000D03*
X96275000Y-44850000D03*
X78825000Y-48375000D03*
X97200000Y-54582500D03*
X104237500Y-58580000D03*
X51150000Y-42530000D03*
X95650000Y-62430000D03*
X49100000Y-47780000D03*
X97500000Y-58050000D03*
X99875000Y-44050000D03*
X72500000Y-56730000D03*
X68700000Y-43580000D03*
X87100000Y-59630000D03*
X85550000Y-63000000D03*
X100050000Y-48650000D03*
X95650000Y-48780000D03*
X57750000Y-59650000D03*
X94400000Y-59380000D03*
X107350000Y-61330000D03*
X81500000Y-55375000D03*
X68700000Y-59530000D03*
X99750000Y-58050000D03*
X104200000Y-54500000D03*
X49100000Y-58000000D03*
X58850000Y-51730000D03*
X91520000Y-49980000D03*
X52950000Y-51730000D03*
X92550000Y-53200000D03*
X88700000Y-52500000D03*
X104400000Y-49130000D03*
X67300000Y-64280000D03*
X82650000Y-48150000D03*
X87050000Y-44030000D03*
X49050000Y-60450000D03*
X49050000Y-42650000D03*
X107250000Y-50980000D03*
X49050000Y-45300000D03*
X99600000Y-56900000D03*
X48700000Y-51980000D03*
X79250000Y-43675000D03*
X80200000Y-51930000D03*
X75500000Y-46725000D03*
X104720000Y-43555000D03*
X92750000Y-58100000D03*
X98150000Y-44950000D03*
X96550000Y-57030000D03*
X83350000Y-59430000D03*
X56600000Y-60800000D03*
%TO.N,4V8*%
X90550000Y-55330000D03*
X99600000Y-52230000D03*
X67950000Y-55000000D03*
X96550000Y-60980000D03*
%TO.N,-4V8*%
X69700000Y-62750000D03*
X78400000Y-56900000D03*
%TO.N,/VEE-5V*%
X103400000Y-46030000D03*
%TO.N,/IN_P*%
X51150000Y-49880000D03*
%TO.N,/IN_N*%
X51200000Y-53530000D03*
%TO.N,Net-(R10-Pad1)*%
X58750000Y-54855000D03*
%TO.N,Net-(U1A--)*%
X84650000Y-50780000D03*
X86700000Y-47230000D03*
%TO.N,Net-(U1B--)*%
X84650000Y-53530000D03*
X86400000Y-55330000D03*
%TD*%
D14*
%TO.N,4V8*%
X90550000Y-55330000D02*
X89550000Y-55330000D01*
X91100000Y-54780000D02*
X90550000Y-55330000D01*
X68550000Y-54400000D02*
X83650000Y-54400000D01*
X92820000Y-60980000D02*
X91300000Y-62500000D01*
X99070000Y-51700000D02*
X92050000Y-51700000D01*
X86350000Y-61350000D02*
X85650000Y-61350000D01*
X92050000Y-51700000D02*
X91100000Y-52650000D01*
X88250000Y-56630000D02*
X85100000Y-56630000D01*
X96550000Y-60980000D02*
X92820000Y-60980000D01*
X89550000Y-55330000D02*
X88250000Y-56630000D01*
X91100000Y-52650000D02*
X91100000Y-54780000D01*
X91300000Y-62500000D02*
X87500000Y-62500000D01*
X85025000Y-60725000D02*
X85025000Y-56705000D01*
X67950000Y-55000000D02*
X68550000Y-54400000D01*
X99600000Y-52230000D02*
X99390000Y-52440000D01*
X85650000Y-61350000D02*
X85025000Y-60725000D01*
X83650000Y-54400000D02*
X85025000Y-55775000D01*
X85100000Y-56630000D02*
X85025000Y-56705000D01*
X85025000Y-55775000D02*
X85025000Y-56705000D01*
X87500000Y-62500000D02*
X86350000Y-61350000D01*
X99600000Y-52230000D02*
X99070000Y-51700000D01*
%TO.N,-4V8*%
X72650000Y-62750000D02*
X69700000Y-62750000D01*
X78400000Y-56900000D02*
X78400000Y-57000000D01*
X78400000Y-57000000D02*
X72650000Y-62750000D01*
%TO.N,/VEE-5V*%
X102900000Y-55030000D02*
X100740000Y-57190000D01*
X103400000Y-46030000D02*
X103400000Y-47380000D01*
X100740000Y-57190000D02*
X100740000Y-63930000D01*
X103400000Y-47380000D02*
X102900000Y-47880000D01*
X102900000Y-53780000D02*
X102900000Y-55030000D01*
X102900000Y-47880000D02*
X102900000Y-53780000D01*
D15*
%TO.N,/IN_P*%
X52720000Y-61070000D02*
X52720000Y-63930000D01*
X49950000Y-52830000D02*
X49950000Y-58300000D01*
X51150000Y-51630000D02*
X49950000Y-52830000D01*
X49950000Y-58300000D02*
X52720000Y-61070000D01*
X51150000Y-49880000D02*
X51150000Y-51630000D01*
%TO.N,/IN_N*%
X55260000Y-62240000D02*
X55260000Y-63930000D01*
X51200000Y-53530000D02*
X51200000Y-53550000D01*
X53850000Y-56200000D02*
X53850000Y-60830000D01*
X51200000Y-53550000D02*
X53850000Y-56200000D01*
X53850000Y-60830000D02*
X55260000Y-62240000D01*
%TO.N,Net-(R10-Pad1)*%
X61175000Y-57280000D02*
X61175000Y-60005000D01*
X58750000Y-54855000D02*
X61175000Y-57280000D01*
%TO.N,Net-(U1A--)*%
X86700000Y-47230000D02*
X85350000Y-48580000D01*
X85350000Y-48580000D02*
X85350000Y-50080000D01*
X85350000Y-50080000D02*
X84650000Y-50780000D01*
%TO.N,Net-(U1B--)*%
X86400000Y-55330000D02*
X86130000Y-55330000D01*
X84650000Y-53850000D02*
X84650000Y-53530000D01*
X86130000Y-55330000D02*
X84650000Y-53850000D01*
%TD*%
%TA.AperFunction,Conductor*%
%TO.N,GND*%
G36*
X108642539Y-40040185D02*
G01*
X108688294Y-40092989D01*
X108699500Y-40144500D01*
X108699500Y-65695500D01*
X108679815Y-65762539D01*
X108627011Y-65808294D01*
X108575500Y-65819500D01*
X46704500Y-65819500D01*
X46637461Y-65799815D01*
X46591706Y-65747011D01*
X46580500Y-65695500D01*
X46580500Y-64827844D01*
X48850000Y-64827844D01*
X48856401Y-64887372D01*
X48856403Y-64887379D01*
X48906645Y-65022086D01*
X48906649Y-65022093D01*
X48992809Y-65137187D01*
X48992812Y-65137190D01*
X49107906Y-65223350D01*
X49107913Y-65223354D01*
X49242620Y-65273596D01*
X49242627Y-65273598D01*
X49302155Y-65279999D01*
X49302172Y-65280000D01*
X49950000Y-65280000D01*
X49950000Y-64365501D01*
X50057685Y-64414680D01*
X50164237Y-64430000D01*
X50235763Y-64430000D01*
X50342315Y-64414680D01*
X50450000Y-64365501D01*
X50450000Y-65280000D01*
X51097828Y-65280000D01*
X51097844Y-65279999D01*
X51157372Y-65273598D01*
X51157379Y-65273596D01*
X51292086Y-65223354D01*
X51292093Y-65223350D01*
X51407187Y-65137190D01*
X51407190Y-65137187D01*
X51493350Y-65022093D01*
X51493354Y-65022086D01*
X51542422Y-64890529D01*
X51584293Y-64834595D01*
X51649757Y-64810178D01*
X51718030Y-64825030D01*
X51746285Y-64846181D01*
X51868599Y-64968495D01*
X51965384Y-65036265D01*
X52062165Y-65104032D01*
X52062167Y-65104033D01*
X52062170Y-65104035D01*
X52276337Y-65203903D01*
X52504592Y-65265063D01*
X52681034Y-65280500D01*
X52739999Y-65285659D01*
X52740000Y-65285659D01*
X52740001Y-65285659D01*
X52798966Y-65280500D01*
X52975408Y-65265063D01*
X53203663Y-65203903D01*
X53417830Y-65104035D01*
X53611401Y-64968495D01*
X53778495Y-64801401D01*
X53908425Y-64615842D01*
X53963002Y-64572217D01*
X54032500Y-64565023D01*
X54094855Y-64596546D01*
X54111575Y-64615842D01*
X54241500Y-64801395D01*
X54241505Y-64801401D01*
X54408599Y-64968495D01*
X54505384Y-65036265D01*
X54602165Y-65104032D01*
X54602167Y-65104033D01*
X54602170Y-65104035D01*
X54816337Y-65203903D01*
X55044592Y-65265063D01*
X55221034Y-65280500D01*
X55279999Y-65285659D01*
X55280000Y-65285659D01*
X55280001Y-65285659D01*
X55338966Y-65280500D01*
X55515408Y-65265063D01*
X55743663Y-65203903D01*
X55957830Y-65104035D01*
X56151401Y-64968495D01*
X56318495Y-64801401D01*
X56448730Y-64615405D01*
X56503307Y-64571781D01*
X56572805Y-64564587D01*
X56635160Y-64596110D01*
X56651879Y-64615405D01*
X56781890Y-64801078D01*
X56948917Y-64968105D01*
X57142421Y-65103600D01*
X57356507Y-65203429D01*
X57356516Y-65203433D01*
X57570000Y-65260634D01*
X57570000Y-64365501D01*
X57677685Y-64414680D01*
X57784237Y-64430000D01*
X57855763Y-64430000D01*
X57962315Y-64414680D01*
X58070000Y-64365501D01*
X58070000Y-65260633D01*
X58283483Y-65203433D01*
X58283492Y-65203429D01*
X58497578Y-65103600D01*
X58691082Y-64968105D01*
X58831317Y-64827870D01*
X96849500Y-64827870D01*
X96849501Y-64827876D01*
X96855908Y-64887483D01*
X96906202Y-65022328D01*
X96906206Y-65022335D01*
X96992452Y-65137544D01*
X96992455Y-65137547D01*
X97107664Y-65223793D01*
X97107671Y-65223797D01*
X97242517Y-65274091D01*
X97242516Y-65274091D01*
X97249444Y-65274835D01*
X97302127Y-65280500D01*
X99097872Y-65280499D01*
X99157483Y-65274091D01*
X99292331Y-65223796D01*
X99407546Y-65137546D01*
X99493796Y-65022331D01*
X99542810Y-64890916D01*
X99584681Y-64834984D01*
X99650145Y-64810566D01*
X99718418Y-64825417D01*
X99746673Y-64846569D01*
X99868599Y-64968495D01*
X99965384Y-65036265D01*
X100062165Y-65104032D01*
X100062167Y-65104033D01*
X100062170Y-65104035D01*
X100276337Y-65203903D01*
X100504592Y-65265063D01*
X100681034Y-65280500D01*
X100739999Y-65285659D01*
X100740000Y-65285659D01*
X100740001Y-65285659D01*
X100798966Y-65280500D01*
X100975408Y-65265063D01*
X101203663Y-65203903D01*
X101417830Y-65104035D01*
X101611401Y-64968495D01*
X101778495Y-64801401D01*
X101908730Y-64615405D01*
X101963307Y-64571781D01*
X102032805Y-64564587D01*
X102095160Y-64596110D01*
X102111879Y-64615405D01*
X102241890Y-64801078D01*
X102408917Y-64968105D01*
X102602421Y-65103600D01*
X102816507Y-65203429D01*
X102816516Y-65203433D01*
X103030000Y-65260634D01*
X103030000Y-64365501D01*
X103137685Y-64414680D01*
X103244237Y-64430000D01*
X103315763Y-64430000D01*
X103422315Y-64414680D01*
X103530000Y-64365501D01*
X103530000Y-65260633D01*
X103743483Y-65203433D01*
X103743492Y-65203429D01*
X103957578Y-65103600D01*
X104151082Y-64968105D01*
X104318105Y-64801082D01*
X104448119Y-64615405D01*
X104502696Y-64571781D01*
X104572195Y-64564588D01*
X104634549Y-64596110D01*
X104651269Y-64615405D01*
X104781505Y-64801401D01*
X104948599Y-64968495D01*
X105045384Y-65036265D01*
X105142165Y-65104032D01*
X105142167Y-65104033D01*
X105142170Y-65104035D01*
X105356337Y-65203903D01*
X105584592Y-65265063D01*
X105761034Y-65280500D01*
X105819999Y-65285659D01*
X105820000Y-65285659D01*
X105820001Y-65285659D01*
X105878966Y-65280500D01*
X106055408Y-65265063D01*
X106283663Y-65203903D01*
X106497830Y-65104035D01*
X106691401Y-64968495D01*
X106858495Y-64801401D01*
X106994035Y-64607830D01*
X107093903Y-64393663D01*
X107155063Y-64165408D01*
X107175659Y-63930000D01*
X107155063Y-63694592D01*
X107093903Y-63466337D01*
X106994035Y-63252171D01*
X106994032Y-63252166D01*
X106858494Y-63058597D01*
X106691402Y-62891506D01*
X106691395Y-62891501D01*
X106497834Y-62755967D01*
X106497830Y-62755965D01*
X106468521Y-62742298D01*
X106283663Y-62656097D01*
X106283659Y-62656096D01*
X106283655Y-62656094D01*
X106055413Y-62594938D01*
X106055403Y-62594936D01*
X105820001Y-62574341D01*
X105819999Y-62574341D01*
X105584596Y-62594936D01*
X105584586Y-62594938D01*
X105356344Y-62656094D01*
X105356335Y-62656098D01*
X105142171Y-62755964D01*
X105142169Y-62755965D01*
X104948597Y-62891505D01*
X104781508Y-63058594D01*
X104651269Y-63244595D01*
X104596692Y-63288219D01*
X104527193Y-63295412D01*
X104464839Y-63263890D01*
X104448119Y-63244594D01*
X104318113Y-63058926D01*
X104318108Y-63058920D01*
X104151082Y-62891894D01*
X103957578Y-62756399D01*
X103743492Y-62656570D01*
X103743486Y-62656567D01*
X103530000Y-62599364D01*
X103530000Y-63494498D01*
X103422315Y-63445320D01*
X103315763Y-63430000D01*
X103244237Y-63430000D01*
X103137685Y-63445320D01*
X103030000Y-63494498D01*
X103030000Y-62599364D01*
X103029999Y-62599364D01*
X102816513Y-62656567D01*
X102816507Y-62656570D01*
X102602422Y-62756399D01*
X102602420Y-62756400D01*
X102408926Y-62891886D01*
X102408920Y-62891891D01*
X102241891Y-63058920D01*
X102241890Y-63058922D01*
X102111880Y-63244595D01*
X102057303Y-63288219D01*
X101987804Y-63295412D01*
X101925450Y-63263890D01*
X101908730Y-63244594D01*
X101778494Y-63058597D01*
X101611404Y-62891507D01*
X101543375Y-62843872D01*
X101499751Y-62789294D01*
X101490500Y-62742298D01*
X101490500Y-57552228D01*
X101510185Y-57485189D01*
X101526814Y-57464552D01*
X103385638Y-55605727D01*
X103399267Y-55593950D01*
X103418530Y-55579610D01*
X103418532Y-55579606D01*
X103418534Y-55579606D01*
X103436663Y-55557999D01*
X103452113Y-55539585D01*
X103455767Y-55535599D01*
X103461589Y-55529778D01*
X103463084Y-55527888D01*
X103481927Y-55504055D01*
X103531302Y-55445214D01*
X103531304Y-55445209D01*
X103535272Y-55439179D01*
X103535323Y-55439212D01*
X103539369Y-55432860D01*
X103539317Y-55432828D01*
X103543109Y-55426679D01*
X103543111Y-55426677D01*
X103575569Y-55357069D01*
X103610040Y-55288433D01*
X103610043Y-55288417D01*
X103612510Y-55281644D01*
X103612568Y-55281665D01*
X103615043Y-55274546D01*
X103614985Y-55274527D01*
X103617256Y-55267672D01*
X103626423Y-55223277D01*
X103632784Y-55192467D01*
X103650500Y-55117721D01*
X103650500Y-55117720D01*
X103651339Y-55110548D01*
X103651397Y-55110554D01*
X103652164Y-55103056D01*
X103652104Y-55103051D01*
X103652733Y-55095860D01*
X103650500Y-55019103D01*
X103650500Y-48242229D01*
X103670185Y-48175190D01*
X103686815Y-48154552D01*
X103885642Y-47955724D01*
X103899271Y-47943947D01*
X103918530Y-47929610D01*
X103940952Y-47902888D01*
X103952101Y-47889601D01*
X103955761Y-47885606D01*
X103961590Y-47879778D01*
X103981941Y-47854039D01*
X104015417Y-47814144D01*
X104031302Y-47795214D01*
X104031306Y-47795205D01*
X104035274Y-47789175D01*
X104035325Y-47789208D01*
X104039372Y-47782856D01*
X104039320Y-47782824D01*
X104043112Y-47776675D01*
X104075575Y-47707058D01*
X104110036Y-47638440D01*
X104110040Y-47638433D01*
X104110042Y-47638421D01*
X104112509Y-47631646D01*
X104112567Y-47631667D01*
X104115043Y-47624546D01*
X104114986Y-47624528D01*
X104117257Y-47617673D01*
X104132792Y-47542434D01*
X104146802Y-47483323D01*
X104150500Y-47467721D01*
X104150500Y-47467710D01*
X104151338Y-47460548D01*
X104151398Y-47460555D01*
X104152164Y-47453055D01*
X104152105Y-47453050D01*
X104152734Y-47445860D01*
X104150500Y-47369082D01*
X104150500Y-46564321D01*
X104167113Y-46502321D01*
X104199717Y-46445849D01*
X104227179Y-46398284D01*
X104285674Y-46218256D01*
X104305460Y-46030000D01*
X104285674Y-45841744D01*
X104227179Y-45661716D01*
X104132533Y-45497784D01*
X104005871Y-45357112D01*
X104005870Y-45357111D01*
X103852734Y-45245851D01*
X103852729Y-45245848D01*
X103679807Y-45168857D01*
X103679802Y-45168855D01*
X103534001Y-45137865D01*
X103494646Y-45129500D01*
X103305354Y-45129500D01*
X103272897Y-45136398D01*
X103120197Y-45168855D01*
X103120192Y-45168857D01*
X102947270Y-45245848D01*
X102947265Y-45245851D01*
X102794129Y-45357111D01*
X102667466Y-45497785D01*
X102572821Y-45661715D01*
X102572818Y-45661722D01*
X102514327Y-45841740D01*
X102514326Y-45841744D01*
X102494540Y-46030000D01*
X102514326Y-46218256D01*
X102514327Y-46218259D01*
X102572818Y-46398277D01*
X102572821Y-46398284D01*
X102632887Y-46502321D01*
X102649500Y-46564321D01*
X102649500Y-47017769D01*
X102629815Y-47084808D01*
X102613181Y-47105450D01*
X102414358Y-47304272D01*
X102400729Y-47316051D01*
X102381468Y-47330390D01*
X102347898Y-47370397D01*
X102344253Y-47374376D01*
X102338409Y-47380222D01*
X102318059Y-47405959D01*
X102268695Y-47464789D01*
X102264729Y-47470819D01*
X102264682Y-47470788D01*
X102260630Y-47477147D01*
X102260679Y-47477177D01*
X102256889Y-47483321D01*
X102224424Y-47552941D01*
X102189960Y-47621566D01*
X102187488Y-47628357D01*
X102187432Y-47628336D01*
X102184960Y-47635450D01*
X102185015Y-47635469D01*
X102182742Y-47642327D01*
X102174975Y-47679946D01*
X102167207Y-47717565D01*
X102156625Y-47762216D01*
X102149498Y-47792286D01*
X102148661Y-47799454D01*
X102148601Y-47799447D01*
X102147835Y-47806945D01*
X102147895Y-47806951D01*
X102147265Y-47814140D01*
X102149500Y-47890916D01*
X102149500Y-54667769D01*
X102129815Y-54734808D01*
X102113181Y-54755450D01*
X100254358Y-56614272D01*
X100240729Y-56626051D01*
X100221468Y-56640390D01*
X100187898Y-56680397D01*
X100184253Y-56684376D01*
X100178409Y-56690222D01*
X100158059Y-56715959D01*
X100108695Y-56774789D01*
X100104729Y-56780819D01*
X100104682Y-56780788D01*
X100100630Y-56787147D01*
X100100679Y-56787177D01*
X100096889Y-56793321D01*
X100064424Y-56862941D01*
X100029960Y-56931566D01*
X100027488Y-56938357D01*
X100027432Y-56938336D01*
X100024960Y-56945450D01*
X100025015Y-56945469D01*
X100022742Y-56952327D01*
X100014975Y-56989946D01*
X100007207Y-57027565D01*
X99997135Y-57070064D01*
X99989498Y-57102286D01*
X99988661Y-57109454D01*
X99988601Y-57109447D01*
X99987835Y-57116945D01*
X99987895Y-57116951D01*
X99987265Y-57124140D01*
X99989500Y-57200916D01*
X99989500Y-62742298D01*
X99969815Y-62809337D01*
X99936625Y-62843872D01*
X99868599Y-62891505D01*
X99746673Y-63013431D01*
X99685350Y-63046915D01*
X99615658Y-63041931D01*
X99559725Y-63000059D01*
X99542810Y-62969082D01*
X99493797Y-62837671D01*
X99493793Y-62837664D01*
X99407547Y-62722455D01*
X99407544Y-62722452D01*
X99292335Y-62636206D01*
X99292328Y-62636202D01*
X99157482Y-62585908D01*
X99157483Y-62585908D01*
X99097883Y-62579501D01*
X99097881Y-62579500D01*
X99097873Y-62579500D01*
X99097864Y-62579500D01*
X97302129Y-62579500D01*
X97302123Y-62579501D01*
X97242516Y-62585908D01*
X97107671Y-62636202D01*
X97107664Y-62636206D01*
X96992455Y-62722452D01*
X96992452Y-62722455D01*
X96906206Y-62837664D01*
X96906202Y-62837671D01*
X96855908Y-62972517D01*
X96849501Y-63032116D01*
X96849500Y-63032135D01*
X96849500Y-64827870D01*
X58831317Y-64827870D01*
X58858105Y-64801082D01*
X58993600Y-64607578D01*
X59093429Y-64393492D01*
X59093432Y-64393486D01*
X59150636Y-64180000D01*
X58253686Y-64180000D01*
X58279493Y-64139844D01*
X58320000Y-64001889D01*
X58320000Y-63858111D01*
X58279493Y-63720156D01*
X58253686Y-63680000D01*
X59150636Y-63680000D01*
X59150635Y-63679999D01*
X59093432Y-63466513D01*
X59093429Y-63466507D01*
X58993600Y-63252422D01*
X58993599Y-63252420D01*
X58858113Y-63058926D01*
X58858108Y-63058920D01*
X58691082Y-62891894D01*
X58497578Y-62756399D01*
X58483855Y-62750000D01*
X68794540Y-62750000D01*
X68814326Y-62938256D01*
X68814327Y-62938259D01*
X68872818Y-63118277D01*
X68872821Y-63118284D01*
X68967467Y-63282216D01*
X69017945Y-63338277D01*
X69094129Y-63422888D01*
X69247265Y-63534148D01*
X69247270Y-63534151D01*
X69420192Y-63611142D01*
X69420197Y-63611144D01*
X69605354Y-63650500D01*
X69605355Y-63650500D01*
X69794644Y-63650500D01*
X69794646Y-63650500D01*
X69979803Y-63611144D01*
X70152730Y-63534151D01*
X70154776Y-63532664D01*
X70166452Y-63524182D01*
X70232258Y-63500702D01*
X70239337Y-63500500D01*
X72586295Y-63500500D01*
X72604265Y-63501809D01*
X72628023Y-63505289D01*
X72680068Y-63500735D01*
X72685470Y-63500500D01*
X72693704Y-63500500D01*
X72693709Y-63500500D01*
X72705327Y-63499141D01*
X72726276Y-63496693D01*
X72739028Y-63495577D01*
X72802797Y-63489999D01*
X72802805Y-63489996D01*
X72809866Y-63488539D01*
X72809878Y-63488598D01*
X72817243Y-63486965D01*
X72817229Y-63486906D01*
X72824246Y-63485241D01*
X72824255Y-63485241D01*
X72896423Y-63458974D01*
X72969334Y-63434814D01*
X72969343Y-63434807D01*
X72975882Y-63431760D01*
X72975908Y-63431816D01*
X72982690Y-63428532D01*
X72982663Y-63428478D01*
X72989106Y-63425240D01*
X72989117Y-63425237D01*
X73053283Y-63383034D01*
X73118656Y-63342712D01*
X73118662Y-63342705D01*
X73124325Y-63338229D01*
X73124363Y-63338277D01*
X73130200Y-63333522D01*
X73130161Y-63333475D01*
X73135696Y-63328830D01*
X73188385Y-63272983D01*
X77319520Y-59141847D01*
X78700364Y-57761002D01*
X78737606Y-57735407D01*
X78852730Y-57684151D01*
X79005871Y-57572888D01*
X79132533Y-57432216D01*
X79227179Y-57268284D01*
X79285674Y-57088256D01*
X79305460Y-56900000D01*
X79285674Y-56711744D01*
X79227179Y-56531716D01*
X79132533Y-56367784D01*
X79005871Y-56227112D01*
X78997690Y-56221168D01*
X78852734Y-56115851D01*
X78852729Y-56115848D01*
X78679807Y-56038857D01*
X78679802Y-56038855D01*
X78510585Y-56002888D01*
X78494646Y-55999500D01*
X78305354Y-55999500D01*
X78289415Y-56002888D01*
X78120197Y-56038855D01*
X78120192Y-56038857D01*
X77947270Y-56115848D01*
X77947265Y-56115851D01*
X77794129Y-56227111D01*
X77667466Y-56367785D01*
X77572821Y-56531715D01*
X77572818Y-56531722D01*
X77514327Y-56711740D01*
X77514326Y-56711744D01*
X77506401Y-56787147D01*
X77505696Y-56793855D01*
X77479111Y-56858470D01*
X77470056Y-56868574D01*
X72375451Y-61963181D01*
X72314128Y-61996666D01*
X72287770Y-61999500D01*
X70239337Y-61999500D01*
X70172298Y-61979815D01*
X70166452Y-61975818D01*
X70152734Y-61965851D01*
X70152729Y-61965848D01*
X69979807Y-61888857D01*
X69979802Y-61888855D01*
X69834001Y-61857865D01*
X69794646Y-61849500D01*
X69605354Y-61849500D01*
X69572897Y-61856398D01*
X69420197Y-61888855D01*
X69420192Y-61888857D01*
X69247270Y-61965848D01*
X69247265Y-61965851D01*
X69094129Y-62077111D01*
X68967466Y-62217785D01*
X68872821Y-62381715D01*
X68872818Y-62381722D01*
X68836390Y-62493838D01*
X68814326Y-62561744D01*
X68794540Y-62750000D01*
X58483855Y-62750000D01*
X58283492Y-62656570D01*
X58283486Y-62656567D01*
X58070000Y-62599364D01*
X58070000Y-63494498D01*
X57962315Y-63445320D01*
X57855763Y-63430000D01*
X57784237Y-63430000D01*
X57677685Y-63445320D01*
X57570000Y-63494498D01*
X57570000Y-62599364D01*
X57569999Y-62599364D01*
X57356513Y-62656567D01*
X57356507Y-62656570D01*
X57142422Y-62756399D01*
X57142420Y-62756400D01*
X56948926Y-62891886D01*
X56948920Y-62891891D01*
X56781891Y-63058920D01*
X56781890Y-63058922D01*
X56651880Y-63244595D01*
X56597303Y-63288219D01*
X56527804Y-63295412D01*
X56465450Y-63263890D01*
X56448730Y-63244594D01*
X56318494Y-63058597D01*
X56151404Y-62891508D01*
X56151402Y-62891506D01*
X56151401Y-62891505D01*
X56151396Y-62891501D01*
X56151393Y-62891499D01*
X56013376Y-62794857D01*
X55969751Y-62740280D01*
X55960500Y-62693283D01*
X55960500Y-62263035D01*
X55960613Y-62259290D01*
X55964357Y-62197394D01*
X55953177Y-62136386D01*
X55952615Y-62132689D01*
X55946555Y-62082784D01*
X55945140Y-62071128D01*
X55941546Y-62061651D01*
X55935519Y-62040029D01*
X55933694Y-62030070D01*
X55933694Y-62030068D01*
X55908241Y-61973514D01*
X55906807Y-61970052D01*
X55884818Y-61912071D01*
X55884818Y-61912070D01*
X55879058Y-61903726D01*
X55868035Y-61884180D01*
X55866379Y-61880500D01*
X55863878Y-61874943D01*
X55825617Y-61826107D01*
X55823417Y-61823117D01*
X55806786Y-61799021D01*
X55788185Y-61772073D01*
X55788183Y-61772071D01*
X55741750Y-61730935D01*
X55739056Y-61728399D01*
X54586819Y-60576162D01*
X54553334Y-60514839D01*
X54550500Y-60488481D01*
X54550500Y-56223047D01*
X54550613Y-56219302D01*
X54554358Y-56157394D01*
X54543175Y-56096371D01*
X54542613Y-56092674D01*
X54536078Y-56038856D01*
X54535140Y-56031128D01*
X54531548Y-56021656D01*
X54525521Y-56000034D01*
X54523695Y-55990071D01*
X54523695Y-55990069D01*
X54498223Y-55933474D01*
X54496812Y-55930065D01*
X54474818Y-55872070D01*
X54469063Y-55863733D01*
X54458036Y-55844182D01*
X54453879Y-55834946D01*
X54453878Y-55834943D01*
X54431995Y-55807011D01*
X54415630Y-55786122D01*
X54413410Y-55783106D01*
X54394355Y-55755500D01*
X54378183Y-55732071D01*
X54331750Y-55690935D01*
X54329056Y-55688399D01*
X53495657Y-54855000D01*
X57844540Y-54855000D01*
X57864326Y-55043256D01*
X57864327Y-55043259D01*
X57922818Y-55223277D01*
X57922821Y-55223284D01*
X58017467Y-55387216D01*
X58135456Y-55518256D01*
X58144129Y-55527888D01*
X58297265Y-55639148D01*
X58297270Y-55639151D01*
X58470191Y-55716142D01*
X58470193Y-55716142D01*
X58470197Y-55716144D01*
X58625130Y-55749075D01*
X58686607Y-55782266D01*
X58687026Y-55782683D01*
X60438181Y-57533838D01*
X60471666Y-57595161D01*
X60474500Y-57621519D01*
X60474500Y-58717773D01*
X60454815Y-58784812D01*
X60409527Y-58826823D01*
X60406377Y-58828527D01*
X60406365Y-58828535D01*
X60223222Y-58971081D01*
X60223219Y-58971084D01*
X60066016Y-59141852D01*
X59939075Y-59336151D01*
X59845842Y-59548699D01*
X59788866Y-59773691D01*
X59788864Y-59773702D01*
X59769700Y-60004993D01*
X59769700Y-60005006D01*
X59788864Y-60236297D01*
X59788866Y-60236308D01*
X59845842Y-60461300D01*
X59939075Y-60673848D01*
X60066016Y-60868147D01*
X60066019Y-60868151D01*
X60066021Y-60868153D01*
X60223216Y-61038913D01*
X60223219Y-61038915D01*
X60223222Y-61038918D01*
X60406365Y-61181464D01*
X60406371Y-61181468D01*
X60406374Y-61181470D01*
X60610497Y-61291936D01*
X60724487Y-61331068D01*
X60830015Y-61367297D01*
X60830017Y-61367297D01*
X60830019Y-61367298D01*
X61058951Y-61405500D01*
X61058952Y-61405500D01*
X61291048Y-61405500D01*
X61291049Y-61405500D01*
X61519981Y-61367298D01*
X61739503Y-61291936D01*
X61943626Y-61181470D01*
X61960604Y-61168256D01*
X62011961Y-61128283D01*
X62126784Y-61038913D01*
X62283979Y-60868153D01*
X62286457Y-60864361D01*
X62307945Y-60831470D01*
X62410924Y-60673849D01*
X62504157Y-60461300D01*
X62561134Y-60236305D01*
X62561135Y-60236297D01*
X62580300Y-60005006D01*
X69619700Y-60005006D01*
X69638864Y-60236297D01*
X69638866Y-60236308D01*
X69695842Y-60461300D01*
X69789075Y-60673848D01*
X69916016Y-60868147D01*
X69916019Y-60868151D01*
X69916021Y-60868153D01*
X70073216Y-61038913D01*
X70073219Y-61038915D01*
X70073222Y-61038918D01*
X70256365Y-61181464D01*
X70256371Y-61181468D01*
X70256374Y-61181470D01*
X70460497Y-61291936D01*
X70574487Y-61331068D01*
X70680015Y-61367297D01*
X70680017Y-61367297D01*
X70680019Y-61367298D01*
X70908951Y-61405500D01*
X70908952Y-61405500D01*
X71141048Y-61405500D01*
X71141049Y-61405500D01*
X71369981Y-61367298D01*
X71589503Y-61291936D01*
X71793626Y-61181470D01*
X71810604Y-61168256D01*
X71861961Y-61128283D01*
X71976784Y-61038913D01*
X72133979Y-60868153D01*
X72136457Y-60864361D01*
X72157945Y-60831470D01*
X72260924Y-60673849D01*
X72354157Y-60461300D01*
X72411134Y-60236305D01*
X72411135Y-60236297D01*
X72430300Y-60005006D01*
X72430300Y-60004993D01*
X72411135Y-59773702D01*
X72411133Y-59773691D01*
X72354157Y-59548699D01*
X72260924Y-59336151D01*
X72133983Y-59141852D01*
X72133980Y-59141849D01*
X72133979Y-59141847D01*
X71976784Y-58971087D01*
X71976779Y-58971083D01*
X71976777Y-58971081D01*
X71793634Y-58828535D01*
X71793628Y-58828531D01*
X71589504Y-58718064D01*
X71589495Y-58718061D01*
X71369984Y-58642702D01*
X71198282Y-58614050D01*
X71141049Y-58604500D01*
X70908951Y-58604500D01*
X70863164Y-58612140D01*
X70680015Y-58642702D01*
X70460504Y-58718061D01*
X70460495Y-58718064D01*
X70256371Y-58828531D01*
X70256365Y-58828535D01*
X70073222Y-58971081D01*
X70073219Y-58971084D01*
X69916016Y-59141852D01*
X69789075Y-59336151D01*
X69695842Y-59548699D01*
X69638866Y-59773691D01*
X69638864Y-59773702D01*
X69619700Y-60004993D01*
X69619700Y-60005006D01*
X62580300Y-60005006D01*
X62580300Y-60004993D01*
X62561135Y-59773702D01*
X62561133Y-59773691D01*
X62504157Y-59548699D01*
X62410924Y-59336151D01*
X62283983Y-59141852D01*
X62283980Y-59141849D01*
X62283979Y-59141847D01*
X62126784Y-58971087D01*
X62126779Y-58971083D01*
X62126777Y-58971081D01*
X61943634Y-58828535D01*
X61943622Y-58828527D01*
X61940473Y-58826823D01*
X61939433Y-58825790D01*
X61939334Y-58825726D01*
X61939347Y-58825705D01*
X61890887Y-58777599D01*
X61875500Y-58717773D01*
X61875500Y-57303047D01*
X61875613Y-57299302D01*
X61879358Y-57237394D01*
X61868175Y-57176371D01*
X61867613Y-57172674D01*
X61861720Y-57124144D01*
X61860140Y-57111128D01*
X61856548Y-57101656D01*
X61850521Y-57080034D01*
X61848695Y-57070071D01*
X61848695Y-57070069D01*
X61823223Y-57013474D01*
X61821812Y-57010065D01*
X61799818Y-56952070D01*
X61794063Y-56943733D01*
X61783036Y-56924182D01*
X61778879Y-56914946D01*
X61778878Y-56914943D01*
X61761287Y-56892490D01*
X61740630Y-56866122D01*
X61738410Y-56863106D01*
X61703182Y-56812070D01*
X61682621Y-56793855D01*
X61656750Y-56770935D01*
X61654056Y-56768399D01*
X59885657Y-55000000D01*
X67044540Y-55000000D01*
X67064326Y-55188256D01*
X67064327Y-55188259D01*
X67122818Y-55368277D01*
X67122821Y-55368284D01*
X67217467Y-55532216D01*
X67260141Y-55579610D01*
X67344129Y-55672888D01*
X67497265Y-55784148D01*
X67497270Y-55784151D01*
X67670192Y-55861142D01*
X67670197Y-55861144D01*
X67855354Y-55900500D01*
X67855355Y-55900500D01*
X68044644Y-55900500D01*
X68044646Y-55900500D01*
X68229803Y-55861144D01*
X68402730Y-55784151D01*
X68555871Y-55672888D01*
X68682533Y-55532216D01*
X68777179Y-55368284D01*
X68820102Y-55236182D01*
X68859540Y-55178506D01*
X68923898Y-55151308D01*
X68938033Y-55150500D01*
X83287770Y-55150500D01*
X83354809Y-55170185D01*
X83375451Y-55186819D01*
X84238181Y-56049548D01*
X84271666Y-56110871D01*
X84274500Y-56137229D01*
X84274500Y-56615655D01*
X84272835Y-56631945D01*
X84272895Y-56631951D01*
X84272265Y-56639140D01*
X84274500Y-56715916D01*
X84274500Y-60661294D01*
X84273191Y-60679263D01*
X84269710Y-60703025D01*
X84274264Y-60755064D01*
X84274500Y-60760470D01*
X84274500Y-60768709D01*
X84278306Y-60801274D01*
X84285000Y-60877791D01*
X84286461Y-60884867D01*
X84286403Y-60884878D01*
X84288034Y-60892237D01*
X84288092Y-60892224D01*
X84289757Y-60899250D01*
X84316025Y-60971424D01*
X84340185Y-61044331D01*
X84343236Y-61050874D01*
X84343182Y-61050898D01*
X84346470Y-61057688D01*
X84346521Y-61057663D01*
X84349761Y-61064113D01*
X84349762Y-61064114D01*
X84349763Y-61064117D01*
X84391965Y-61128283D01*
X84432287Y-61193655D01*
X84436766Y-61199319D01*
X84436719Y-61199356D01*
X84441482Y-61205202D01*
X84441528Y-61205164D01*
X84446173Y-61210700D01*
X84502019Y-61263387D01*
X85074268Y-61835635D01*
X85086049Y-61849267D01*
X85100390Y-61868530D01*
X85140420Y-61902119D01*
X85144392Y-61905759D01*
X85150223Y-61911590D01*
X85175939Y-61931923D01*
X85233013Y-61979815D01*
X85234786Y-61981302D01*
X85234788Y-61981303D01*
X85240823Y-61985272D01*
X85240789Y-61985322D01*
X85247144Y-61989370D01*
X85247177Y-61989318D01*
X85253319Y-61993107D01*
X85253323Y-61993110D01*
X85322914Y-62025561D01*
X85391558Y-62060036D01*
X85391561Y-62060037D01*
X85391567Y-62060040D01*
X85391572Y-62060041D01*
X85398355Y-62062510D01*
X85398334Y-62062567D01*
X85405451Y-62065040D01*
X85405470Y-62064984D01*
X85412330Y-62067257D01*
X85460061Y-62077112D01*
X85487532Y-62082784D01*
X85562279Y-62100500D01*
X85562288Y-62100500D01*
X85569452Y-62101338D01*
X85569445Y-62101397D01*
X85576946Y-62102163D01*
X85576952Y-62102104D01*
X85584140Y-62102733D01*
X85584143Y-62102732D01*
X85584144Y-62102733D01*
X85660898Y-62100500D01*
X85987770Y-62100500D01*
X86054809Y-62120185D01*
X86075451Y-62136819D01*
X86924267Y-62985634D01*
X86936048Y-62999266D01*
X86941356Y-63006396D01*
X86950390Y-63018530D01*
X86990420Y-63052119D01*
X86994392Y-63055759D01*
X86997553Y-63058920D01*
X87000224Y-63061591D01*
X87000227Y-63061594D01*
X87025947Y-63081931D01*
X87084788Y-63131304D01*
X87090818Y-63135270D01*
X87090785Y-63135319D01*
X87097143Y-63139369D01*
X87097175Y-63139319D01*
X87103320Y-63143109D01*
X87103323Y-63143111D01*
X87172936Y-63175572D01*
X87241567Y-63210040D01*
X87241572Y-63210041D01*
X87248361Y-63212513D01*
X87248340Y-63212570D01*
X87255455Y-63215043D01*
X87255475Y-63214986D01*
X87262330Y-63217258D01*
X87337558Y-63232790D01*
X87412279Y-63250500D01*
X87412289Y-63250500D01*
X87419452Y-63251338D01*
X87419444Y-63251397D01*
X87426945Y-63252164D01*
X87426951Y-63252105D01*
X87434140Y-63252734D01*
X87434144Y-63252733D01*
X87434145Y-63252734D01*
X87510918Y-63250500D01*
X91236295Y-63250500D01*
X91254265Y-63251809D01*
X91278023Y-63255289D01*
X91330068Y-63250735D01*
X91335470Y-63250500D01*
X91343704Y-63250500D01*
X91343709Y-63250500D01*
X91355327Y-63249141D01*
X91376276Y-63246693D01*
X91389028Y-63245577D01*
X91452797Y-63239999D01*
X91452805Y-63239996D01*
X91459866Y-63238539D01*
X91459878Y-63238598D01*
X91467243Y-63236965D01*
X91467229Y-63236906D01*
X91474246Y-63235241D01*
X91474255Y-63235241D01*
X91546423Y-63208974D01*
X91619334Y-63184814D01*
X91619343Y-63184807D01*
X91625882Y-63181760D01*
X91625908Y-63181816D01*
X91632690Y-63178532D01*
X91632663Y-63178478D01*
X91639106Y-63175240D01*
X91639117Y-63175237D01*
X91703283Y-63133034D01*
X91768656Y-63092712D01*
X91768662Y-63092705D01*
X91774325Y-63088229D01*
X91774362Y-63088277D01*
X91780204Y-63083518D01*
X91780164Y-63083471D01*
X91785691Y-63078832D01*
X91785696Y-63078830D01*
X91804788Y-63058594D01*
X91838386Y-63022981D01*
X93094548Y-61766819D01*
X93155871Y-61733334D01*
X93182229Y-61730500D01*
X96010663Y-61730500D01*
X96077702Y-61750185D01*
X96083548Y-61754182D01*
X96097265Y-61764148D01*
X96097270Y-61764151D01*
X96270192Y-61841142D01*
X96270197Y-61841144D01*
X96455354Y-61880500D01*
X96455355Y-61880500D01*
X96644644Y-61880500D01*
X96644646Y-61880500D01*
X96829803Y-61841144D01*
X97002730Y-61764151D01*
X97155871Y-61652888D01*
X97282533Y-61512216D01*
X97377179Y-61348284D01*
X97435674Y-61168256D01*
X97455460Y-60980000D01*
X97435674Y-60791744D01*
X97377179Y-60611716D01*
X97282533Y-60447784D01*
X97155871Y-60307112D01*
X97155870Y-60307111D01*
X97002734Y-60195851D01*
X97002729Y-60195848D01*
X96829807Y-60118857D01*
X96829802Y-60118855D01*
X96684001Y-60087865D01*
X96644646Y-60079500D01*
X96455354Y-60079500D01*
X96422897Y-60086398D01*
X96270197Y-60118855D01*
X96270192Y-60118857D01*
X96097270Y-60195848D01*
X96097265Y-60195851D01*
X96083548Y-60205818D01*
X96017742Y-60229298D01*
X96010663Y-60229500D01*
X92883705Y-60229500D01*
X92865735Y-60228191D01*
X92841972Y-60224710D01*
X92796533Y-60228686D01*
X92789931Y-60229264D01*
X92784530Y-60229500D01*
X92776289Y-60229500D01*
X92754579Y-60232037D01*
X92743724Y-60233306D01*
X92728419Y-60234645D01*
X92667199Y-60240001D01*
X92660132Y-60241460D01*
X92660120Y-60241404D01*
X92652763Y-60243035D01*
X92652777Y-60243092D01*
X92645743Y-60244759D01*
X92573575Y-60271025D01*
X92500675Y-60295181D01*
X92494126Y-60298236D01*
X92494101Y-60298183D01*
X92487308Y-60301471D01*
X92487334Y-60301523D01*
X92480880Y-60304764D01*
X92416708Y-60346971D01*
X92351347Y-60387285D01*
X92345683Y-60391765D01*
X92345647Y-60391719D01*
X92339798Y-60396484D01*
X92339835Y-60396528D01*
X92334310Y-60401164D01*
X92281598Y-60457034D01*
X91025451Y-61713181D01*
X90964128Y-61746666D01*
X90937770Y-61749500D01*
X87862229Y-61749500D01*
X87795190Y-61729815D01*
X87774548Y-61713181D01*
X87353305Y-61291938D01*
X86925729Y-60864361D01*
X86913949Y-60850730D01*
X86906482Y-60840701D01*
X86899612Y-60831472D01*
X86863625Y-60801275D01*
X86859587Y-60797886D01*
X86855612Y-60794244D01*
X86852690Y-60791322D01*
X86849780Y-60788411D01*
X86824040Y-60768059D01*
X86765209Y-60718694D01*
X86759180Y-60714729D01*
X86759212Y-60714680D01*
X86752853Y-60710628D01*
X86752822Y-60710679D01*
X86746680Y-60706891D01*
X86746678Y-60706890D01*
X86746677Y-60706889D01*
X86707474Y-60688608D01*
X86677058Y-60674424D01*
X86642894Y-60657267D01*
X86608433Y-60639960D01*
X86608431Y-60639959D01*
X86608430Y-60639959D01*
X86601645Y-60637489D01*
X86601665Y-60637433D01*
X86594549Y-60634959D01*
X86594531Y-60635015D01*
X86587671Y-60632742D01*
X86559841Y-60626996D01*
X86512434Y-60617207D01*
X86463472Y-60605603D01*
X86437719Y-60599499D01*
X86430547Y-60598661D01*
X86430553Y-60598601D01*
X86423055Y-60597835D01*
X86423050Y-60597895D01*
X86415860Y-60597265D01*
X86339083Y-60599500D01*
X86012229Y-60599500D01*
X85945190Y-60579815D01*
X85924553Y-60563185D01*
X85811817Y-60450449D01*
X85778334Y-60389128D01*
X85775500Y-60362770D01*
X85775500Y-57504500D01*
X85795185Y-57437461D01*
X85847989Y-57391706D01*
X85899500Y-57380500D01*
X88186295Y-57380500D01*
X88204265Y-57381809D01*
X88228023Y-57385289D01*
X88280068Y-57380735D01*
X88285470Y-57380500D01*
X88293704Y-57380500D01*
X88293709Y-57380500D01*
X88305327Y-57379141D01*
X88326276Y-57376693D01*
X88339028Y-57375577D01*
X88402797Y-57369999D01*
X88402805Y-57369996D01*
X88409866Y-57368539D01*
X88409878Y-57368598D01*
X88417243Y-57366965D01*
X88417229Y-57366906D01*
X88424246Y-57365241D01*
X88424255Y-57365241D01*
X88496423Y-57338974D01*
X88569334Y-57314814D01*
X88569343Y-57314807D01*
X88575882Y-57311760D01*
X88575908Y-57311816D01*
X88582690Y-57308532D01*
X88582663Y-57308478D01*
X88589106Y-57305240D01*
X88589117Y-57305237D01*
X88653283Y-57263034D01*
X88718656Y-57222712D01*
X88718662Y-57222705D01*
X88724325Y-57218229D01*
X88724362Y-57218277D01*
X88730204Y-57213518D01*
X88730164Y-57213471D01*
X88735691Y-57208832D01*
X88735696Y-57208830D01*
X88743163Y-57200916D01*
X88788386Y-57152981D01*
X89824548Y-56116819D01*
X89885871Y-56083334D01*
X89912229Y-56080500D01*
X90010663Y-56080500D01*
X90077702Y-56100185D01*
X90083548Y-56104182D01*
X90097265Y-56114148D01*
X90097270Y-56114151D01*
X90270192Y-56191142D01*
X90270197Y-56191144D01*
X90455354Y-56230500D01*
X90455355Y-56230500D01*
X90644644Y-56230500D01*
X90644646Y-56230500D01*
X90829803Y-56191144D01*
X91002730Y-56114151D01*
X91155871Y-56002888D01*
X91282533Y-55862216D01*
X91377179Y-55698284D01*
X91432522Y-55527955D01*
X91462770Y-55478595D01*
X91585641Y-55355724D01*
X91599260Y-55343954D01*
X91618530Y-55329610D01*
X91652123Y-55289574D01*
X91655757Y-55285608D01*
X91661590Y-55279777D01*
X91681923Y-55254060D01*
X91731302Y-55195214D01*
X91731309Y-55195198D01*
X91735272Y-55189176D01*
X91735324Y-55189210D01*
X91739371Y-55182858D01*
X91739317Y-55182825D01*
X91743104Y-55176684D01*
X91743110Y-55176677D01*
X91759401Y-55141740D01*
X91775561Y-55107086D01*
X91807616Y-55043259D01*
X91810040Y-55038433D01*
X91810042Y-55038421D01*
X91812510Y-55031644D01*
X91812568Y-55031665D01*
X91815043Y-55024546D01*
X91814985Y-55024527D01*
X91817256Y-55017672D01*
X91832784Y-54942467D01*
X91850500Y-54867720D01*
X91851339Y-54860548D01*
X91851397Y-54860554D01*
X91852164Y-54853056D01*
X91852104Y-54853051D01*
X91852733Y-54845860D01*
X91851603Y-54807034D01*
X91850500Y-54769102D01*
X91850500Y-53012230D01*
X91870185Y-52945191D01*
X91886819Y-52924549D01*
X92324549Y-52486819D01*
X92385872Y-52453334D01*
X92412230Y-52450500D01*
X98520706Y-52450500D01*
X98587745Y-52470185D01*
X98633500Y-52522989D01*
X98639355Y-52542843D01*
X98640500Y-52542537D01*
X98687776Y-52718975D01*
X98724665Y-52787390D01*
X98771041Y-52873400D01*
X98887674Y-53004459D01*
X99031388Y-53105088D01*
X99031393Y-53105090D01*
X99031395Y-53105091D01*
X99194429Y-53169861D01*
X99194431Y-53169861D01*
X99194433Y-53169862D01*
X99368023Y-53195289D01*
X99542797Y-53179999D01*
X99684504Y-53133041D01*
X99691117Y-53131249D01*
X99694641Y-53130500D01*
X99694646Y-53130500D01*
X99879803Y-53091144D01*
X100052730Y-53014151D01*
X100205871Y-52902888D01*
X100332533Y-52762216D01*
X100427179Y-52598284D01*
X100485674Y-52418256D01*
X100505460Y-52230000D01*
X100485674Y-52041744D01*
X100427179Y-51861716D01*
X100332533Y-51697784D01*
X100205871Y-51557112D01*
X100157333Y-51521847D01*
X100052734Y-51445851D01*
X100052729Y-51445848D01*
X99879807Y-51368857D01*
X99879803Y-51368856D01*
X99814669Y-51355011D01*
X99753188Y-51321818D01*
X99752770Y-51321402D01*
X99645729Y-51214361D01*
X99633949Y-51200730D01*
X99626482Y-51190701D01*
X99619612Y-51181472D01*
X99614323Y-51177034D01*
X99579587Y-51147886D01*
X99575612Y-51144244D01*
X99572690Y-51141322D01*
X99569780Y-51138411D01*
X99544040Y-51118059D01*
X99485209Y-51068694D01*
X99479180Y-51064729D01*
X99479212Y-51064680D01*
X99472853Y-51060628D01*
X99472822Y-51060679D01*
X99466680Y-51056891D01*
X99466678Y-51056890D01*
X99466677Y-51056889D01*
X99427474Y-51038608D01*
X99397058Y-51024424D01*
X99362894Y-51007267D01*
X99328433Y-50989960D01*
X99328431Y-50989959D01*
X99328430Y-50989959D01*
X99321645Y-50987489D01*
X99321665Y-50987433D01*
X99314549Y-50984959D01*
X99314531Y-50985015D01*
X99307671Y-50982742D01*
X99279841Y-50976996D01*
X99232434Y-50967207D01*
X99183472Y-50955603D01*
X99157719Y-50949499D01*
X99150547Y-50948661D01*
X99150553Y-50948601D01*
X99143055Y-50947835D01*
X99143050Y-50947895D01*
X99135860Y-50947265D01*
X99059083Y-50949500D01*
X92113705Y-50949500D01*
X92095735Y-50948191D01*
X92071972Y-50944710D01*
X92027512Y-50948601D01*
X92019931Y-50949264D01*
X92014530Y-50949500D01*
X92006289Y-50949500D01*
X91984579Y-50952037D01*
X91973724Y-50953306D01*
X91958419Y-50954645D01*
X91897199Y-50960001D01*
X91890132Y-50961460D01*
X91890120Y-50961404D01*
X91882763Y-50963035D01*
X91882777Y-50963092D01*
X91875743Y-50964759D01*
X91803575Y-50991025D01*
X91730675Y-51015181D01*
X91724126Y-51018236D01*
X91724101Y-51018183D01*
X91717308Y-51021471D01*
X91717334Y-51021523D01*
X91710880Y-51024764D01*
X91646708Y-51066971D01*
X91581347Y-51107285D01*
X91575683Y-51111765D01*
X91575647Y-51111719D01*
X91569798Y-51116484D01*
X91569835Y-51116528D01*
X91564310Y-51121164D01*
X91564304Y-51121169D01*
X91564304Y-51121170D01*
X91538723Y-51148284D01*
X91511598Y-51177034D01*
X90614358Y-52074272D01*
X90600729Y-52086051D01*
X90581468Y-52100390D01*
X90547898Y-52140397D01*
X90544253Y-52144376D01*
X90538409Y-52150222D01*
X90518059Y-52175959D01*
X90468695Y-52234789D01*
X90464729Y-52240819D01*
X90464682Y-52240788D01*
X90460630Y-52247147D01*
X90460679Y-52247177D01*
X90456889Y-52253321D01*
X90424424Y-52322941D01*
X90389960Y-52391566D01*
X90387488Y-52398357D01*
X90387432Y-52398336D01*
X90384960Y-52405450D01*
X90385015Y-52405469D01*
X90382742Y-52412327D01*
X90374975Y-52449946D01*
X90367207Y-52487565D01*
X90363768Y-52502077D01*
X90349498Y-52562286D01*
X90348661Y-52569454D01*
X90348601Y-52569447D01*
X90347835Y-52576945D01*
X90347895Y-52576951D01*
X90347265Y-52584140D01*
X90349500Y-52660916D01*
X90349500Y-54353021D01*
X90329815Y-54420060D01*
X90277011Y-54465815D01*
X90275936Y-54466300D01*
X90097270Y-54545848D01*
X90097265Y-54545851D01*
X90083548Y-54555818D01*
X90017742Y-54579298D01*
X90010663Y-54579500D01*
X89613705Y-54579500D01*
X89595735Y-54578191D01*
X89571972Y-54574710D01*
X89526533Y-54578686D01*
X89519931Y-54579264D01*
X89514530Y-54579500D01*
X89506289Y-54579500D01*
X89484579Y-54582037D01*
X89473724Y-54583306D01*
X89458419Y-54584645D01*
X89397199Y-54590001D01*
X89390132Y-54591460D01*
X89390120Y-54591404D01*
X89382763Y-54593035D01*
X89382777Y-54593092D01*
X89375743Y-54594759D01*
X89303575Y-54621025D01*
X89230675Y-54645181D01*
X89224126Y-54648236D01*
X89224101Y-54648183D01*
X89217308Y-54651471D01*
X89217334Y-54651523D01*
X89210880Y-54654764D01*
X89146708Y-54696971D01*
X89081347Y-54737285D01*
X89075683Y-54741765D01*
X89075647Y-54741719D01*
X89069798Y-54746484D01*
X89069835Y-54746528D01*
X89064310Y-54751164D01*
X89011598Y-54807034D01*
X87975451Y-55843181D01*
X87914128Y-55876666D01*
X87887770Y-55879500D01*
X87337328Y-55879500D01*
X87270289Y-55859815D01*
X87224534Y-55807011D01*
X87214590Y-55737853D01*
X87226002Y-55704865D01*
X87224538Y-55704214D01*
X87227174Y-55698292D01*
X87227179Y-55698284D01*
X87285674Y-55518256D01*
X87305460Y-55330000D01*
X87285674Y-55141744D01*
X87227179Y-54961716D01*
X87132533Y-54797784D01*
X87005871Y-54657112D01*
X87005870Y-54657111D01*
X86852734Y-54545851D01*
X86852729Y-54545848D01*
X86679807Y-54468857D01*
X86679802Y-54468855D01*
X86534001Y-54437865D01*
X86494646Y-54429500D01*
X86305354Y-54429500D01*
X86305351Y-54429500D01*
X86300942Y-54430437D01*
X86231275Y-54425119D01*
X86187484Y-54396827D01*
X85574950Y-53784293D01*
X85541465Y-53722970D01*
X85539310Y-53683657D01*
X85555460Y-53530000D01*
X85535674Y-53341744D01*
X85479826Y-53169862D01*
X85477181Y-53161722D01*
X85477180Y-53161721D01*
X85477179Y-53161716D01*
X85382533Y-52997784D01*
X85255871Y-52857112D01*
X85247690Y-52851168D01*
X85102734Y-52745851D01*
X85102729Y-52745848D01*
X84929807Y-52668857D01*
X84929802Y-52668855D01*
X84784001Y-52637865D01*
X84744646Y-52629500D01*
X84555354Y-52629500D01*
X84522897Y-52636398D01*
X84370197Y-52668855D01*
X84370192Y-52668857D01*
X84197270Y-52745848D01*
X84197265Y-52745851D01*
X84044129Y-52857111D01*
X83917466Y-52997785D01*
X83822821Y-53161715D01*
X83822818Y-53161722D01*
X83764327Y-53341740D01*
X83764326Y-53341744D01*
X83748934Y-53488195D01*
X83743861Y-53536463D01*
X83741396Y-53536204D01*
X83724855Y-53592539D01*
X83672051Y-53638294D01*
X83620540Y-53649500D01*
X77101725Y-53649500D01*
X77034686Y-53629815D01*
X76988931Y-53577011D01*
X76978987Y-53507853D01*
X77008012Y-53444297D01*
X77025564Y-53427646D01*
X77027268Y-53426318D01*
X77036784Y-53418913D01*
X77193979Y-53248153D01*
X77320924Y-53053849D01*
X77414157Y-52841300D01*
X77471134Y-52616305D01*
X77471135Y-52616297D01*
X77490300Y-52385006D01*
X77490300Y-52384993D01*
X77471135Y-52153702D01*
X77471133Y-52153691D01*
X77414157Y-51928699D01*
X77320924Y-51716151D01*
X77193983Y-51521852D01*
X77193980Y-51521849D01*
X77193979Y-51521847D01*
X77036784Y-51351087D01*
X77036779Y-51351083D01*
X77036777Y-51351081D01*
X76853634Y-51208535D01*
X76853628Y-51208531D01*
X76649504Y-51098064D01*
X76649495Y-51098061D01*
X76429984Y-51022702D01*
X76233763Y-50989959D01*
X76201049Y-50984500D01*
X75968951Y-50984500D01*
X75936237Y-50989959D01*
X75740015Y-51022702D01*
X75520504Y-51098061D01*
X75520495Y-51098064D01*
X75316371Y-51208531D01*
X75316365Y-51208535D01*
X75133222Y-51351081D01*
X75133219Y-51351084D01*
X74976016Y-51521852D01*
X74849075Y-51716151D01*
X74755842Y-51928699D01*
X74698866Y-52153691D01*
X74698864Y-52153702D01*
X74679700Y-52384993D01*
X74679700Y-52385006D01*
X74698864Y-52616297D01*
X74698866Y-52616308D01*
X74755842Y-52841300D01*
X74849075Y-53053848D01*
X74976016Y-53248147D01*
X74976019Y-53248151D01*
X74976021Y-53248153D01*
X75133216Y-53418913D01*
X75133219Y-53418915D01*
X75133220Y-53418916D01*
X75144436Y-53427646D01*
X75185250Y-53484355D01*
X75188925Y-53554128D01*
X75154295Y-53614812D01*
X75092354Y-53647140D01*
X75068275Y-53649500D01*
X68613705Y-53649500D01*
X68595735Y-53648191D01*
X68571972Y-53644710D01*
X68526890Y-53648655D01*
X68519933Y-53649264D01*
X68514532Y-53649500D01*
X68506287Y-53649500D01*
X68480222Y-53652546D01*
X68473705Y-53653308D01*
X68468403Y-53653771D01*
X68397201Y-53660001D01*
X68390134Y-53661461D01*
X68390122Y-53661404D01*
X68382753Y-53663038D01*
X68382767Y-53663095D01*
X68375739Y-53664760D01*
X68323840Y-53683650D01*
X68303563Y-53691030D01*
X68230666Y-53715186D01*
X68230664Y-53715186D01*
X68230661Y-53715188D01*
X68224122Y-53718237D01*
X68224097Y-53718185D01*
X68217308Y-53721471D01*
X68217334Y-53721522D01*
X68210884Y-53724761D01*
X68146716Y-53766964D01*
X68081347Y-53807285D01*
X68075677Y-53811769D01*
X68075641Y-53811723D01*
X68069798Y-53816484D01*
X68069835Y-53816528D01*
X68064310Y-53821164D01*
X68011614Y-53877017D01*
X67797228Y-54091402D01*
X67735905Y-54124887D01*
X67735329Y-54125011D01*
X67670196Y-54138856D01*
X67670192Y-54138857D01*
X67497270Y-54215848D01*
X67497265Y-54215851D01*
X67344129Y-54327111D01*
X67217466Y-54467785D01*
X67122821Y-54631715D01*
X67122818Y-54631722D01*
X67065856Y-54807034D01*
X67064326Y-54811744D01*
X67044540Y-55000000D01*
X59885657Y-55000000D01*
X59676503Y-54790846D01*
X59643018Y-54729523D01*
X59640865Y-54716143D01*
X59635674Y-54666744D01*
X59632544Y-54657112D01*
X59577181Y-54486722D01*
X59577180Y-54486721D01*
X59577179Y-54486716D01*
X59482533Y-54322784D01*
X59355871Y-54182112D01*
X59355870Y-54182111D01*
X59202734Y-54070851D01*
X59202729Y-54070848D01*
X59029807Y-53993857D01*
X59029802Y-53993855D01*
X58884001Y-53962865D01*
X58844646Y-53954500D01*
X58655354Y-53954500D01*
X58622897Y-53961398D01*
X58470197Y-53993855D01*
X58470192Y-53993857D01*
X58297270Y-54070848D01*
X58297265Y-54070851D01*
X58144129Y-54182111D01*
X58017466Y-54322785D01*
X57922821Y-54486715D01*
X57922818Y-54486722D01*
X57864327Y-54666740D01*
X57864326Y-54666744D01*
X57844540Y-54855000D01*
X53495657Y-54855000D01*
X52128852Y-53488195D01*
X52095367Y-53426872D01*
X52093212Y-53413473D01*
X52085674Y-53341748D01*
X52085674Y-53341745D01*
X52085672Y-53341740D01*
X52038088Y-53195289D01*
X52027181Y-53161721D01*
X52027178Y-53161715D01*
X51932533Y-52997784D01*
X51805871Y-52857112D01*
X51797690Y-52851168D01*
X51652734Y-52745851D01*
X51652729Y-52745848D01*
X51479807Y-52668857D01*
X51479802Y-52668855D01*
X51391451Y-52650076D01*
X51329969Y-52616884D01*
X51296193Y-52555721D01*
X51300845Y-52486006D01*
X51329549Y-52441106D01*
X51385650Y-52385005D01*
X64830202Y-52385005D01*
X64849361Y-52616218D01*
X64906317Y-52841135D01*
X64999516Y-53053609D01*
X65083811Y-53182633D01*
X65751922Y-52514523D01*
X65775507Y-52594844D01*
X65853239Y-52715798D01*
X65961900Y-52809952D01*
X66092685Y-52869680D01*
X66102466Y-52871086D01*
X65436199Y-53537351D01*
X65466650Y-53561050D01*
X65670697Y-53671476D01*
X65670706Y-53671479D01*
X65890139Y-53746811D01*
X66118993Y-53785000D01*
X66351007Y-53785000D01*
X66579860Y-53746811D01*
X66799293Y-53671479D01*
X66799302Y-53671476D01*
X67003350Y-53561050D01*
X67033798Y-53537351D01*
X66367533Y-52871086D01*
X66377315Y-52869680D01*
X66508100Y-52809952D01*
X66616761Y-52715798D01*
X66694493Y-52594844D01*
X66718076Y-52514524D01*
X67386186Y-53182634D01*
X67470484Y-53053606D01*
X67563682Y-52841135D01*
X67620638Y-52616218D01*
X67639798Y-52385005D01*
X67639798Y-52384994D01*
X67620638Y-52153781D01*
X67563682Y-51928864D01*
X67470483Y-51716390D01*
X67386186Y-51587364D01*
X66718076Y-52255475D01*
X66694493Y-52175156D01*
X66616761Y-52054202D01*
X66508100Y-51960048D01*
X66377315Y-51900320D01*
X66367534Y-51898913D01*
X67033799Y-51232648D01*
X67033799Y-51232647D01*
X67003349Y-51208949D01*
X66799302Y-51098523D01*
X66799293Y-51098520D01*
X66579860Y-51023188D01*
X66351007Y-50985000D01*
X66118993Y-50985000D01*
X65890139Y-51023188D01*
X65670706Y-51098520D01*
X65670698Y-51098523D01*
X65466644Y-51208952D01*
X65436200Y-51232646D01*
X65436200Y-51232647D01*
X66102466Y-51898913D01*
X66092685Y-51900320D01*
X65961900Y-51960048D01*
X65853239Y-52054202D01*
X65775507Y-52175156D01*
X65751923Y-52255476D01*
X65083812Y-51587365D01*
X64999516Y-51716391D01*
X64999514Y-51716395D01*
X64906317Y-51928864D01*
X64849361Y-52153781D01*
X64830202Y-52384994D01*
X64830202Y-52385005D01*
X51385650Y-52385005D01*
X51629056Y-52141599D01*
X51631748Y-52139065D01*
X51678183Y-52097929D01*
X51713427Y-52046866D01*
X51715617Y-52043890D01*
X51753877Y-51995057D01*
X51758029Y-51985828D01*
X51769062Y-51966268D01*
X51769419Y-51965750D01*
X51774818Y-51957930D01*
X51796812Y-51899933D01*
X51798231Y-51896505D01*
X51823694Y-51839932D01*
X51825520Y-51829965D01*
X51831548Y-51808340D01*
X51835140Y-51798872D01*
X51842615Y-51737309D01*
X51843179Y-51733605D01*
X51847456Y-51710258D01*
X51854357Y-51672606D01*
X51850613Y-51610707D01*
X51850500Y-51606963D01*
X51850500Y-50780000D01*
X83744540Y-50780000D01*
X83764326Y-50968256D01*
X83764327Y-50968259D01*
X83822818Y-51148277D01*
X83822821Y-51148284D01*
X83917467Y-51312216D01*
X83968467Y-51368857D01*
X84044129Y-51452888D01*
X84197265Y-51564148D01*
X84197270Y-51564151D01*
X84370192Y-51641142D01*
X84370197Y-51641144D01*
X84555354Y-51680500D01*
X84555355Y-51680500D01*
X84744644Y-51680500D01*
X84744646Y-51680500D01*
X84929803Y-51641144D01*
X85102730Y-51564151D01*
X85255871Y-51452888D01*
X85382533Y-51312216D01*
X85477179Y-51148284D01*
X85535674Y-50968256D01*
X85540864Y-50918867D01*
X85567446Y-50854257D01*
X85576486Y-50844169D01*
X85829048Y-50591606D01*
X85831740Y-50589072D01*
X85878183Y-50547929D01*
X85913423Y-50496872D01*
X85915630Y-50493873D01*
X85953877Y-50445057D01*
X85958029Y-50435828D01*
X85969062Y-50416268D01*
X85972205Y-50411715D01*
X85974818Y-50407930D01*
X85996812Y-50349933D01*
X85998231Y-50346505D01*
X86023694Y-50289932D01*
X86025520Y-50279965D01*
X86031548Y-50258340D01*
X86035140Y-50248872D01*
X86042615Y-50187309D01*
X86043179Y-50183605D01*
X86047456Y-50160258D01*
X86054357Y-50122606D01*
X86051069Y-50068256D01*
X86050613Y-50060707D01*
X86050500Y-50056963D01*
X86050500Y-48921519D01*
X86070185Y-48854480D01*
X86086819Y-48833838D01*
X86383267Y-48537390D01*
X86762975Y-48157681D01*
X86824296Y-48124198D01*
X86824362Y-48124183D01*
X86979803Y-48091144D01*
X86979807Y-48091142D01*
X86979808Y-48091142D01*
X87038058Y-48065206D01*
X87152730Y-48014151D01*
X87305871Y-47902888D01*
X87432533Y-47762216D01*
X87527179Y-47598284D01*
X87585674Y-47418256D01*
X87605460Y-47230000D01*
X87585674Y-47041744D01*
X87527179Y-46861716D01*
X87432533Y-46697784D01*
X87305871Y-46557112D01*
X87270063Y-46531096D01*
X87152734Y-46445851D01*
X87152729Y-46445848D01*
X86979807Y-46368857D01*
X86979802Y-46368855D01*
X86834001Y-46337865D01*
X86794646Y-46329500D01*
X86605354Y-46329500D01*
X86572897Y-46336398D01*
X86420197Y-46368855D01*
X86420192Y-46368857D01*
X86247270Y-46445848D01*
X86247265Y-46445851D01*
X86094129Y-46557111D01*
X85967466Y-46697785D01*
X85872821Y-46861715D01*
X85872818Y-46861722D01*
X85814327Y-47041739D01*
X85814325Y-47041750D01*
X85809134Y-47091129D01*
X85782549Y-47155743D01*
X85773495Y-47165846D01*
X84870966Y-48068375D01*
X84868240Y-48070942D01*
X84821818Y-48112068D01*
X84786586Y-48163109D01*
X84784368Y-48166124D01*
X84746124Y-48214939D01*
X84746119Y-48214948D01*
X84741960Y-48224188D01*
X84730942Y-48243723D01*
X84725187Y-48252061D01*
X84725183Y-48252067D01*
X84725182Y-48252070D01*
X84725180Y-48252074D01*
X84725179Y-48252077D01*
X84703189Y-48310055D01*
X84701757Y-48313513D01*
X84676305Y-48370068D01*
X84674477Y-48380042D01*
X84668453Y-48401653D01*
X84664860Y-48411127D01*
X84664859Y-48411128D01*
X84657384Y-48472685D01*
X84656821Y-48476386D01*
X84645642Y-48537390D01*
X84645642Y-48537395D01*
X84649387Y-48599302D01*
X84649500Y-48603047D01*
X84649500Y-49738480D01*
X84629815Y-49805519D01*
X84613181Y-49826161D01*
X84587026Y-49852316D01*
X84525703Y-49885801D01*
X84525126Y-49885925D01*
X84370197Y-49918855D01*
X84370192Y-49918857D01*
X84197270Y-49995848D01*
X84197265Y-49995851D01*
X84044129Y-50107111D01*
X83917466Y-50247785D01*
X83822821Y-50411715D01*
X83822818Y-50411722D01*
X83778564Y-50547924D01*
X83764326Y-50591744D01*
X83744540Y-50780000D01*
X51850500Y-50780000D01*
X51850500Y-50495391D01*
X51870185Y-50428352D01*
X51882352Y-50412417D01*
X51882533Y-50412216D01*
X51977179Y-50248284D01*
X52035674Y-50068256D01*
X52055460Y-49880000D01*
X52035674Y-49691744D01*
X51977179Y-49511716D01*
X51882533Y-49347784D01*
X51755871Y-49207112D01*
X51755870Y-49207111D01*
X51602734Y-49095851D01*
X51602729Y-49095848D01*
X51429807Y-49018857D01*
X51429802Y-49018855D01*
X51284001Y-48987865D01*
X51244646Y-48979500D01*
X51055354Y-48979500D01*
X51022897Y-48986398D01*
X50870197Y-49018855D01*
X50870192Y-49018857D01*
X50697270Y-49095848D01*
X50697265Y-49095851D01*
X50544129Y-49207111D01*
X50417466Y-49347785D01*
X50322821Y-49511715D01*
X50322818Y-49511722D01*
X50264327Y-49691740D01*
X50264326Y-49691744D01*
X50244540Y-49880000D01*
X50264326Y-50068256D01*
X50264327Y-50068259D01*
X50322818Y-50248277D01*
X50322821Y-50248284D01*
X50417466Y-50412215D01*
X50417648Y-50412417D01*
X50417716Y-50412559D01*
X50421285Y-50417471D01*
X50420386Y-50418123D01*
X50447879Y-50475408D01*
X50449500Y-50495391D01*
X50449500Y-51288480D01*
X50429815Y-51355519D01*
X50413181Y-51376161D01*
X49470966Y-52318375D01*
X49468240Y-52320942D01*
X49421818Y-52362068D01*
X49386586Y-52413109D01*
X49384368Y-52416124D01*
X49346124Y-52464939D01*
X49346119Y-52464948D01*
X49341960Y-52474188D01*
X49330942Y-52493723D01*
X49325187Y-52502061D01*
X49325183Y-52502067D01*
X49325182Y-52502070D01*
X49325180Y-52502074D01*
X49325179Y-52502077D01*
X49303189Y-52560055D01*
X49301757Y-52563513D01*
X49276305Y-52620068D01*
X49274477Y-52630042D01*
X49268453Y-52651653D01*
X49264860Y-52661127D01*
X49264859Y-52661128D01*
X49257384Y-52722685D01*
X49256821Y-52726386D01*
X49245642Y-52787390D01*
X49245642Y-52787395D01*
X49249387Y-52849302D01*
X49249500Y-52853047D01*
X49249500Y-58276951D01*
X49249387Y-58280696D01*
X49245642Y-58342603D01*
X49245642Y-58342605D01*
X49256821Y-58403612D01*
X49257384Y-58407313D01*
X49264859Y-58468870D01*
X49264860Y-58468874D01*
X49268451Y-58478343D01*
X49274474Y-58499946D01*
X49276304Y-58509930D01*
X49301759Y-58566490D01*
X49303189Y-58569941D01*
X49325182Y-58627930D01*
X49325183Y-58627931D01*
X49330936Y-58636266D01*
X49341961Y-58655813D01*
X49346120Y-58665055D01*
X49346124Y-58665060D01*
X49384371Y-58713878D01*
X49386591Y-58716896D01*
X49421812Y-58767924D01*
X49421816Y-58767928D01*
X49421817Y-58767929D01*
X49468250Y-58809064D01*
X49470941Y-58811598D01*
X50778199Y-60118855D01*
X51983181Y-61323837D01*
X52016666Y-61385160D01*
X52019500Y-61411518D01*
X52019500Y-62721292D01*
X51999815Y-62788331D01*
X51966624Y-62822867D01*
X51868601Y-62891503D01*
X51746284Y-63013819D01*
X51684960Y-63047303D01*
X51615269Y-63042318D01*
X51559335Y-63000447D01*
X51542421Y-62969470D01*
X51493354Y-62837913D01*
X51493350Y-62837906D01*
X51407190Y-62722812D01*
X51407187Y-62722809D01*
X51292093Y-62636649D01*
X51292086Y-62636645D01*
X51157379Y-62586403D01*
X51157372Y-62586401D01*
X51097844Y-62580000D01*
X50450000Y-62580000D01*
X50450000Y-63494498D01*
X50342315Y-63445320D01*
X50235763Y-63430000D01*
X50164237Y-63430000D01*
X50057685Y-63445320D01*
X49950000Y-63494498D01*
X49950000Y-62580000D01*
X49302155Y-62580000D01*
X49242627Y-62586401D01*
X49242620Y-62586403D01*
X49107913Y-62636645D01*
X49107906Y-62636649D01*
X48992812Y-62722809D01*
X48992809Y-62722812D01*
X48906649Y-62837906D01*
X48906645Y-62837913D01*
X48856403Y-62972620D01*
X48856401Y-62972627D01*
X48850000Y-63032155D01*
X48850000Y-63680000D01*
X49766314Y-63680000D01*
X49740507Y-63720156D01*
X49700000Y-63858111D01*
X49700000Y-64001889D01*
X49740507Y-64139844D01*
X49766314Y-64180000D01*
X48850000Y-64180000D01*
X48850000Y-64827844D01*
X46580500Y-64827844D01*
X46580500Y-47305006D01*
X59769700Y-47305006D01*
X59788864Y-47536297D01*
X59788866Y-47536308D01*
X59845842Y-47761300D01*
X59939075Y-47973848D01*
X60066016Y-48168147D01*
X60066019Y-48168151D01*
X60066021Y-48168153D01*
X60223216Y-48338913D01*
X60223219Y-48338915D01*
X60223222Y-48338918D01*
X60406365Y-48481464D01*
X60406371Y-48481468D01*
X60406374Y-48481470D01*
X60610497Y-48591936D01*
X60724487Y-48631068D01*
X60830015Y-48667297D01*
X60830017Y-48667297D01*
X60830019Y-48667298D01*
X61058951Y-48705500D01*
X61058952Y-48705500D01*
X61291048Y-48705500D01*
X61291049Y-48705500D01*
X61519981Y-48667298D01*
X61739503Y-48591936D01*
X61943626Y-48481470D01*
X62126784Y-48338913D01*
X62283979Y-48168153D01*
X62410924Y-47973849D01*
X62504157Y-47761300D01*
X62561134Y-47536305D01*
X62565524Y-47483323D01*
X62580300Y-47305006D01*
X69619700Y-47305006D01*
X69638864Y-47536297D01*
X69638866Y-47536308D01*
X69695842Y-47761300D01*
X69789075Y-47973848D01*
X69916016Y-48168147D01*
X69916019Y-48168151D01*
X69916021Y-48168153D01*
X70073216Y-48338913D01*
X70073219Y-48338915D01*
X70073222Y-48338918D01*
X70256365Y-48481464D01*
X70256371Y-48481468D01*
X70256374Y-48481470D01*
X70460497Y-48591936D01*
X70574487Y-48631068D01*
X70680015Y-48667297D01*
X70680017Y-48667297D01*
X70680019Y-48667298D01*
X70908951Y-48705500D01*
X70908952Y-48705500D01*
X71141048Y-48705500D01*
X71141049Y-48705500D01*
X71369981Y-48667298D01*
X71589503Y-48591936D01*
X71793626Y-48481470D01*
X71976784Y-48338913D01*
X72133979Y-48168153D01*
X72260924Y-47973849D01*
X72354157Y-47761300D01*
X72411134Y-47536305D01*
X72415524Y-47483323D01*
X72430300Y-47305006D01*
X72430300Y-47304993D01*
X72411135Y-47073702D01*
X72411133Y-47073691D01*
X72354157Y-46848699D01*
X72260924Y-46636151D01*
X72133983Y-46441852D01*
X72133980Y-46441849D01*
X72133979Y-46441847D01*
X71976784Y-46271087D01*
X71976779Y-46271083D01*
X71976777Y-46271081D01*
X71793634Y-46128535D01*
X71793628Y-46128531D01*
X71589504Y-46018064D01*
X71589495Y-46018061D01*
X71369984Y-45942702D01*
X71198282Y-45914050D01*
X71141049Y-45904500D01*
X70908951Y-45904500D01*
X70863164Y-45912140D01*
X70680015Y-45942702D01*
X70460504Y-46018061D01*
X70460495Y-46018064D01*
X70256371Y-46128531D01*
X70256365Y-46128535D01*
X70073222Y-46271081D01*
X70073219Y-46271084D01*
X69916016Y-46441852D01*
X69789075Y-46636151D01*
X69695842Y-46848699D01*
X69638866Y-47073691D01*
X69638864Y-47073702D01*
X69619700Y-47304993D01*
X69619700Y-47305006D01*
X62580300Y-47305006D01*
X62580300Y-47304993D01*
X62561135Y-47073702D01*
X62561133Y-47073691D01*
X62504157Y-46848699D01*
X62410924Y-46636151D01*
X62283983Y-46441852D01*
X62283980Y-46441849D01*
X62283979Y-46441847D01*
X62126784Y-46271087D01*
X62126779Y-46271083D01*
X62126777Y-46271081D01*
X61943634Y-46128535D01*
X61943628Y-46128531D01*
X61739504Y-46018064D01*
X61739495Y-46018061D01*
X61519984Y-45942702D01*
X61348282Y-45914050D01*
X61291049Y-45904500D01*
X61058951Y-45904500D01*
X61013164Y-45912140D01*
X60830015Y-45942702D01*
X60610504Y-46018061D01*
X60610495Y-46018064D01*
X60406371Y-46128531D01*
X60406365Y-46128535D01*
X60223222Y-46271081D01*
X60223219Y-46271084D01*
X60066016Y-46441852D01*
X59939075Y-46636151D01*
X59845842Y-46848699D01*
X59788866Y-47073691D01*
X59788864Y-47073702D01*
X59769700Y-47304993D01*
X59769700Y-47305006D01*
X46580500Y-47305006D01*
X46580500Y-40144500D01*
X46600185Y-40077461D01*
X46652989Y-40031706D01*
X46704500Y-40020500D01*
X108575500Y-40020500D01*
X108642539Y-40040185D01*
G37*
%TD.AperFunction*%
%TD*%
M02*
