%TF.GenerationSoftware,KiCad,Pcbnew,7.0.9*%
%TF.CreationDate,2024-10-04T13:57:53+02:00*%
%TF.ProjectId,espnow-sonda,6573706e-6f77-42d7-936f-6e64612e6b69,rev?*%
%TF.SameCoordinates,Original*%
%TF.FileFunction,Legend,Top*%
%TF.FilePolarity,Positive*%
%FSLAX46Y46*%
G04 Gerber Fmt 4.6, Leading zero omitted, Abs format (unit mm)*
G04 Created by KiCad (PCBNEW 7.0.9) date 2024-10-04 13:57:53*
%MOMM*%
%LPD*%
G01*
G04 APERTURE LIST*
G04 Aperture macros list*
%AMRoundRect*
0 Rectangle with rounded corners*
0 $1 Rounding radius*
0 $2 $3 $4 $5 $6 $7 $8 $9 X,Y pos of 4 corners*
0 Add a 4 corners polygon primitive as box body*
4,1,4,$2,$3,$4,$5,$6,$7,$8,$9,$2,$3,0*
0 Add four circle primitives for the rounded corners*
1,1,$1+$1,$2,$3*
1,1,$1+$1,$4,$5*
1,1,$1+$1,$6,$7*
1,1,$1+$1,$8,$9*
0 Add four rect primitives between the rounded corners*
20,1,$1+$1,$2,$3,$4,$5,0*
20,1,$1+$1,$4,$5,$6,$7,0*
20,1,$1+$1,$6,$7,$8,$9,0*
20,1,$1+$1,$8,$9,$2,$3,0*%
G04 Aperture macros list end*
%ADD10C,0.150000*%
%ADD11C,0.120000*%
%ADD12RoundRect,0.225000X0.250000X-0.225000X0.250000X0.225000X-0.250000X0.225000X-0.250000X-0.225000X0*%
%ADD13C,1.500000*%
%ADD14RoundRect,0.200000X-0.200000X-0.275000X0.200000X-0.275000X0.200000X0.275000X-0.200000X0.275000X0*%
%ADD15R,1.700000X1.700000*%
%ADD16O,1.700000X1.700000*%
%ADD17RoundRect,0.225000X-0.250000X0.225000X-0.250000X-0.225000X0.250000X-0.225000X0.250000X0.225000X0*%
%ADD18RoundRect,0.200000X0.275000X-0.200000X0.275000X0.200000X-0.275000X0.200000X-0.275000X-0.200000X0*%
%ADD19RoundRect,0.218750X-0.256250X0.218750X-0.256250X-0.218750X0.256250X-0.218750X0.256250X0.218750X0*%
%ADD20RoundRect,0.150000X-0.512500X-0.150000X0.512500X-0.150000X0.512500X0.150000X-0.512500X0.150000X0*%
%ADD21RoundRect,0.200000X-0.275000X0.200000X-0.275000X-0.200000X0.275000X-0.200000X0.275000X0.200000X0*%
%ADD22RoundRect,0.100000X-0.100000X0.625000X-0.100000X-0.625000X0.100000X-0.625000X0.100000X0.625000X0*%
%ADD23R,1.880000X1.680000*%
%ADD24RoundRect,0.225000X-0.225000X-0.250000X0.225000X-0.250000X0.225000X0.250000X-0.225000X0.250000X0*%
%ADD25RoundRect,0.218750X0.256250X-0.218750X0.256250X0.218750X-0.256250X0.218750X-0.256250X-0.218750X0*%
%ADD26R,0.900000X1.400000*%
%ADD27RoundRect,0.150000X-0.150000X0.512500X-0.150000X-0.512500X0.150000X-0.512500X0.150000X0.512500X0*%
%ADD28RoundRect,0.112500X0.112500X-0.187500X0.112500X0.187500X-0.112500X0.187500X-0.112500X-0.187500X0*%
%ADD29RoundRect,0.200000X0.200000X0.275000X-0.200000X0.275000X-0.200000X-0.275000X0.200000X-0.275000X0*%
%ADD30RoundRect,0.112500X-0.112500X0.187500X-0.112500X-0.187500X0.112500X-0.187500X0.112500X0.187500X0*%
%ADD31RoundRect,0.225000X0.225000X0.250000X-0.225000X0.250000X-0.225000X-0.250000X0.225000X-0.250000X0*%
%ADD32C,1.800000*%
G04 APERTURE END LIST*
D10*
X98620711Y-57170710D02*
G75*
G03*
X98620711Y-57170710I-70711J0D01*
G01*
X99245711Y-42120710D02*
G75*
G03*
X99245711Y-42120710I-70711J0D01*
G01*
X98270711Y-49550000D02*
G75*
G03*
X98270711Y-49550000I-70711J0D01*
G01*
X88145711Y-48325000D02*
G75*
G03*
X88145711Y-48325000I-70711J0D01*
G01*
X69736779Y-65119819D02*
X69736779Y-64119819D01*
X69736779Y-64119819D02*
X69974874Y-64119819D01*
X69974874Y-64119819D02*
X70117731Y-64167438D01*
X70117731Y-64167438D02*
X70212969Y-64262676D01*
X70212969Y-64262676D02*
X70260588Y-64357914D01*
X70260588Y-64357914D02*
X70308207Y-64548390D01*
X70308207Y-64548390D02*
X70308207Y-64691247D01*
X70308207Y-64691247D02*
X70260588Y-64881723D01*
X70260588Y-64881723D02*
X70212969Y-64976961D01*
X70212969Y-64976961D02*
X70117731Y-65072200D01*
X70117731Y-65072200D02*
X69974874Y-65119819D01*
X69974874Y-65119819D02*
X69736779Y-65119819D01*
X70736779Y-65119819D02*
X70736779Y-64119819D01*
X71546302Y-64596009D02*
X71212969Y-64596009D01*
X71212969Y-65119819D02*
X71212969Y-64119819D01*
X71212969Y-64119819D02*
X71689159Y-64119819D01*
X72403445Y-64596009D02*
X72070112Y-64596009D01*
X72070112Y-65119819D02*
X72070112Y-64119819D01*
X72070112Y-64119819D02*
X72546302Y-64119819D01*
X72927255Y-64596009D02*
X73260588Y-64596009D01*
X73403445Y-65119819D02*
X72927255Y-65119819D01*
X72927255Y-65119819D02*
X72927255Y-64119819D01*
X72927255Y-64119819D02*
X73403445Y-64119819D01*
X74403445Y-65119819D02*
X74070112Y-64643628D01*
X73832017Y-65119819D02*
X73832017Y-64119819D01*
X73832017Y-64119819D02*
X74212969Y-64119819D01*
X74212969Y-64119819D02*
X74308207Y-64167438D01*
X74308207Y-64167438D02*
X74355826Y-64215057D01*
X74355826Y-64215057D02*
X74403445Y-64310295D01*
X74403445Y-64310295D02*
X74403445Y-64453152D01*
X74403445Y-64453152D02*
X74355826Y-64548390D01*
X74355826Y-64548390D02*
X74308207Y-64596009D01*
X74308207Y-64596009D02*
X74212969Y-64643628D01*
X74212969Y-64643628D02*
X73832017Y-64643628D01*
X74832017Y-64596009D02*
X75165350Y-64596009D01*
X75308207Y-65119819D02*
X74832017Y-65119819D01*
X74832017Y-65119819D02*
X74832017Y-64119819D01*
X74832017Y-64119819D02*
X75308207Y-64119819D01*
X75736779Y-65119819D02*
X75736779Y-64119819D01*
X75736779Y-64119819D02*
X76308207Y-65119819D01*
X76308207Y-65119819D02*
X76308207Y-64119819D01*
X76641541Y-64119819D02*
X77212969Y-64119819D01*
X76927255Y-65119819D02*
X76927255Y-64119819D01*
X77546303Y-65119819D02*
X77546303Y-64119819D01*
X77974874Y-64834104D02*
X78451064Y-64834104D01*
X77879636Y-65119819D02*
X78212969Y-64119819D01*
X78212969Y-64119819D02*
X78546302Y-65119819D01*
X79355826Y-65119819D02*
X78879636Y-65119819D01*
X78879636Y-65119819D02*
X78879636Y-64119819D01*
X80451065Y-65119819D02*
X80451065Y-64119819D01*
X80451065Y-64119819D02*
X80832017Y-64119819D01*
X80832017Y-64119819D02*
X80927255Y-64167438D01*
X80927255Y-64167438D02*
X80974874Y-64215057D01*
X80974874Y-64215057D02*
X81022493Y-64310295D01*
X81022493Y-64310295D02*
X81022493Y-64453152D01*
X81022493Y-64453152D02*
X80974874Y-64548390D01*
X80974874Y-64548390D02*
X80927255Y-64596009D01*
X80927255Y-64596009D02*
X80832017Y-64643628D01*
X80832017Y-64643628D02*
X80451065Y-64643628D01*
X82022493Y-65119819D02*
X81689160Y-64643628D01*
X81451065Y-65119819D02*
X81451065Y-64119819D01*
X81451065Y-64119819D02*
X81832017Y-64119819D01*
X81832017Y-64119819D02*
X81927255Y-64167438D01*
X81927255Y-64167438D02*
X81974874Y-64215057D01*
X81974874Y-64215057D02*
X82022493Y-64310295D01*
X82022493Y-64310295D02*
X82022493Y-64453152D01*
X82022493Y-64453152D02*
X81974874Y-64548390D01*
X81974874Y-64548390D02*
X81927255Y-64596009D01*
X81927255Y-64596009D02*
X81832017Y-64643628D01*
X81832017Y-64643628D02*
X81451065Y-64643628D01*
X82641541Y-64119819D02*
X82832017Y-64119819D01*
X82832017Y-64119819D02*
X82927255Y-64167438D01*
X82927255Y-64167438D02*
X83022493Y-64262676D01*
X83022493Y-64262676D02*
X83070112Y-64453152D01*
X83070112Y-64453152D02*
X83070112Y-64786485D01*
X83070112Y-64786485D02*
X83022493Y-64976961D01*
X83022493Y-64976961D02*
X82927255Y-65072200D01*
X82927255Y-65072200D02*
X82832017Y-65119819D01*
X82832017Y-65119819D02*
X82641541Y-65119819D01*
X82641541Y-65119819D02*
X82546303Y-65072200D01*
X82546303Y-65072200D02*
X82451065Y-64976961D01*
X82451065Y-64976961D02*
X82403446Y-64786485D01*
X82403446Y-64786485D02*
X82403446Y-64453152D01*
X82403446Y-64453152D02*
X82451065Y-64262676D01*
X82451065Y-64262676D02*
X82546303Y-64167438D01*
X82546303Y-64167438D02*
X82641541Y-64119819D01*
X83832017Y-64596009D02*
X83974874Y-64643628D01*
X83974874Y-64643628D02*
X84022493Y-64691247D01*
X84022493Y-64691247D02*
X84070112Y-64786485D01*
X84070112Y-64786485D02*
X84070112Y-64929342D01*
X84070112Y-64929342D02*
X84022493Y-65024580D01*
X84022493Y-65024580D02*
X83974874Y-65072200D01*
X83974874Y-65072200D02*
X83879636Y-65119819D01*
X83879636Y-65119819D02*
X83498684Y-65119819D01*
X83498684Y-65119819D02*
X83498684Y-64119819D01*
X83498684Y-64119819D02*
X83832017Y-64119819D01*
X83832017Y-64119819D02*
X83927255Y-64167438D01*
X83927255Y-64167438D02*
X83974874Y-64215057D01*
X83974874Y-64215057D02*
X84022493Y-64310295D01*
X84022493Y-64310295D02*
X84022493Y-64405533D01*
X84022493Y-64405533D02*
X83974874Y-64500771D01*
X83974874Y-64500771D02*
X83927255Y-64548390D01*
X83927255Y-64548390D02*
X83832017Y-64596009D01*
X83832017Y-64596009D02*
X83498684Y-64596009D01*
X84498684Y-64596009D02*
X84832017Y-64596009D01*
X84974874Y-65119819D02*
X84498684Y-65119819D01*
X84498684Y-65119819D02*
X84498684Y-64119819D01*
X84498684Y-64119819D02*
X84974874Y-64119819D01*
X86070113Y-64453152D02*
X86308208Y-65119819D01*
X86308208Y-65119819D02*
X86546303Y-64453152D01*
X87451065Y-65119819D02*
X86879637Y-65119819D01*
X87165351Y-65119819D02*
X87165351Y-64119819D01*
X87165351Y-64119819D02*
X87070113Y-64262676D01*
X87070113Y-64262676D02*
X86974875Y-64357914D01*
X86974875Y-64357914D02*
X86879637Y-64405533D01*
X87879637Y-65024580D02*
X87927256Y-65072200D01*
X87927256Y-65072200D02*
X87879637Y-65119819D01*
X87879637Y-65119819D02*
X87832018Y-65072200D01*
X87832018Y-65072200D02*
X87879637Y-65024580D01*
X87879637Y-65024580D02*
X87879637Y-65119819D01*
X88308208Y-64215057D02*
X88355827Y-64167438D01*
X88355827Y-64167438D02*
X88451065Y-64119819D01*
X88451065Y-64119819D02*
X88689160Y-64119819D01*
X88689160Y-64119819D02*
X88784398Y-64167438D01*
X88784398Y-64167438D02*
X88832017Y-64215057D01*
X88832017Y-64215057D02*
X88879636Y-64310295D01*
X88879636Y-64310295D02*
X88879636Y-64405533D01*
X88879636Y-64405533D02*
X88832017Y-64548390D01*
X88832017Y-64548390D02*
X88260589Y-65119819D01*
X88260589Y-65119819D02*
X88879636Y-65119819D01*
X96334580Y-44672857D02*
X96382200Y-44720476D01*
X96382200Y-44720476D02*
X96429819Y-44863333D01*
X96429819Y-44863333D02*
X96429819Y-44958571D01*
X96429819Y-44958571D02*
X96382200Y-45101428D01*
X96382200Y-45101428D02*
X96286961Y-45196666D01*
X96286961Y-45196666D02*
X96191723Y-45244285D01*
X96191723Y-45244285D02*
X96001247Y-45291904D01*
X96001247Y-45291904D02*
X95858390Y-45291904D01*
X95858390Y-45291904D02*
X95667914Y-45244285D01*
X95667914Y-45244285D02*
X95572676Y-45196666D01*
X95572676Y-45196666D02*
X95477438Y-45101428D01*
X95477438Y-45101428D02*
X95429819Y-44958571D01*
X95429819Y-44958571D02*
X95429819Y-44863333D01*
X95429819Y-44863333D02*
X95477438Y-44720476D01*
X95477438Y-44720476D02*
X95525057Y-44672857D01*
X96429819Y-43720476D02*
X96429819Y-44291904D01*
X96429819Y-44006190D02*
X95429819Y-44006190D01*
X95429819Y-44006190D02*
X95572676Y-44101428D01*
X95572676Y-44101428D02*
X95667914Y-44196666D01*
X95667914Y-44196666D02*
X95715533Y-44291904D01*
X96429819Y-43244285D02*
X96429819Y-43053809D01*
X96429819Y-43053809D02*
X96382200Y-42958571D01*
X96382200Y-42958571D02*
X96334580Y-42910952D01*
X96334580Y-42910952D02*
X96191723Y-42815714D01*
X96191723Y-42815714D02*
X96001247Y-42768095D01*
X96001247Y-42768095D02*
X95620295Y-42768095D01*
X95620295Y-42768095D02*
X95525057Y-42815714D01*
X95525057Y-42815714D02*
X95477438Y-42863333D01*
X95477438Y-42863333D02*
X95429819Y-42958571D01*
X95429819Y-42958571D02*
X95429819Y-43149047D01*
X95429819Y-43149047D02*
X95477438Y-43244285D01*
X95477438Y-43244285D02*
X95525057Y-43291904D01*
X95525057Y-43291904D02*
X95620295Y-43339523D01*
X95620295Y-43339523D02*
X95858390Y-43339523D01*
X95858390Y-43339523D02*
X95953628Y-43291904D01*
X95953628Y-43291904D02*
X96001247Y-43244285D01*
X96001247Y-43244285D02*
X96048866Y-43149047D01*
X96048866Y-43149047D02*
X96048866Y-42958571D01*
X96048866Y-42958571D02*
X96001247Y-42863333D01*
X96001247Y-42863333D02*
X95953628Y-42815714D01*
X95953628Y-42815714D02*
X95858390Y-42768095D01*
X87888095Y-41036819D02*
X88459523Y-41036819D01*
X88173809Y-42036819D02*
X88173809Y-41036819D01*
X88792857Y-42036819D02*
X88792857Y-41036819D01*
X88792857Y-41036819D02*
X89173809Y-41036819D01*
X89173809Y-41036819D02*
X89269047Y-41084438D01*
X89269047Y-41084438D02*
X89316666Y-41132057D01*
X89316666Y-41132057D02*
X89364285Y-41227295D01*
X89364285Y-41227295D02*
X89364285Y-41370152D01*
X89364285Y-41370152D02*
X89316666Y-41465390D01*
X89316666Y-41465390D02*
X89269047Y-41513009D01*
X89269047Y-41513009D02*
X89173809Y-41560628D01*
X89173809Y-41560628D02*
X88792857Y-41560628D01*
X89697619Y-41036819D02*
X90316666Y-41036819D01*
X90316666Y-41036819D02*
X89983333Y-41417771D01*
X89983333Y-41417771D02*
X90126190Y-41417771D01*
X90126190Y-41417771D02*
X90221428Y-41465390D01*
X90221428Y-41465390D02*
X90269047Y-41513009D01*
X90269047Y-41513009D02*
X90316666Y-41608247D01*
X90316666Y-41608247D02*
X90316666Y-41846342D01*
X90316666Y-41846342D02*
X90269047Y-41941580D01*
X90269047Y-41941580D02*
X90221428Y-41989200D01*
X90221428Y-41989200D02*
X90126190Y-42036819D01*
X90126190Y-42036819D02*
X89840476Y-42036819D01*
X89840476Y-42036819D02*
X89745238Y-41989200D01*
X89745238Y-41989200D02*
X89697619Y-41941580D01*
X92957142Y-54154819D02*
X92623809Y-53678628D01*
X92385714Y-54154819D02*
X92385714Y-53154819D01*
X92385714Y-53154819D02*
X92766666Y-53154819D01*
X92766666Y-53154819D02*
X92861904Y-53202438D01*
X92861904Y-53202438D02*
X92909523Y-53250057D01*
X92909523Y-53250057D02*
X92957142Y-53345295D01*
X92957142Y-53345295D02*
X92957142Y-53488152D01*
X92957142Y-53488152D02*
X92909523Y-53583390D01*
X92909523Y-53583390D02*
X92861904Y-53631009D01*
X92861904Y-53631009D02*
X92766666Y-53678628D01*
X92766666Y-53678628D02*
X92385714Y-53678628D01*
X93338095Y-53250057D02*
X93385714Y-53202438D01*
X93385714Y-53202438D02*
X93480952Y-53154819D01*
X93480952Y-53154819D02*
X93719047Y-53154819D01*
X93719047Y-53154819D02*
X93814285Y-53202438D01*
X93814285Y-53202438D02*
X93861904Y-53250057D01*
X93861904Y-53250057D02*
X93909523Y-53345295D01*
X93909523Y-53345295D02*
X93909523Y-53440533D01*
X93909523Y-53440533D02*
X93861904Y-53583390D01*
X93861904Y-53583390D02*
X93290476Y-54154819D01*
X93290476Y-54154819D02*
X93909523Y-54154819D01*
X94861904Y-54154819D02*
X94290476Y-54154819D01*
X94576190Y-54154819D02*
X94576190Y-53154819D01*
X94576190Y-53154819D02*
X94480952Y-53297676D01*
X94480952Y-53297676D02*
X94385714Y-53392914D01*
X94385714Y-53392914D02*
X94290476Y-53440533D01*
X56909580Y-61416666D02*
X56957200Y-61464285D01*
X56957200Y-61464285D02*
X57004819Y-61607142D01*
X57004819Y-61607142D02*
X57004819Y-61702380D01*
X57004819Y-61702380D02*
X56957200Y-61845237D01*
X56957200Y-61845237D02*
X56861961Y-61940475D01*
X56861961Y-61940475D02*
X56766723Y-61988094D01*
X56766723Y-61988094D02*
X56576247Y-62035713D01*
X56576247Y-62035713D02*
X56433390Y-62035713D01*
X56433390Y-62035713D02*
X56242914Y-61988094D01*
X56242914Y-61988094D02*
X56147676Y-61940475D01*
X56147676Y-61940475D02*
X56052438Y-61845237D01*
X56052438Y-61845237D02*
X56004819Y-61702380D01*
X56004819Y-61702380D02*
X56004819Y-61607142D01*
X56004819Y-61607142D02*
X56052438Y-61464285D01*
X56052438Y-61464285D02*
X56100057Y-61416666D01*
X56004819Y-60559523D02*
X56004819Y-60749999D01*
X56004819Y-60749999D02*
X56052438Y-60845237D01*
X56052438Y-60845237D02*
X56100057Y-60892856D01*
X56100057Y-60892856D02*
X56242914Y-60988094D01*
X56242914Y-60988094D02*
X56433390Y-61035713D01*
X56433390Y-61035713D02*
X56814342Y-61035713D01*
X56814342Y-61035713D02*
X56909580Y-60988094D01*
X56909580Y-60988094D02*
X56957200Y-60940475D01*
X56957200Y-60940475D02*
X57004819Y-60845237D01*
X57004819Y-60845237D02*
X57004819Y-60654761D01*
X57004819Y-60654761D02*
X56957200Y-60559523D01*
X56957200Y-60559523D02*
X56909580Y-60511904D01*
X56909580Y-60511904D02*
X56814342Y-60464285D01*
X56814342Y-60464285D02*
X56576247Y-60464285D01*
X56576247Y-60464285D02*
X56481009Y-60511904D01*
X56481009Y-60511904D02*
X56433390Y-60559523D01*
X56433390Y-60559523D02*
X56385771Y-60654761D01*
X56385771Y-60654761D02*
X56385771Y-60845237D01*
X56385771Y-60845237D02*
X56433390Y-60940475D01*
X56433390Y-60940475D02*
X56481009Y-60988094D01*
X56481009Y-60988094D02*
X56576247Y-61035713D01*
X95324819Y-64263333D02*
X96039104Y-64263333D01*
X96039104Y-64263333D02*
X96181961Y-64310952D01*
X96181961Y-64310952D02*
X96277200Y-64406190D01*
X96277200Y-64406190D02*
X96324819Y-64549047D01*
X96324819Y-64549047D02*
X96324819Y-64644285D01*
X95420057Y-63834761D02*
X95372438Y-63787142D01*
X95372438Y-63787142D02*
X95324819Y-63691904D01*
X95324819Y-63691904D02*
X95324819Y-63453809D01*
X95324819Y-63453809D02*
X95372438Y-63358571D01*
X95372438Y-63358571D02*
X95420057Y-63310952D01*
X95420057Y-63310952D02*
X95515295Y-63263333D01*
X95515295Y-63263333D02*
X95610533Y-63263333D01*
X95610533Y-63263333D02*
X95753390Y-63310952D01*
X95753390Y-63310952D02*
X96324819Y-63882380D01*
X96324819Y-63882380D02*
X96324819Y-63263333D01*
X55109580Y-61416666D02*
X55157200Y-61464285D01*
X55157200Y-61464285D02*
X55204819Y-61607142D01*
X55204819Y-61607142D02*
X55204819Y-61702380D01*
X55204819Y-61702380D02*
X55157200Y-61845237D01*
X55157200Y-61845237D02*
X55061961Y-61940475D01*
X55061961Y-61940475D02*
X54966723Y-61988094D01*
X54966723Y-61988094D02*
X54776247Y-62035713D01*
X54776247Y-62035713D02*
X54633390Y-62035713D01*
X54633390Y-62035713D02*
X54442914Y-61988094D01*
X54442914Y-61988094D02*
X54347676Y-61940475D01*
X54347676Y-61940475D02*
X54252438Y-61845237D01*
X54252438Y-61845237D02*
X54204819Y-61702380D01*
X54204819Y-61702380D02*
X54204819Y-61607142D01*
X54204819Y-61607142D02*
X54252438Y-61464285D01*
X54252438Y-61464285D02*
X54300057Y-61416666D01*
X54204819Y-60511904D02*
X54204819Y-60988094D01*
X54204819Y-60988094D02*
X54681009Y-61035713D01*
X54681009Y-61035713D02*
X54633390Y-60988094D01*
X54633390Y-60988094D02*
X54585771Y-60892856D01*
X54585771Y-60892856D02*
X54585771Y-60654761D01*
X54585771Y-60654761D02*
X54633390Y-60559523D01*
X54633390Y-60559523D02*
X54681009Y-60511904D01*
X54681009Y-60511904D02*
X54776247Y-60464285D01*
X54776247Y-60464285D02*
X55014342Y-60464285D01*
X55014342Y-60464285D02*
X55109580Y-60511904D01*
X55109580Y-60511904D02*
X55157200Y-60559523D01*
X55157200Y-60559523D02*
X55204819Y-60654761D01*
X55204819Y-60654761D02*
X55204819Y-60892856D01*
X55204819Y-60892856D02*
X55157200Y-60988094D01*
X55157200Y-60988094D02*
X55109580Y-61035713D01*
X95659580Y-59672857D02*
X95707200Y-59720476D01*
X95707200Y-59720476D02*
X95754819Y-59863333D01*
X95754819Y-59863333D02*
X95754819Y-59958571D01*
X95754819Y-59958571D02*
X95707200Y-60101428D01*
X95707200Y-60101428D02*
X95611961Y-60196666D01*
X95611961Y-60196666D02*
X95516723Y-60244285D01*
X95516723Y-60244285D02*
X95326247Y-60291904D01*
X95326247Y-60291904D02*
X95183390Y-60291904D01*
X95183390Y-60291904D02*
X94992914Y-60244285D01*
X94992914Y-60244285D02*
X94897676Y-60196666D01*
X94897676Y-60196666D02*
X94802438Y-60101428D01*
X94802438Y-60101428D02*
X94754819Y-59958571D01*
X94754819Y-59958571D02*
X94754819Y-59863333D01*
X94754819Y-59863333D02*
X94802438Y-59720476D01*
X94802438Y-59720476D02*
X94850057Y-59672857D01*
X95754819Y-58720476D02*
X95754819Y-59291904D01*
X95754819Y-59006190D02*
X94754819Y-59006190D01*
X94754819Y-59006190D02*
X94897676Y-59101428D01*
X94897676Y-59101428D02*
X94992914Y-59196666D01*
X94992914Y-59196666D02*
X95040533Y-59291904D01*
X94754819Y-57815714D02*
X94754819Y-58291904D01*
X94754819Y-58291904D02*
X95231009Y-58339523D01*
X95231009Y-58339523D02*
X95183390Y-58291904D01*
X95183390Y-58291904D02*
X95135771Y-58196666D01*
X95135771Y-58196666D02*
X95135771Y-57958571D01*
X95135771Y-57958571D02*
X95183390Y-57863333D01*
X95183390Y-57863333D02*
X95231009Y-57815714D01*
X95231009Y-57815714D02*
X95326247Y-57768095D01*
X95326247Y-57768095D02*
X95564342Y-57768095D01*
X95564342Y-57768095D02*
X95659580Y-57815714D01*
X95659580Y-57815714D02*
X95707200Y-57863333D01*
X95707200Y-57863333D02*
X95754819Y-57958571D01*
X95754819Y-57958571D02*
X95754819Y-58196666D01*
X95754819Y-58196666D02*
X95707200Y-58291904D01*
X95707200Y-58291904D02*
X95659580Y-58339523D01*
X58104819Y-43811904D02*
X58104819Y-43240476D01*
X59104819Y-43526190D02*
X58104819Y-43526190D01*
X59104819Y-42907142D02*
X58104819Y-42907142D01*
X58104819Y-42907142D02*
X58104819Y-42526190D01*
X58104819Y-42526190D02*
X58152438Y-42430952D01*
X58152438Y-42430952D02*
X58200057Y-42383333D01*
X58200057Y-42383333D02*
X58295295Y-42335714D01*
X58295295Y-42335714D02*
X58438152Y-42335714D01*
X58438152Y-42335714D02*
X58533390Y-42383333D01*
X58533390Y-42383333D02*
X58581009Y-42430952D01*
X58581009Y-42430952D02*
X58628628Y-42526190D01*
X58628628Y-42526190D02*
X58628628Y-42907142D01*
X59104819Y-41383333D02*
X59104819Y-41954761D01*
X59104819Y-41669047D02*
X58104819Y-41669047D01*
X58104819Y-41669047D02*
X58247676Y-41764285D01*
X58247676Y-41764285D02*
X58342914Y-41859523D01*
X58342914Y-41859523D02*
X58390533Y-41954761D01*
X57004819Y-50216666D02*
X56528628Y-50549999D01*
X57004819Y-50788094D02*
X56004819Y-50788094D01*
X56004819Y-50788094D02*
X56004819Y-50407142D01*
X56004819Y-50407142D02*
X56052438Y-50311904D01*
X56052438Y-50311904D02*
X56100057Y-50264285D01*
X56100057Y-50264285D02*
X56195295Y-50216666D01*
X56195295Y-50216666D02*
X56338152Y-50216666D01*
X56338152Y-50216666D02*
X56433390Y-50264285D01*
X56433390Y-50264285D02*
X56481009Y-50311904D01*
X56481009Y-50311904D02*
X56528628Y-50407142D01*
X56528628Y-50407142D02*
X56528628Y-50788094D01*
X56433390Y-49645237D02*
X56385771Y-49740475D01*
X56385771Y-49740475D02*
X56338152Y-49788094D01*
X56338152Y-49788094D02*
X56242914Y-49835713D01*
X56242914Y-49835713D02*
X56195295Y-49835713D01*
X56195295Y-49835713D02*
X56100057Y-49788094D01*
X56100057Y-49788094D02*
X56052438Y-49740475D01*
X56052438Y-49740475D02*
X56004819Y-49645237D01*
X56004819Y-49645237D02*
X56004819Y-49454761D01*
X56004819Y-49454761D02*
X56052438Y-49359523D01*
X56052438Y-49359523D02*
X56100057Y-49311904D01*
X56100057Y-49311904D02*
X56195295Y-49264285D01*
X56195295Y-49264285D02*
X56242914Y-49264285D01*
X56242914Y-49264285D02*
X56338152Y-49311904D01*
X56338152Y-49311904D02*
X56385771Y-49359523D01*
X56385771Y-49359523D02*
X56433390Y-49454761D01*
X56433390Y-49454761D02*
X56433390Y-49645237D01*
X56433390Y-49645237D02*
X56481009Y-49740475D01*
X56481009Y-49740475D02*
X56528628Y-49788094D01*
X56528628Y-49788094D02*
X56623866Y-49835713D01*
X56623866Y-49835713D02*
X56814342Y-49835713D01*
X56814342Y-49835713D02*
X56909580Y-49788094D01*
X56909580Y-49788094D02*
X56957200Y-49740475D01*
X56957200Y-49740475D02*
X57004819Y-49645237D01*
X57004819Y-49645237D02*
X57004819Y-49454761D01*
X57004819Y-49454761D02*
X56957200Y-49359523D01*
X56957200Y-49359523D02*
X56909580Y-49311904D01*
X56909580Y-49311904D02*
X56814342Y-49264285D01*
X56814342Y-49264285D02*
X56623866Y-49264285D01*
X56623866Y-49264285D02*
X56528628Y-49311904D01*
X56528628Y-49311904D02*
X56481009Y-49359523D01*
X56481009Y-49359523D02*
X56433390Y-49454761D01*
X90683333Y-44804819D02*
X90207143Y-44804819D01*
X90207143Y-44804819D02*
X90207143Y-43804819D01*
X91540476Y-44804819D02*
X90969048Y-44804819D01*
X91254762Y-44804819D02*
X91254762Y-43804819D01*
X91254762Y-43804819D02*
X91159524Y-43947676D01*
X91159524Y-43947676D02*
X91064286Y-44042914D01*
X91064286Y-44042914D02*
X90969048Y-44090533D01*
X99608095Y-41084819D02*
X99608095Y-41894342D01*
X99608095Y-41894342D02*
X99655714Y-41989580D01*
X99655714Y-41989580D02*
X99703333Y-42037200D01*
X99703333Y-42037200D02*
X99798571Y-42084819D01*
X99798571Y-42084819D02*
X99989047Y-42084819D01*
X99989047Y-42084819D02*
X100084285Y-42037200D01*
X100084285Y-42037200D02*
X100131904Y-41989580D01*
X100131904Y-41989580D02*
X100179523Y-41894342D01*
X100179523Y-41894342D02*
X100179523Y-41084819D01*
X101084285Y-41418152D02*
X101084285Y-42084819D01*
X100846190Y-41037200D02*
X100608095Y-41751485D01*
X100608095Y-41751485D02*
X101227142Y-41751485D01*
X51604819Y-53516666D02*
X51128628Y-53849999D01*
X51604819Y-54088094D02*
X50604819Y-54088094D01*
X50604819Y-54088094D02*
X50604819Y-53707142D01*
X50604819Y-53707142D02*
X50652438Y-53611904D01*
X50652438Y-53611904D02*
X50700057Y-53564285D01*
X50700057Y-53564285D02*
X50795295Y-53516666D01*
X50795295Y-53516666D02*
X50938152Y-53516666D01*
X50938152Y-53516666D02*
X51033390Y-53564285D01*
X51033390Y-53564285D02*
X51081009Y-53611904D01*
X51081009Y-53611904D02*
X51128628Y-53707142D01*
X51128628Y-53707142D02*
X51128628Y-54088094D01*
X50604819Y-52611904D02*
X50604819Y-53088094D01*
X50604819Y-53088094D02*
X51081009Y-53135713D01*
X51081009Y-53135713D02*
X51033390Y-53088094D01*
X51033390Y-53088094D02*
X50985771Y-52992856D01*
X50985771Y-52992856D02*
X50985771Y-52754761D01*
X50985771Y-52754761D02*
X51033390Y-52659523D01*
X51033390Y-52659523D02*
X51081009Y-52611904D01*
X51081009Y-52611904D02*
X51176247Y-52564285D01*
X51176247Y-52564285D02*
X51414342Y-52564285D01*
X51414342Y-52564285D02*
X51509580Y-52611904D01*
X51509580Y-52611904D02*
X51557200Y-52659523D01*
X51557200Y-52659523D02*
X51604819Y-52754761D01*
X51604819Y-52754761D02*
X51604819Y-52992856D01*
X51604819Y-52992856D02*
X51557200Y-53088094D01*
X51557200Y-53088094D02*
X51509580Y-53135713D01*
X88904819Y-49711904D02*
X89714342Y-49711904D01*
X89714342Y-49711904D02*
X89809580Y-49664285D01*
X89809580Y-49664285D02*
X89857200Y-49616666D01*
X89857200Y-49616666D02*
X89904819Y-49521428D01*
X89904819Y-49521428D02*
X89904819Y-49330952D01*
X89904819Y-49330952D02*
X89857200Y-49235714D01*
X89857200Y-49235714D02*
X89809580Y-49188095D01*
X89809580Y-49188095D02*
X89714342Y-49140476D01*
X89714342Y-49140476D02*
X88904819Y-49140476D01*
X89904819Y-48140476D02*
X89904819Y-48711904D01*
X89904819Y-48426190D02*
X88904819Y-48426190D01*
X88904819Y-48426190D02*
X89047676Y-48521428D01*
X89047676Y-48521428D02*
X89142914Y-48616666D01*
X89142914Y-48616666D02*
X89190533Y-48711904D01*
X80804819Y-52697857D02*
X80328628Y-53031190D01*
X80804819Y-53269285D02*
X79804819Y-53269285D01*
X79804819Y-53269285D02*
X79804819Y-52888333D01*
X79804819Y-52888333D02*
X79852438Y-52793095D01*
X79852438Y-52793095D02*
X79900057Y-52745476D01*
X79900057Y-52745476D02*
X79995295Y-52697857D01*
X79995295Y-52697857D02*
X80138152Y-52697857D01*
X80138152Y-52697857D02*
X80233390Y-52745476D01*
X80233390Y-52745476D02*
X80281009Y-52793095D01*
X80281009Y-52793095D02*
X80328628Y-52888333D01*
X80328628Y-52888333D02*
X80328628Y-53269285D01*
X80804819Y-51745476D02*
X80804819Y-52316904D01*
X80804819Y-52031190D02*
X79804819Y-52031190D01*
X79804819Y-52031190D02*
X79947676Y-52126428D01*
X79947676Y-52126428D02*
X80042914Y-52221666D01*
X80042914Y-52221666D02*
X80090533Y-52316904D01*
X79804819Y-50888333D02*
X79804819Y-51078809D01*
X79804819Y-51078809D02*
X79852438Y-51174047D01*
X79852438Y-51174047D02*
X79900057Y-51221666D01*
X79900057Y-51221666D02*
X80042914Y-51316904D01*
X80042914Y-51316904D02*
X80233390Y-51364523D01*
X80233390Y-51364523D02*
X80614342Y-51364523D01*
X80614342Y-51364523D02*
X80709580Y-51316904D01*
X80709580Y-51316904D02*
X80757200Y-51269285D01*
X80757200Y-51269285D02*
X80804819Y-51174047D01*
X80804819Y-51174047D02*
X80804819Y-50983571D01*
X80804819Y-50983571D02*
X80757200Y-50888333D01*
X80757200Y-50888333D02*
X80709580Y-50840714D01*
X80709580Y-50840714D02*
X80614342Y-50793095D01*
X80614342Y-50793095D02*
X80376247Y-50793095D01*
X80376247Y-50793095D02*
X80281009Y-50840714D01*
X80281009Y-50840714D02*
X80233390Y-50888333D01*
X80233390Y-50888333D02*
X80185771Y-50983571D01*
X80185771Y-50983571D02*
X80185771Y-51174047D01*
X80185771Y-51174047D02*
X80233390Y-51269285D01*
X80233390Y-51269285D02*
X80281009Y-51316904D01*
X80281009Y-51316904D02*
X80376247Y-51364523D01*
X101604819Y-49242857D02*
X101128628Y-49576190D01*
X101604819Y-49814285D02*
X100604819Y-49814285D01*
X100604819Y-49814285D02*
X100604819Y-49433333D01*
X100604819Y-49433333D02*
X100652438Y-49338095D01*
X100652438Y-49338095D02*
X100700057Y-49290476D01*
X100700057Y-49290476D02*
X100795295Y-49242857D01*
X100795295Y-49242857D02*
X100938152Y-49242857D01*
X100938152Y-49242857D02*
X101033390Y-49290476D01*
X101033390Y-49290476D02*
X101081009Y-49338095D01*
X101081009Y-49338095D02*
X101128628Y-49433333D01*
X101128628Y-49433333D02*
X101128628Y-49814285D01*
X100700057Y-48861904D02*
X100652438Y-48814285D01*
X100652438Y-48814285D02*
X100604819Y-48719047D01*
X100604819Y-48719047D02*
X100604819Y-48480952D01*
X100604819Y-48480952D02*
X100652438Y-48385714D01*
X100652438Y-48385714D02*
X100700057Y-48338095D01*
X100700057Y-48338095D02*
X100795295Y-48290476D01*
X100795295Y-48290476D02*
X100890533Y-48290476D01*
X100890533Y-48290476D02*
X101033390Y-48338095D01*
X101033390Y-48338095D02*
X101604819Y-48909523D01*
X101604819Y-48909523D02*
X101604819Y-48290476D01*
X100700057Y-47909523D02*
X100652438Y-47861904D01*
X100652438Y-47861904D02*
X100604819Y-47766666D01*
X100604819Y-47766666D02*
X100604819Y-47528571D01*
X100604819Y-47528571D02*
X100652438Y-47433333D01*
X100652438Y-47433333D02*
X100700057Y-47385714D01*
X100700057Y-47385714D02*
X100795295Y-47338095D01*
X100795295Y-47338095D02*
X100890533Y-47338095D01*
X100890533Y-47338095D02*
X101033390Y-47385714D01*
X101033390Y-47385714D02*
X101604819Y-47957142D01*
X101604819Y-47957142D02*
X101604819Y-47338095D01*
X55159580Y-42116666D02*
X55207200Y-42164285D01*
X55207200Y-42164285D02*
X55254819Y-42307142D01*
X55254819Y-42307142D02*
X55254819Y-42402380D01*
X55254819Y-42402380D02*
X55207200Y-42545237D01*
X55207200Y-42545237D02*
X55111961Y-42640475D01*
X55111961Y-42640475D02*
X55016723Y-42688094D01*
X55016723Y-42688094D02*
X54826247Y-42735713D01*
X54826247Y-42735713D02*
X54683390Y-42735713D01*
X54683390Y-42735713D02*
X54492914Y-42688094D01*
X54492914Y-42688094D02*
X54397676Y-42640475D01*
X54397676Y-42640475D02*
X54302438Y-42545237D01*
X54302438Y-42545237D02*
X54254819Y-42402380D01*
X54254819Y-42402380D02*
X54254819Y-42307142D01*
X54254819Y-42307142D02*
X54302438Y-42164285D01*
X54302438Y-42164285D02*
X54350057Y-42116666D01*
X54350057Y-41735713D02*
X54302438Y-41688094D01*
X54302438Y-41688094D02*
X54254819Y-41592856D01*
X54254819Y-41592856D02*
X54254819Y-41354761D01*
X54254819Y-41354761D02*
X54302438Y-41259523D01*
X54302438Y-41259523D02*
X54350057Y-41211904D01*
X54350057Y-41211904D02*
X54445295Y-41164285D01*
X54445295Y-41164285D02*
X54540533Y-41164285D01*
X54540533Y-41164285D02*
X54683390Y-41211904D01*
X54683390Y-41211904D02*
X55254819Y-41783332D01*
X55254819Y-41783332D02*
X55254819Y-41164285D01*
X86357142Y-55854819D02*
X86023809Y-55378628D01*
X85785714Y-55854819D02*
X85785714Y-54854819D01*
X85785714Y-54854819D02*
X86166666Y-54854819D01*
X86166666Y-54854819D02*
X86261904Y-54902438D01*
X86261904Y-54902438D02*
X86309523Y-54950057D01*
X86309523Y-54950057D02*
X86357142Y-55045295D01*
X86357142Y-55045295D02*
X86357142Y-55188152D01*
X86357142Y-55188152D02*
X86309523Y-55283390D01*
X86309523Y-55283390D02*
X86261904Y-55331009D01*
X86261904Y-55331009D02*
X86166666Y-55378628D01*
X86166666Y-55378628D02*
X85785714Y-55378628D01*
X87309523Y-55854819D02*
X86738095Y-55854819D01*
X87023809Y-55854819D02*
X87023809Y-54854819D01*
X87023809Y-54854819D02*
X86928571Y-54997676D01*
X86928571Y-54997676D02*
X86833333Y-55092914D01*
X86833333Y-55092914D02*
X86738095Y-55140533D01*
X87880952Y-55283390D02*
X87785714Y-55235771D01*
X87785714Y-55235771D02*
X87738095Y-55188152D01*
X87738095Y-55188152D02*
X87690476Y-55092914D01*
X87690476Y-55092914D02*
X87690476Y-55045295D01*
X87690476Y-55045295D02*
X87738095Y-54950057D01*
X87738095Y-54950057D02*
X87785714Y-54902438D01*
X87785714Y-54902438D02*
X87880952Y-54854819D01*
X87880952Y-54854819D02*
X88071428Y-54854819D01*
X88071428Y-54854819D02*
X88166666Y-54902438D01*
X88166666Y-54902438D02*
X88214285Y-54950057D01*
X88214285Y-54950057D02*
X88261904Y-55045295D01*
X88261904Y-55045295D02*
X88261904Y-55092914D01*
X88261904Y-55092914D02*
X88214285Y-55188152D01*
X88214285Y-55188152D02*
X88166666Y-55235771D01*
X88166666Y-55235771D02*
X88071428Y-55283390D01*
X88071428Y-55283390D02*
X87880952Y-55283390D01*
X87880952Y-55283390D02*
X87785714Y-55331009D01*
X87785714Y-55331009D02*
X87738095Y-55378628D01*
X87738095Y-55378628D02*
X87690476Y-55473866D01*
X87690476Y-55473866D02*
X87690476Y-55664342D01*
X87690476Y-55664342D02*
X87738095Y-55759580D01*
X87738095Y-55759580D02*
X87785714Y-55807200D01*
X87785714Y-55807200D02*
X87880952Y-55854819D01*
X87880952Y-55854819D02*
X88071428Y-55854819D01*
X88071428Y-55854819D02*
X88166666Y-55807200D01*
X88166666Y-55807200D02*
X88214285Y-55759580D01*
X88214285Y-55759580D02*
X88261904Y-55664342D01*
X88261904Y-55664342D02*
X88261904Y-55473866D01*
X88261904Y-55473866D02*
X88214285Y-55378628D01*
X88214285Y-55378628D02*
X88166666Y-55331009D01*
X88166666Y-55331009D02*
X88071428Y-55283390D01*
X86357142Y-60059580D02*
X86309523Y-60107200D01*
X86309523Y-60107200D02*
X86166666Y-60154819D01*
X86166666Y-60154819D02*
X86071428Y-60154819D01*
X86071428Y-60154819D02*
X85928571Y-60107200D01*
X85928571Y-60107200D02*
X85833333Y-60011961D01*
X85833333Y-60011961D02*
X85785714Y-59916723D01*
X85785714Y-59916723D02*
X85738095Y-59726247D01*
X85738095Y-59726247D02*
X85738095Y-59583390D01*
X85738095Y-59583390D02*
X85785714Y-59392914D01*
X85785714Y-59392914D02*
X85833333Y-59297676D01*
X85833333Y-59297676D02*
X85928571Y-59202438D01*
X85928571Y-59202438D02*
X86071428Y-59154819D01*
X86071428Y-59154819D02*
X86166666Y-59154819D01*
X86166666Y-59154819D02*
X86309523Y-59202438D01*
X86309523Y-59202438D02*
X86357142Y-59250057D01*
X87309523Y-60154819D02*
X86738095Y-60154819D01*
X87023809Y-60154819D02*
X87023809Y-59154819D01*
X87023809Y-59154819D02*
X86928571Y-59297676D01*
X86928571Y-59297676D02*
X86833333Y-59392914D01*
X86833333Y-59392914D02*
X86738095Y-59440533D01*
X87928571Y-59154819D02*
X88023809Y-59154819D01*
X88023809Y-59154819D02*
X88119047Y-59202438D01*
X88119047Y-59202438D02*
X88166666Y-59250057D01*
X88166666Y-59250057D02*
X88214285Y-59345295D01*
X88214285Y-59345295D02*
X88261904Y-59535771D01*
X88261904Y-59535771D02*
X88261904Y-59773866D01*
X88261904Y-59773866D02*
X88214285Y-59964342D01*
X88214285Y-59964342D02*
X88166666Y-60059580D01*
X88166666Y-60059580D02*
X88119047Y-60107200D01*
X88119047Y-60107200D02*
X88023809Y-60154819D01*
X88023809Y-60154819D02*
X87928571Y-60154819D01*
X87928571Y-60154819D02*
X87833333Y-60107200D01*
X87833333Y-60107200D02*
X87785714Y-60059580D01*
X87785714Y-60059580D02*
X87738095Y-59964342D01*
X87738095Y-59964342D02*
X87690476Y-59773866D01*
X87690476Y-59773866D02*
X87690476Y-59535771D01*
X87690476Y-59535771D02*
X87738095Y-59345295D01*
X87738095Y-59345295D02*
X87785714Y-59250057D01*
X87785714Y-59250057D02*
X87833333Y-59202438D01*
X87833333Y-59202438D02*
X87928571Y-59154819D01*
X51604819Y-50216666D02*
X51128628Y-50549999D01*
X51604819Y-50788094D02*
X50604819Y-50788094D01*
X50604819Y-50788094D02*
X50604819Y-50407142D01*
X50604819Y-50407142D02*
X50652438Y-50311904D01*
X50652438Y-50311904D02*
X50700057Y-50264285D01*
X50700057Y-50264285D02*
X50795295Y-50216666D01*
X50795295Y-50216666D02*
X50938152Y-50216666D01*
X50938152Y-50216666D02*
X51033390Y-50264285D01*
X51033390Y-50264285D02*
X51081009Y-50311904D01*
X51081009Y-50311904D02*
X51128628Y-50407142D01*
X51128628Y-50407142D02*
X51128628Y-50788094D01*
X50938152Y-49359523D02*
X51604819Y-49359523D01*
X50557200Y-49597618D02*
X51271485Y-49835713D01*
X51271485Y-49835713D02*
X51271485Y-49216666D01*
X92807142Y-47754819D02*
X92473809Y-47278628D01*
X92235714Y-47754819D02*
X92235714Y-46754819D01*
X92235714Y-46754819D02*
X92616666Y-46754819D01*
X92616666Y-46754819D02*
X92711904Y-46802438D01*
X92711904Y-46802438D02*
X92759523Y-46850057D01*
X92759523Y-46850057D02*
X92807142Y-46945295D01*
X92807142Y-46945295D02*
X92807142Y-47088152D01*
X92807142Y-47088152D02*
X92759523Y-47183390D01*
X92759523Y-47183390D02*
X92711904Y-47231009D01*
X92711904Y-47231009D02*
X92616666Y-47278628D01*
X92616666Y-47278628D02*
X92235714Y-47278628D01*
X93759523Y-47754819D02*
X93188095Y-47754819D01*
X93473809Y-47754819D02*
X93473809Y-46754819D01*
X93473809Y-46754819D02*
X93378571Y-46897676D01*
X93378571Y-46897676D02*
X93283333Y-46992914D01*
X93283333Y-46992914D02*
X93188095Y-47040533D01*
X94235714Y-47754819D02*
X94426190Y-47754819D01*
X94426190Y-47754819D02*
X94521428Y-47707200D01*
X94521428Y-47707200D02*
X94569047Y-47659580D01*
X94569047Y-47659580D02*
X94664285Y-47516723D01*
X94664285Y-47516723D02*
X94711904Y-47326247D01*
X94711904Y-47326247D02*
X94711904Y-46945295D01*
X94711904Y-46945295D02*
X94664285Y-46850057D01*
X94664285Y-46850057D02*
X94616666Y-46802438D01*
X94616666Y-46802438D02*
X94521428Y-46754819D01*
X94521428Y-46754819D02*
X94330952Y-46754819D01*
X94330952Y-46754819D02*
X94235714Y-46802438D01*
X94235714Y-46802438D02*
X94188095Y-46850057D01*
X94188095Y-46850057D02*
X94140476Y-46945295D01*
X94140476Y-46945295D02*
X94140476Y-47183390D01*
X94140476Y-47183390D02*
X94188095Y-47278628D01*
X94188095Y-47278628D02*
X94235714Y-47326247D01*
X94235714Y-47326247D02*
X94330952Y-47373866D01*
X94330952Y-47373866D02*
X94521428Y-47373866D01*
X94521428Y-47373866D02*
X94616666Y-47326247D01*
X94616666Y-47326247D02*
X94664285Y-47278628D01*
X94664285Y-47278628D02*
X94711904Y-47183390D01*
X91554819Y-59916666D02*
X91554819Y-60392856D01*
X91554819Y-60392856D02*
X90554819Y-60392856D01*
X90650057Y-59630951D02*
X90602438Y-59583332D01*
X90602438Y-59583332D02*
X90554819Y-59488094D01*
X90554819Y-59488094D02*
X90554819Y-59249999D01*
X90554819Y-59249999D02*
X90602438Y-59154761D01*
X90602438Y-59154761D02*
X90650057Y-59107142D01*
X90650057Y-59107142D02*
X90745295Y-59059523D01*
X90745295Y-59059523D02*
X90840533Y-59059523D01*
X90840533Y-59059523D02*
X90983390Y-59107142D01*
X90983390Y-59107142D02*
X91554819Y-59678570D01*
X91554819Y-59678570D02*
X91554819Y-59059523D01*
X51409580Y-59416666D02*
X51457200Y-59464285D01*
X51457200Y-59464285D02*
X51504819Y-59607142D01*
X51504819Y-59607142D02*
X51504819Y-59702380D01*
X51504819Y-59702380D02*
X51457200Y-59845237D01*
X51457200Y-59845237D02*
X51361961Y-59940475D01*
X51361961Y-59940475D02*
X51266723Y-59988094D01*
X51266723Y-59988094D02*
X51076247Y-60035713D01*
X51076247Y-60035713D02*
X50933390Y-60035713D01*
X50933390Y-60035713D02*
X50742914Y-59988094D01*
X50742914Y-59988094D02*
X50647676Y-59940475D01*
X50647676Y-59940475D02*
X50552438Y-59845237D01*
X50552438Y-59845237D02*
X50504819Y-59702380D01*
X50504819Y-59702380D02*
X50504819Y-59607142D01*
X50504819Y-59607142D02*
X50552438Y-59464285D01*
X50552438Y-59464285D02*
X50600057Y-59416666D01*
X50838152Y-58559523D02*
X51504819Y-58559523D01*
X50457200Y-58797618D02*
X51171485Y-59035713D01*
X51171485Y-59035713D02*
X51171485Y-58416666D01*
X58104819Y-61861904D02*
X58104819Y-61290476D01*
X59104819Y-61576190D02*
X58104819Y-61576190D01*
X59104819Y-60957142D02*
X58104819Y-60957142D01*
X58104819Y-60957142D02*
X58104819Y-60576190D01*
X58104819Y-60576190D02*
X58152438Y-60480952D01*
X58152438Y-60480952D02*
X58200057Y-60433333D01*
X58200057Y-60433333D02*
X58295295Y-60385714D01*
X58295295Y-60385714D02*
X58438152Y-60385714D01*
X58438152Y-60385714D02*
X58533390Y-60433333D01*
X58533390Y-60433333D02*
X58581009Y-60480952D01*
X58581009Y-60480952D02*
X58628628Y-60576190D01*
X58628628Y-60576190D02*
X58628628Y-60957142D01*
X58200057Y-60004761D02*
X58152438Y-59957142D01*
X58152438Y-59957142D02*
X58104819Y-59861904D01*
X58104819Y-59861904D02*
X58104819Y-59623809D01*
X58104819Y-59623809D02*
X58152438Y-59528571D01*
X58152438Y-59528571D02*
X58200057Y-59480952D01*
X58200057Y-59480952D02*
X58295295Y-59433333D01*
X58295295Y-59433333D02*
X58390533Y-59433333D01*
X58390533Y-59433333D02*
X58533390Y-59480952D01*
X58533390Y-59480952D02*
X59104819Y-60052380D01*
X59104819Y-60052380D02*
X59104819Y-59433333D01*
X55204819Y-50216666D02*
X54728628Y-50549999D01*
X55204819Y-50788094D02*
X54204819Y-50788094D01*
X54204819Y-50788094D02*
X54204819Y-50407142D01*
X54204819Y-50407142D02*
X54252438Y-50311904D01*
X54252438Y-50311904D02*
X54300057Y-50264285D01*
X54300057Y-50264285D02*
X54395295Y-50216666D01*
X54395295Y-50216666D02*
X54538152Y-50216666D01*
X54538152Y-50216666D02*
X54633390Y-50264285D01*
X54633390Y-50264285D02*
X54681009Y-50311904D01*
X54681009Y-50311904D02*
X54728628Y-50407142D01*
X54728628Y-50407142D02*
X54728628Y-50788094D01*
X54204819Y-49883332D02*
X54204819Y-49216666D01*
X54204819Y-49216666D02*
X55204819Y-49645237D01*
X47324819Y-64263333D02*
X48039104Y-64263333D01*
X48039104Y-64263333D02*
X48181961Y-64310952D01*
X48181961Y-64310952D02*
X48277200Y-64406190D01*
X48277200Y-64406190D02*
X48324819Y-64549047D01*
X48324819Y-64549047D02*
X48324819Y-64644285D01*
X48324819Y-63263333D02*
X48324819Y-63834761D01*
X48324819Y-63549047D02*
X47324819Y-63549047D01*
X47324819Y-63549047D02*
X47467676Y-63644285D01*
X47467676Y-63644285D02*
X47562914Y-63739523D01*
X47562914Y-63739523D02*
X47610533Y-63834761D01*
X99094819Y-52481904D02*
X99904342Y-52481904D01*
X99904342Y-52481904D02*
X99999580Y-52434285D01*
X99999580Y-52434285D02*
X100047200Y-52386666D01*
X100047200Y-52386666D02*
X100094819Y-52291428D01*
X100094819Y-52291428D02*
X100094819Y-52100952D01*
X100094819Y-52100952D02*
X100047200Y-52005714D01*
X100047200Y-52005714D02*
X99999580Y-51958095D01*
X99999580Y-51958095D02*
X99904342Y-51910476D01*
X99904342Y-51910476D02*
X99094819Y-51910476D01*
X99094819Y-51529523D02*
X99094819Y-50910476D01*
X99094819Y-50910476D02*
X99475771Y-51243809D01*
X99475771Y-51243809D02*
X99475771Y-51100952D01*
X99475771Y-51100952D02*
X99523390Y-51005714D01*
X99523390Y-51005714D02*
X99571009Y-50958095D01*
X99571009Y-50958095D02*
X99666247Y-50910476D01*
X99666247Y-50910476D02*
X99904342Y-50910476D01*
X99904342Y-50910476D02*
X99999580Y-50958095D01*
X99999580Y-50958095D02*
X100047200Y-51005714D01*
X100047200Y-51005714D02*
X100094819Y-51100952D01*
X100094819Y-51100952D02*
X100094819Y-51386666D01*
X100094819Y-51386666D02*
X100047200Y-51481904D01*
X100047200Y-51481904D02*
X99999580Y-51529523D01*
X78529819Y-43617857D02*
X78053628Y-43951190D01*
X78529819Y-44189285D02*
X77529819Y-44189285D01*
X77529819Y-44189285D02*
X77529819Y-43808333D01*
X77529819Y-43808333D02*
X77577438Y-43713095D01*
X77577438Y-43713095D02*
X77625057Y-43665476D01*
X77625057Y-43665476D02*
X77720295Y-43617857D01*
X77720295Y-43617857D02*
X77863152Y-43617857D01*
X77863152Y-43617857D02*
X77958390Y-43665476D01*
X77958390Y-43665476D02*
X78006009Y-43713095D01*
X78006009Y-43713095D02*
X78053628Y-43808333D01*
X78053628Y-43808333D02*
X78053628Y-44189285D01*
X77625057Y-43236904D02*
X77577438Y-43189285D01*
X77577438Y-43189285D02*
X77529819Y-43094047D01*
X77529819Y-43094047D02*
X77529819Y-42855952D01*
X77529819Y-42855952D02*
X77577438Y-42760714D01*
X77577438Y-42760714D02*
X77625057Y-42713095D01*
X77625057Y-42713095D02*
X77720295Y-42665476D01*
X77720295Y-42665476D02*
X77815533Y-42665476D01*
X77815533Y-42665476D02*
X77958390Y-42713095D01*
X77958390Y-42713095D02*
X78529819Y-43284523D01*
X78529819Y-43284523D02*
X78529819Y-42665476D01*
X77529819Y-41808333D02*
X77529819Y-41998809D01*
X77529819Y-41998809D02*
X77577438Y-42094047D01*
X77577438Y-42094047D02*
X77625057Y-42141666D01*
X77625057Y-42141666D02*
X77767914Y-42236904D01*
X77767914Y-42236904D02*
X77958390Y-42284523D01*
X77958390Y-42284523D02*
X78339342Y-42284523D01*
X78339342Y-42284523D02*
X78434580Y-42236904D01*
X78434580Y-42236904D02*
X78482200Y-42189285D01*
X78482200Y-42189285D02*
X78529819Y-42094047D01*
X78529819Y-42094047D02*
X78529819Y-41903571D01*
X78529819Y-41903571D02*
X78482200Y-41808333D01*
X78482200Y-41808333D02*
X78434580Y-41760714D01*
X78434580Y-41760714D02*
X78339342Y-41713095D01*
X78339342Y-41713095D02*
X78101247Y-41713095D01*
X78101247Y-41713095D02*
X78006009Y-41760714D01*
X78006009Y-41760714D02*
X77958390Y-41808333D01*
X77958390Y-41808333D02*
X77910771Y-41903571D01*
X77910771Y-41903571D02*
X77910771Y-42094047D01*
X77910771Y-42094047D02*
X77958390Y-42189285D01*
X77958390Y-42189285D02*
X78006009Y-42236904D01*
X78006009Y-42236904D02*
X78101247Y-42284523D01*
X103259580Y-49192857D02*
X103307200Y-49240476D01*
X103307200Y-49240476D02*
X103354819Y-49383333D01*
X103354819Y-49383333D02*
X103354819Y-49478571D01*
X103354819Y-49478571D02*
X103307200Y-49621428D01*
X103307200Y-49621428D02*
X103211961Y-49716666D01*
X103211961Y-49716666D02*
X103116723Y-49764285D01*
X103116723Y-49764285D02*
X102926247Y-49811904D01*
X102926247Y-49811904D02*
X102783390Y-49811904D01*
X102783390Y-49811904D02*
X102592914Y-49764285D01*
X102592914Y-49764285D02*
X102497676Y-49716666D01*
X102497676Y-49716666D02*
X102402438Y-49621428D01*
X102402438Y-49621428D02*
X102354819Y-49478571D01*
X102354819Y-49478571D02*
X102354819Y-49383333D01*
X102354819Y-49383333D02*
X102402438Y-49240476D01*
X102402438Y-49240476D02*
X102450057Y-49192857D01*
X103354819Y-48240476D02*
X103354819Y-48811904D01*
X103354819Y-48526190D02*
X102354819Y-48526190D01*
X102354819Y-48526190D02*
X102497676Y-48621428D01*
X102497676Y-48621428D02*
X102592914Y-48716666D01*
X102592914Y-48716666D02*
X102640533Y-48811904D01*
X103354819Y-47288095D02*
X103354819Y-47859523D01*
X103354819Y-47573809D02*
X102354819Y-47573809D01*
X102354819Y-47573809D02*
X102497676Y-47669047D01*
X102497676Y-47669047D02*
X102592914Y-47764285D01*
X102592914Y-47764285D02*
X102640533Y-47859523D01*
X57054819Y-53516666D02*
X56578628Y-53849999D01*
X57054819Y-54088094D02*
X56054819Y-54088094D01*
X56054819Y-54088094D02*
X56054819Y-53707142D01*
X56054819Y-53707142D02*
X56102438Y-53611904D01*
X56102438Y-53611904D02*
X56150057Y-53564285D01*
X56150057Y-53564285D02*
X56245295Y-53516666D01*
X56245295Y-53516666D02*
X56388152Y-53516666D01*
X56388152Y-53516666D02*
X56483390Y-53564285D01*
X56483390Y-53564285D02*
X56531009Y-53611904D01*
X56531009Y-53611904D02*
X56578628Y-53707142D01*
X56578628Y-53707142D02*
X56578628Y-54088094D01*
X57054819Y-52564285D02*
X57054819Y-53135713D01*
X57054819Y-52849999D02*
X56054819Y-52849999D01*
X56054819Y-52849999D02*
X56197676Y-52945237D01*
X56197676Y-52945237D02*
X56292914Y-53040475D01*
X56292914Y-53040475D02*
X56340533Y-53135713D01*
X56054819Y-51945237D02*
X56054819Y-51849999D01*
X56054819Y-51849999D02*
X56102438Y-51754761D01*
X56102438Y-51754761D02*
X56150057Y-51707142D01*
X56150057Y-51707142D02*
X56245295Y-51659523D01*
X56245295Y-51659523D02*
X56435771Y-51611904D01*
X56435771Y-51611904D02*
X56673866Y-51611904D01*
X56673866Y-51611904D02*
X56864342Y-51659523D01*
X56864342Y-51659523D02*
X56959580Y-51707142D01*
X56959580Y-51707142D02*
X57007200Y-51754761D01*
X57007200Y-51754761D02*
X57054819Y-51849999D01*
X57054819Y-51849999D02*
X57054819Y-51945237D01*
X57054819Y-51945237D02*
X57007200Y-52040475D01*
X57007200Y-52040475D02*
X56959580Y-52088094D01*
X56959580Y-52088094D02*
X56864342Y-52135713D01*
X56864342Y-52135713D02*
X56673866Y-52183332D01*
X56673866Y-52183332D02*
X56435771Y-52183332D01*
X56435771Y-52183332D02*
X56245295Y-52135713D01*
X56245295Y-52135713D02*
X56150057Y-52088094D01*
X56150057Y-52088094D02*
X56102438Y-52040475D01*
X56102438Y-52040475D02*
X56054819Y-51945237D01*
X55238151Y-53516666D02*
X54761960Y-53849999D01*
X55238151Y-54088094D02*
X54238151Y-54088094D01*
X54238151Y-54088094D02*
X54238151Y-53707142D01*
X54238151Y-53707142D02*
X54285770Y-53611904D01*
X54285770Y-53611904D02*
X54333389Y-53564285D01*
X54333389Y-53564285D02*
X54428627Y-53516666D01*
X54428627Y-53516666D02*
X54571484Y-53516666D01*
X54571484Y-53516666D02*
X54666722Y-53564285D01*
X54666722Y-53564285D02*
X54714341Y-53611904D01*
X54714341Y-53611904D02*
X54761960Y-53707142D01*
X54761960Y-53707142D02*
X54761960Y-54088094D01*
X55238151Y-52564285D02*
X55238151Y-53135713D01*
X55238151Y-52849999D02*
X54238151Y-52849999D01*
X54238151Y-52849999D02*
X54381008Y-52945237D01*
X54381008Y-52945237D02*
X54476246Y-53040475D01*
X54476246Y-53040475D02*
X54523865Y-53135713D01*
X55238151Y-51611904D02*
X55238151Y-52183332D01*
X55238151Y-51897618D02*
X54238151Y-51897618D01*
X54238151Y-51897618D02*
X54381008Y-51992856D01*
X54381008Y-51992856D02*
X54476246Y-52088094D01*
X54476246Y-52088094D02*
X54523865Y-52183332D01*
X85054819Y-52697857D02*
X84578628Y-53031190D01*
X85054819Y-53269285D02*
X84054819Y-53269285D01*
X84054819Y-53269285D02*
X84054819Y-52888333D01*
X84054819Y-52888333D02*
X84102438Y-52793095D01*
X84102438Y-52793095D02*
X84150057Y-52745476D01*
X84150057Y-52745476D02*
X84245295Y-52697857D01*
X84245295Y-52697857D02*
X84388152Y-52697857D01*
X84388152Y-52697857D02*
X84483390Y-52745476D01*
X84483390Y-52745476D02*
X84531009Y-52793095D01*
X84531009Y-52793095D02*
X84578628Y-52888333D01*
X84578628Y-52888333D02*
X84578628Y-53269285D01*
X85054819Y-51745476D02*
X85054819Y-52316904D01*
X85054819Y-52031190D02*
X84054819Y-52031190D01*
X84054819Y-52031190D02*
X84197676Y-52126428D01*
X84197676Y-52126428D02*
X84292914Y-52221666D01*
X84292914Y-52221666D02*
X84340533Y-52316904D01*
X84054819Y-50840714D02*
X84054819Y-51316904D01*
X84054819Y-51316904D02*
X84531009Y-51364523D01*
X84531009Y-51364523D02*
X84483390Y-51316904D01*
X84483390Y-51316904D02*
X84435771Y-51221666D01*
X84435771Y-51221666D02*
X84435771Y-50983571D01*
X84435771Y-50983571D02*
X84483390Y-50888333D01*
X84483390Y-50888333D02*
X84531009Y-50840714D01*
X84531009Y-50840714D02*
X84626247Y-50793095D01*
X84626247Y-50793095D02*
X84864342Y-50793095D01*
X84864342Y-50793095D02*
X84959580Y-50840714D01*
X84959580Y-50840714D02*
X85007200Y-50888333D01*
X85007200Y-50888333D02*
X85054819Y-50983571D01*
X85054819Y-50983571D02*
X85054819Y-51221666D01*
X85054819Y-51221666D02*
X85007200Y-51316904D01*
X85007200Y-51316904D02*
X84959580Y-51364523D01*
X67654819Y-46818094D02*
X66654819Y-46818094D01*
X66654819Y-46818094D02*
X66654819Y-46579999D01*
X66654819Y-46579999D02*
X66702438Y-46437142D01*
X66702438Y-46437142D02*
X66797676Y-46341904D01*
X66797676Y-46341904D02*
X66892914Y-46294285D01*
X66892914Y-46294285D02*
X67083390Y-46246666D01*
X67083390Y-46246666D02*
X67226247Y-46246666D01*
X67226247Y-46246666D02*
X67416723Y-46294285D01*
X67416723Y-46294285D02*
X67511961Y-46341904D01*
X67511961Y-46341904D02*
X67607200Y-46437142D01*
X67607200Y-46437142D02*
X67654819Y-46579999D01*
X67654819Y-46579999D02*
X67654819Y-46818094D01*
X67654819Y-45294285D02*
X67654819Y-45865713D01*
X67654819Y-45579999D02*
X66654819Y-45579999D01*
X66654819Y-45579999D02*
X66797676Y-45675237D01*
X66797676Y-45675237D02*
X66892914Y-45770475D01*
X66892914Y-45770475D02*
X66940533Y-45865713D01*
X88188095Y-61054819D02*
X88759523Y-61054819D01*
X88473809Y-62054819D02*
X88473809Y-61054819D01*
X89092857Y-62054819D02*
X89092857Y-61054819D01*
X89092857Y-61054819D02*
X89473809Y-61054819D01*
X89473809Y-61054819D02*
X89569047Y-61102438D01*
X89569047Y-61102438D02*
X89616666Y-61150057D01*
X89616666Y-61150057D02*
X89664285Y-61245295D01*
X89664285Y-61245295D02*
X89664285Y-61388152D01*
X89664285Y-61388152D02*
X89616666Y-61483390D01*
X89616666Y-61483390D02*
X89569047Y-61531009D01*
X89569047Y-61531009D02*
X89473809Y-61578628D01*
X89473809Y-61578628D02*
X89092857Y-61578628D01*
X90521428Y-61388152D02*
X90521428Y-62054819D01*
X90283333Y-61007200D02*
X90045238Y-61721485D01*
X90045238Y-61721485D02*
X90664285Y-61721485D01*
X53404819Y-50216666D02*
X52928628Y-50549999D01*
X53404819Y-50788094D02*
X52404819Y-50788094D01*
X52404819Y-50788094D02*
X52404819Y-50407142D01*
X52404819Y-50407142D02*
X52452438Y-50311904D01*
X52452438Y-50311904D02*
X52500057Y-50264285D01*
X52500057Y-50264285D02*
X52595295Y-50216666D01*
X52595295Y-50216666D02*
X52738152Y-50216666D01*
X52738152Y-50216666D02*
X52833390Y-50264285D01*
X52833390Y-50264285D02*
X52881009Y-50311904D01*
X52881009Y-50311904D02*
X52928628Y-50407142D01*
X52928628Y-50407142D02*
X52928628Y-50788094D01*
X52404819Y-49359523D02*
X52404819Y-49549999D01*
X52404819Y-49549999D02*
X52452438Y-49645237D01*
X52452438Y-49645237D02*
X52500057Y-49692856D01*
X52500057Y-49692856D02*
X52642914Y-49788094D01*
X52642914Y-49788094D02*
X52833390Y-49835713D01*
X52833390Y-49835713D02*
X53214342Y-49835713D01*
X53214342Y-49835713D02*
X53309580Y-49788094D01*
X53309580Y-49788094D02*
X53357200Y-49740475D01*
X53357200Y-49740475D02*
X53404819Y-49645237D01*
X53404819Y-49645237D02*
X53404819Y-49454761D01*
X53404819Y-49454761D02*
X53357200Y-49359523D01*
X53357200Y-49359523D02*
X53309580Y-49311904D01*
X53309580Y-49311904D02*
X53214342Y-49264285D01*
X53214342Y-49264285D02*
X52976247Y-49264285D01*
X52976247Y-49264285D02*
X52881009Y-49311904D01*
X52881009Y-49311904D02*
X52833390Y-49359523D01*
X52833390Y-49359523D02*
X52785771Y-49454761D01*
X52785771Y-49454761D02*
X52785771Y-49645237D01*
X52785771Y-49645237D02*
X52833390Y-49740475D01*
X52833390Y-49740475D02*
X52881009Y-49788094D01*
X52881009Y-49788094D02*
X52976247Y-49835713D01*
X104459580Y-59622857D02*
X104507200Y-59670476D01*
X104507200Y-59670476D02*
X104554819Y-59813333D01*
X104554819Y-59813333D02*
X104554819Y-59908571D01*
X104554819Y-59908571D02*
X104507200Y-60051428D01*
X104507200Y-60051428D02*
X104411961Y-60146666D01*
X104411961Y-60146666D02*
X104316723Y-60194285D01*
X104316723Y-60194285D02*
X104126247Y-60241904D01*
X104126247Y-60241904D02*
X103983390Y-60241904D01*
X103983390Y-60241904D02*
X103792914Y-60194285D01*
X103792914Y-60194285D02*
X103697676Y-60146666D01*
X103697676Y-60146666D02*
X103602438Y-60051428D01*
X103602438Y-60051428D02*
X103554819Y-59908571D01*
X103554819Y-59908571D02*
X103554819Y-59813333D01*
X103554819Y-59813333D02*
X103602438Y-59670476D01*
X103602438Y-59670476D02*
X103650057Y-59622857D01*
X104554819Y-58670476D02*
X104554819Y-59241904D01*
X104554819Y-58956190D02*
X103554819Y-58956190D01*
X103554819Y-58956190D02*
X103697676Y-59051428D01*
X103697676Y-59051428D02*
X103792914Y-59146666D01*
X103792914Y-59146666D02*
X103840533Y-59241904D01*
X103888152Y-57813333D02*
X104554819Y-57813333D01*
X103507200Y-58051428D02*
X104221485Y-58289523D01*
X104221485Y-58289523D02*
X104221485Y-57670476D01*
X67854819Y-50666666D02*
X67378628Y-50999999D01*
X67854819Y-51238094D02*
X66854819Y-51238094D01*
X66854819Y-51238094D02*
X66854819Y-50857142D01*
X66854819Y-50857142D02*
X66902438Y-50761904D01*
X66902438Y-50761904D02*
X66950057Y-50714285D01*
X66950057Y-50714285D02*
X67045295Y-50666666D01*
X67045295Y-50666666D02*
X67188152Y-50666666D01*
X67188152Y-50666666D02*
X67283390Y-50714285D01*
X67283390Y-50714285D02*
X67331009Y-50761904D01*
X67331009Y-50761904D02*
X67378628Y-50857142D01*
X67378628Y-50857142D02*
X67378628Y-51238094D01*
X67854819Y-49714285D02*
X67854819Y-50285713D01*
X67854819Y-49999999D02*
X66854819Y-49999999D01*
X66854819Y-49999999D02*
X66997676Y-50095237D01*
X66997676Y-50095237D02*
X67092914Y-50190475D01*
X67092914Y-50190475D02*
X67140533Y-50285713D01*
X86709580Y-44966666D02*
X86757200Y-45014285D01*
X86757200Y-45014285D02*
X86804819Y-45157142D01*
X86804819Y-45157142D02*
X86804819Y-45252380D01*
X86804819Y-45252380D02*
X86757200Y-45395237D01*
X86757200Y-45395237D02*
X86661961Y-45490475D01*
X86661961Y-45490475D02*
X86566723Y-45538094D01*
X86566723Y-45538094D02*
X86376247Y-45585713D01*
X86376247Y-45585713D02*
X86233390Y-45585713D01*
X86233390Y-45585713D02*
X86042914Y-45538094D01*
X86042914Y-45538094D02*
X85947676Y-45490475D01*
X85947676Y-45490475D02*
X85852438Y-45395237D01*
X85852438Y-45395237D02*
X85804819Y-45252380D01*
X85804819Y-45252380D02*
X85804819Y-45157142D01*
X85804819Y-45157142D02*
X85852438Y-45014285D01*
X85852438Y-45014285D02*
X85900057Y-44966666D01*
X86804819Y-44490475D02*
X86804819Y-44299999D01*
X86804819Y-44299999D02*
X86757200Y-44204761D01*
X86757200Y-44204761D02*
X86709580Y-44157142D01*
X86709580Y-44157142D02*
X86566723Y-44061904D01*
X86566723Y-44061904D02*
X86376247Y-44014285D01*
X86376247Y-44014285D02*
X85995295Y-44014285D01*
X85995295Y-44014285D02*
X85900057Y-44061904D01*
X85900057Y-44061904D02*
X85852438Y-44109523D01*
X85852438Y-44109523D02*
X85804819Y-44204761D01*
X85804819Y-44204761D02*
X85804819Y-44395237D01*
X85804819Y-44395237D02*
X85852438Y-44490475D01*
X85852438Y-44490475D02*
X85900057Y-44538094D01*
X85900057Y-44538094D02*
X85995295Y-44585713D01*
X85995295Y-44585713D02*
X86233390Y-44585713D01*
X86233390Y-44585713D02*
X86328628Y-44538094D01*
X86328628Y-44538094D02*
X86376247Y-44490475D01*
X86376247Y-44490475D02*
X86423866Y-44395237D01*
X86423866Y-44395237D02*
X86423866Y-44204761D01*
X86423866Y-44204761D02*
X86376247Y-44109523D01*
X86376247Y-44109523D02*
X86328628Y-44061904D01*
X86328628Y-44061904D02*
X86233390Y-44014285D01*
X79757142Y-59954819D02*
X79423809Y-59478628D01*
X79185714Y-59954819D02*
X79185714Y-58954819D01*
X79185714Y-58954819D02*
X79566666Y-58954819D01*
X79566666Y-58954819D02*
X79661904Y-59002438D01*
X79661904Y-59002438D02*
X79709523Y-59050057D01*
X79709523Y-59050057D02*
X79757142Y-59145295D01*
X79757142Y-59145295D02*
X79757142Y-59288152D01*
X79757142Y-59288152D02*
X79709523Y-59383390D01*
X79709523Y-59383390D02*
X79661904Y-59431009D01*
X79661904Y-59431009D02*
X79566666Y-59478628D01*
X79566666Y-59478628D02*
X79185714Y-59478628D01*
X80138095Y-59050057D02*
X80185714Y-59002438D01*
X80185714Y-59002438D02*
X80280952Y-58954819D01*
X80280952Y-58954819D02*
X80519047Y-58954819D01*
X80519047Y-58954819D02*
X80614285Y-59002438D01*
X80614285Y-59002438D02*
X80661904Y-59050057D01*
X80661904Y-59050057D02*
X80709523Y-59145295D01*
X80709523Y-59145295D02*
X80709523Y-59240533D01*
X80709523Y-59240533D02*
X80661904Y-59383390D01*
X80661904Y-59383390D02*
X80090476Y-59954819D01*
X80090476Y-59954819D02*
X80709523Y-59954819D01*
X81614285Y-58954819D02*
X81138095Y-58954819D01*
X81138095Y-58954819D02*
X81090476Y-59431009D01*
X81090476Y-59431009D02*
X81138095Y-59383390D01*
X81138095Y-59383390D02*
X81233333Y-59335771D01*
X81233333Y-59335771D02*
X81471428Y-59335771D01*
X81471428Y-59335771D02*
X81566666Y-59383390D01*
X81566666Y-59383390D02*
X81614285Y-59431009D01*
X81614285Y-59431009D02*
X81661904Y-59526247D01*
X81661904Y-59526247D02*
X81661904Y-59764342D01*
X81661904Y-59764342D02*
X81614285Y-59859580D01*
X81614285Y-59859580D02*
X81566666Y-59907200D01*
X81566666Y-59907200D02*
X81471428Y-59954819D01*
X81471428Y-59954819D02*
X81233333Y-59954819D01*
X81233333Y-59954819D02*
X81138095Y-59907200D01*
X81138095Y-59907200D02*
X81090476Y-59859580D01*
X92957142Y-58854819D02*
X92623809Y-58378628D01*
X92385714Y-58854819D02*
X92385714Y-57854819D01*
X92385714Y-57854819D02*
X92766666Y-57854819D01*
X92766666Y-57854819D02*
X92861904Y-57902438D01*
X92861904Y-57902438D02*
X92909523Y-57950057D01*
X92909523Y-57950057D02*
X92957142Y-58045295D01*
X92957142Y-58045295D02*
X92957142Y-58188152D01*
X92957142Y-58188152D02*
X92909523Y-58283390D01*
X92909523Y-58283390D02*
X92861904Y-58331009D01*
X92861904Y-58331009D02*
X92766666Y-58378628D01*
X92766666Y-58378628D02*
X92385714Y-58378628D01*
X93338095Y-57950057D02*
X93385714Y-57902438D01*
X93385714Y-57902438D02*
X93480952Y-57854819D01*
X93480952Y-57854819D02*
X93719047Y-57854819D01*
X93719047Y-57854819D02*
X93814285Y-57902438D01*
X93814285Y-57902438D02*
X93861904Y-57950057D01*
X93861904Y-57950057D02*
X93909523Y-58045295D01*
X93909523Y-58045295D02*
X93909523Y-58140533D01*
X93909523Y-58140533D02*
X93861904Y-58283390D01*
X93861904Y-58283390D02*
X93290476Y-58854819D01*
X93290476Y-58854819D02*
X93909523Y-58854819D01*
X94766666Y-58188152D02*
X94766666Y-58854819D01*
X94528571Y-57807200D02*
X94290476Y-58521485D01*
X94290476Y-58521485D02*
X94909523Y-58521485D01*
X67904819Y-62096666D02*
X67428628Y-62429999D01*
X67904819Y-62668094D02*
X66904819Y-62668094D01*
X66904819Y-62668094D02*
X66904819Y-62287142D01*
X66904819Y-62287142D02*
X66952438Y-62191904D01*
X66952438Y-62191904D02*
X67000057Y-62144285D01*
X67000057Y-62144285D02*
X67095295Y-62096666D01*
X67095295Y-62096666D02*
X67238152Y-62096666D01*
X67238152Y-62096666D02*
X67333390Y-62144285D01*
X67333390Y-62144285D02*
X67381009Y-62191904D01*
X67381009Y-62191904D02*
X67428628Y-62287142D01*
X67428628Y-62287142D02*
X67428628Y-62668094D01*
X66904819Y-61763332D02*
X66904819Y-61144285D01*
X66904819Y-61144285D02*
X67285771Y-61477618D01*
X67285771Y-61477618D02*
X67285771Y-61334761D01*
X67285771Y-61334761D02*
X67333390Y-61239523D01*
X67333390Y-61239523D02*
X67381009Y-61191904D01*
X67381009Y-61191904D02*
X67476247Y-61144285D01*
X67476247Y-61144285D02*
X67714342Y-61144285D01*
X67714342Y-61144285D02*
X67809580Y-61191904D01*
X67809580Y-61191904D02*
X67857200Y-61239523D01*
X67857200Y-61239523D02*
X67904819Y-61334761D01*
X67904819Y-61334761D02*
X67904819Y-61620475D01*
X67904819Y-61620475D02*
X67857200Y-61715713D01*
X67857200Y-61715713D02*
X67809580Y-61763332D01*
X91804819Y-50542857D02*
X91328628Y-50876190D01*
X91804819Y-51114285D02*
X90804819Y-51114285D01*
X90804819Y-51114285D02*
X90804819Y-50733333D01*
X90804819Y-50733333D02*
X90852438Y-50638095D01*
X90852438Y-50638095D02*
X90900057Y-50590476D01*
X90900057Y-50590476D02*
X90995295Y-50542857D01*
X90995295Y-50542857D02*
X91138152Y-50542857D01*
X91138152Y-50542857D02*
X91233390Y-50590476D01*
X91233390Y-50590476D02*
X91281009Y-50638095D01*
X91281009Y-50638095D02*
X91328628Y-50733333D01*
X91328628Y-50733333D02*
X91328628Y-51114285D01*
X90900057Y-50161904D02*
X90852438Y-50114285D01*
X90852438Y-50114285D02*
X90804819Y-50019047D01*
X90804819Y-50019047D02*
X90804819Y-49780952D01*
X90804819Y-49780952D02*
X90852438Y-49685714D01*
X90852438Y-49685714D02*
X90900057Y-49638095D01*
X90900057Y-49638095D02*
X90995295Y-49590476D01*
X90995295Y-49590476D02*
X91090533Y-49590476D01*
X91090533Y-49590476D02*
X91233390Y-49638095D01*
X91233390Y-49638095D02*
X91804819Y-50209523D01*
X91804819Y-50209523D02*
X91804819Y-49590476D01*
X90804819Y-48971428D02*
X90804819Y-48876190D01*
X90804819Y-48876190D02*
X90852438Y-48780952D01*
X90852438Y-48780952D02*
X90900057Y-48733333D01*
X90900057Y-48733333D02*
X90995295Y-48685714D01*
X90995295Y-48685714D02*
X91185771Y-48638095D01*
X91185771Y-48638095D02*
X91423866Y-48638095D01*
X91423866Y-48638095D02*
X91614342Y-48685714D01*
X91614342Y-48685714D02*
X91709580Y-48733333D01*
X91709580Y-48733333D02*
X91757200Y-48780952D01*
X91757200Y-48780952D02*
X91804819Y-48876190D01*
X91804819Y-48876190D02*
X91804819Y-48971428D01*
X91804819Y-48971428D02*
X91757200Y-49066666D01*
X91757200Y-49066666D02*
X91709580Y-49114285D01*
X91709580Y-49114285D02*
X91614342Y-49161904D01*
X91614342Y-49161904D02*
X91423866Y-49209523D01*
X91423866Y-49209523D02*
X91185771Y-49209523D01*
X91185771Y-49209523D02*
X90995295Y-49161904D01*
X90995295Y-49161904D02*
X90900057Y-49114285D01*
X90900057Y-49114285D02*
X90852438Y-49066666D01*
X90852438Y-49066666D02*
X90804819Y-48971428D01*
X53421485Y-53516666D02*
X52945294Y-53849999D01*
X53421485Y-54088094D02*
X52421485Y-54088094D01*
X52421485Y-54088094D02*
X52421485Y-53707142D01*
X52421485Y-53707142D02*
X52469104Y-53611904D01*
X52469104Y-53611904D02*
X52516723Y-53564285D01*
X52516723Y-53564285D02*
X52611961Y-53516666D01*
X52611961Y-53516666D02*
X52754818Y-53516666D01*
X52754818Y-53516666D02*
X52850056Y-53564285D01*
X52850056Y-53564285D02*
X52897675Y-53611904D01*
X52897675Y-53611904D02*
X52945294Y-53707142D01*
X52945294Y-53707142D02*
X52945294Y-54088094D01*
X53421485Y-52564285D02*
X53421485Y-53135713D01*
X53421485Y-52849999D02*
X52421485Y-52849999D01*
X52421485Y-52849999D02*
X52564342Y-52945237D01*
X52564342Y-52945237D02*
X52659580Y-53040475D01*
X52659580Y-53040475D02*
X52707199Y-53135713D01*
X52516723Y-52183332D02*
X52469104Y-52135713D01*
X52469104Y-52135713D02*
X52421485Y-52040475D01*
X52421485Y-52040475D02*
X52421485Y-51802380D01*
X52421485Y-51802380D02*
X52469104Y-51707142D01*
X52469104Y-51707142D02*
X52516723Y-51659523D01*
X52516723Y-51659523D02*
X52611961Y-51611904D01*
X52611961Y-51611904D02*
X52707199Y-51611904D01*
X52707199Y-51611904D02*
X52850056Y-51659523D01*
X52850056Y-51659523D02*
X53421485Y-52230951D01*
X53421485Y-52230951D02*
X53421485Y-51611904D01*
X86804819Y-47842857D02*
X86328628Y-48176190D01*
X86804819Y-48414285D02*
X85804819Y-48414285D01*
X85804819Y-48414285D02*
X85804819Y-48033333D01*
X85804819Y-48033333D02*
X85852438Y-47938095D01*
X85852438Y-47938095D02*
X85900057Y-47890476D01*
X85900057Y-47890476D02*
X85995295Y-47842857D01*
X85995295Y-47842857D02*
X86138152Y-47842857D01*
X86138152Y-47842857D02*
X86233390Y-47890476D01*
X86233390Y-47890476D02*
X86281009Y-47938095D01*
X86281009Y-47938095D02*
X86328628Y-48033333D01*
X86328628Y-48033333D02*
X86328628Y-48414285D01*
X86804819Y-46890476D02*
X86804819Y-47461904D01*
X86804819Y-47176190D02*
X85804819Y-47176190D01*
X85804819Y-47176190D02*
X85947676Y-47271428D01*
X85947676Y-47271428D02*
X86042914Y-47366666D01*
X86042914Y-47366666D02*
X86090533Y-47461904D01*
X85804819Y-46557142D02*
X85804819Y-45890476D01*
X85804819Y-45890476D02*
X86804819Y-46319047D01*
X100338095Y-56254819D02*
X100338095Y-57064342D01*
X100338095Y-57064342D02*
X100385714Y-57159580D01*
X100385714Y-57159580D02*
X100433333Y-57207200D01*
X100433333Y-57207200D02*
X100528571Y-57254819D01*
X100528571Y-57254819D02*
X100719047Y-57254819D01*
X100719047Y-57254819D02*
X100814285Y-57207200D01*
X100814285Y-57207200D02*
X100861904Y-57159580D01*
X100861904Y-57159580D02*
X100909523Y-57064342D01*
X100909523Y-57064342D02*
X100909523Y-56254819D01*
X101338095Y-56350057D02*
X101385714Y-56302438D01*
X101385714Y-56302438D02*
X101480952Y-56254819D01*
X101480952Y-56254819D02*
X101719047Y-56254819D01*
X101719047Y-56254819D02*
X101814285Y-56302438D01*
X101814285Y-56302438D02*
X101861904Y-56350057D01*
X101861904Y-56350057D02*
X101909523Y-56445295D01*
X101909523Y-56445295D02*
X101909523Y-56540533D01*
X101909523Y-56540533D02*
X101861904Y-56683390D01*
X101861904Y-56683390D02*
X101290476Y-57254819D01*
X101290476Y-57254819D02*
X101909523Y-57254819D01*
X82707142Y-59804819D02*
X82373809Y-59328628D01*
X82135714Y-59804819D02*
X82135714Y-58804819D01*
X82135714Y-58804819D02*
X82516666Y-58804819D01*
X82516666Y-58804819D02*
X82611904Y-58852438D01*
X82611904Y-58852438D02*
X82659523Y-58900057D01*
X82659523Y-58900057D02*
X82707142Y-58995295D01*
X82707142Y-58995295D02*
X82707142Y-59138152D01*
X82707142Y-59138152D02*
X82659523Y-59233390D01*
X82659523Y-59233390D02*
X82611904Y-59281009D01*
X82611904Y-59281009D02*
X82516666Y-59328628D01*
X82516666Y-59328628D02*
X82135714Y-59328628D01*
X83659523Y-59804819D02*
X83088095Y-59804819D01*
X83373809Y-59804819D02*
X83373809Y-58804819D01*
X83373809Y-58804819D02*
X83278571Y-58947676D01*
X83278571Y-58947676D02*
X83183333Y-59042914D01*
X83183333Y-59042914D02*
X83088095Y-59090533D01*
X84516666Y-59138152D02*
X84516666Y-59804819D01*
X84278571Y-58757200D02*
X84040476Y-59471485D01*
X84040476Y-59471485D02*
X84659523Y-59471485D01*
X78854819Y-60438094D02*
X77854819Y-60438094D01*
X77854819Y-60438094D02*
X77854819Y-60199999D01*
X77854819Y-60199999D02*
X77902438Y-60057142D01*
X77902438Y-60057142D02*
X77997676Y-59961904D01*
X77997676Y-59961904D02*
X78092914Y-59914285D01*
X78092914Y-59914285D02*
X78283390Y-59866666D01*
X78283390Y-59866666D02*
X78426247Y-59866666D01*
X78426247Y-59866666D02*
X78616723Y-59914285D01*
X78616723Y-59914285D02*
X78711961Y-59961904D01*
X78711961Y-59961904D02*
X78807200Y-60057142D01*
X78807200Y-60057142D02*
X78854819Y-60199999D01*
X78854819Y-60199999D02*
X78854819Y-60438094D01*
X78188152Y-59009523D02*
X78854819Y-59009523D01*
X77807200Y-59247618D02*
X78521485Y-59485713D01*
X78521485Y-59485713D02*
X78521485Y-58866666D01*
X67554819Y-57818094D02*
X66554819Y-57818094D01*
X66554819Y-57818094D02*
X66554819Y-57579999D01*
X66554819Y-57579999D02*
X66602438Y-57437142D01*
X66602438Y-57437142D02*
X66697676Y-57341904D01*
X66697676Y-57341904D02*
X66792914Y-57294285D01*
X66792914Y-57294285D02*
X66983390Y-57246666D01*
X66983390Y-57246666D02*
X67126247Y-57246666D01*
X67126247Y-57246666D02*
X67316723Y-57294285D01*
X67316723Y-57294285D02*
X67411961Y-57341904D01*
X67411961Y-57341904D02*
X67507200Y-57437142D01*
X67507200Y-57437142D02*
X67554819Y-57579999D01*
X67554819Y-57579999D02*
X67554819Y-57818094D01*
X66554819Y-56913332D02*
X66554819Y-56294285D01*
X66554819Y-56294285D02*
X66935771Y-56627618D01*
X66935771Y-56627618D02*
X66935771Y-56484761D01*
X66935771Y-56484761D02*
X66983390Y-56389523D01*
X66983390Y-56389523D02*
X67031009Y-56341904D01*
X67031009Y-56341904D02*
X67126247Y-56294285D01*
X67126247Y-56294285D02*
X67364342Y-56294285D01*
X67364342Y-56294285D02*
X67459580Y-56341904D01*
X67459580Y-56341904D02*
X67507200Y-56389523D01*
X67507200Y-56389523D02*
X67554819Y-56484761D01*
X67554819Y-56484761D02*
X67554819Y-56770475D01*
X67554819Y-56770475D02*
X67507200Y-56865713D01*
X67507200Y-56865713D02*
X67459580Y-56913332D01*
X97422142Y-47759580D02*
X97374523Y-47807200D01*
X97374523Y-47807200D02*
X97231666Y-47854819D01*
X97231666Y-47854819D02*
X97136428Y-47854819D01*
X97136428Y-47854819D02*
X96993571Y-47807200D01*
X96993571Y-47807200D02*
X96898333Y-47711961D01*
X96898333Y-47711961D02*
X96850714Y-47616723D01*
X96850714Y-47616723D02*
X96803095Y-47426247D01*
X96803095Y-47426247D02*
X96803095Y-47283390D01*
X96803095Y-47283390D02*
X96850714Y-47092914D01*
X96850714Y-47092914D02*
X96898333Y-46997676D01*
X96898333Y-46997676D02*
X96993571Y-46902438D01*
X96993571Y-46902438D02*
X97136428Y-46854819D01*
X97136428Y-46854819D02*
X97231666Y-46854819D01*
X97231666Y-46854819D02*
X97374523Y-46902438D01*
X97374523Y-46902438D02*
X97422142Y-46950057D01*
X98374523Y-47854819D02*
X97803095Y-47854819D01*
X98088809Y-47854819D02*
X98088809Y-46854819D01*
X98088809Y-46854819D02*
X97993571Y-46997676D01*
X97993571Y-46997676D02*
X97898333Y-47092914D01*
X97898333Y-47092914D02*
X97803095Y-47140533D01*
X98707857Y-46854819D02*
X99326904Y-46854819D01*
X99326904Y-46854819D02*
X98993571Y-47235771D01*
X98993571Y-47235771D02*
X99136428Y-47235771D01*
X99136428Y-47235771D02*
X99231666Y-47283390D01*
X99231666Y-47283390D02*
X99279285Y-47331009D01*
X99279285Y-47331009D02*
X99326904Y-47426247D01*
X99326904Y-47426247D02*
X99326904Y-47664342D01*
X99326904Y-47664342D02*
X99279285Y-47759580D01*
X99279285Y-47759580D02*
X99231666Y-47807200D01*
X99231666Y-47807200D02*
X99136428Y-47854819D01*
X99136428Y-47854819D02*
X98850714Y-47854819D01*
X98850714Y-47854819D02*
X98755476Y-47807200D01*
X98755476Y-47807200D02*
X98707857Y-47759580D01*
X83183333Y-55259580D02*
X83135714Y-55307200D01*
X83135714Y-55307200D02*
X82992857Y-55354819D01*
X82992857Y-55354819D02*
X82897619Y-55354819D01*
X82897619Y-55354819D02*
X82754762Y-55307200D01*
X82754762Y-55307200D02*
X82659524Y-55211961D01*
X82659524Y-55211961D02*
X82611905Y-55116723D01*
X82611905Y-55116723D02*
X82564286Y-54926247D01*
X82564286Y-54926247D02*
X82564286Y-54783390D01*
X82564286Y-54783390D02*
X82611905Y-54592914D01*
X82611905Y-54592914D02*
X82659524Y-54497676D01*
X82659524Y-54497676D02*
X82754762Y-54402438D01*
X82754762Y-54402438D02*
X82897619Y-54354819D01*
X82897619Y-54354819D02*
X82992857Y-54354819D01*
X82992857Y-54354819D02*
X83135714Y-54402438D01*
X83135714Y-54402438D02*
X83183333Y-54450057D01*
X83754762Y-54783390D02*
X83659524Y-54735771D01*
X83659524Y-54735771D02*
X83611905Y-54688152D01*
X83611905Y-54688152D02*
X83564286Y-54592914D01*
X83564286Y-54592914D02*
X83564286Y-54545295D01*
X83564286Y-54545295D02*
X83611905Y-54450057D01*
X83611905Y-54450057D02*
X83659524Y-54402438D01*
X83659524Y-54402438D02*
X83754762Y-54354819D01*
X83754762Y-54354819D02*
X83945238Y-54354819D01*
X83945238Y-54354819D02*
X84040476Y-54402438D01*
X84040476Y-54402438D02*
X84088095Y-54450057D01*
X84088095Y-54450057D02*
X84135714Y-54545295D01*
X84135714Y-54545295D02*
X84135714Y-54592914D01*
X84135714Y-54592914D02*
X84088095Y-54688152D01*
X84088095Y-54688152D02*
X84040476Y-54735771D01*
X84040476Y-54735771D02*
X83945238Y-54783390D01*
X83945238Y-54783390D02*
X83754762Y-54783390D01*
X83754762Y-54783390D02*
X83659524Y-54831009D01*
X83659524Y-54831009D02*
X83611905Y-54878628D01*
X83611905Y-54878628D02*
X83564286Y-54973866D01*
X83564286Y-54973866D02*
X83564286Y-55164342D01*
X83564286Y-55164342D02*
X83611905Y-55259580D01*
X83611905Y-55259580D02*
X83659524Y-55307200D01*
X83659524Y-55307200D02*
X83754762Y-55354819D01*
X83754762Y-55354819D02*
X83945238Y-55354819D01*
X83945238Y-55354819D02*
X84040476Y-55307200D01*
X84040476Y-55307200D02*
X84088095Y-55259580D01*
X84088095Y-55259580D02*
X84135714Y-55164342D01*
X84135714Y-55164342D02*
X84135714Y-54973866D01*
X84135714Y-54973866D02*
X84088095Y-54878628D01*
X84088095Y-54878628D02*
X84040476Y-54831009D01*
X84040476Y-54831009D02*
X83945238Y-54783390D01*
X56959580Y-42116666D02*
X57007200Y-42164285D01*
X57007200Y-42164285D02*
X57054819Y-42307142D01*
X57054819Y-42307142D02*
X57054819Y-42402380D01*
X57054819Y-42402380D02*
X57007200Y-42545237D01*
X57007200Y-42545237D02*
X56911961Y-42640475D01*
X56911961Y-42640475D02*
X56816723Y-42688094D01*
X56816723Y-42688094D02*
X56626247Y-42735713D01*
X56626247Y-42735713D02*
X56483390Y-42735713D01*
X56483390Y-42735713D02*
X56292914Y-42688094D01*
X56292914Y-42688094D02*
X56197676Y-42640475D01*
X56197676Y-42640475D02*
X56102438Y-42545237D01*
X56102438Y-42545237D02*
X56054819Y-42402380D01*
X56054819Y-42402380D02*
X56054819Y-42307142D01*
X56054819Y-42307142D02*
X56102438Y-42164285D01*
X56102438Y-42164285D02*
X56150057Y-42116666D01*
X56054819Y-41783332D02*
X56054819Y-41164285D01*
X56054819Y-41164285D02*
X56435771Y-41497618D01*
X56435771Y-41497618D02*
X56435771Y-41354761D01*
X56435771Y-41354761D02*
X56483390Y-41259523D01*
X56483390Y-41259523D02*
X56531009Y-41211904D01*
X56531009Y-41211904D02*
X56626247Y-41164285D01*
X56626247Y-41164285D02*
X56864342Y-41164285D01*
X56864342Y-41164285D02*
X56959580Y-41211904D01*
X56959580Y-41211904D02*
X57007200Y-41259523D01*
X57007200Y-41259523D02*
X57054819Y-41354761D01*
X57054819Y-41354761D02*
X57054819Y-41640475D01*
X57054819Y-41640475D02*
X57007200Y-41735713D01*
X57007200Y-41735713D02*
X56959580Y-41783332D01*
X104382142Y-54792319D02*
X104048809Y-54316128D01*
X103810714Y-54792319D02*
X103810714Y-53792319D01*
X103810714Y-53792319D02*
X104191666Y-53792319D01*
X104191666Y-53792319D02*
X104286904Y-53839938D01*
X104286904Y-53839938D02*
X104334523Y-53887557D01*
X104334523Y-53887557D02*
X104382142Y-53982795D01*
X104382142Y-53982795D02*
X104382142Y-54125652D01*
X104382142Y-54125652D02*
X104334523Y-54220890D01*
X104334523Y-54220890D02*
X104286904Y-54268509D01*
X104286904Y-54268509D02*
X104191666Y-54316128D01*
X104191666Y-54316128D02*
X103810714Y-54316128D01*
X104763095Y-53887557D02*
X104810714Y-53839938D01*
X104810714Y-53839938D02*
X104905952Y-53792319D01*
X104905952Y-53792319D02*
X105144047Y-53792319D01*
X105144047Y-53792319D02*
X105239285Y-53839938D01*
X105239285Y-53839938D02*
X105286904Y-53887557D01*
X105286904Y-53887557D02*
X105334523Y-53982795D01*
X105334523Y-53982795D02*
X105334523Y-54078033D01*
X105334523Y-54078033D02*
X105286904Y-54220890D01*
X105286904Y-54220890D02*
X104715476Y-54792319D01*
X104715476Y-54792319D02*
X105334523Y-54792319D01*
X105667857Y-53792319D02*
X106286904Y-53792319D01*
X106286904Y-53792319D02*
X105953571Y-54173271D01*
X105953571Y-54173271D02*
X106096428Y-54173271D01*
X106096428Y-54173271D02*
X106191666Y-54220890D01*
X106191666Y-54220890D02*
X106239285Y-54268509D01*
X106239285Y-54268509D02*
X106286904Y-54363747D01*
X106286904Y-54363747D02*
X106286904Y-54601842D01*
X106286904Y-54601842D02*
X106239285Y-54697080D01*
X106239285Y-54697080D02*
X106191666Y-54744700D01*
X106191666Y-54744700D02*
X106096428Y-54792319D01*
X106096428Y-54792319D02*
X105810714Y-54792319D01*
X105810714Y-54792319D02*
X105715476Y-54744700D01*
X105715476Y-54744700D02*
X105667857Y-54697080D01*
X51389580Y-44116666D02*
X51437200Y-44164285D01*
X51437200Y-44164285D02*
X51484819Y-44307142D01*
X51484819Y-44307142D02*
X51484819Y-44402380D01*
X51484819Y-44402380D02*
X51437200Y-44545237D01*
X51437200Y-44545237D02*
X51341961Y-44640475D01*
X51341961Y-44640475D02*
X51246723Y-44688094D01*
X51246723Y-44688094D02*
X51056247Y-44735713D01*
X51056247Y-44735713D02*
X50913390Y-44735713D01*
X50913390Y-44735713D02*
X50722914Y-44688094D01*
X50722914Y-44688094D02*
X50627676Y-44640475D01*
X50627676Y-44640475D02*
X50532438Y-44545237D01*
X50532438Y-44545237D02*
X50484819Y-44402380D01*
X50484819Y-44402380D02*
X50484819Y-44307142D01*
X50484819Y-44307142D02*
X50532438Y-44164285D01*
X50532438Y-44164285D02*
X50580057Y-44116666D01*
X51484819Y-43164285D02*
X51484819Y-43735713D01*
X51484819Y-43449999D02*
X50484819Y-43449999D01*
X50484819Y-43449999D02*
X50627676Y-43545237D01*
X50627676Y-43545237D02*
X50722914Y-43640475D01*
X50722914Y-43640475D02*
X50770533Y-43735713D01*
X79957142Y-49459580D02*
X79909523Y-49507200D01*
X79909523Y-49507200D02*
X79766666Y-49554819D01*
X79766666Y-49554819D02*
X79671428Y-49554819D01*
X79671428Y-49554819D02*
X79528571Y-49507200D01*
X79528571Y-49507200D02*
X79433333Y-49411961D01*
X79433333Y-49411961D02*
X79385714Y-49316723D01*
X79385714Y-49316723D02*
X79338095Y-49126247D01*
X79338095Y-49126247D02*
X79338095Y-48983390D01*
X79338095Y-48983390D02*
X79385714Y-48792914D01*
X79385714Y-48792914D02*
X79433333Y-48697676D01*
X79433333Y-48697676D02*
X79528571Y-48602438D01*
X79528571Y-48602438D02*
X79671428Y-48554819D01*
X79671428Y-48554819D02*
X79766666Y-48554819D01*
X79766666Y-48554819D02*
X79909523Y-48602438D01*
X79909523Y-48602438D02*
X79957142Y-48650057D01*
X80909523Y-49554819D02*
X80338095Y-49554819D01*
X80623809Y-49554819D02*
X80623809Y-48554819D01*
X80623809Y-48554819D02*
X80528571Y-48697676D01*
X80528571Y-48697676D02*
X80433333Y-48792914D01*
X80433333Y-48792914D02*
X80338095Y-48840533D01*
X81242857Y-48554819D02*
X81909523Y-48554819D01*
X81909523Y-48554819D02*
X81480952Y-49554819D01*
X80854819Y-44138094D02*
X79854819Y-44138094D01*
X79854819Y-44138094D02*
X79854819Y-43899999D01*
X79854819Y-43899999D02*
X79902438Y-43757142D01*
X79902438Y-43757142D02*
X79997676Y-43661904D01*
X79997676Y-43661904D02*
X80092914Y-43614285D01*
X80092914Y-43614285D02*
X80283390Y-43566666D01*
X80283390Y-43566666D02*
X80426247Y-43566666D01*
X80426247Y-43566666D02*
X80616723Y-43614285D01*
X80616723Y-43614285D02*
X80711961Y-43661904D01*
X80711961Y-43661904D02*
X80807200Y-43757142D01*
X80807200Y-43757142D02*
X80854819Y-43899999D01*
X80854819Y-43899999D02*
X80854819Y-44138094D01*
X79950057Y-43185713D02*
X79902438Y-43138094D01*
X79902438Y-43138094D02*
X79854819Y-43042856D01*
X79854819Y-43042856D02*
X79854819Y-42804761D01*
X79854819Y-42804761D02*
X79902438Y-42709523D01*
X79902438Y-42709523D02*
X79950057Y-42661904D01*
X79950057Y-42661904D02*
X80045295Y-42614285D01*
X80045295Y-42614285D02*
X80140533Y-42614285D01*
X80140533Y-42614285D02*
X80283390Y-42661904D01*
X80283390Y-42661904D02*
X80854819Y-43233332D01*
X80854819Y-43233332D02*
X80854819Y-42614285D01*
X97507142Y-56309580D02*
X97459523Y-56357200D01*
X97459523Y-56357200D02*
X97316666Y-56404819D01*
X97316666Y-56404819D02*
X97221428Y-56404819D01*
X97221428Y-56404819D02*
X97078571Y-56357200D01*
X97078571Y-56357200D02*
X96983333Y-56261961D01*
X96983333Y-56261961D02*
X96935714Y-56166723D01*
X96935714Y-56166723D02*
X96888095Y-55976247D01*
X96888095Y-55976247D02*
X96888095Y-55833390D01*
X96888095Y-55833390D02*
X96935714Y-55642914D01*
X96935714Y-55642914D02*
X96983333Y-55547676D01*
X96983333Y-55547676D02*
X97078571Y-55452438D01*
X97078571Y-55452438D02*
X97221428Y-55404819D01*
X97221428Y-55404819D02*
X97316666Y-55404819D01*
X97316666Y-55404819D02*
X97459523Y-55452438D01*
X97459523Y-55452438D02*
X97507142Y-55500057D01*
X98459523Y-56404819D02*
X97888095Y-56404819D01*
X98173809Y-56404819D02*
X98173809Y-55404819D01*
X98173809Y-55404819D02*
X98078571Y-55547676D01*
X98078571Y-55547676D02*
X97983333Y-55642914D01*
X97983333Y-55642914D02*
X97888095Y-55690533D01*
X98840476Y-55500057D02*
X98888095Y-55452438D01*
X98888095Y-55452438D02*
X98983333Y-55404819D01*
X98983333Y-55404819D02*
X99221428Y-55404819D01*
X99221428Y-55404819D02*
X99316666Y-55452438D01*
X99316666Y-55452438D02*
X99364285Y-55500057D01*
X99364285Y-55500057D02*
X99411904Y-55595295D01*
X99411904Y-55595295D02*
X99411904Y-55690533D01*
X99411904Y-55690533D02*
X99364285Y-55833390D01*
X99364285Y-55833390D02*
X98792857Y-56404819D01*
X98792857Y-56404819D02*
X99411904Y-56404819D01*
X64454819Y-52516666D02*
X63978628Y-52849999D01*
X64454819Y-53088094D02*
X63454819Y-53088094D01*
X63454819Y-53088094D02*
X63454819Y-52707142D01*
X63454819Y-52707142D02*
X63502438Y-52611904D01*
X63502438Y-52611904D02*
X63550057Y-52564285D01*
X63550057Y-52564285D02*
X63645295Y-52516666D01*
X63645295Y-52516666D02*
X63788152Y-52516666D01*
X63788152Y-52516666D02*
X63883390Y-52564285D01*
X63883390Y-52564285D02*
X63931009Y-52611904D01*
X63931009Y-52611904D02*
X63978628Y-52707142D01*
X63978628Y-52707142D02*
X63978628Y-53088094D01*
X64454819Y-52040475D02*
X64454819Y-51849999D01*
X64454819Y-51849999D02*
X64407200Y-51754761D01*
X64407200Y-51754761D02*
X64359580Y-51707142D01*
X64359580Y-51707142D02*
X64216723Y-51611904D01*
X64216723Y-51611904D02*
X64026247Y-51564285D01*
X64026247Y-51564285D02*
X63645295Y-51564285D01*
X63645295Y-51564285D02*
X63550057Y-51611904D01*
X63550057Y-51611904D02*
X63502438Y-51659523D01*
X63502438Y-51659523D02*
X63454819Y-51754761D01*
X63454819Y-51754761D02*
X63454819Y-51945237D01*
X63454819Y-51945237D02*
X63502438Y-52040475D01*
X63502438Y-52040475D02*
X63550057Y-52088094D01*
X63550057Y-52088094D02*
X63645295Y-52135713D01*
X63645295Y-52135713D02*
X63883390Y-52135713D01*
X63883390Y-52135713D02*
X63978628Y-52088094D01*
X63978628Y-52088094D02*
X64026247Y-52040475D01*
X64026247Y-52040475D02*
X64073866Y-51945237D01*
X64073866Y-51945237D02*
X64073866Y-51754761D01*
X64073866Y-51754761D02*
X64026247Y-51659523D01*
X64026247Y-51659523D02*
X63978628Y-51611904D01*
X63978628Y-51611904D02*
X63883390Y-51564285D01*
X82384580Y-47261666D02*
X82432200Y-47309285D01*
X82432200Y-47309285D02*
X82479819Y-47452142D01*
X82479819Y-47452142D02*
X82479819Y-47547380D01*
X82479819Y-47547380D02*
X82432200Y-47690237D01*
X82432200Y-47690237D02*
X82336961Y-47785475D01*
X82336961Y-47785475D02*
X82241723Y-47833094D01*
X82241723Y-47833094D02*
X82051247Y-47880713D01*
X82051247Y-47880713D02*
X81908390Y-47880713D01*
X81908390Y-47880713D02*
X81717914Y-47833094D01*
X81717914Y-47833094D02*
X81622676Y-47785475D01*
X81622676Y-47785475D02*
X81527438Y-47690237D01*
X81527438Y-47690237D02*
X81479819Y-47547380D01*
X81479819Y-47547380D02*
X81479819Y-47452142D01*
X81479819Y-47452142D02*
X81527438Y-47309285D01*
X81527438Y-47309285D02*
X81575057Y-47261666D01*
X81479819Y-46928332D02*
X81479819Y-46261666D01*
X81479819Y-46261666D02*
X82479819Y-46690237D01*
X105109580Y-44622857D02*
X105157200Y-44670476D01*
X105157200Y-44670476D02*
X105204819Y-44813333D01*
X105204819Y-44813333D02*
X105204819Y-44908571D01*
X105204819Y-44908571D02*
X105157200Y-45051428D01*
X105157200Y-45051428D02*
X105061961Y-45146666D01*
X105061961Y-45146666D02*
X104966723Y-45194285D01*
X104966723Y-45194285D02*
X104776247Y-45241904D01*
X104776247Y-45241904D02*
X104633390Y-45241904D01*
X104633390Y-45241904D02*
X104442914Y-45194285D01*
X104442914Y-45194285D02*
X104347676Y-45146666D01*
X104347676Y-45146666D02*
X104252438Y-45051428D01*
X104252438Y-45051428D02*
X104204819Y-44908571D01*
X104204819Y-44908571D02*
X104204819Y-44813333D01*
X104204819Y-44813333D02*
X104252438Y-44670476D01*
X104252438Y-44670476D02*
X104300057Y-44622857D01*
X105204819Y-43670476D02*
X105204819Y-44241904D01*
X105204819Y-43956190D02*
X104204819Y-43956190D01*
X104204819Y-43956190D02*
X104347676Y-44051428D01*
X104347676Y-44051428D02*
X104442914Y-44146666D01*
X104442914Y-44146666D02*
X104490533Y-44241904D01*
X104633390Y-43099047D02*
X104585771Y-43194285D01*
X104585771Y-43194285D02*
X104538152Y-43241904D01*
X104538152Y-43241904D02*
X104442914Y-43289523D01*
X104442914Y-43289523D02*
X104395295Y-43289523D01*
X104395295Y-43289523D02*
X104300057Y-43241904D01*
X104300057Y-43241904D02*
X104252438Y-43194285D01*
X104252438Y-43194285D02*
X104204819Y-43099047D01*
X104204819Y-43099047D02*
X104204819Y-42908571D01*
X104204819Y-42908571D02*
X104252438Y-42813333D01*
X104252438Y-42813333D02*
X104300057Y-42765714D01*
X104300057Y-42765714D02*
X104395295Y-42718095D01*
X104395295Y-42718095D02*
X104442914Y-42718095D01*
X104442914Y-42718095D02*
X104538152Y-42765714D01*
X104538152Y-42765714D02*
X104585771Y-42813333D01*
X104585771Y-42813333D02*
X104633390Y-42908571D01*
X104633390Y-42908571D02*
X104633390Y-43099047D01*
X104633390Y-43099047D02*
X104681009Y-43194285D01*
X104681009Y-43194285D02*
X104728628Y-43241904D01*
X104728628Y-43241904D02*
X104823866Y-43289523D01*
X104823866Y-43289523D02*
X105014342Y-43289523D01*
X105014342Y-43289523D02*
X105109580Y-43241904D01*
X105109580Y-43241904D02*
X105157200Y-43194285D01*
X105157200Y-43194285D02*
X105204819Y-43099047D01*
X105204819Y-43099047D02*
X105204819Y-42908571D01*
X105204819Y-42908571D02*
X105157200Y-42813333D01*
X105157200Y-42813333D02*
X105109580Y-42765714D01*
X105109580Y-42765714D02*
X105014342Y-42718095D01*
X105014342Y-42718095D02*
X104823866Y-42718095D01*
X104823866Y-42718095D02*
X104728628Y-42765714D01*
X104728628Y-42765714D02*
X104681009Y-42813333D01*
X104681009Y-42813333D02*
X104633390Y-42908571D01*
X82479819Y-45387857D02*
X82003628Y-45721190D01*
X82479819Y-45959285D02*
X81479819Y-45959285D01*
X81479819Y-45959285D02*
X81479819Y-45578333D01*
X81479819Y-45578333D02*
X81527438Y-45483095D01*
X81527438Y-45483095D02*
X81575057Y-45435476D01*
X81575057Y-45435476D02*
X81670295Y-45387857D01*
X81670295Y-45387857D02*
X81813152Y-45387857D01*
X81813152Y-45387857D02*
X81908390Y-45435476D01*
X81908390Y-45435476D02*
X81956009Y-45483095D01*
X81956009Y-45483095D02*
X82003628Y-45578333D01*
X82003628Y-45578333D02*
X82003628Y-45959285D01*
X82479819Y-44435476D02*
X82479819Y-45006904D01*
X82479819Y-44721190D02*
X81479819Y-44721190D01*
X81479819Y-44721190D02*
X81622676Y-44816428D01*
X81622676Y-44816428D02*
X81717914Y-44911666D01*
X81717914Y-44911666D02*
X81765533Y-45006904D01*
X81479819Y-44102142D02*
X81479819Y-43483095D01*
X81479819Y-43483095D02*
X81860771Y-43816428D01*
X81860771Y-43816428D02*
X81860771Y-43673571D01*
X81860771Y-43673571D02*
X81908390Y-43578333D01*
X81908390Y-43578333D02*
X81956009Y-43530714D01*
X81956009Y-43530714D02*
X82051247Y-43483095D01*
X82051247Y-43483095D02*
X82289342Y-43483095D01*
X82289342Y-43483095D02*
X82384580Y-43530714D01*
X82384580Y-43530714D02*
X82432200Y-43578333D01*
X82432200Y-43578333D02*
X82479819Y-43673571D01*
X82479819Y-43673571D02*
X82479819Y-43959285D01*
X82479819Y-43959285D02*
X82432200Y-44054523D01*
X82432200Y-44054523D02*
X82384580Y-44102142D01*
X90159580Y-56742857D02*
X90207200Y-56790476D01*
X90207200Y-56790476D02*
X90254819Y-56933333D01*
X90254819Y-56933333D02*
X90254819Y-57028571D01*
X90254819Y-57028571D02*
X90207200Y-57171428D01*
X90207200Y-57171428D02*
X90111961Y-57266666D01*
X90111961Y-57266666D02*
X90016723Y-57314285D01*
X90016723Y-57314285D02*
X89826247Y-57361904D01*
X89826247Y-57361904D02*
X89683390Y-57361904D01*
X89683390Y-57361904D02*
X89492914Y-57314285D01*
X89492914Y-57314285D02*
X89397676Y-57266666D01*
X89397676Y-57266666D02*
X89302438Y-57171428D01*
X89302438Y-57171428D02*
X89254819Y-57028571D01*
X89254819Y-57028571D02*
X89254819Y-56933333D01*
X89254819Y-56933333D02*
X89302438Y-56790476D01*
X89302438Y-56790476D02*
X89350057Y-56742857D01*
X90254819Y-55790476D02*
X90254819Y-56361904D01*
X90254819Y-56076190D02*
X89254819Y-56076190D01*
X89254819Y-56076190D02*
X89397676Y-56171428D01*
X89397676Y-56171428D02*
X89492914Y-56266666D01*
X89492914Y-56266666D02*
X89540533Y-56361904D01*
X89254819Y-54933333D02*
X89254819Y-55123809D01*
X89254819Y-55123809D02*
X89302438Y-55219047D01*
X89302438Y-55219047D02*
X89350057Y-55266666D01*
X89350057Y-55266666D02*
X89492914Y-55361904D01*
X89492914Y-55361904D02*
X89683390Y-55409523D01*
X89683390Y-55409523D02*
X90064342Y-55409523D01*
X90064342Y-55409523D02*
X90159580Y-55361904D01*
X90159580Y-55361904D02*
X90207200Y-55314285D01*
X90207200Y-55314285D02*
X90254819Y-55219047D01*
X90254819Y-55219047D02*
X90254819Y-55028571D01*
X90254819Y-55028571D02*
X90207200Y-54933333D01*
X90207200Y-54933333D02*
X90159580Y-54885714D01*
X90159580Y-54885714D02*
X90064342Y-54838095D01*
X90064342Y-54838095D02*
X89826247Y-54838095D01*
X89826247Y-54838095D02*
X89731009Y-54885714D01*
X89731009Y-54885714D02*
X89683390Y-54933333D01*
X89683390Y-54933333D02*
X89635771Y-55028571D01*
X89635771Y-55028571D02*
X89635771Y-55219047D01*
X89635771Y-55219047D02*
X89683390Y-55314285D01*
X89683390Y-55314285D02*
X89731009Y-55361904D01*
X89731009Y-55361904D02*
X89826247Y-55409523D01*
X74104819Y-52616666D02*
X73628628Y-52949999D01*
X74104819Y-53188094D02*
X73104819Y-53188094D01*
X73104819Y-53188094D02*
X73104819Y-52807142D01*
X73104819Y-52807142D02*
X73152438Y-52711904D01*
X73152438Y-52711904D02*
X73200057Y-52664285D01*
X73200057Y-52664285D02*
X73295295Y-52616666D01*
X73295295Y-52616666D02*
X73438152Y-52616666D01*
X73438152Y-52616666D02*
X73533390Y-52664285D01*
X73533390Y-52664285D02*
X73581009Y-52711904D01*
X73581009Y-52711904D02*
X73628628Y-52807142D01*
X73628628Y-52807142D02*
X73628628Y-53188094D01*
X73200057Y-52235713D02*
X73152438Y-52188094D01*
X73152438Y-52188094D02*
X73104819Y-52092856D01*
X73104819Y-52092856D02*
X73104819Y-51854761D01*
X73104819Y-51854761D02*
X73152438Y-51759523D01*
X73152438Y-51759523D02*
X73200057Y-51711904D01*
X73200057Y-51711904D02*
X73295295Y-51664285D01*
X73295295Y-51664285D02*
X73390533Y-51664285D01*
X73390533Y-51664285D02*
X73533390Y-51711904D01*
X73533390Y-51711904D02*
X74104819Y-52283332D01*
X74104819Y-52283332D02*
X74104819Y-51664285D01*
X103888095Y-48886819D02*
X104459523Y-48886819D01*
X104173809Y-49886819D02*
X104173809Y-48886819D01*
X104792857Y-49886819D02*
X104792857Y-48886819D01*
X104792857Y-48886819D02*
X105173809Y-48886819D01*
X105173809Y-48886819D02*
X105269047Y-48934438D01*
X105269047Y-48934438D02*
X105316666Y-48982057D01*
X105316666Y-48982057D02*
X105364285Y-49077295D01*
X105364285Y-49077295D02*
X105364285Y-49220152D01*
X105364285Y-49220152D02*
X105316666Y-49315390D01*
X105316666Y-49315390D02*
X105269047Y-49363009D01*
X105269047Y-49363009D02*
X105173809Y-49410628D01*
X105173809Y-49410628D02*
X104792857Y-49410628D01*
X106269047Y-48886819D02*
X105792857Y-48886819D01*
X105792857Y-48886819D02*
X105745238Y-49363009D01*
X105745238Y-49363009D02*
X105792857Y-49315390D01*
X105792857Y-49315390D02*
X105888095Y-49267771D01*
X105888095Y-49267771D02*
X106126190Y-49267771D01*
X106126190Y-49267771D02*
X106221428Y-49315390D01*
X106221428Y-49315390D02*
X106269047Y-49363009D01*
X106269047Y-49363009D02*
X106316666Y-49458247D01*
X106316666Y-49458247D02*
X106316666Y-49696342D01*
X106316666Y-49696342D02*
X106269047Y-49791580D01*
X106269047Y-49791580D02*
X106221428Y-49839200D01*
X106221428Y-49839200D02*
X106126190Y-49886819D01*
X106126190Y-49886819D02*
X105888095Y-49886819D01*
X105888095Y-49886819D02*
X105792857Y-49839200D01*
X105792857Y-49839200D02*
X105745238Y-49791580D01*
D11*
%TO.C,C19*%
X96760000Y-44170580D02*
X96760000Y-43889420D01*
X97780000Y-44170580D02*
X97780000Y-43889420D01*
%TO.C,TP3*%
X90100000Y-43230000D02*
G75*
G03*
X90100000Y-43230000I-950000J0D01*
G01*
%TO.C,R21*%
X93362742Y-54477500D02*
X93837258Y-54477500D01*
X93362742Y-55522500D02*
X93837258Y-55522500D01*
%TO.C,C6*%
X56060000Y-59045580D02*
X56060000Y-58764420D01*
X57080000Y-59045580D02*
X57080000Y-58764420D01*
%TO.C,J2*%
X96870000Y-65260000D02*
X96870000Y-63930000D01*
X98200000Y-65260000D02*
X96870000Y-65260000D01*
X99470000Y-65260000D02*
X107150000Y-65260000D01*
X99470000Y-65260000D02*
X99470000Y-62600000D01*
X107150000Y-65260000D02*
X107150000Y-62600000D01*
X99470000Y-62600000D02*
X107150000Y-62600000D01*
%TO.C,C5*%
X54260000Y-59045580D02*
X54260000Y-58764420D01*
X55280000Y-59045580D02*
X55280000Y-58764420D01*
%TO.C,C15*%
X97072500Y-58889420D02*
X97072500Y-59170580D01*
X96052500Y-58889420D02*
X96052500Y-59170580D01*
%TO.C,TP1*%
X59600000Y-45030000D02*
G75*
G03*
X59600000Y-45030000I-950000J0D01*
G01*
%TO.C,R8*%
X56047500Y-47887258D02*
X56047500Y-47412742D01*
X57092500Y-47887258D02*
X57092500Y-47412742D01*
%TO.C,L1*%
X91380000Y-46247221D02*
X91380000Y-46572779D01*
X90360000Y-46247221D02*
X90360000Y-46572779D01*
%TO.C,U4*%
X100370000Y-42470000D02*
X98570000Y-42470000D01*
X100370000Y-42470000D02*
X101170000Y-42470000D01*
X100370000Y-45590000D02*
X99570000Y-45590000D01*
X100370000Y-45590000D02*
X101170000Y-45590000D01*
%TO.C,R5*%
X51672500Y-55442742D02*
X51672500Y-55917258D01*
X50627500Y-55442742D02*
X50627500Y-55917258D01*
%TO.C,U1*%
X88685000Y-51630000D02*
X88685000Y-48755000D01*
X88685000Y-51630000D02*
X88685000Y-53130000D01*
X85465000Y-51630000D02*
X85465000Y-50130000D01*
X85465000Y-51630000D02*
X85465000Y-53130000D01*
%TO.C,R16*%
X82122500Y-51817742D02*
X82122500Y-52292258D01*
X81077500Y-51817742D02*
X81077500Y-52292258D01*
%TO.C,R22*%
X100627500Y-51592258D02*
X100627500Y-51117742D01*
X101672500Y-51592258D02*
X101672500Y-51117742D01*
%TO.C,C2*%
X55280000Y-44159420D02*
X55280000Y-44440580D01*
X54260000Y-44159420D02*
X54260000Y-44440580D01*
%TO.C,R18*%
X86762742Y-56107500D02*
X87237258Y-56107500D01*
X86762742Y-57152500D02*
X87237258Y-57152500D01*
%TO.C,C10*%
X86859420Y-57820000D02*
X87140580Y-57820000D01*
X86859420Y-58840000D02*
X87140580Y-58840000D01*
%TO.C,R4*%
X50627500Y-47887258D02*
X50627500Y-47412742D01*
X51672500Y-47887258D02*
X51672500Y-47412742D01*
%TO.C,R19*%
X93212742Y-48077500D02*
X93687258Y-48077500D01*
X93212742Y-49122500D02*
X93687258Y-49122500D01*
%TO.C,L2*%
X90590000Y-57662779D02*
X90590000Y-57337221D01*
X91610000Y-57662779D02*
X91610000Y-57337221D01*
%TO.C,C4*%
X53480000Y-60575000D02*
X52980000Y-61075000D01*
X53480000Y-57975000D02*
X52980000Y-57475000D01*
X48580000Y-61075000D02*
X49080000Y-61075000D01*
X48580000Y-61075000D02*
X48580000Y-60575000D01*
X48580000Y-57475000D02*
X49080000Y-57475000D01*
X48580000Y-57475000D02*
X48580000Y-57975000D01*
%TO.C,TP2*%
X59600000Y-58130000D02*
G75*
G03*
X59600000Y-58130000I-950000J0D01*
G01*
%TO.C,R7*%
X55292500Y-47412742D02*
X55292500Y-47887258D01*
X54247500Y-47412742D02*
X54247500Y-47887258D01*
%TO.C,J1*%
X48870000Y-65260000D02*
X48870000Y-63930000D01*
X50200000Y-65260000D02*
X48870000Y-65260000D01*
X51470000Y-65260000D02*
X59150000Y-65260000D01*
X51470000Y-65260000D02*
X51470000Y-62600000D01*
X59150000Y-65260000D02*
X59150000Y-62600000D01*
X51470000Y-62600000D02*
X59150000Y-62600000D01*
%TO.C,U3*%
X98800000Y-51720000D02*
X98800000Y-49920000D01*
X98800000Y-51720000D02*
X98800000Y-52520000D01*
X95680000Y-51720000D02*
X95680000Y-50920000D01*
X95680000Y-51720000D02*
X95680000Y-52520000D01*
%TO.C,R26*%
X77552500Y-46087258D02*
X77552500Y-45612742D01*
X78597500Y-46087258D02*
X78597500Y-45612742D01*
%TO.C,C11*%
X102390000Y-51495580D02*
X102390000Y-51214420D01*
X103410000Y-51495580D02*
X103410000Y-51214420D01*
%TO.C,R10*%
X57092500Y-55442742D02*
X57092500Y-55917258D01*
X56047500Y-55442742D02*
X56047500Y-55917258D01*
%TO.C,R11*%
X54247500Y-55917258D02*
X54247500Y-55442742D01*
X55292500Y-55917258D02*
X55292500Y-55442742D01*
%TO.C,R15*%
X83772500Y-51817742D02*
X83772500Y-52292258D01*
X82727500Y-51817742D02*
X82727500Y-52292258D01*
%TO.C,D1*%
X67850000Y-47690000D02*
X69550000Y-47690000D01*
X67850000Y-47690000D02*
X67850000Y-45030000D01*
X69550000Y-47690000D02*
X69550000Y-45030000D01*
%TO.C,TP4*%
X90400000Y-59880000D02*
G75*
G03*
X90400000Y-59880000I-950000J0D01*
G01*
%TO.C,R6*%
X52427500Y-47887258D02*
X52427500Y-47412742D01*
X53472500Y-47887258D02*
X53472500Y-47412742D01*
%TO.C,C14*%
X103247500Y-58839420D02*
X103247500Y-59120580D01*
X102227500Y-58839420D02*
X102227500Y-59120580D01*
%TO.C,R1*%
X68177500Y-51917258D02*
X68177500Y-51442742D01*
X69222500Y-51917258D02*
X69222500Y-51442742D01*
%TO.C,C9*%
X88234420Y-45020000D02*
X88515580Y-45020000D01*
X88234420Y-46040000D02*
X88515580Y-46040000D01*
%TO.C,R25*%
X81122500Y-57037742D02*
X81122500Y-57512258D01*
X80077500Y-57037742D02*
X80077500Y-57512258D01*
%TO.C,R24*%
X93362742Y-56427500D02*
X93837258Y-56427500D01*
X93362742Y-57472500D02*
X93837258Y-57472500D01*
%TO.C,R3*%
X69222500Y-61692742D02*
X69222500Y-62167258D01*
X68177500Y-61692742D02*
X68177500Y-62167258D01*
%TO.C,R20*%
X93737258Y-50972500D02*
X93262742Y-50972500D01*
X93737258Y-49927500D02*
X93262742Y-49927500D01*
%TO.C,R12*%
X53472500Y-55442742D02*
X53472500Y-55917258D01*
X52427500Y-55442742D02*
X52427500Y-55917258D01*
%TO.C,R17*%
X88150242Y-46707500D02*
X88624758Y-46707500D01*
X88150242Y-47752500D02*
X88624758Y-47752500D01*
%TO.C,U2*%
X99700000Y-57470000D02*
X97900000Y-57470000D01*
X99700000Y-57470000D02*
X100500000Y-57470000D01*
X99700000Y-60590000D02*
X98900000Y-60590000D01*
X99700000Y-60590000D02*
X100500000Y-60590000D01*
%TO.C,R14*%
X83112742Y-57457500D02*
X83587258Y-57457500D01*
X83112742Y-58502500D02*
X83587258Y-58502500D01*
%TO.C,D4*%
X77550000Y-58690000D02*
X79250000Y-58690000D01*
X77550000Y-58690000D02*
X77550000Y-56030000D01*
X79250000Y-58690000D02*
X79250000Y-56030000D01*
%TO.C,D3*%
X69550000Y-55470000D02*
X67850000Y-55470000D01*
X69550000Y-55470000D02*
X69550000Y-58130000D01*
X67850000Y-55470000D02*
X67850000Y-58130000D01*
%TO.C,C13*%
X98205580Y-49167500D02*
X97924420Y-49167500D01*
X98205580Y-48147500D02*
X97924420Y-48147500D01*
%TO.C,C8*%
X83209420Y-55670000D02*
X83490580Y-55670000D01*
X83209420Y-56690000D02*
X83490580Y-56690000D01*
%TO.C,C3*%
X57080000Y-44159420D02*
X57080000Y-44440580D01*
X56060000Y-44159420D02*
X56060000Y-44440580D01*
%TO.C,R23*%
X104787742Y-55245000D02*
X105262258Y-55245000D01*
X104787742Y-56290000D02*
X105262258Y-56290000D01*
%TO.C,C1*%
X53480000Y-45230000D02*
X52980000Y-45730000D01*
X53480000Y-42630000D02*
X52980000Y-42130000D01*
X48580000Y-45730000D02*
X49080000Y-45730000D01*
X48580000Y-45730000D02*
X48580000Y-45230000D01*
X48580000Y-42130000D02*
X49080000Y-42130000D01*
X48580000Y-42130000D02*
X48580000Y-42630000D01*
%TO.C,C17*%
X83309420Y-48620000D02*
X83590580Y-48620000D01*
X83309420Y-49640000D02*
X83590580Y-49640000D01*
%TO.C,D2*%
X81275000Y-44465000D02*
X79575000Y-44465000D01*
X81275000Y-44465000D02*
X81275000Y-47125000D01*
X79575000Y-44465000D02*
X79575000Y-47125000D01*
%TO.C,C12*%
X98874420Y-54072500D02*
X99155580Y-54072500D01*
X98874420Y-55092500D02*
X99155580Y-55092500D01*
%TO.C,R9*%
X65039000Y-42365000D02*
X62440000Y-42365000D01*
X65039000Y-42365000D02*
X65039000Y-43884000D01*
X63740000Y-42365000D02*
X63740000Y-43124000D01*
X62440000Y-42365000D02*
X62440000Y-43884000D01*
X65039000Y-43884000D02*
X62440000Y-43884000D01*
X66275000Y-43885000D02*
X61205000Y-43885000D01*
X66275000Y-43885000D02*
X66275000Y-51230000D01*
X61205000Y-43885000D02*
X61205000Y-46151000D01*
X61205000Y-48461000D02*
X61205000Y-58850000D01*
X66275000Y-53540000D02*
X66275000Y-63175000D01*
X61205000Y-61160000D02*
X61205000Y-63175000D01*
X66275000Y-63175000D02*
X61205000Y-63175000D01*
%TO.C,C7*%
X83934420Y-46565000D02*
X84215580Y-46565000D01*
X83934420Y-47585000D02*
X84215580Y-47585000D01*
%TO.C,C18*%
X103905000Y-43839420D02*
X103905000Y-44120580D01*
X102885000Y-43839420D02*
X102885000Y-44120580D01*
%TO.C,R13*%
X83837742Y-44552500D02*
X84312258Y-44552500D01*
X83837742Y-45597500D02*
X84312258Y-45597500D01*
%TO.C,C16*%
X90310000Y-53159420D02*
X90310000Y-53440580D01*
X89290000Y-53159420D02*
X89290000Y-53440580D01*
%TO.C,R2*%
X74889000Y-42365000D02*
X72290000Y-42365000D01*
X74889000Y-42365000D02*
X74889000Y-43884000D01*
X73590000Y-42365000D02*
X73590000Y-43124000D01*
X72290000Y-42365000D02*
X72290000Y-43884000D01*
X74889000Y-43884000D02*
X72290000Y-43884000D01*
X76125000Y-43885000D02*
X71055000Y-43885000D01*
X76125000Y-43885000D02*
X76125000Y-51230000D01*
X71055000Y-43885000D02*
X71055000Y-46151000D01*
X71055000Y-48461000D02*
X71055000Y-58850000D01*
X76125000Y-53540000D02*
X76125000Y-63175000D01*
X71055000Y-61160000D02*
X71055000Y-63175000D01*
X76125000Y-63175000D02*
X71055000Y-63175000D01*
%TO.C,TP5*%
X106100000Y-51080000D02*
G75*
G03*
X106100000Y-51080000I-950000J0D01*
G01*
%TD*%
%LPC*%
D12*
%TO.C,C19*%
X97270000Y-44805000D03*
X97270000Y-43255000D03*
%TD*%
D13*
%TO.C,TP3*%
X89150000Y-43230000D03*
%TD*%
D14*
%TO.C,R21*%
X92775000Y-55000000D03*
X94425000Y-55000000D03*
%TD*%
D12*
%TO.C,C6*%
X56570000Y-59680000D03*
X56570000Y-58130000D03*
%TD*%
D15*
%TO.C,J2*%
X98200000Y-63930000D03*
D16*
X100740000Y-63930000D03*
X103280000Y-63930000D03*
X105820000Y-63930000D03*
%TD*%
D12*
%TO.C,C5*%
X54770000Y-59680000D03*
X54770000Y-58130000D03*
%TD*%
D17*
%TO.C,C15*%
X96562500Y-58255000D03*
X96562500Y-59805000D03*
%TD*%
D13*
%TO.C,TP1*%
X58650000Y-45030000D03*
%TD*%
D18*
%TO.C,R8*%
X56570000Y-48475000D03*
X56570000Y-46825000D03*
%TD*%
D19*
%TO.C,L1*%
X90870000Y-45622500D03*
X90870000Y-47197500D03*
%TD*%
D20*
%TO.C,U4*%
X99232500Y-43080000D03*
X99232500Y-44980000D03*
X101507500Y-44030000D03*
%TD*%
D21*
%TO.C,R5*%
X51150000Y-54855000D03*
X51150000Y-56505000D03*
%TD*%
D22*
%TO.C,U1*%
X88050000Y-49480000D03*
X87400000Y-49480000D03*
X86750000Y-49480000D03*
X86100000Y-49480000D03*
X86100000Y-53780000D03*
X86750000Y-53780000D03*
X87400000Y-53780000D03*
X88050000Y-53780000D03*
D23*
X87075000Y-51630000D03*
%TD*%
D21*
%TO.C,R16*%
X81600000Y-51230000D03*
X81600000Y-52880000D03*
%TD*%
D18*
%TO.C,R22*%
X101150000Y-52180000D03*
X101150000Y-50530000D03*
%TD*%
D17*
%TO.C,C2*%
X54770000Y-43525000D03*
X54770000Y-45075000D03*
%TD*%
D14*
%TO.C,R18*%
X86175000Y-56630000D03*
X87825000Y-56630000D03*
%TD*%
D24*
%TO.C,C10*%
X86225000Y-58330000D03*
X87775000Y-58330000D03*
%TD*%
D18*
%TO.C,R4*%
X51150000Y-48475000D03*
X51150000Y-46825000D03*
%TD*%
D14*
%TO.C,R19*%
X92625000Y-48600000D03*
X94275000Y-48600000D03*
%TD*%
D25*
%TO.C,L2*%
X91100000Y-58287500D03*
X91100000Y-56712500D03*
%TD*%
D26*
%TO.C,C4*%
X52980000Y-59275000D03*
X49080000Y-59275000D03*
%TD*%
D13*
%TO.C,TP2*%
X58650000Y-58130000D03*
%TD*%
D21*
%TO.C,R7*%
X54770000Y-46825000D03*
X54770000Y-48475000D03*
%TD*%
D15*
%TO.C,J1*%
X50200000Y-63930000D03*
D16*
X52740000Y-63930000D03*
X55280000Y-63930000D03*
X57820000Y-63930000D03*
%TD*%
D27*
%TO.C,U3*%
X98190000Y-50582500D03*
X97240000Y-50582500D03*
X96290000Y-50582500D03*
X96290000Y-52857500D03*
X97240000Y-52857500D03*
X98190000Y-52857500D03*
%TD*%
D18*
%TO.C,R26*%
X78075000Y-46675000D03*
X78075000Y-45025000D03*
%TD*%
D12*
%TO.C,C11*%
X102900000Y-52130000D03*
X102900000Y-50580000D03*
%TD*%
D21*
%TO.C,R10*%
X56570000Y-54855000D03*
X56570000Y-56505000D03*
%TD*%
D18*
%TO.C,R11*%
X54770000Y-56505000D03*
X54770000Y-54855000D03*
%TD*%
D21*
%TO.C,R15*%
X83250000Y-51230000D03*
X83250000Y-52880000D03*
%TD*%
D28*
%TO.C,D1*%
X68700000Y-47130000D03*
X68700000Y-45030000D03*
%TD*%
D13*
%TO.C,TP4*%
X89450000Y-59880000D03*
%TD*%
D18*
%TO.C,R6*%
X52950000Y-48475000D03*
X52950000Y-46825000D03*
%TD*%
D17*
%TO.C,C14*%
X102737500Y-58205000D03*
X102737500Y-59755000D03*
%TD*%
D18*
%TO.C,R1*%
X68700000Y-52505000D03*
X68700000Y-50855000D03*
%TD*%
D24*
%TO.C,C9*%
X87600000Y-45530000D03*
X89150000Y-45530000D03*
%TD*%
D21*
%TO.C,R25*%
X80600000Y-56450000D03*
X80600000Y-58100000D03*
%TD*%
D14*
%TO.C,R24*%
X92775000Y-56950000D03*
X94425000Y-56950000D03*
%TD*%
D21*
%TO.C,R3*%
X68700000Y-61105000D03*
X68700000Y-62755000D03*
%TD*%
D29*
%TO.C,R20*%
X94325000Y-50450000D03*
X92675000Y-50450000D03*
%TD*%
D21*
%TO.C,R12*%
X52950000Y-54855000D03*
X52950000Y-56505000D03*
%TD*%
D14*
%TO.C,R17*%
X87562500Y-47230000D03*
X89212500Y-47230000D03*
%TD*%
D20*
%TO.C,U2*%
X98562500Y-58080000D03*
X98562500Y-59980000D03*
X100837500Y-59030000D03*
%TD*%
D14*
%TO.C,R14*%
X82525000Y-57980000D03*
X84175000Y-57980000D03*
%TD*%
D28*
%TO.C,D4*%
X78400000Y-58130000D03*
X78400000Y-56030000D03*
%TD*%
D30*
%TO.C,D3*%
X68700000Y-56030000D03*
X68700000Y-58130000D03*
%TD*%
D31*
%TO.C,C13*%
X98840000Y-48657500D03*
X97290000Y-48657500D03*
%TD*%
D24*
%TO.C,C8*%
X82575000Y-56180000D03*
X84125000Y-56180000D03*
%TD*%
D17*
%TO.C,C3*%
X56570000Y-43525000D03*
X56570000Y-45075000D03*
%TD*%
D14*
%TO.C,R23*%
X104200000Y-55767500D03*
X105850000Y-55767500D03*
%TD*%
D26*
%TO.C,C1*%
X52980000Y-43930000D03*
X49080000Y-43930000D03*
%TD*%
D24*
%TO.C,C17*%
X82675000Y-49130000D03*
X84225000Y-49130000D03*
%TD*%
D30*
%TO.C,D2*%
X80425000Y-45025000D03*
X80425000Y-47125000D03*
%TD*%
D24*
%TO.C,C12*%
X98240000Y-54582500D03*
X99790000Y-54582500D03*
%TD*%
D32*
%TO.C,R9*%
X61175000Y-60005000D03*
X66235000Y-52385000D03*
X61175000Y-47305000D03*
%TD*%
D24*
%TO.C,C7*%
X83300000Y-47075000D03*
X84850000Y-47075000D03*
%TD*%
D17*
%TO.C,C18*%
X103395000Y-43205000D03*
X103395000Y-44755000D03*
%TD*%
D14*
%TO.C,R13*%
X83250000Y-45075000D03*
X84900000Y-45075000D03*
%TD*%
D17*
%TO.C,C16*%
X89800000Y-52525000D03*
X89800000Y-54075000D03*
%TD*%
D32*
%TO.C,R2*%
X71025000Y-60005000D03*
X76085000Y-52385000D03*
X71025000Y-47305000D03*
%TD*%
D13*
%TO.C,TP5*%
X105150000Y-51080000D03*
%TD*%
%LPD*%
M02*
