M48
; DRILL file {KiCad 7.0.9} date Fri Oct  4 13:57:40 2024
; FORMAT={-:-/ absolute / metric / decimal}
; #@! TF.CreationDate,2024-10-04T13:57:40+02:00
; #@! TF.GenerationSoftware,Kicad,Pcbnew,7.0.9
; #@! TF.FileFunction,MixedPlating,1,2
FMAT,2
METRIC
; #@! TA.AperFunction,Plated,PTH,ViaDrill
T1C0.400
; #@! TA.AperFunction,Plated,PTH,ComponentDrill
T2C1.000
%
G90
G05
T1
X48.7Y-51.98
X49.05Y-42.65
X49.05Y-45.3
X49.05Y-60.45
X49.1Y-47.78
X49.1Y-58.0
X51.15Y-42.53
X51.15Y-49.88
X51.2Y-53.53
X52.95Y-51.73
X56.6Y-60.8
X57.75Y-59.65
X58.65Y-43.13
X58.75Y-54.855
X58.85Y-51.73
X67.3Y-64.28
X67.95Y-55.0
X68.7Y-43.58
X68.7Y-59.53
X69.7Y-62.75
X72.5Y-56.73
X75.5Y-46.725
X78.4Y-56.9
X78.825Y-48.375
X79.25Y-43.675
X80.2Y-51.93
X81.5Y-55.375
X82.65Y-48.15
X83.35Y-59.43
X84.65Y-50.78
X84.65Y-53.53
X85.55Y-63.0
X86.4Y-55.33
X86.7Y-47.23
X87.05Y-44.03
X87.1Y-59.63
X88.7Y-52.5
X90.55Y-55.33
X91.52Y-49.98
X92.55Y-53.2
X92.75Y-58.1
X94.4Y-59.38
X95.65Y-48.78
X95.65Y-62.43
X96.275Y-44.85
X96.55Y-57.03
X96.55Y-60.98
X97.2Y-54.582
X97.5Y-58.05
X98.15Y-44.95
X99.6Y-52.23
X99.6Y-56.9
X99.75Y-58.05
X99.875Y-44.05
X100.05Y-48.65
X103.4Y-46.03
X104.2Y-54.5
X104.237Y-58.58
X104.4Y-49.13
X104.72Y-43.555
X107.25Y-50.98
X107.35Y-61.33
T2
X50.2Y-63.93
X52.74Y-63.93
X55.28Y-63.93
X57.82Y-63.93
X61.175Y-47.305
X61.175Y-60.005
X66.235Y-52.385
X71.025Y-47.305
X71.025Y-60.005
X76.085Y-52.385
X98.2Y-63.93
X100.74Y-63.93
X103.28Y-63.93
X105.82Y-63.93
T0
M30
