%TF.GenerationSoftware,KiCad,Pcbnew,8.0.8*%
%TF.CreationDate,2025-02-12T13:58:17+01:00*%
%TF.ProjectId,diffprobe-espnow,64696666-7072-46f6-9265-2d6573706e6f,rev?*%
%TF.SameCoordinates,Original*%
%TF.FileFunction,Soldermask,Top*%
%TF.FilePolarity,Negative*%
%FSLAX46Y46*%
G04 Gerber Fmt 4.6, Leading zero omitted, Abs format (unit mm)*
G04 Created by KiCad (PCBNEW 8.0.8) date 2025-02-12 13:58:17*
%MOMM*%
%LPD*%
G01*
G04 APERTURE LIST*
G04 Aperture macros list*
%AMRoundRect*
0 Rectangle with rounded corners*
0 $1 Rounding radius*
0 $2 $3 $4 $5 $6 $7 $8 $9 X,Y pos of 4 corners*
0 Add a 4 corners polygon primitive as box body*
4,1,4,$2,$3,$4,$5,$6,$7,$8,$9,$2,$3,0*
0 Add four circle primitives for the rounded corners*
1,1,$1+$1,$2,$3*
1,1,$1+$1,$4,$5*
1,1,$1+$1,$6,$7*
1,1,$1+$1,$8,$9*
0 Add four rect primitives between the rounded corners*
20,1,$1+$1,$2,$3,$4,$5,0*
20,1,$1+$1,$4,$5,$6,$7,0*
20,1,$1+$1,$6,$7,$8,$9,0*
20,1,$1+$1,$8,$9,$2,$3,0*%
G04 Aperture macros list end*
%ADD10RoundRect,0.250000X-0.325000X-0.650000X0.325000X-0.650000X0.325000X0.650000X-0.325000X0.650000X0*%
%ADD11C,3.251200*%
%ADD12C,1.397000*%
%ADD13C,1.524000*%
%ADD14C,2.108200*%
%ADD15RoundRect,0.250000X-0.312500X-0.625000X0.312500X-0.625000X0.312500X0.625000X-0.312500X0.625000X0*%
%ADD16RoundRect,0.225000X-0.225000X-0.250000X0.225000X-0.250000X0.225000X0.250000X-0.225000X0.250000X0*%
%ADD17RoundRect,0.200000X-0.200000X-0.275000X0.200000X-0.275000X0.200000X0.275000X-0.200000X0.275000X0*%
%ADD18R,1.700000X1.700000*%
%ADD19O,1.700000X1.700000*%
%ADD20RoundRect,0.250001X-1.549999X0.799999X-1.549999X-0.799999X1.549999X-0.799999X1.549999X0.799999X0*%
%ADD21O,3.600000X2.100000*%
%ADD22RoundRect,0.225000X-0.250000X0.225000X-0.250000X-0.225000X0.250000X-0.225000X0.250000X0.225000X0*%
%ADD23RoundRect,0.218750X-0.218750X-0.256250X0.218750X-0.256250X0.218750X0.256250X-0.218750X0.256250X0*%
%ADD24RoundRect,0.200000X-0.275000X0.200000X-0.275000X-0.200000X0.275000X-0.200000X0.275000X0.200000X0*%
%ADD25RoundRect,0.200000X0.275000X-0.200000X0.275000X0.200000X-0.275000X0.200000X-0.275000X-0.200000X0*%
%ADD26RoundRect,0.225000X0.250000X-0.225000X0.250000X0.225000X-0.250000X0.225000X-0.250000X-0.225000X0*%
%ADD27RoundRect,0.200000X0.200000X0.275000X-0.200000X0.275000X-0.200000X-0.275000X0.200000X-0.275000X0*%
%ADD28RoundRect,0.075000X0.662500X0.075000X-0.662500X0.075000X-0.662500X-0.075000X0.662500X-0.075000X0*%
%ADD29RoundRect,0.075000X0.075000X0.662500X-0.075000X0.662500X-0.075000X-0.662500X0.075000X-0.662500X0*%
%ADD30C,0.650000*%
%ADD31RoundRect,0.150000X0.425000X-0.150000X0.425000X0.150000X-0.425000X0.150000X-0.425000X-0.150000X0*%
%ADD32RoundRect,0.075000X0.500000X-0.075000X0.500000X0.075000X-0.500000X0.075000X-0.500000X-0.075000X0*%
%ADD33O,2.100000X1.000000*%
%ADD34O,1.800000X1.000000*%
%ADD35R,2.800000X2.800000*%
%ADD36C,2.800000*%
%ADD37C,2.000000*%
%ADD38R,0.900000X1.000000*%
%ADD39R,1.500000X0.900000*%
%ADD40R,0.900000X1.500000*%
%ADD41R,0.900000X0.900000*%
%ADD42RoundRect,0.218750X-0.256250X0.218750X-0.256250X-0.218750X0.256250X-0.218750X0.256250X0.218750X0*%
%ADD43C,3.000000*%
%ADD44RoundRect,0.250000X1.000000X-1.950000X1.000000X1.950000X-1.000000X1.950000X-1.000000X-1.950000X0*%
%ADD45C,1.750000*%
%ADD46C,1.600000*%
%ADD47RoundRect,0.250000X-1.000000X1.950000X-1.000000X-1.950000X1.000000X-1.950000X1.000000X1.950000X0*%
%ADD48R,2.000000X4.500000*%
%ADD49RoundRect,0.100000X-0.100000X0.637500X-0.100000X-0.637500X0.100000X-0.637500X0.100000X0.637500X0*%
%ADD50RoundRect,0.102000X0.900000X-0.900000X0.900000X0.900000X-0.900000X0.900000X-0.900000X-0.900000X0*%
%ADD51C,2.004000*%
%ADD52RoundRect,0.150000X-0.512500X-0.150000X0.512500X-0.150000X0.512500X0.150000X-0.512500X0.150000X0*%
%ADD53RoundRect,0.062500X-0.062500X0.375000X-0.062500X-0.375000X0.062500X-0.375000X0.062500X0.375000X0*%
%ADD54RoundRect,0.062500X-0.375000X0.062500X-0.375000X-0.062500X0.375000X-0.062500X0.375000X0.062500X0*%
%ADD55R,5.150000X3.150000*%
%ADD56RoundRect,0.218750X0.256250X-0.218750X0.256250X0.218750X-0.256250X0.218750X-0.256250X-0.218750X0*%
%ADD57R,2.000000X1.500000*%
%ADD58R,2.000000X3.800000*%
G04 APERTURE END LIST*
D10*
%TO.C,C588*%
X98250000Y-213600000D03*
X101200000Y-213600000D03*
%TD*%
D11*
%TO.C,J12*%
X277837200Y-127095450D03*
X277837200Y-115665450D03*
D12*
X268947200Y-116935450D03*
X271487200Y-118205450D03*
X268947200Y-119475450D03*
X271487200Y-120745450D03*
X268947200Y-122015450D03*
X271487200Y-123285450D03*
X268947200Y-124555450D03*
X271487200Y-125825450D03*
D13*
X264121200Y-115919450D03*
X264121200Y-118459450D03*
X264121200Y-124301450D03*
X264121200Y-126841450D03*
D14*
X274789200Y-129381450D03*
X274789200Y-113379450D03*
%TD*%
D10*
%TO.C,C546*%
X88897500Y-147850000D03*
X91847500Y-147850000D03*
%TD*%
D15*
%TO.C,R516*%
X88910000Y-95600000D03*
X91835000Y-95600000D03*
%TD*%
%TO.C,R657*%
X93600000Y-327000000D03*
X96525000Y-327000000D03*
%TD*%
D16*
%TO.C,C106*%
X210295000Y-206540000D03*
X211845000Y-206540000D03*
%TD*%
D10*
%TO.C,C613*%
X98250000Y-253100000D03*
X101200000Y-253100000D03*
%TD*%
D15*
%TO.C,R605*%
X107662500Y-239000000D03*
X110587500Y-239000000D03*
%TD*%
D10*
%TO.C,C640*%
X107650000Y-296300000D03*
X110600000Y-296300000D03*
%TD*%
D15*
%TO.C,R602*%
X93600000Y-239000000D03*
X96525000Y-239000000D03*
%TD*%
D17*
%TO.C,R119*%
X259708000Y-123555500D03*
X261358000Y-123555500D03*
%TD*%
D15*
%TO.C,R587*%
X93600000Y-211250000D03*
X96525000Y-211250000D03*
%TD*%
D18*
%TO.C,J124*%
X166700000Y-258140000D03*
D19*
X169240000Y-258140000D03*
X171780000Y-258140000D03*
X174320000Y-258140000D03*
%TD*%
D10*
%TO.C,C526*%
X88897500Y-114550000D03*
X91847500Y-114550000D03*
%TD*%
D15*
%TO.C,R617*%
X93600000Y-260950000D03*
X96525000Y-260950000D03*
%TD*%
D10*
%TO.C,C521*%
X88897500Y-104550000D03*
X91847500Y-104550000D03*
%TD*%
%TO.C,C615*%
X107650000Y-253100000D03*
X110600000Y-253100000D03*
%TD*%
%TO.C,C635*%
X107650000Y-286150000D03*
X110600000Y-286150000D03*
%TD*%
D15*
%TO.C,R639*%
X102962500Y-293950000D03*
X105887500Y-293950000D03*
%TD*%
%TO.C,R576*%
X88910000Y-194800000D03*
X91835000Y-194800000D03*
%TD*%
%TO.C,R549*%
X102962500Y-145530000D03*
X105887500Y-145530000D03*
%TD*%
D20*
%TO.C,J509*%
X85067500Y-204800000D03*
D21*
X85067500Y-212420000D03*
%TD*%
D10*
%TO.C,C591*%
X88897500Y-219950000D03*
X91847500Y-219950000D03*
%TD*%
D15*
%TO.C,R552*%
X93600000Y-156400000D03*
X96525000Y-156400000D03*
%TD*%
D16*
%TO.C,C105*%
X210300000Y-208300000D03*
X211850000Y-208300000D03*
%TD*%
D10*
%TO.C,C554*%
X102950000Y-154050000D03*
X105900000Y-154050000D03*
%TD*%
D22*
%TO.C,C108*%
X251677999Y-148676000D03*
X251677999Y-150226000D03*
%TD*%
D18*
%TO.C,J116*%
X166700000Y-192100000D03*
D19*
X169240000Y-192100000D03*
X171780000Y-192100000D03*
X174320000Y-192100000D03*
%TD*%
D15*
%TO.C,R659*%
X102962500Y-327000000D03*
X105887500Y-327000000D03*
%TD*%
%TO.C,R633*%
X98262500Y-288500000D03*
X101187500Y-288500000D03*
%TD*%
D10*
%TO.C,C614*%
X102950000Y-253100000D03*
X105900000Y-253100000D03*
%TD*%
%TO.C,C600*%
X107650000Y-230100000D03*
X110600000Y-230100000D03*
%TD*%
%TO.C,C555*%
X107650000Y-154050000D03*
X110600000Y-154050000D03*
%TD*%
D22*
%TO.C,C120*%
X243996671Y-106601000D03*
X243996671Y-108151000D03*
%TD*%
D10*
%TO.C,C622*%
X93587500Y-269600000D03*
X96537500Y-269600000D03*
%TD*%
D15*
%TO.C,R531*%
X88910000Y-123400000D03*
X91835000Y-123400000D03*
%TD*%
D23*
%TO.C,D101*%
X274455500Y-143381000D03*
X276030500Y-143381000D03*
%TD*%
D15*
%TO.C,R590*%
X107662500Y-211250000D03*
X110587500Y-211250000D03*
%TD*%
D22*
%TO.C,C121*%
X242375005Y-106601000D03*
X242375005Y-108151000D03*
%TD*%
D15*
%TO.C,R637*%
X93600000Y-293950000D03*
X96525000Y-293950000D03*
%TD*%
%TO.C,R569*%
X102962500Y-178200000D03*
X105887500Y-178200000D03*
%TD*%
D20*
%TO.C,J504*%
X85067500Y-122250000D03*
D21*
X85067500Y-129870000D03*
%TD*%
D24*
%TO.C,R107*%
X234903000Y-113249000D03*
X234903000Y-114899000D03*
%TD*%
D15*
%TO.C,R595*%
X107662500Y-222300000D03*
X110587500Y-222300000D03*
%TD*%
%TO.C,R640*%
X107662500Y-293950000D03*
X110587500Y-293950000D03*
%TD*%
D10*
%TO.C,C652*%
X93587500Y-319100000D03*
X96537500Y-319100000D03*
%TD*%
%TO.C,C566*%
X88897500Y-180550000D03*
X91847500Y-180550000D03*
%TD*%
D22*
%TO.C,C114*%
X242447200Y-111261000D03*
X242447200Y-112811000D03*
%TD*%
D10*
%TO.C,C536*%
X88897500Y-131100000D03*
X91847500Y-131100000D03*
%TD*%
D15*
%TO.C,R610*%
X107662500Y-244350000D03*
X110587500Y-244350000D03*
%TD*%
%TO.C,R543*%
X98262500Y-140100000D03*
X101187500Y-140100000D03*
%TD*%
D18*
%TO.C,J132*%
X166700000Y-324180000D03*
D19*
X169240000Y-324180000D03*
X171780000Y-324180000D03*
X174320000Y-324180000D03*
%TD*%
D15*
%TO.C,R589*%
X102962500Y-211250000D03*
X105887500Y-211250000D03*
%TD*%
D25*
%TO.C,R206*%
X194376666Y-193100000D03*
X194376666Y-191450000D03*
%TD*%
D18*
%TO.C,J131*%
X118700000Y-324180000D03*
D19*
X121240000Y-324180000D03*
X123780000Y-324180000D03*
X126320000Y-324180000D03*
%TD*%
D10*
%TO.C,C535*%
X107650000Y-121050000D03*
X110600000Y-121050000D03*
%TD*%
D26*
%TO.C,C202*%
X211596663Y-193050000D03*
X211596663Y-191500000D03*
%TD*%
D15*
%TO.C,R574*%
X102962500Y-189400000D03*
X105887500Y-189400000D03*
%TD*%
D25*
%TO.C,R105*%
X249607999Y-150276000D03*
X249607999Y-148626000D03*
%TD*%
D24*
%TO.C,R213*%
X202006664Y-212975000D03*
X202006664Y-214625000D03*
%TD*%
D15*
%TO.C,R634*%
X102962500Y-288500000D03*
X105887500Y-288500000D03*
%TD*%
D10*
%TO.C,C572*%
X93587500Y-187050000D03*
X96537500Y-187050000D03*
%TD*%
D22*
%TO.C,C216*%
X215400000Y-213025000D03*
X215400000Y-214575000D03*
%TD*%
D15*
%TO.C,R528*%
X98262500Y-112200000D03*
X101187500Y-112200000D03*
%TD*%
D10*
%TO.C,C647*%
X93587500Y-312700000D03*
X96537500Y-312700000D03*
%TD*%
%TO.C,C586*%
X88897500Y-213600000D03*
X91847500Y-213600000D03*
%TD*%
%TO.C,C527*%
X93587500Y-114550000D03*
X96537500Y-114550000D03*
%TD*%
%TO.C,C653*%
X98250000Y-319100000D03*
X101200000Y-319100000D03*
%TD*%
%TO.C,C610*%
X107650000Y-246700000D03*
X110600000Y-246700000D03*
%TD*%
D15*
%TO.C,R570*%
X107662500Y-178200000D03*
X110587500Y-178200000D03*
%TD*%
D18*
%TO.C,J117*%
X118700000Y-208610000D03*
D19*
X121240000Y-208610000D03*
X123780000Y-208610000D03*
X126320000Y-208610000D03*
%TD*%
D10*
%TO.C,C564*%
X102950000Y-170600000D03*
X105900000Y-170600000D03*
%TD*%
%TO.C,C649*%
X102950000Y-312700000D03*
X105900000Y-312700000D03*
%TD*%
%TO.C,C581*%
X88897500Y-203500000D03*
X91847500Y-203500000D03*
%TD*%
%TO.C,C578*%
X98250000Y-197150000D03*
X101200000Y-197150000D03*
%TD*%
%TO.C,C568*%
X98250000Y-180550000D03*
X101200000Y-180550000D03*
%TD*%
D15*
%TO.C,R598*%
X98262500Y-227750000D03*
X101187500Y-227750000D03*
%TD*%
D10*
%TO.C,C625*%
X107650000Y-269600000D03*
X110600000Y-269600000D03*
%TD*%
D15*
%TO.C,R612*%
X93600000Y-255400000D03*
X96525000Y-255400000D03*
%TD*%
D18*
%TO.C,J112*%
X166700000Y-159080000D03*
D19*
X169240000Y-159080000D03*
X171780000Y-159080000D03*
X174320000Y-159080000D03*
%TD*%
D26*
%TO.C,C206*%
X196289999Y-193050000D03*
X196289999Y-191500000D03*
%TD*%
D10*
%TO.C,C655*%
X107650000Y-319100000D03*
X110600000Y-319100000D03*
%TD*%
%TO.C,C562*%
X93587500Y-170600000D03*
X96537500Y-170600000D03*
%TD*%
D15*
%TO.C,R556*%
X88910000Y-161800000D03*
X91835000Y-161800000D03*
%TD*%
%TO.C,R585*%
X107662500Y-205850000D03*
X110587500Y-205850000D03*
%TD*%
D22*
%TO.C,C122*%
X240753335Y-106601000D03*
X240753335Y-108151000D03*
%TD*%
D18*
%TO.C,J122*%
X166700000Y-241630000D03*
D19*
X169240000Y-241630000D03*
X171780000Y-241630000D03*
X174320000Y-241630000D03*
%TD*%
D18*
%TO.C,J105*%
X118700000Y-109550000D03*
D19*
X121240000Y-109550000D03*
X123780000Y-109550000D03*
X126320000Y-109550000D03*
%TD*%
D15*
%TO.C,R555*%
X107662500Y-156400000D03*
X110587500Y-156400000D03*
%TD*%
D25*
%TO.C,R207*%
X190550000Y-193100000D03*
X190550000Y-191450000D03*
%TD*%
D20*
%TO.C,J503*%
X85067500Y-105740000D03*
D21*
X85067500Y-113360000D03*
%TD*%
D15*
%TO.C,R540*%
X107662500Y-128750000D03*
X110587500Y-128750000D03*
%TD*%
D10*
%TO.C,C524*%
X102950000Y-104550000D03*
X105900000Y-104550000D03*
%TD*%
D15*
%TO.C,R575*%
X107662500Y-189400000D03*
X110587500Y-189400000D03*
%TD*%
D17*
%TO.C,R114*%
X256733000Y-122055500D03*
X258383000Y-122055500D03*
%TD*%
D27*
%TO.C,R123*%
X261308000Y-114036000D03*
X259658000Y-114036000D03*
%TD*%
D10*
%TO.C,C542*%
X93587500Y-137750000D03*
X96537500Y-137750000D03*
%TD*%
D15*
%TO.C,R553*%
X98262500Y-156400000D03*
X101187500Y-156400000D03*
%TD*%
%TO.C,R594*%
X102962500Y-222300000D03*
X105887500Y-222300000D03*
%TD*%
D28*
%TO.C,U103*%
X249082505Y-121681000D03*
X249082505Y-121181000D03*
X249082505Y-120681000D03*
X249082505Y-120181000D03*
X249082505Y-119681000D03*
X249082505Y-119181000D03*
X249082505Y-118681000D03*
X249082505Y-118181000D03*
X249082505Y-117681000D03*
X249082505Y-117181000D03*
X249082505Y-116681000D03*
X249082505Y-116181000D03*
D29*
X247670005Y-114768500D03*
X247170005Y-114768500D03*
X246670005Y-114768500D03*
X246170005Y-114768500D03*
X245670005Y-114768500D03*
X245170005Y-114768500D03*
X244670005Y-114768500D03*
X244170005Y-114768500D03*
X243670005Y-114768500D03*
X243170005Y-114768500D03*
X242670005Y-114768500D03*
X242170005Y-114768500D03*
D28*
X240757505Y-116181000D03*
X240757505Y-116681000D03*
X240757505Y-117181000D03*
X240757505Y-117681000D03*
X240757505Y-118181000D03*
X240757505Y-118681000D03*
X240757505Y-119181000D03*
X240757505Y-119681000D03*
X240757505Y-120181000D03*
X240757505Y-120681000D03*
X240757505Y-121181000D03*
X240757505Y-121681000D03*
D29*
X242170005Y-123093500D03*
X242670005Y-123093500D03*
X243170005Y-123093500D03*
X243670005Y-123093500D03*
X244170005Y-123093500D03*
X244670005Y-123093500D03*
X245170005Y-123093500D03*
X245670005Y-123093500D03*
X246170005Y-123093500D03*
X246670005Y-123093500D03*
X247170005Y-123093500D03*
X247670005Y-123093500D03*
%TD*%
D22*
%TO.C,C211*%
X196266665Y-213025000D03*
X196266665Y-214575000D03*
%TD*%
D10*
%TO.C,C631*%
X88897500Y-286150000D03*
X91847500Y-286150000D03*
%TD*%
D15*
%TO.C,R643*%
X98262500Y-305050000D03*
X101187500Y-305050000D03*
%TD*%
%TO.C,R523*%
X98262500Y-106900000D03*
X101187500Y-106900000D03*
%TD*%
D10*
%TO.C,C590*%
X107650000Y-213600000D03*
X110600000Y-213600000D03*
%TD*%
%TO.C,C651*%
X88897500Y-319100000D03*
X91847500Y-319100000D03*
%TD*%
D15*
%TO.C,R578*%
X98262500Y-194800000D03*
X101187500Y-194800000D03*
%TD*%
D18*
%TO.C,J129*%
X118700000Y-307670000D03*
D19*
X121240000Y-307670000D03*
X123780000Y-307670000D03*
X126320000Y-307670000D03*
%TD*%
D10*
%TO.C,C633*%
X98250000Y-286150000D03*
X101200000Y-286150000D03*
%TD*%
%TO.C,C534*%
X102950000Y-121050000D03*
X105900000Y-121050000D03*
%TD*%
D26*
%TO.C,C201*%
X215423334Y-193050000D03*
X215423334Y-191500000D03*
%TD*%
D15*
%TO.C,R519*%
X102962500Y-95600000D03*
X105887500Y-95600000D03*
%TD*%
D30*
%TO.C,J11*%
X282378000Y-146271000D03*
X282378000Y-140491000D03*
D31*
X281303000Y-146581000D03*
X281303000Y-145781000D03*
D32*
X281303000Y-144631000D03*
X281303000Y-143631000D03*
X281303000Y-143131000D03*
X281303000Y-142131000D03*
D31*
X281303000Y-140981000D03*
X281303000Y-140181000D03*
X281303000Y-140181000D03*
X281303000Y-140981000D03*
D32*
X281303000Y-141631000D03*
X281303000Y-142631000D03*
X281303000Y-144131000D03*
X281303000Y-145131000D03*
D31*
X281303000Y-145781000D03*
X281303000Y-146581000D03*
D33*
X281878000Y-147701000D03*
D34*
X286058000Y-147701000D03*
D33*
X281878000Y-139061000D03*
D34*
X286058000Y-139061000D03*
%TD*%
D35*
%TO.C,SW103*%
X272043000Y-164886000D03*
D36*
X272043000Y-169586000D03*
X272043000Y-174286000D03*
X267213000Y-164886000D03*
X267213000Y-169586000D03*
X267213000Y-174286000D03*
%TD*%
D25*
%TO.C,R220*%
X235108000Y-135111000D03*
X235108000Y-133461000D03*
%TD*%
D10*
%TO.C,C514*%
X102950000Y-87950000D03*
X105900000Y-87950000D03*
%TD*%
D37*
%TO.C,C302*%
X240083000Y-290806500D03*
X250083000Y-290806500D03*
%TD*%
D15*
%TO.C,R616*%
X88910000Y-260950000D03*
X91835000Y-260950000D03*
%TD*%
D38*
%TO.C,SW102*%
X254297999Y-148651000D03*
X258397999Y-148651000D03*
X254297999Y-150251000D03*
X258397999Y-150251000D03*
%TD*%
D15*
%TO.C,R517*%
X93600000Y-95600000D03*
X96525000Y-95600000D03*
%TD*%
D10*
%TO.C,C620*%
X107647500Y-263230000D03*
X110597500Y-263230000D03*
%TD*%
D15*
%TO.C,R615*%
X107662500Y-255400000D03*
X110587500Y-255400000D03*
%TD*%
D18*
%TO.C,J118*%
X166700000Y-208610000D03*
D19*
X169240000Y-208610000D03*
X171780000Y-208610000D03*
X174320000Y-208610000D03*
%TD*%
D15*
%TO.C,R582*%
X93600000Y-205850000D03*
X96525000Y-205850000D03*
%TD*%
D10*
%TO.C,C582*%
X93587500Y-203500000D03*
X96537500Y-203500000D03*
%TD*%
D15*
%TO.C,R521*%
X88910000Y-106900000D03*
X91835000Y-106900000D03*
%TD*%
D39*
%TO.C,U101*%
X243253000Y-159266000D03*
X243253000Y-157996000D03*
X243253000Y-156726000D03*
X243253000Y-155456000D03*
X243253000Y-154186000D03*
X243253000Y-152916000D03*
X243253000Y-151646000D03*
X243253000Y-150376000D03*
X243253000Y-149106000D03*
X243253000Y-147836000D03*
X243253000Y-146566000D03*
X243253000Y-145296000D03*
X243253000Y-144026000D03*
X243253000Y-142756000D03*
D40*
X241488000Y-141506000D03*
X240218000Y-141506000D03*
X238948000Y-141506000D03*
X237678000Y-141506000D03*
X236408000Y-141506000D03*
X235138000Y-141506000D03*
X233868000Y-141506000D03*
X232598000Y-141506000D03*
X231328000Y-141506000D03*
X230058000Y-141506000D03*
X228788000Y-141506000D03*
X227518000Y-141506000D03*
D39*
X225753000Y-142756000D03*
X225753000Y-144026000D03*
X225753000Y-145296000D03*
X225753000Y-146566000D03*
X225753000Y-147836000D03*
X225753000Y-149106000D03*
X225753000Y-150376000D03*
X225753000Y-151646000D03*
X225753000Y-152916000D03*
X225753000Y-154186000D03*
X225753000Y-155456000D03*
X225753000Y-156726000D03*
X225753000Y-157996000D03*
X225753000Y-159266000D03*
D41*
X237403000Y-152946000D03*
X237403000Y-151546000D03*
X237403000Y-150146000D03*
X236003000Y-152946000D03*
X236003000Y-151546000D03*
X236003000Y-150146000D03*
X234603000Y-152946000D03*
X234603000Y-151546000D03*
X234603000Y-150146000D03*
%TD*%
D10*
%TO.C,C587*%
X93587500Y-213600000D03*
X96537500Y-213600000D03*
%TD*%
D17*
%TO.C,R118*%
X259658000Y-125536000D03*
X261308000Y-125536000D03*
%TD*%
%TO.C,R115*%
X252283000Y-118686000D03*
X253933000Y-118686000D03*
%TD*%
D16*
%TO.C,C113*%
X237520005Y-114381000D03*
X239070005Y-114381000D03*
%TD*%
D10*
%TO.C,C660*%
X107650000Y-329350000D03*
X110600000Y-329350000D03*
%TD*%
D20*
%TO.C,J505*%
X85067500Y-138760000D03*
D21*
X85067500Y-146380000D03*
%TD*%
D15*
%TO.C,R646*%
X88910000Y-310350000D03*
X91835000Y-310350000D03*
%TD*%
D10*
%TO.C,C553*%
X98250000Y-154050000D03*
X101200000Y-154050000D03*
%TD*%
D27*
%TO.C,R122*%
X261308000Y-129636000D03*
X259658000Y-129636000D03*
%TD*%
D15*
%TO.C,R518*%
X98262500Y-95600000D03*
X101187500Y-95600000D03*
%TD*%
D10*
%TO.C,C629*%
X102950000Y-279700000D03*
X105900000Y-279700000D03*
%TD*%
%TO.C,C543*%
X98250000Y-137750000D03*
X101200000Y-137750000D03*
%TD*%
%TO.C,C531*%
X88897500Y-121050000D03*
X91847500Y-121050000D03*
%TD*%
D15*
%TO.C,R507*%
X93600000Y-79150000D03*
X96525000Y-79150000D03*
%TD*%
%TO.C,R537*%
X93600000Y-128750000D03*
X96525000Y-128750000D03*
%TD*%
%TO.C,R638*%
X98262500Y-293950000D03*
X101187500Y-293950000D03*
%TD*%
D10*
%TO.C,C646*%
X88897500Y-312700000D03*
X91847500Y-312700000D03*
%TD*%
%TO.C,C537*%
X93587500Y-131100000D03*
X96537500Y-131100000D03*
%TD*%
D15*
%TO.C,R524*%
X102962500Y-106900000D03*
X105887500Y-106900000D03*
%TD*%
D10*
%TO.C,C604*%
X102950000Y-236650000D03*
X105900000Y-236650000D03*
%TD*%
D25*
%TO.C,R219*%
X237703000Y-135111000D03*
X237703000Y-133461000D03*
%TD*%
D15*
%TO.C,R560*%
X107662500Y-161800000D03*
X110587500Y-161800000D03*
%TD*%
D22*
%TO.C,C212*%
X200093331Y-213025000D03*
X200093331Y-214575000D03*
%TD*%
D27*
%TO.C,R120*%
X258383000Y-118686000D03*
X256733000Y-118686000D03*
%TD*%
D24*
%TO.C,R106*%
X242493000Y-170638500D03*
X242493000Y-172288500D03*
%TD*%
D26*
%TO.C,C305*%
X253903000Y-202676500D03*
X253903000Y-201126500D03*
%TD*%
D25*
%TO.C,R223*%
X239623000Y-136881000D03*
X239623000Y-135231000D03*
%TD*%
D15*
%TO.C,R641*%
X88910000Y-305050000D03*
X91835000Y-305050000D03*
%TD*%
D26*
%TO.C,C111*%
X227203000Y-118349000D03*
X227203000Y-116799000D03*
%TD*%
D10*
%TO.C,C540*%
X107650000Y-131100000D03*
X110600000Y-131100000D03*
%TD*%
D15*
%TO.C,R592*%
X93600000Y-222300000D03*
X96525000Y-222300000D03*
%TD*%
D22*
%TO.C,C217*%
X232333000Y-170561000D03*
X232333000Y-172111000D03*
%TD*%
D10*
%TO.C,C577*%
X93587500Y-197150000D03*
X96537500Y-197150000D03*
%TD*%
D22*
%TO.C,C116*%
X250483335Y-106601000D03*
X250483335Y-108151000D03*
%TD*%
D10*
%TO.C,C549*%
X102950000Y-147850000D03*
X105900000Y-147850000D03*
%TD*%
D22*
%TO.C,C214*%
X207746663Y-213025000D03*
X207746663Y-214575000D03*
%TD*%
D10*
%TO.C,C538*%
X98250000Y-131100000D03*
X101200000Y-131100000D03*
%TD*%
%TO.C,C529*%
X102950000Y-114550000D03*
X105900000Y-114550000D03*
%TD*%
%TO.C,C551*%
X88897500Y-154050000D03*
X91847500Y-154050000D03*
%TD*%
D15*
%TO.C,R654*%
X102962500Y-321450000D03*
X105887500Y-321450000D03*
%TD*%
%TO.C,R631*%
X88910000Y-288500000D03*
X91835000Y-288500000D03*
%TD*%
D24*
%TO.C,R108*%
X234903000Y-116749000D03*
X234903000Y-118399000D03*
%TD*%
D10*
%TO.C,C592*%
X93587500Y-219950000D03*
X96537500Y-219950000D03*
%TD*%
D22*
%TO.C,C213*%
X203919997Y-213025000D03*
X203919997Y-214575000D03*
%TD*%
D15*
%TO.C,R504*%
X102962500Y-73920000D03*
X105887500Y-73920000D03*
%TD*%
%TO.C,R565*%
X107662500Y-172950000D03*
X110587500Y-172950000D03*
%TD*%
D20*
%TO.C,J510*%
X85067500Y-221310000D03*
D21*
X85067500Y-228930000D03*
%TD*%
D10*
%TO.C,C638*%
X98250000Y-296300000D03*
X101200000Y-296300000D03*
%TD*%
D15*
%TO.C,R514*%
X102962500Y-90350000D03*
X105887500Y-90350000D03*
%TD*%
%TO.C,R550*%
X107662500Y-145530000D03*
X110587500Y-145530000D03*
%TD*%
D10*
%TO.C,C560*%
X107650000Y-164150000D03*
X110600000Y-164150000D03*
%TD*%
%TO.C,C627*%
X93587500Y-279700000D03*
X96537500Y-279700000D03*
%TD*%
D22*
%TO.C,C104*%
X245647999Y-157996000D03*
X245647999Y-159546000D03*
%TD*%
D15*
%TO.C,R601*%
X88910000Y-239000000D03*
X91835000Y-239000000D03*
%TD*%
D27*
%TO.C,R104*%
X276048000Y-146186000D03*
X274398000Y-146186000D03*
%TD*%
D22*
%TO.C,C210*%
X192439999Y-213025000D03*
X192439999Y-214575000D03*
%TD*%
%TO.C,C209*%
X188613333Y-213025000D03*
X188613333Y-214575000D03*
%TD*%
D26*
%TO.C,C110*%
X227203000Y-114849000D03*
X227203000Y-113299000D03*
%TD*%
D10*
%TO.C,C576*%
X88897500Y-197150000D03*
X91847500Y-197150000D03*
%TD*%
%TO.C,C502*%
X93587500Y-71550000D03*
X96537500Y-71550000D03*
%TD*%
%TO.C,C563*%
X98250000Y-170600000D03*
X101200000Y-170600000D03*
%TD*%
D18*
%TO.C,J108*%
X166700000Y-126060000D03*
D19*
X169240000Y-126060000D03*
X171780000Y-126060000D03*
X174320000Y-126060000D03*
%TD*%
D15*
%TO.C,R649*%
X102962500Y-310350000D03*
X105887500Y-310350000D03*
%TD*%
D10*
%TO.C,C593*%
X98250000Y-219950000D03*
X101200000Y-219950000D03*
%TD*%
%TO.C,C552*%
X93587500Y-154050000D03*
X96537500Y-154050000D03*
%TD*%
%TO.C,C511*%
X88897500Y-87950000D03*
X91847500Y-87950000D03*
%TD*%
D25*
%TO.C,R210*%
X190526666Y-214625000D03*
X190526666Y-212975000D03*
%TD*%
D10*
%TO.C,C626*%
X88897500Y-279700000D03*
X91847500Y-279700000D03*
%TD*%
%TO.C,C523*%
X98250000Y-104550000D03*
X101200000Y-104550000D03*
%TD*%
D22*
%TO.C,C117*%
X248861669Y-106601000D03*
X248861669Y-108151000D03*
%TD*%
D10*
%TO.C,C619*%
X102947500Y-263230000D03*
X105897500Y-263230000D03*
%TD*%
D15*
%TO.C,R522*%
X93600000Y-106900000D03*
X96525000Y-106900000D03*
%TD*%
D16*
%TO.C,C123*%
X259708000Y-127220750D03*
X261258000Y-127220750D03*
%TD*%
D15*
%TO.C,R545*%
X107662500Y-140100000D03*
X110587500Y-140100000D03*
%TD*%
%TO.C,R581*%
X88910000Y-205850000D03*
X91835000Y-205850000D03*
%TD*%
%TO.C,R619*%
X102962500Y-260950000D03*
X105887500Y-260950000D03*
%TD*%
%TO.C,R632*%
X93600000Y-288500000D03*
X96525000Y-288500000D03*
%TD*%
D10*
%TO.C,C632*%
X93587500Y-286150000D03*
X96537500Y-286150000D03*
%TD*%
%TO.C,C545*%
X107650000Y-137750000D03*
X110600000Y-137750000D03*
%TD*%
D26*
%TO.C,C102*%
X249692999Y-156981000D03*
X249692999Y-155431000D03*
%TD*%
D10*
%TO.C,C559*%
X102950000Y-164150000D03*
X105900000Y-164150000D03*
%TD*%
D15*
%TO.C,R520*%
X107662500Y-95600000D03*
X110587500Y-95600000D03*
%TD*%
D24*
%TO.C,R215*%
X209659996Y-212975000D03*
X209659996Y-214625000D03*
%TD*%
D15*
%TO.C,R660*%
X107662500Y-327000000D03*
X110587500Y-327000000D03*
%TD*%
%TO.C,R635*%
X107662500Y-288500000D03*
X110587500Y-288500000D03*
%TD*%
D10*
%TO.C,C602*%
X93587500Y-236650000D03*
X96537500Y-236650000D03*
%TD*%
%TO.C,C595*%
X107650000Y-219950000D03*
X110600000Y-219950000D03*
%TD*%
D26*
%TO.C,C207*%
X192463333Y-193050000D03*
X192463333Y-191500000D03*
%TD*%
D20*
%TO.C,J507*%
X85067500Y-171780000D03*
D21*
X85067500Y-179400000D03*
%TD*%
D17*
%TO.C,R113*%
X252283000Y-120186000D03*
X253933000Y-120186000D03*
%TD*%
D10*
%TO.C,C525*%
X107650000Y-104550000D03*
X110600000Y-104550000D03*
%TD*%
D15*
%TO.C,R535*%
X107662500Y-123400000D03*
X110587500Y-123400000D03*
%TD*%
%TO.C,R611*%
X88910000Y-255400000D03*
X91835000Y-255400000D03*
%TD*%
%TO.C,R648*%
X98262500Y-310350000D03*
X101187500Y-310350000D03*
%TD*%
%TO.C,R606*%
X88910000Y-244350000D03*
X91835000Y-244350000D03*
%TD*%
D10*
%TO.C,C507*%
X93587500Y-81550000D03*
X96537500Y-81550000D03*
%TD*%
D42*
%TO.C,D102*%
X239573000Y-168566000D03*
X239573000Y-170141000D03*
%TD*%
D15*
%TO.C,R596*%
X88910000Y-227750000D03*
X91835000Y-227750000D03*
%TD*%
D43*
%TO.C,J54*%
X270083000Y-314366500D03*
%TD*%
D15*
%TO.C,R534*%
X102962500Y-123400000D03*
X105887500Y-123400000D03*
%TD*%
D10*
%TO.C,C561*%
X88897500Y-170600000D03*
X91847500Y-170600000D03*
%TD*%
D15*
%TO.C,R541*%
X88910000Y-140100000D03*
X91835000Y-140100000D03*
%TD*%
D10*
%TO.C,C641*%
X88897500Y-302700000D03*
X91847500Y-302700000D03*
%TD*%
%TO.C,C599*%
X102950000Y-230100000D03*
X105900000Y-230100000D03*
%TD*%
D15*
%TO.C,R505*%
X107662500Y-73920000D03*
X110587500Y-73920000D03*
%TD*%
%TO.C,R642*%
X93600000Y-305050000D03*
X96525000Y-305050000D03*
%TD*%
D18*
%TO.C,J123*%
X118700000Y-258140000D03*
D19*
X121240000Y-258140000D03*
X123780000Y-258140000D03*
X126320000Y-258140000D03*
%TD*%
D26*
%TO.C,C127*%
X274789200Y-134461000D03*
X274789200Y-132911000D03*
%TD*%
D15*
%TO.C,R502*%
X93600000Y-73920000D03*
X96525000Y-73920000D03*
%TD*%
D10*
%TO.C,C583*%
X98250000Y-203500000D03*
X101200000Y-203500000D03*
%TD*%
D15*
%TO.C,R530*%
X107662500Y-112200000D03*
X110587500Y-112200000D03*
%TD*%
%TO.C,R644*%
X102962500Y-305050000D03*
X105887500Y-305050000D03*
%TD*%
D10*
%TO.C,C659*%
X102950000Y-329350000D03*
X105900000Y-329350000D03*
%TD*%
%TO.C,C624*%
X102950000Y-269600000D03*
X105900000Y-269600000D03*
%TD*%
D15*
%TO.C,R546*%
X88910000Y-145530000D03*
X91835000Y-145530000D03*
%TD*%
D20*
%TO.C,J512*%
X85067500Y-254330000D03*
D21*
X85067500Y-261950000D03*
%TD*%
D37*
%TO.C,F1*%
X259483000Y-321766500D03*
X259483000Y-326846500D03*
%TD*%
D10*
%TO.C,C510*%
X107650000Y-81550000D03*
X110600000Y-81550000D03*
%TD*%
D27*
%TO.C,R103*%
X276048000Y-140536000D03*
X274398000Y-140536000D03*
%TD*%
D10*
%TO.C,C571*%
X88897500Y-187050000D03*
X91847500Y-187050000D03*
%TD*%
%TO.C,C522*%
X93587500Y-104550000D03*
X96537500Y-104550000D03*
%TD*%
D15*
%TO.C,R566*%
X88910000Y-178200000D03*
X91835000Y-178200000D03*
%TD*%
D18*
%TO.C,J128*%
X166700000Y-291160000D03*
D19*
X169240000Y-291160000D03*
X171780000Y-291160000D03*
X174320000Y-291160000D03*
%TD*%
D20*
%TO.C,J508*%
X85067500Y-188290000D03*
D21*
X85067500Y-195910000D03*
%TD*%
D18*
%TO.C,J106*%
X166700000Y-109550000D03*
D19*
X169240000Y-109550000D03*
X171780000Y-109550000D03*
X174320000Y-109550000D03*
%TD*%
D15*
%TO.C,R630*%
X107662500Y-277350000D03*
X110587500Y-277350000D03*
%TD*%
D17*
%TO.C,R101*%
X254552999Y-159566000D03*
X256202999Y-159566000D03*
%TD*%
D10*
%TO.C,C594*%
X102950000Y-219950000D03*
X105900000Y-219950000D03*
%TD*%
D18*
%TO.C,J103*%
X118700000Y-93040000D03*
D19*
X121240000Y-93040000D03*
X123780000Y-93040000D03*
X126320000Y-93040000D03*
%TD*%
D15*
%TO.C,R658*%
X98262500Y-327000000D03*
X101187500Y-327000000D03*
%TD*%
%TO.C,R529*%
X102962500Y-112200000D03*
X105887500Y-112200000D03*
%TD*%
D37*
%TO.C,C301*%
X239733000Y-327156500D03*
X249733000Y-327156500D03*
%TD*%
D44*
%TO.C,C304*%
X269233000Y-206305000D03*
X269233000Y-197905000D03*
%TD*%
D10*
%TO.C,C628*%
X98250000Y-279700000D03*
X101200000Y-279700000D03*
%TD*%
D15*
%TO.C,R627*%
X93600000Y-277350000D03*
X96525000Y-277350000D03*
%TD*%
%TO.C,R597*%
X93600000Y-227750000D03*
X96525000Y-227750000D03*
%TD*%
D10*
%TO.C,C512*%
X93587500Y-87950000D03*
X96537500Y-87950000D03*
%TD*%
D18*
%TO.C,J113*%
X118700000Y-175590000D03*
D19*
X121240000Y-175590000D03*
X123780000Y-175590000D03*
X126320000Y-175590000D03*
%TD*%
D10*
%TO.C,C658*%
X98250000Y-329350000D03*
X101200000Y-329350000D03*
%TD*%
D25*
%TO.C,R204*%
X202029998Y-193100000D03*
X202029998Y-191450000D03*
%TD*%
D10*
%TO.C,C603*%
X98250000Y-236650000D03*
X101200000Y-236650000D03*
%TD*%
D27*
%TO.C,R109*%
X248772200Y-128576000D03*
X247122200Y-128576000D03*
%TD*%
D10*
%TO.C,C636*%
X88897500Y-296300000D03*
X91847500Y-296300000D03*
%TD*%
D22*
%TO.C,C103*%
X247533000Y-157986000D03*
X247533000Y-159536000D03*
%TD*%
D45*
%TO.C,FL1*%
X251233000Y-299606500D03*
X251233000Y-319606500D03*
X238733000Y-299606500D03*
X238733000Y-319606500D03*
%TD*%
D10*
%TO.C,C618*%
X98247500Y-263230000D03*
X101197500Y-263230000D03*
%TD*%
%TO.C,C518*%
X98250000Y-97950000D03*
X101200000Y-97950000D03*
%TD*%
D15*
%TO.C,R593*%
X98262500Y-222300000D03*
X101187500Y-222300000D03*
%TD*%
D17*
%TO.C,R117*%
X259708000Y-122055500D03*
X261358000Y-122055500D03*
%TD*%
D10*
%TO.C,C574*%
X102950000Y-187050000D03*
X105900000Y-187050000D03*
%TD*%
D15*
%TO.C,R599*%
X102962500Y-227750000D03*
X105887500Y-227750000D03*
%TD*%
D24*
%TO.C,R102*%
X245647999Y-154541000D03*
X245647999Y-156191000D03*
%TD*%
D15*
%TO.C,R588*%
X98262500Y-211250000D03*
X101187500Y-211250000D03*
%TD*%
D18*
%TO.C,J119*%
X118700000Y-225120000D03*
D19*
X121240000Y-225120000D03*
X123780000Y-225120000D03*
X126320000Y-225120000D03*
%TD*%
D15*
%TO.C,R544*%
X102962500Y-140100000D03*
X105887500Y-140100000D03*
%TD*%
%TO.C,R557*%
X93600000Y-161800000D03*
X96525000Y-161800000D03*
%TD*%
D10*
%TO.C,C516*%
X88897500Y-97950000D03*
X91847500Y-97950000D03*
%TD*%
%TO.C,C607*%
X93587500Y-246700000D03*
X96537500Y-246700000D03*
%TD*%
D15*
%TO.C,R577*%
X93600000Y-194800000D03*
X96525000Y-194800000D03*
%TD*%
%TO.C,R600*%
X107662500Y-227750000D03*
X110587500Y-227750000D03*
%TD*%
%TO.C,R609*%
X102962500Y-244350000D03*
X105887500Y-244350000D03*
%TD*%
D18*
%TO.C,J107*%
X118700000Y-126060000D03*
D19*
X121240000Y-126060000D03*
X123780000Y-126060000D03*
X126320000Y-126060000D03*
%TD*%
D15*
%TO.C,R510*%
X107662500Y-79150000D03*
X110587500Y-79150000D03*
%TD*%
D10*
%TO.C,C506*%
X88897500Y-81550000D03*
X91847500Y-81550000D03*
%TD*%
D25*
%TO.C,R205*%
X198203332Y-193100000D03*
X198203332Y-191450000D03*
%TD*%
D15*
%TO.C,R513*%
X98262500Y-90350000D03*
X101187500Y-90350000D03*
%TD*%
%TO.C,R625*%
X107662500Y-271950000D03*
X110587500Y-271950000D03*
%TD*%
D27*
%TO.C,R111*%
X248772200Y-125436000D03*
X247122200Y-125436000D03*
%TD*%
D15*
%TO.C,R564*%
X102962500Y-172950000D03*
X105887500Y-172950000D03*
%TD*%
%TO.C,R628*%
X98262500Y-277350000D03*
X101187500Y-277350000D03*
%TD*%
D18*
%TO.C,J114*%
X166700000Y-175590000D03*
D19*
X169240000Y-175590000D03*
X171780000Y-175590000D03*
X174320000Y-175590000D03*
%TD*%
D15*
%TO.C,R655*%
X107662500Y-321450000D03*
X110587500Y-321450000D03*
%TD*%
D25*
%TO.C,R222*%
X236373000Y-138501000D03*
X236373000Y-136851000D03*
%TD*%
D15*
%TO.C,R562*%
X93600000Y-172950000D03*
X96525000Y-172950000D03*
%TD*%
D17*
%TO.C,R112*%
X256733000Y-123555500D03*
X258383000Y-123555500D03*
%TD*%
D10*
%TO.C,C501*%
X88897500Y-71550000D03*
X91847500Y-71550000D03*
%TD*%
%TO.C,C609*%
X102950000Y-246700000D03*
X105900000Y-246700000D03*
%TD*%
D46*
%TO.C,RV2*%
X262583000Y-300106500D03*
X260783000Y-305106500D03*
%TD*%
D27*
%TO.C,R121*%
X258383000Y-120186000D03*
X256733000Y-120186000D03*
%TD*%
D16*
%TO.C,C126*%
X259758000Y-120186000D03*
X261308000Y-120186000D03*
%TD*%
D18*
%TO.C,J130*%
X166700000Y-307670000D03*
D19*
X169240000Y-307670000D03*
X171780000Y-307670000D03*
X174320000Y-307670000D03*
%TD*%
D10*
%TO.C,C558*%
X98250000Y-164150000D03*
X101200000Y-164150000D03*
%TD*%
%TO.C,C548*%
X98250000Y-147850000D03*
X101200000Y-147850000D03*
%TD*%
D47*
%TO.C,C306*%
X246173000Y-197766500D03*
X246173000Y-206166500D03*
%TD*%
D15*
%TO.C,R591*%
X88910000Y-222300000D03*
X91835000Y-222300000D03*
%TD*%
D48*
%TO.C,Y101*%
X231053000Y-111574000D03*
X231053000Y-120074000D03*
%TD*%
D10*
%TO.C,C532*%
X93587500Y-121050000D03*
X96537500Y-121050000D03*
%TD*%
D15*
%TO.C,R629*%
X102962500Y-277350000D03*
X105887500Y-277350000D03*
%TD*%
D10*
%TO.C,C584*%
X102950000Y-203500000D03*
X105900000Y-203500000D03*
%TD*%
D49*
%TO.C,U107*%
X230458000Y-166461000D03*
X229808000Y-166461000D03*
X229158000Y-166461000D03*
X228508000Y-166461000D03*
X227858000Y-166461000D03*
X227208000Y-166461000D03*
X226558000Y-166461000D03*
X225908000Y-166461000D03*
X225258000Y-166461000D03*
X224608000Y-166461000D03*
X224608000Y-172186000D03*
X225258000Y-172186000D03*
X225908000Y-172186000D03*
X226558000Y-172186000D03*
X227208000Y-172186000D03*
X227858000Y-172186000D03*
X228508000Y-172186000D03*
X229158000Y-172186000D03*
X229808000Y-172186000D03*
X230458000Y-172186000D03*
%TD*%
D10*
%TO.C,C612*%
X93587500Y-253100000D03*
X96537500Y-253100000D03*
%TD*%
D24*
%TO.C,R214*%
X205833330Y-212975000D03*
X205833330Y-214625000D03*
%TD*%
D15*
%TO.C,R508*%
X98262500Y-79150000D03*
X101187500Y-79150000D03*
%TD*%
D10*
%TO.C,C648*%
X98250000Y-312700000D03*
X101200000Y-312700000D03*
%TD*%
D18*
%TO.C,J111*%
X118700000Y-159080000D03*
D19*
X121240000Y-159080000D03*
X123780000Y-159080000D03*
X126320000Y-159080000D03*
%TD*%
D15*
%TO.C,R608*%
X98262500Y-244350000D03*
X101187500Y-244350000D03*
%TD*%
%TO.C,R623*%
X98262500Y-271950000D03*
X101187500Y-271950000D03*
%TD*%
D43*
%TO.C,J56*%
X270083000Y-307366500D03*
%TD*%
D25*
%TO.C,R203*%
X205856664Y-193100000D03*
X205856664Y-191450000D03*
%TD*%
D10*
%TO.C,C557*%
X93587500Y-164150000D03*
X96537500Y-164150000D03*
%TD*%
D15*
%TO.C,R650*%
X107662500Y-310350000D03*
X110587500Y-310350000D03*
%TD*%
D22*
%TO.C,C219*%
X283493000Y-135136000D03*
X283493000Y-136686000D03*
%TD*%
D20*
%TO.C,J506*%
X85067500Y-155270000D03*
D21*
X85067500Y-162890000D03*
%TD*%
D10*
%TO.C,C596*%
X88897500Y-230100000D03*
X91847500Y-230100000D03*
%TD*%
%TO.C,C520*%
X107650000Y-97950000D03*
X110600000Y-97950000D03*
%TD*%
D15*
%TO.C,R561*%
X88910000Y-172950000D03*
X91835000Y-172950000D03*
%TD*%
D50*
%TO.C,PS1*%
X237683000Y-274955000D03*
D51*
X257683000Y-274955000D03*
X277683000Y-274955000D03*
X237683000Y-212955000D03*
X246183000Y-212955000D03*
X257683000Y-212955000D03*
X269183000Y-212955000D03*
%TD*%
D10*
%TO.C,C517*%
X93587500Y-97950000D03*
X96537500Y-97950000D03*
%TD*%
D15*
%TO.C,R653*%
X98262500Y-321450000D03*
X101187500Y-321450000D03*
%TD*%
%TO.C,R618*%
X98262500Y-260950000D03*
X101187500Y-260950000D03*
%TD*%
D10*
%TO.C,C519*%
X102950000Y-97950000D03*
X105900000Y-97950000D03*
%TD*%
D15*
%TO.C,R547*%
X93600000Y-145530000D03*
X96525000Y-145530000D03*
%TD*%
D16*
%TO.C,C112*%
X237520005Y-112671000D03*
X239070005Y-112671000D03*
%TD*%
D15*
%TO.C,R586*%
X88910000Y-211250000D03*
X91835000Y-211250000D03*
%TD*%
D25*
%TO.C,R116*%
X251133000Y-116561000D03*
X251133000Y-114911000D03*
%TD*%
D26*
%TO.C,C303*%
X261663000Y-202621500D03*
X261663000Y-201071500D03*
%TD*%
D15*
%TO.C,R559*%
X102962500Y-161800000D03*
X105887500Y-161800000D03*
%TD*%
D20*
%TO.C,J516*%
X85067500Y-320370000D03*
D21*
X85067500Y-327990000D03*
%TD*%
D25*
%TO.C,R212*%
X198179998Y-214625000D03*
X198179998Y-212975000D03*
%TD*%
%TO.C,R201*%
X213509996Y-193100000D03*
X213509996Y-191450000D03*
%TD*%
D18*
%TO.C,J110*%
X166700000Y-142570000D03*
D19*
X169240000Y-142570000D03*
X171780000Y-142570000D03*
X174320000Y-142570000D03*
%TD*%
D22*
%TO.C,C118*%
X247240003Y-106601000D03*
X247240003Y-108151000D03*
%TD*%
D10*
%TO.C,C528*%
X98250000Y-114550000D03*
X101200000Y-114550000D03*
%TD*%
D15*
%TO.C,R636*%
X88910000Y-293950000D03*
X91835000Y-293950000D03*
%TD*%
D10*
%TO.C,C505*%
X107650000Y-71550000D03*
X110600000Y-71550000D03*
%TD*%
D15*
%TO.C,R651*%
X88910000Y-321450000D03*
X91835000Y-321450000D03*
%TD*%
D10*
%TO.C,C579*%
X102950000Y-197150000D03*
X105900000Y-197150000D03*
%TD*%
D15*
%TO.C,R583*%
X98262500Y-205850000D03*
X101187500Y-205850000D03*
%TD*%
%TO.C,R515*%
X107662500Y-90350000D03*
X110587500Y-90350000D03*
%TD*%
D10*
%TO.C,C598*%
X98250000Y-230100000D03*
X101200000Y-230100000D03*
%TD*%
D15*
%TO.C,R538*%
X98262500Y-128750000D03*
X101187500Y-128750000D03*
%TD*%
D10*
%TO.C,C503*%
X98250000Y-71550000D03*
X101200000Y-71550000D03*
%TD*%
%TO.C,C567*%
X93587500Y-180550000D03*
X96537500Y-180550000D03*
%TD*%
%TO.C,C608*%
X98250000Y-246700000D03*
X101200000Y-246700000D03*
%TD*%
%TO.C,C611*%
X88897500Y-253100000D03*
X91847500Y-253100000D03*
%TD*%
D24*
%TO.C,R216*%
X213486664Y-212975000D03*
X213486664Y-214625000D03*
%TD*%
D43*
%TO.C,J55*%
X270083000Y-300366500D03*
%TD*%
D10*
%TO.C,C654*%
X102950000Y-319100000D03*
X105900000Y-319100000D03*
%TD*%
D15*
%TO.C,R647*%
X93600000Y-310350000D03*
X96525000Y-310350000D03*
%TD*%
D25*
%TO.C,R202*%
X209683330Y-193100000D03*
X209683330Y-191450000D03*
%TD*%
D26*
%TO.C,C205*%
X200116665Y-193050000D03*
X200116665Y-191500000D03*
%TD*%
D10*
%TO.C,C605*%
X107650000Y-236650000D03*
X110600000Y-236650000D03*
%TD*%
%TO.C,C513*%
X98250000Y-87950000D03*
X101200000Y-87950000D03*
%TD*%
D15*
%TO.C,R503*%
X98262500Y-73920000D03*
X101187500Y-73920000D03*
%TD*%
D10*
%TO.C,C617*%
X93585000Y-263230000D03*
X96535000Y-263230000D03*
%TD*%
D26*
%TO.C,C203*%
X207769997Y-193050000D03*
X207769997Y-191500000D03*
%TD*%
D15*
%TO.C,R572*%
X93600000Y-189400000D03*
X96525000Y-189400000D03*
%TD*%
D10*
%TO.C,C643*%
X98250000Y-302700000D03*
X101200000Y-302700000D03*
%TD*%
D26*
%TO.C,C101*%
X251762999Y-156981000D03*
X251762999Y-155431000D03*
%TD*%
D15*
%TO.C,R501*%
X88910000Y-73920000D03*
X91835000Y-73920000D03*
%TD*%
D10*
%TO.C,C616*%
X88895000Y-263230000D03*
X91845000Y-263230000D03*
%TD*%
D22*
%TO.C,C119*%
X245618337Y-106601000D03*
X245618337Y-108151000D03*
%TD*%
D25*
%TO.C,R208*%
X186723334Y-193100000D03*
X186723334Y-191450000D03*
%TD*%
D10*
%TO.C,C565*%
X107650000Y-170600000D03*
X110600000Y-170600000D03*
%TD*%
%TO.C,C642*%
X93587500Y-302700000D03*
X96537500Y-302700000D03*
%TD*%
D15*
%TO.C,R539*%
X102962500Y-128750000D03*
X105887500Y-128750000D03*
%TD*%
%TO.C,R652*%
X93600000Y-321450000D03*
X96525000Y-321450000D03*
%TD*%
D52*
%TO.C,U105*%
X268585500Y-142441000D03*
X268585500Y-143391000D03*
X268585500Y-144341000D03*
X270860500Y-144341000D03*
X270860500Y-143391000D03*
X270860500Y-142441000D03*
%TD*%
D10*
%TO.C,C637*%
X93587500Y-296300000D03*
X96537500Y-296300000D03*
%TD*%
D22*
%TO.C,C215*%
X211573329Y-213025000D03*
X211573329Y-214575000D03*
%TD*%
D25*
%TO.C,R211*%
X194353332Y-214625000D03*
X194353332Y-212975000D03*
%TD*%
D15*
%TO.C,R624*%
X102962500Y-271950000D03*
X105887500Y-271950000D03*
%TD*%
D27*
%TO.C,R110*%
X248772200Y-126986000D03*
X247122200Y-126986000D03*
%TD*%
D53*
%TO.C,U102*%
X211750000Y-199262500D03*
X211250000Y-199262500D03*
X210750000Y-199262500D03*
X210250000Y-199262500D03*
X209750000Y-199262500D03*
X209250000Y-199262500D03*
X208750000Y-199262500D03*
X208250000Y-199262500D03*
X207750000Y-199262500D03*
X207250000Y-199262500D03*
X206750000Y-199262500D03*
X206250000Y-199262500D03*
D54*
X205562500Y-200200000D03*
X205562500Y-200700000D03*
X205562500Y-201200000D03*
X205562500Y-201700000D03*
X205562500Y-202200000D03*
X205562500Y-202700000D03*
X205562500Y-203200000D03*
D53*
X206250000Y-204137500D03*
X206750000Y-204137500D03*
X207250000Y-204137500D03*
X207750000Y-204137500D03*
X208250000Y-204137500D03*
X208750000Y-204137500D03*
X209250000Y-204137500D03*
X209750000Y-204137500D03*
X210250000Y-204137500D03*
X210750000Y-204137500D03*
X211250000Y-204137500D03*
X211750000Y-204137500D03*
D54*
X212437500Y-203200000D03*
X212437500Y-202700000D03*
X212437500Y-202200000D03*
X212437500Y-201700000D03*
X212437500Y-201200000D03*
X212437500Y-200700000D03*
X212437500Y-200200000D03*
D55*
X209000000Y-201700000D03*
%TD*%
D15*
%TO.C,R622*%
X93600000Y-271950000D03*
X96525000Y-271950000D03*
%TD*%
D18*
%TO.C,J101*%
X118700000Y-76530000D03*
D19*
X121240000Y-76530000D03*
X123780000Y-76530000D03*
X126320000Y-76530000D03*
%TD*%
D18*
%TO.C,J121*%
X118700000Y-241630000D03*
D19*
X121240000Y-241630000D03*
X123780000Y-241630000D03*
X126320000Y-241630000D03*
%TD*%
D15*
%TO.C,R558*%
X98262500Y-161800000D03*
X101187500Y-161800000D03*
%TD*%
D18*
%TO.C,J109*%
X118700000Y-142570000D03*
D19*
X121240000Y-142570000D03*
X123780000Y-142570000D03*
X126320000Y-142570000D03*
%TD*%
D15*
%TO.C,R603*%
X98262500Y-239000000D03*
X101187500Y-239000000D03*
%TD*%
D10*
%TO.C,C589*%
X102950000Y-213600000D03*
X105900000Y-213600000D03*
%TD*%
%TO.C,C606*%
X88897500Y-246700000D03*
X91847500Y-246700000D03*
%TD*%
%TO.C,C533*%
X98250000Y-121050000D03*
X101200000Y-121050000D03*
%TD*%
D15*
%TO.C,R512*%
X93600000Y-90350000D03*
X96525000Y-90350000D03*
%TD*%
%TO.C,R506*%
X88910000Y-79150000D03*
X91835000Y-79150000D03*
%TD*%
D10*
%TO.C,C634*%
X102950000Y-286150000D03*
X105900000Y-286150000D03*
%TD*%
D18*
%TO.C,J115*%
X118700000Y-192100000D03*
D19*
X121240000Y-192100000D03*
X123780000Y-192100000D03*
X126320000Y-192100000D03*
%TD*%
D15*
%TO.C,R571*%
X88910000Y-189400000D03*
X91835000Y-189400000D03*
%TD*%
D16*
%TO.C,C107*%
X246108000Y-175236000D03*
X247658000Y-175236000D03*
%TD*%
D18*
%TO.C,J120*%
X166700000Y-225120000D03*
D19*
X169240000Y-225120000D03*
X171780000Y-225120000D03*
X174320000Y-225120000D03*
%TD*%
D10*
%TO.C,C573*%
X98250000Y-187050000D03*
X101200000Y-187050000D03*
%TD*%
%TO.C,C575*%
X107650000Y-187050000D03*
X110600000Y-187050000D03*
%TD*%
D18*
%TO.C,J102*%
X166700000Y-76530000D03*
D19*
X169240000Y-76530000D03*
X171780000Y-76530000D03*
X174320000Y-76530000D03*
%TD*%
D10*
%TO.C,C550*%
X107650000Y-147850000D03*
X110600000Y-147850000D03*
%TD*%
D15*
%TO.C,R563*%
X98262500Y-172950000D03*
X101187500Y-172950000D03*
%TD*%
%TO.C,R573*%
X98262500Y-189400000D03*
X101187500Y-189400000D03*
%TD*%
D10*
%TO.C,C585*%
X107650000Y-203500000D03*
X110600000Y-203500000D03*
%TD*%
%TO.C,C645*%
X107650000Y-302700000D03*
X110600000Y-302700000D03*
%TD*%
%TO.C,C547*%
X93587500Y-147850000D03*
X96537500Y-147850000D03*
%TD*%
D20*
%TO.C,J513*%
X85067500Y-270840000D03*
D21*
X85067500Y-278460000D03*
%TD*%
D10*
%TO.C,C657*%
X93587500Y-329350000D03*
X96537500Y-329350000D03*
%TD*%
D24*
%TO.C,R217*%
X221650000Y-203575000D03*
X221650000Y-205225000D03*
%TD*%
D15*
%TO.C,R584*%
X102962500Y-205850000D03*
X105887500Y-205850000D03*
%TD*%
D10*
%TO.C,C601*%
X88897500Y-236650000D03*
X91847500Y-236650000D03*
%TD*%
%TO.C,C621*%
X88897500Y-269600000D03*
X91847500Y-269600000D03*
%TD*%
D15*
%TO.C,R511*%
X88910000Y-90350000D03*
X91835000Y-90350000D03*
%TD*%
D25*
%TO.C,R218*%
X281383000Y-136736000D03*
X281383000Y-135086000D03*
%TD*%
D10*
%TO.C,C630*%
X107650000Y-279700000D03*
X110600000Y-279700000D03*
%TD*%
D26*
%TO.C,C204*%
X203943331Y-193050000D03*
X203943331Y-191500000D03*
%TD*%
D15*
%TO.C,R620*%
X107662500Y-260950000D03*
X110587500Y-260950000D03*
%TD*%
%TO.C,R656*%
X88910000Y-327000000D03*
X91835000Y-327000000D03*
%TD*%
D10*
%TO.C,C539*%
X102950000Y-131100000D03*
X105900000Y-131100000D03*
%TD*%
D22*
%TO.C,C115*%
X244897200Y-111261000D03*
X244897200Y-112811000D03*
%TD*%
D10*
%TO.C,C556*%
X88897500Y-164150000D03*
X91847500Y-164150000D03*
%TD*%
%TO.C,C580*%
X107650000Y-197150000D03*
X110600000Y-197150000D03*
%TD*%
D20*
%TO.C,J502*%
X85067500Y-89230000D03*
D21*
X85067500Y-96850000D03*
%TD*%
D15*
%TO.C,R526*%
X88910000Y-112200000D03*
X91835000Y-112200000D03*
%TD*%
%TO.C,R613*%
X98262500Y-255400000D03*
X101187500Y-255400000D03*
%TD*%
D10*
%TO.C,C541*%
X88897500Y-137750000D03*
X91847500Y-137750000D03*
%TD*%
D15*
%TO.C,R533*%
X98262500Y-123400000D03*
X101187500Y-123400000D03*
%TD*%
D26*
%TO.C,C208*%
X188636667Y-193050000D03*
X188636667Y-191500000D03*
%TD*%
D15*
%TO.C,R604*%
X102962500Y-239000000D03*
X105887500Y-239000000D03*
%TD*%
D26*
%TO.C,C223*%
X215200000Y-205175000D03*
X215200000Y-203625000D03*
%TD*%
D15*
%TO.C,R532*%
X93600000Y-123400000D03*
X96525000Y-123400000D03*
%TD*%
D18*
%TO.C,J104*%
X166700000Y-93040000D03*
D19*
X169240000Y-93040000D03*
X171780000Y-93040000D03*
X174320000Y-93040000D03*
%TD*%
D10*
%TO.C,C544*%
X102950000Y-137750000D03*
X105900000Y-137750000D03*
%TD*%
D16*
%TO.C,C125*%
X259758000Y-118686000D03*
X261308000Y-118686000D03*
%TD*%
D15*
%TO.C,R542*%
X93600000Y-140100000D03*
X96525000Y-140100000D03*
%TD*%
%TO.C,R607*%
X93600000Y-244350000D03*
X96525000Y-244350000D03*
%TD*%
D52*
%TO.C,U106*%
X217262500Y-203250000D03*
X217262500Y-204200000D03*
X217262500Y-205150000D03*
X219537500Y-205150000D03*
X219537500Y-203250000D03*
%TD*%
D15*
%TO.C,R567*%
X93600000Y-178200000D03*
X96525000Y-178200000D03*
%TD*%
D56*
%TO.C,L101*%
X239028335Y-109776000D03*
X239028335Y-108201000D03*
%TD*%
D25*
%TO.C,R209*%
X186700000Y-214625000D03*
X186700000Y-212975000D03*
%TD*%
D26*
%TO.C,C109*%
X242493000Y-167988500D03*
X242493000Y-166438500D03*
%TD*%
D15*
%TO.C,R645*%
X107662500Y-305050000D03*
X110587500Y-305050000D03*
%TD*%
D10*
%TO.C,C656*%
X88897500Y-329350000D03*
X91847500Y-329350000D03*
%TD*%
D15*
%TO.C,R509*%
X102962500Y-79150000D03*
X105887500Y-79150000D03*
%TD*%
D38*
%TO.C,SW101*%
X254382999Y-155406000D03*
X258482999Y-155406000D03*
X254382999Y-157006000D03*
X258482999Y-157006000D03*
%TD*%
D20*
%TO.C,J514*%
X85067500Y-287350000D03*
D21*
X85067500Y-294970000D03*
%TD*%
D18*
%TO.C,J127*%
X118700000Y-291160000D03*
D19*
X121240000Y-291160000D03*
X123780000Y-291160000D03*
X126320000Y-291160000D03*
%TD*%
D10*
%TO.C,C508*%
X98250000Y-81550000D03*
X101200000Y-81550000D03*
%TD*%
D15*
%TO.C,R614*%
X102962500Y-255400000D03*
X105887500Y-255400000D03*
%TD*%
%TO.C,R568*%
X98262500Y-178200000D03*
X101187500Y-178200000D03*
%TD*%
%TO.C,R579*%
X102962500Y-194800000D03*
X105887500Y-194800000D03*
%TD*%
D10*
%TO.C,C504*%
X102950000Y-71550000D03*
X105900000Y-71550000D03*
%TD*%
D20*
%TO.C,J501*%
X85067500Y-72720000D03*
D21*
X85067500Y-80340000D03*
%TD*%
D25*
%TO.C,R224*%
X242163000Y-133331000D03*
X242163000Y-131681000D03*
%TD*%
D46*
%TO.C,RV1*%
X260783000Y-314706500D03*
X262583000Y-309706500D03*
%TD*%
D10*
%TO.C,C644*%
X102950000Y-302700000D03*
X105900000Y-302700000D03*
%TD*%
D22*
%TO.C,C218*%
X232333000Y-166561000D03*
X232333000Y-168111000D03*
%TD*%
D15*
%TO.C,R626*%
X88910000Y-277350000D03*
X91835000Y-277350000D03*
%TD*%
D10*
%TO.C,C509*%
X102950000Y-81550000D03*
X105900000Y-81550000D03*
%TD*%
D15*
%TO.C,R527*%
X93600000Y-112200000D03*
X96525000Y-112200000D03*
%TD*%
D25*
%TO.C,R221*%
X233843000Y-138501000D03*
X233843000Y-136851000D03*
%TD*%
D22*
%TO.C,C124*%
X255333000Y-117861000D03*
X255333000Y-119411000D03*
%TD*%
D10*
%TO.C,C623*%
X98250000Y-269600000D03*
X101200000Y-269600000D03*
%TD*%
D15*
%TO.C,R548*%
X98262500Y-145530000D03*
X101187500Y-145530000D03*
%TD*%
D18*
%TO.C,J126*%
X166700000Y-274650000D03*
D19*
X169240000Y-274650000D03*
X171780000Y-274650000D03*
X174320000Y-274650000D03*
%TD*%
D10*
%TO.C,C639*%
X102950000Y-296300000D03*
X105900000Y-296300000D03*
%TD*%
D15*
%TO.C,R621*%
X88910000Y-271950000D03*
X91835000Y-271950000D03*
%TD*%
D10*
%TO.C,C569*%
X102950000Y-180550000D03*
X105900000Y-180550000D03*
%TD*%
%TO.C,C530*%
X107650000Y-114550000D03*
X110600000Y-114550000D03*
%TD*%
D15*
%TO.C,R554*%
X102962500Y-156400000D03*
X105887500Y-156400000D03*
%TD*%
D10*
%TO.C,C570*%
X107650000Y-180550000D03*
X110600000Y-180550000D03*
%TD*%
D15*
%TO.C,R536*%
X88910000Y-128750000D03*
X91835000Y-128750000D03*
%TD*%
%TO.C,R551*%
X88910000Y-156400000D03*
X91835000Y-156400000D03*
%TD*%
%TO.C,R525*%
X107662500Y-106900000D03*
X110587500Y-106900000D03*
%TD*%
D20*
%TO.C,J515*%
X85067500Y-303860000D03*
D21*
X85067500Y-311480000D03*
%TD*%
D15*
%TO.C,R580*%
X107662500Y-194800000D03*
X110587500Y-194800000D03*
%TD*%
D57*
%TO.C,U104*%
X245033000Y-167036000D03*
X245033000Y-169336000D03*
D58*
X251333000Y-169336000D03*
D57*
X245033000Y-171636000D03*
%TD*%
D10*
%TO.C,C650*%
X107650000Y-312700000D03*
X110600000Y-312700000D03*
%TD*%
D18*
%TO.C,J125*%
X118700000Y-274650000D03*
D19*
X121240000Y-274650000D03*
X123780000Y-274650000D03*
X126320000Y-274650000D03*
%TD*%
D10*
%TO.C,C515*%
X107650000Y-87950000D03*
X110600000Y-87950000D03*
%TD*%
D20*
%TO.C,J511*%
X85067500Y-237820000D03*
D21*
X85067500Y-245440000D03*
%TD*%
D10*
%TO.C,C597*%
X93587500Y-230100000D03*
X96537500Y-230100000D03*
%TD*%
M02*
