M48
; DRILL file {KiCad 8.0.8} date 2025-02-12T13:58:14+0100
; FORMAT={-:-/ absolute / metric / decimal}
; #@! TF.CreationDate,2025-02-12T13:58:14+01:00
; #@! TF.GenerationSoftware,Kicad,Pcbnew,8.0.8
; #@! TF.FileFunction,MixedPlating,1,2
FMAT,2
METRIC
; #@! TA.AperFunction,Plated,PTH,ViaDrill
T1C0.300
; #@! TA.AperFunction,Plated,PTH,ViaDrill
T2C0.400
; #@! TA.AperFunction,Plated,PTH,ComponentDrill
T3C0.600
; #@! TA.AperFunction,Plated,PTH,ViaDrill
T4C0.800
; #@! TA.AperFunction,Plated,PTH,ComponentDrill
T5C0.889
; #@! TA.AperFunction,Plated,PTH,ComponentDrill
T6C1.000
; #@! TA.AperFunction,Plated,PTH,ComponentDrill
T7C1.016
; #@! TA.AperFunction,Plated,PTH,ComponentDrill
T8C1.200
; #@! TA.AperFunction,Plated,PTH,ComponentDrill
T9C1.400
; #@! TA.AperFunction,Plated,PTH,ComponentDrill
T10C1.600
; #@! TA.AperFunction,Plated,PTH,ComponentDrill
T11C1.600
; #@! TA.AperFunction,Plated,PTH,ComponentDrill
T12C1.850
; #@! TA.AperFunction,NonPlated,NPTH,ComponentDrill
T13C0.650
; #@! TA.AperFunction,NonPlated,NPTH,ComponentDrill
T14C3.251
%
G90
G05
T1
X214.95Y-201.625
X233.865Y-126.268
X234.608Y-150.861
X234.608Y-152.236
X235.308Y-150.136
X235.308Y-151.536
X235.308Y-152.936
X236.008Y-150.861
X236.008Y-152.236
X236.303Y-123.806
X236.683Y-152.936
X236.708Y-150.136
X236.708Y-151.536
X237.408Y-150.861
X237.408Y-152.261
X237.683Y-120.577
X237.683Y-124.586
X239.583Y-138.186
X240.833Y-138.186
X242.883Y-124.786
X245.933Y-117.186
X248.762Y-130.286
X253.033Y-114.036
X254.583Y-118.686
X254.583Y-120.186
X258.933Y-125.536
X259.033Y-118.686
X259.033Y-120.186
X259.708Y-122.811
X261.933Y-124.836
X262.083Y-122.43
X262.083Y-123.13
X267.433Y-143.386
X274.789Y-135.636
X281.383Y-133.986
X283.533Y-133.986
T2
X158.372Y-71.818
X158.372Y-75.818
X158.372Y-79.818
X158.372Y-83.818
X158.372Y-87.818
X158.372Y-91.818
X158.372Y-95.818
X158.372Y-99.818
X158.372Y-103.818
X158.372Y-107.818
X158.372Y-111.818
X158.372Y-115.818
X158.372Y-119.818
X158.372Y-123.818
X158.372Y-127.818
X158.372Y-131.818
X158.372Y-135.818
X158.372Y-139.818
X158.372Y-143.818
X158.372Y-147.818
X158.372Y-151.818
X158.372Y-155.818
X158.372Y-159.818
X158.372Y-163.818
X158.372Y-167.818
X158.372Y-171.818
X158.372Y-175.818
X158.372Y-179.818
X158.372Y-183.818
X158.372Y-187.818
X158.372Y-191.818
X158.372Y-195.818
X158.372Y-199.818
X158.372Y-203.818
X158.372Y-207.818
X158.372Y-211.818
X158.372Y-215.818
X158.372Y-219.818
X158.372Y-223.818
X158.372Y-227.818
X158.372Y-231.818
X158.372Y-235.818
X158.372Y-239.818
X158.372Y-243.818
X158.372Y-247.818
X158.372Y-251.818
X158.372Y-255.818
X158.372Y-259.818
X158.372Y-263.818
X158.372Y-267.818
X158.372Y-271.818
X158.372Y-275.818
X158.372Y-279.818
X158.372Y-283.818
X158.372Y-287.818
X158.372Y-291.818
X158.372Y-295.818
X158.372Y-299.818
X158.372Y-303.818
X158.372Y-307.818
X158.372Y-311.818
X158.372Y-315.818
X158.372Y-319.818
X158.372Y-323.818
X158.372Y-327.818
X158.372Y-331.818
X162.172Y-71.818
X162.172Y-75.818
X162.172Y-79.818
X162.172Y-83.818
X162.172Y-87.818
X162.172Y-91.818
X162.172Y-95.818
X162.172Y-99.818
X162.172Y-103.818
X162.172Y-107.818
X162.172Y-111.818
X162.172Y-115.818
X162.172Y-119.818
X162.172Y-123.818
X162.172Y-127.818
X162.172Y-131.818
X162.172Y-135.818
X162.172Y-139.818
X162.172Y-143.818
X162.172Y-147.818
X162.172Y-151.818
X162.172Y-155.818
X162.172Y-159.818
X162.172Y-163.818
X162.172Y-167.818
X162.172Y-171.818
X162.172Y-175.818
X162.172Y-179.818
X162.172Y-183.818
X162.172Y-187.818
X162.172Y-191.818
X162.172Y-195.818
X162.172Y-199.818
X162.172Y-203.818
X162.172Y-207.818
X162.172Y-211.818
X162.172Y-215.818
X162.172Y-219.818
X162.172Y-223.818
X162.172Y-227.818
X162.172Y-231.818
X162.172Y-235.818
X162.172Y-239.818
X162.172Y-243.818
X162.172Y-247.818
X162.172Y-251.818
X162.172Y-255.818
X162.172Y-259.818
X162.172Y-263.818
X162.172Y-267.818
X162.172Y-271.818
X162.172Y-275.818
X162.172Y-279.818
X162.172Y-283.818
X162.172Y-287.818
X162.172Y-291.818
X162.172Y-295.818
X162.172Y-299.818
X162.172Y-303.818
X162.172Y-307.818
X162.172Y-311.818
X162.172Y-315.818
X162.172Y-319.818
X162.172Y-323.818
X162.172Y-327.818
X162.172Y-331.818
X165.972Y-71.818
X165.972Y-327.818
X165.972Y-331.818
X169.772Y-71.818
X169.772Y-327.818
X169.772Y-331.818
X173.572Y-71.818
X173.572Y-79.818
X173.572Y-83.818
X173.572Y-87.818
X173.572Y-95.818
X173.572Y-99.818
X173.572Y-103.818
X173.572Y-111.818
X173.572Y-115.818
X173.572Y-119.818
X173.572Y-123.818
X173.572Y-127.818
X173.572Y-131.818
X173.572Y-135.818
X173.572Y-139.818
X173.572Y-147.818
X173.572Y-151.818
X173.572Y-155.818
X173.572Y-163.818
X173.572Y-167.818
X173.572Y-171.818
X173.572Y-179.818
X173.572Y-183.818
X173.572Y-187.818
X173.572Y-195.818
X173.572Y-199.818
X173.572Y-203.818
X173.572Y-211.818
X173.572Y-215.818
X173.572Y-219.818
X173.572Y-227.818
X173.572Y-239.818
X173.572Y-243.818
X173.572Y-247.818
X173.572Y-251.818
X173.572Y-255.818
X173.572Y-263.818
X173.572Y-267.818
X173.572Y-271.818
X173.572Y-279.818
X173.572Y-283.818
X173.572Y-287.818
X173.572Y-295.818
X173.572Y-299.818
X173.572Y-303.818
X173.572Y-311.818
X173.572Y-315.818
X173.572Y-319.818
X173.572Y-327.818
X173.572Y-331.818
X177.372Y-71.818
X177.372Y-79.818
X177.372Y-83.818
X177.372Y-87.818
X177.372Y-91.818
X177.372Y-95.818
X177.372Y-99.818
X177.372Y-103.818
X177.372Y-107.818
X177.372Y-111.818
X177.372Y-115.818
X177.372Y-119.818
X177.372Y-123.818
X177.372Y-127.818
X177.372Y-131.818
X177.372Y-135.818
X177.372Y-139.818
X177.372Y-143.818
X177.372Y-147.818
X177.372Y-151.818
X177.372Y-155.818
X177.372Y-163.818
X177.372Y-167.818
X177.372Y-171.818
X177.372Y-179.818
X177.372Y-183.818
X177.372Y-187.818
X177.372Y-195.818
X177.372Y-199.818
X177.372Y-203.818
X177.372Y-211.818
X177.372Y-215.818
X177.372Y-219.818
X177.372Y-223.818
X177.372Y-227.818
X177.372Y-239.818
X177.372Y-243.818
X177.372Y-247.818
X177.372Y-251.818
X177.372Y-255.818
X177.372Y-259.818
X177.372Y-263.818
X177.372Y-267.818
X177.372Y-271.818
X177.372Y-275.818
X177.372Y-279.818
X177.372Y-283.818
X177.372Y-287.818
X177.372Y-295.818
X177.372Y-299.818
X177.372Y-303.818
X177.372Y-311.818
X177.372Y-315.818
X177.372Y-319.818
X177.372Y-327.818
X177.372Y-331.818
X181.172Y-71.818
X181.172Y-79.818
X181.172Y-83.818
X181.172Y-87.818
X181.172Y-91.818
X181.172Y-95.818
X181.172Y-99.818
X181.172Y-103.818
X181.172Y-107.818
X181.172Y-111.818
X181.172Y-115.818
X181.172Y-119.818
X181.172Y-123.818
X181.172Y-127.818
X181.172Y-131.818
X181.172Y-135.818
X181.172Y-139.818
X181.172Y-143.818
X181.172Y-147.818
X181.172Y-151.818
X181.172Y-155.818
X181.172Y-163.818
X181.172Y-167.818
X181.172Y-171.818
X181.172Y-179.818
X181.172Y-183.818
X181.172Y-187.818
X181.172Y-195.818
X181.172Y-199.818
X181.172Y-203.818
X181.172Y-207.818
X181.172Y-215.818
X181.172Y-219.818
X181.172Y-223.818
X181.172Y-227.818
X181.172Y-239.818
X181.172Y-243.818
X181.172Y-247.818
X181.172Y-251.818
X181.172Y-255.818
X181.172Y-259.818
X181.172Y-263.818
X181.172Y-267.818
X181.172Y-271.818
X181.172Y-275.818
X181.172Y-279.818
X181.172Y-283.818
X181.172Y-287.818
X181.172Y-295.818
X181.172Y-299.818
X181.172Y-303.818
X181.172Y-311.818
X181.172Y-315.818
X181.172Y-319.818
X181.172Y-327.818
X181.172Y-331.818
X184.972Y-71.818
X184.972Y-79.818
X184.972Y-83.818
X184.972Y-87.818
X184.972Y-91.818
X184.972Y-95.818
X184.972Y-99.818
X184.972Y-103.818
X184.972Y-107.818
X184.972Y-111.818
X184.972Y-115.818
X184.972Y-119.818
X184.972Y-123.818
X184.972Y-127.818
X184.972Y-131.818
X184.972Y-135.818
X184.972Y-139.818
X184.972Y-143.818
X184.972Y-147.818
X184.972Y-151.818
X184.972Y-155.818
X184.972Y-163.818
X184.972Y-167.818
X184.972Y-171.818
X184.972Y-179.818
X184.972Y-183.818
X184.972Y-187.818
X184.972Y-195.818
X184.972Y-199.818
X184.972Y-203.818
X184.972Y-207.818
X184.972Y-219.818
X184.972Y-227.818
X184.972Y-239.818
X184.972Y-243.818
X184.972Y-247.818
X184.972Y-251.818
X184.972Y-255.818
X184.972Y-259.818
X184.972Y-263.818
X184.972Y-267.818
X184.972Y-271.818
X184.972Y-275.818
X184.972Y-279.818
X184.972Y-283.818
X184.972Y-287.818
X184.972Y-295.818
X184.972Y-299.818
X184.972Y-303.818
X184.972Y-311.818
X184.972Y-315.818
X184.972Y-319.818
X184.972Y-327.818
X184.972Y-331.818
X185.0Y-193.1
X185.023Y-190.3
X185.1Y-212.1
X185.15Y-216.4
X188.613Y-190.45
X188.613Y-215.55
X188.772Y-71.818
X188.772Y-79.818
X188.772Y-83.818
X188.772Y-87.818
X188.772Y-91.818
X188.772Y-95.818
X188.772Y-99.818
X188.772Y-103.818
X188.772Y-107.818
X188.772Y-111.818
X188.772Y-115.818
X188.772Y-119.818
X188.772Y-123.818
X188.772Y-131.818
X188.772Y-135.818
X188.772Y-139.818
X188.772Y-147.818
X188.772Y-151.818
X188.772Y-155.818
X188.772Y-159.818
X188.772Y-167.818
X188.772Y-171.818
X188.772Y-175.818
X188.772Y-183.818
X188.772Y-187.818
X188.772Y-199.818
X188.772Y-203.818
X188.772Y-207.818
X188.772Y-227.818
X188.772Y-243.818
X188.772Y-247.818
X188.772Y-251.818
X188.772Y-259.818
X188.772Y-263.818
X188.772Y-267.818
X188.772Y-275.818
X188.772Y-279.818
X188.772Y-283.818
X188.772Y-287.818
X188.772Y-295.818
X188.772Y-299.818
X188.772Y-303.818
X188.772Y-311.818
X188.772Y-315.818
X188.772Y-319.818
X188.772Y-327.818
X188.772Y-331.818
X190.881Y-211.074
X192.024Y-195.834
X192.44Y-190.45
X192.44Y-215.55
X192.572Y-71.818
X192.572Y-79.818
X192.572Y-83.818
X192.572Y-87.818
X192.572Y-91.818
X192.572Y-95.818
X192.572Y-99.818
X192.572Y-103.818
X192.572Y-107.818
X192.572Y-115.818
X192.572Y-119.818
X192.572Y-123.818
X192.572Y-127.818
X192.572Y-135.818
X192.572Y-139.818
X192.572Y-143.818
X192.572Y-151.818
X192.572Y-155.818
X192.572Y-159.818
X192.572Y-163.818
X192.572Y-171.818
X192.572Y-175.818
X192.572Y-179.818
X192.572Y-183.818
X192.572Y-187.818
X192.572Y-203.818
X192.572Y-219.818
X192.572Y-223.818
X192.572Y-227.818
X192.572Y-239.818
X192.572Y-243.818
X192.572Y-247.818
X192.572Y-255.818
X192.572Y-259.818
X192.572Y-263.818
X192.572Y-271.818
X192.572Y-275.818
X192.572Y-279.818
X192.572Y-283.818
X192.572Y-291.818
X192.572Y-295.818
X192.572Y-299.818
X192.572Y-303.818
X192.572Y-311.818
X192.572Y-315.818
X192.572Y-319.818
X192.572Y-327.818
X192.572Y-331.818
X194.31Y-207.818
X195.326Y-198.882
X195.6Y-202.55
X196.215Y-195.961
X196.267Y-190.45
X196.267Y-215.55
X196.372Y-71.818
X196.372Y-79.818
X196.372Y-83.818
X196.372Y-87.818
X196.372Y-91.818
X196.372Y-99.818
X196.372Y-103.818
X196.372Y-107.818
X196.372Y-111.818
X196.372Y-119.818
X196.372Y-123.818
X196.372Y-127.818
X196.372Y-131.818
X196.372Y-139.818
X196.372Y-143.818
X196.372Y-147.818
X196.372Y-155.818
X196.372Y-159.818
X196.372Y-163.818
X196.372Y-167.818
X196.372Y-171.818
X196.372Y-175.818
X196.372Y-179.818
X196.372Y-183.818
X196.372Y-187.818
X196.372Y-219.818
X196.372Y-223.818
X196.372Y-227.818
X196.372Y-239.818
X196.372Y-243.818
X196.372Y-251.818
X196.372Y-255.818
X196.372Y-259.818
X196.372Y-267.818
X196.372Y-271.818
X196.372Y-275.818
X196.372Y-279.818
X196.372Y-287.818
X196.372Y-291.818
X196.372Y-295.818
X196.372Y-299.818
X196.372Y-311.818
X196.372Y-315.818
X196.372Y-319.818
X196.372Y-327.818
X196.372Y-331.818
X198.12Y-203.835
X198.755Y-198.882
X199.898Y-195.834
X200.093Y-190.45
X200.093Y-215.55
X200.172Y-71.818
X200.172Y-83.818
X200.172Y-87.818
X200.172Y-91.818
X200.172Y-95.818
X200.172Y-103.818
X200.172Y-107.818
X200.172Y-111.818
X200.172Y-115.818
X200.172Y-123.818
X200.172Y-127.818
X200.172Y-131.818
X200.172Y-135.818
X200.172Y-143.818
X200.172Y-147.818
X200.172Y-151.818
X200.172Y-155.818
X200.172Y-159.818
X200.172Y-163.818
X200.172Y-167.818
X200.172Y-171.818
X200.172Y-175.818
X200.172Y-179.818
X200.172Y-183.818
X200.172Y-187.818
X200.172Y-219.818
X200.172Y-223.818
X200.172Y-227.818
X200.172Y-239.818
X200.172Y-243.818
X200.172Y-247.818
X200.172Y-251.818
X200.172Y-255.818
X200.172Y-263.818
X200.172Y-267.818
X200.172Y-271.818
X200.172Y-275.818
X200.172Y-287.818
X200.172Y-291.818
X200.172Y-295.818
X200.172Y-307.818
X200.172Y-311.818
X200.172Y-315.818
X200.172Y-319.818
X200.172Y-327.818
X200.172Y-331.818
X202.057Y-207.818
X202.057Y-211.074
X203.327Y-198.501
X203.92Y-190.45
X203.92Y-215.55
X203.972Y-71.818
X203.972Y-75.818
X203.972Y-87.818
X203.972Y-91.818
X203.972Y-95.818
X203.972Y-99.818
X203.972Y-107.818
X203.972Y-111.818
X203.972Y-115.818
X203.972Y-119.818
X203.972Y-127.818
X203.972Y-131.818
X203.972Y-135.818
X203.972Y-139.818
X203.972Y-143.818
X203.972Y-147.818
X203.972Y-151.818
X203.972Y-155.818
X203.972Y-159.818
X203.972Y-163.818
X203.972Y-167.818
X203.972Y-171.818
X203.972Y-175.818
X203.972Y-179.818
X203.972Y-183.818
X203.972Y-187.818
X203.972Y-219.818
X203.972Y-223.818
X203.972Y-227.818
X203.972Y-239.818
X203.972Y-243.818
X203.972Y-247.818
X203.972Y-251.818
X203.972Y-255.818
X203.972Y-259.818
X203.972Y-263.818
X203.972Y-267.818
X203.972Y-271.818
X203.972Y-283.818
X203.972Y-287.818
X203.972Y-291.818
X203.972Y-295.818
X203.972Y-303.818
X203.972Y-307.818
X203.972Y-311.818
X203.972Y-315.818
X203.972Y-323.818
X203.972Y-327.818
X203.972Y-331.818
X205.613Y-207.818
X205.613Y-211.074
X206.9Y-200.6
X206.9Y-201.7
X206.9Y-202.8
X207.747Y-190.45
X207.747Y-215.55
X207.772Y-71.818
X207.772Y-75.818
X207.772Y-79.818
X207.772Y-91.818
X207.772Y-95.818
X207.772Y-99.818
X207.772Y-103.818
X207.772Y-111.818
X207.772Y-115.818
X207.772Y-119.818
X207.772Y-123.818
X207.772Y-127.818
X207.772Y-131.818
X207.772Y-135.818
X207.772Y-139.818
X207.772Y-143.818
X207.772Y-147.818
X207.772Y-151.818
X207.772Y-155.818
X207.772Y-159.818
X207.772Y-163.818
X207.772Y-167.818
X207.772Y-171.818
X207.772Y-175.818
X207.772Y-179.818
X207.772Y-183.818
X207.772Y-187.818
X207.772Y-219.818
X207.772Y-223.818
X207.772Y-227.818
X207.772Y-239.818
X207.772Y-243.818
X207.772Y-247.818
X207.772Y-251.818
X207.772Y-255.818
X207.772Y-259.818
X207.772Y-263.818
X207.772Y-267.818
X207.772Y-271.818
X207.772Y-275.818
X207.772Y-279.818
X207.772Y-283.818
X207.772Y-287.818
X207.772Y-291.818
X207.772Y-299.818
X207.772Y-303.818
X207.772Y-307.818
X207.772Y-311.818
X207.772Y-319.818
X207.772Y-323.818
X207.772Y-327.818
X207.772Y-331.818
X211.1Y-200.6
X211.1Y-201.7
X211.1Y-202.8
X211.48Y-219.838
X211.48Y-223.838
X211.48Y-227.838
X211.531Y-239.776
X211.531Y-243.776
X211.572Y-247.818
X211.572Y-251.818
X211.572Y-255.818
X211.572Y-259.818
X211.572Y-263.818
X211.572Y-267.818
X211.572Y-271.818
X211.572Y-275.818
X211.572Y-279.818
X211.572Y-283.818
X211.572Y-287.818
X211.572Y-291.818
X211.572Y-295.818
X211.572Y-299.818
X211.572Y-303.818
X211.572Y-307.818
X211.572Y-315.818
X211.572Y-319.818
X211.572Y-323.818
X211.572Y-327.818
X211.572Y-331.818
X211.573Y-190.45
X211.573Y-215.55
X211.582Y-79.858
X211.582Y-83.871
X211.633Y-103.835
X211.643Y-71.845
X211.643Y-75.845
X211.643Y-91.845
X211.643Y-95.845
X211.643Y-99.845
X211.643Y-107.845
X211.643Y-111.845
X211.643Y-115.845
X211.643Y-119.845
X211.643Y-127.845
X211.643Y-131.845
X211.643Y-135.845
X211.643Y-139.845
X211.643Y-143.845
X211.643Y-147.845
X211.643Y-151.845
X211.643Y-155.845
X211.643Y-159.845
X211.643Y-163.845
X211.643Y-167.845
X211.643Y-171.845
X211.643Y-175.845
X211.643Y-179.845
X211.643Y-183.845
X211.734Y-123.85
X211.85Y-207.4
X212.4Y-204.925
X212.9Y-198.7
X213.65Y-202.95
X214.3Y-204.1
X215.138Y-239.775
X215.138Y-243.775
X215.138Y-247.775
X215.138Y-251.775
X215.138Y-255.775
X215.138Y-259.775
X215.138Y-263.775
X215.138Y-267.775
X215.138Y-271.775
X215.138Y-275.775
X215.138Y-279.775
X215.138Y-283.775
X215.138Y-287.775
X215.138Y-291.775
X215.138Y-299.775
X215.138Y-303.775
X215.138Y-307.775
X215.138Y-311.775
X215.138Y-319.775
X215.138Y-323.775
X215.138Y-327.775
X215.138Y-331.775
X215.24Y-107.848
X215.28Y-219.838
X215.28Y-223.838
X215.28Y-227.838
X215.392Y-83.871
X215.392Y-87.845
X215.4Y-190.45
X215.4Y-215.55
X215.443Y-71.845
X215.443Y-75.845
X215.443Y-79.845
X215.443Y-91.845
X215.443Y-95.845
X215.443Y-99.845
X215.443Y-103.845
X215.443Y-111.845
X215.443Y-115.845
X215.443Y-119.845
X215.443Y-123.845
X215.443Y-127.845
X215.443Y-131.845
X215.443Y-135.845
X215.443Y-139.845
X215.443Y-143.845
X215.443Y-147.845
X215.443Y-151.845
X215.443Y-155.845
X215.443Y-159.845
X215.443Y-163.845
X215.443Y-167.845
X215.443Y-171.845
X215.443Y-175.845
X215.443Y-179.845
X215.443Y-183.845
X220.9Y-202.6
X222.885Y-197.358
X224.608Y-170.536
X225.833Y-173.99
X226.813Y-115.849
X227.198Y-159.236
X227.298Y-143.236
X228.7Y-201.65
X229.283Y-161.636
X231.333Y-139.686
X232.083Y-130.836
X232.283Y-173.736
X232.333Y-165.186
X232.41Y-191.643
X234.598Y-154.226
X235.033Y-155.886
X236.947Y-119.336
X237.515Y-111.481
X237.547Y-115.536
X238.633Y-139.586
X239.362Y-123.336
X239.415Y-106.561
X239.578Y-146.086
X240.603Y-166.883
X240.848Y-145.386
X241.533Y-150.536
X241.748Y-159.246
X242.197Y-116.336
X242.283Y-119.336
X242.512Y-110.086
X243.533Y-166.636
X244.425Y-119.966
X244.797Y-116.436
X244.862Y-110.259
X245.033Y-167.036
X245.433Y-196.105
X245.433Y-199.505
X246.568Y-121.186
X246.583Y-160.886
X246.833Y-167.086
X246.883Y-196.105
X246.983Y-199.505
X247.17Y-112.959
X247.647Y-119.636
X247.673Y-173.754
X248.358Y-148.646
X249.683Y-152.986
X250.233Y-122.836
X250.467Y-160.12
X250.483Y-118.336
X250.583Y-128.586
X251.797Y-106.586
X252.283Y-114.886
X252.933Y-151.336
X252.933Y-154.336
X253.903Y-200.001
X254.133Y-123.886
X254.483Y-121.586
X255.053Y-201.101
X255.383Y-117.036
X257.583Y-124.736
X259.783Y-128.486
X259.983Y-156.186
X260.033Y-149.436
X260.513Y-201.096
X261.633Y-116.286
X261.663Y-199.946
X265.833Y-117.636
X266.833Y-126.686
X267.04Y-121.479
X268.433Y-196.155
X268.433Y-199.655
X270.033Y-196.155
X270.033Y-199.655
X273.033Y-146.136
X273.283Y-140.536
X274.883Y-121.286
X277.333Y-143.381
X279.733Y-139.536
X279.733Y-140.986
X279.733Y-145.781
X279.733Y-147.136
T3
X260.783Y-305.106
X260.783Y-314.707
X262.583Y-300.106
X262.583Y-309.707
T4
X166.7Y-236.35
X172.3Y-236.35
T5
X268.947Y-116.935
X268.947Y-119.475
X268.947Y-122.015
X268.947Y-124.555
X271.487Y-118.205
X271.487Y-120.745
X271.487Y-123.285
X271.487Y-125.825
T6
X118.7Y-76.53
X118.7Y-93.04
X118.7Y-109.55
X118.7Y-126.06
X118.7Y-142.57
X118.7Y-159.08
X118.7Y-175.59
X118.7Y-192.1
X118.7Y-208.61
X118.7Y-225.12
X118.7Y-241.63
X118.7Y-258.14
X118.7Y-274.65
X118.7Y-291.16
X118.7Y-307.67
X118.7Y-324.18
X121.24Y-76.53
X121.24Y-93.04
X121.24Y-109.55
X121.24Y-126.06
X121.24Y-142.57
X121.24Y-159.08
X121.24Y-175.59
X121.24Y-192.1
X121.24Y-208.61
X121.24Y-225.12
X121.24Y-241.63
X121.24Y-258.14
X121.24Y-274.65
X121.24Y-291.16
X121.24Y-307.67
X121.24Y-324.18
X123.78Y-76.53
X123.78Y-93.04
X123.78Y-109.55
X123.78Y-126.06
X123.78Y-142.57
X123.78Y-159.08
X123.78Y-175.59
X123.78Y-192.1
X123.78Y-208.61
X123.78Y-225.12
X123.78Y-241.63
X123.78Y-258.14
X123.78Y-274.65
X123.78Y-291.16
X123.78Y-307.67
X123.78Y-324.18
X126.32Y-76.53
X126.32Y-93.04
X126.32Y-109.55
X126.32Y-126.06
X126.32Y-142.57
X126.32Y-159.08
X126.32Y-175.59
X126.32Y-192.1
X126.32Y-208.61
X126.32Y-225.12
X126.32Y-241.63
X126.32Y-258.14
X126.32Y-274.65
X126.32Y-291.16
X126.32Y-307.67
X126.32Y-324.18
X166.7Y-76.53
X166.7Y-93.04
X166.7Y-109.55
X166.7Y-126.06
X166.7Y-142.57
X166.7Y-159.08
X166.7Y-175.59
X166.7Y-192.1
X166.7Y-208.61
X166.7Y-225.12
X166.7Y-241.63
X166.7Y-258.14
X166.7Y-274.65
X166.7Y-291.16
X166.7Y-307.67
X166.7Y-324.18
X169.24Y-76.53
X169.24Y-93.04
X169.24Y-109.55
X169.24Y-126.06
X169.24Y-142.57
X169.24Y-159.08
X169.24Y-175.59
X169.24Y-192.1
X169.24Y-208.61
X169.24Y-225.12
X169.24Y-241.63
X169.24Y-258.14
X169.24Y-274.65
X169.24Y-291.16
X169.24Y-307.67
X169.24Y-324.18
X171.78Y-76.53
X171.78Y-93.04
X171.78Y-109.55
X171.78Y-126.06
X171.78Y-142.57
X171.78Y-159.08
X171.78Y-175.59
X171.78Y-192.1
X171.78Y-208.61
X171.78Y-225.12
X171.78Y-241.63
X171.78Y-258.14
X171.78Y-274.65
X171.78Y-291.16
X171.78Y-307.67
X171.78Y-324.18
X174.32Y-76.53
X174.32Y-93.04
X174.32Y-109.55
X174.32Y-126.06
X174.32Y-142.57
X174.32Y-159.08
X174.32Y-175.59
X174.32Y-192.1
X174.32Y-208.61
X174.32Y-225.12
X174.32Y-241.63
X174.32Y-258.14
X174.32Y-274.65
X174.32Y-291.16
X174.32Y-307.67
X174.32Y-324.18
X239.733Y-327.156
X240.083Y-290.806
X249.733Y-327.156
X250.083Y-290.806
X259.483Y-321.767
X259.483Y-326.846
T7
X264.121Y-115.919
X264.121Y-118.459
X264.121Y-124.301
X264.121Y-126.841
T8
X237.683Y-212.955
X237.683Y-274.955
X238.733Y-299.606
X238.733Y-319.606
X246.183Y-212.955
X251.233Y-299.606
X251.233Y-319.606
X257.683Y-212.955
X257.683Y-274.955
X269.183Y-212.955
X277.683Y-274.955
T9
X85.067Y-72.72
X85.067Y-80.34
X85.067Y-89.23
X85.067Y-96.85
X85.067Y-105.74
X85.067Y-113.36
X85.067Y-122.25
X85.067Y-129.87
X85.067Y-138.76
X85.067Y-146.38
X85.067Y-155.27
X85.067Y-162.89
X85.067Y-171.78
X85.067Y-179.4
X85.067Y-188.29
X85.067Y-195.91
X85.067Y-204.8
X85.067Y-212.42
X85.067Y-221.31
X85.067Y-228.93
X85.067Y-237.82
X85.067Y-245.44
X85.067Y-254.33
X85.067Y-261.95
X85.067Y-270.84
X85.067Y-278.46
X85.067Y-287.35
X85.067Y-294.97
X85.067Y-303.86
X85.067Y-311.48
X85.067Y-320.37
X85.067Y-327.99
T10
X270.083Y-300.366
X270.083Y-307.366
X270.083Y-314.366
T11
X274.789Y-113.379
X274.789Y-129.381
T12
X267.213Y-164.886
X267.213Y-169.586
X267.213Y-174.286
X272.043Y-164.886
X272.043Y-169.586
X272.043Y-174.286
T13
X282.378Y-140.491
X282.378Y-146.271
T14
X277.837Y-115.665
X277.837Y-127.095
T3
G00X281.328Y-139.061
M15
G01X282.428Y-139.061
M16
G05
G00X281.328Y-147.701
M15
G01X282.428Y-147.701
M16
G05
G00X285.658Y-139.061
M15
G01X286.458Y-139.061
M16
G05
G00X285.658Y-147.701
M15
G01X286.458Y-147.701
M16
G05
M30
