%TF.GenerationSoftware,KiCad,Pcbnew,8.0.8*%
%TF.CreationDate,2025-02-12T13:58:17+01:00*%
%TF.ProjectId,diffprobe-espnow,64696666-7072-46f6-9265-2d6573706e6f,rev?*%
%TF.SameCoordinates,Original*%
%TF.FileFunction,Legend,Bot*%
%TF.FilePolarity,Positive*%
%FSLAX46Y46*%
G04 Gerber Fmt 4.6, Leading zero omitted, Abs format (unit mm)*
G04 Created by KiCad (PCBNEW 8.0.8) date 2025-02-12 13:58:17*
%MOMM*%
%LPD*%
G01*
G04 APERTURE LIST*
G04 Aperture macros list*
%AMRoundRect*
0 Rectangle with rounded corners*
0 $1 Rounding radius*
0 $2 $3 $4 $5 $6 $7 $8 $9 X,Y pos of 4 corners*
0 Add a 4 corners polygon primitive as box body*
4,1,4,$2,$3,$4,$5,$6,$7,$8,$9,$2,$3,0*
0 Add four circle primitives for the rounded corners*
1,1,$1+$1,$2,$3*
1,1,$1+$1,$4,$5*
1,1,$1+$1,$6,$7*
1,1,$1+$1,$8,$9*
0 Add four rect primitives between the rounded corners*
20,1,$1+$1,$2,$3,$4,$5,0*
20,1,$1+$1,$4,$5,$6,$7,0*
20,1,$1+$1,$6,$7,$8,$9,0*
20,1,$1+$1,$8,$9,$2,$3,0*%
G04 Aperture macros list end*
%ADD10C,0.508000*%
%ADD11C,3.251200*%
%ADD12C,1.397000*%
%ADD13C,1.524000*%
%ADD14C,2.108200*%
%ADD15R,1.700000X1.700000*%
%ADD16O,1.700000X1.700000*%
%ADD17RoundRect,0.250001X-1.549999X0.799999X-1.549999X-0.799999X1.549999X-0.799999X1.549999X0.799999X0*%
%ADD18O,3.600000X2.100000*%
%ADD19C,0.650000*%
%ADD20O,2.100000X1.000000*%
%ADD21O,1.800000X1.000000*%
%ADD22R,2.800000X2.800000*%
%ADD23C,2.800000*%
%ADD24C,2.000000*%
%ADD25C,3.000000*%
%ADD26C,1.750000*%
%ADD27C,1.600000*%
%ADD28RoundRect,0.102000X0.900000X-0.900000X0.900000X0.900000X-0.900000X0.900000X-0.900000X-0.900000X0*%
%ADD29C,2.004000*%
G04 APERTURE END LIST*
D10*
%TO.C,J12*%
X269328200Y-112541250D02*
G75*
G02*
X268566200Y-112541250I-381000J0D01*
G01*
X268566200Y-112541250D02*
G75*
G02*
X269328200Y-112541250I381000J0D01*
G01*
%TD*%
%LPC*%
D11*
%TO.C,J12*%
X277837200Y-127095450D03*
X277837200Y-115665450D03*
D12*
X268947200Y-116935450D03*
X271487200Y-118205450D03*
X268947200Y-119475450D03*
X271487200Y-120745450D03*
X268947200Y-122015450D03*
X271487200Y-123285450D03*
X268947200Y-124555450D03*
X271487200Y-125825450D03*
D13*
X264121200Y-115919450D03*
X264121200Y-118459450D03*
X264121200Y-124301450D03*
X264121200Y-126841450D03*
D14*
X274789200Y-129381450D03*
X274789200Y-113379450D03*
%TD*%
D15*
%TO.C,J124*%
X166700000Y-258140000D03*
D16*
X169240000Y-258140000D03*
X171780000Y-258140000D03*
X174320000Y-258140000D03*
%TD*%
D17*
%TO.C,J509*%
X85067500Y-204800000D03*
D18*
X85067500Y-212420000D03*
%TD*%
D15*
%TO.C,J116*%
X166700000Y-192100000D03*
D16*
X169240000Y-192100000D03*
X171780000Y-192100000D03*
X174320000Y-192100000D03*
%TD*%
D17*
%TO.C,J504*%
X85067500Y-122250000D03*
D18*
X85067500Y-129870000D03*
%TD*%
D15*
%TO.C,J132*%
X166700000Y-324180000D03*
D16*
X169240000Y-324180000D03*
X171780000Y-324180000D03*
X174320000Y-324180000D03*
%TD*%
D15*
%TO.C,J131*%
X118700000Y-324180000D03*
D16*
X121240000Y-324180000D03*
X123780000Y-324180000D03*
X126320000Y-324180000D03*
%TD*%
D15*
%TO.C,J117*%
X118700000Y-208610000D03*
D16*
X121240000Y-208610000D03*
X123780000Y-208610000D03*
X126320000Y-208610000D03*
%TD*%
D15*
%TO.C,J112*%
X166700000Y-159080000D03*
D16*
X169240000Y-159080000D03*
X171780000Y-159080000D03*
X174320000Y-159080000D03*
%TD*%
D15*
%TO.C,J122*%
X166700000Y-241630000D03*
D16*
X169240000Y-241630000D03*
X171780000Y-241630000D03*
X174320000Y-241630000D03*
%TD*%
D15*
%TO.C,J105*%
X118700000Y-109550000D03*
D16*
X121240000Y-109550000D03*
X123780000Y-109550000D03*
X126320000Y-109550000D03*
%TD*%
D17*
%TO.C,J503*%
X85067500Y-105740000D03*
D18*
X85067500Y-113360000D03*
%TD*%
D15*
%TO.C,J129*%
X118700000Y-307670000D03*
D16*
X121240000Y-307670000D03*
X123780000Y-307670000D03*
X126320000Y-307670000D03*
%TD*%
D19*
%TO.C,J11*%
X282378000Y-146271000D03*
X282378000Y-140491000D03*
D20*
X281878000Y-147701000D03*
D21*
X286058000Y-147701000D03*
D20*
X281878000Y-139061000D03*
D21*
X286058000Y-139061000D03*
%TD*%
D22*
%TO.C,SW103*%
X272043000Y-164886000D03*
D23*
X272043000Y-169586000D03*
X272043000Y-174286000D03*
X267213000Y-164886000D03*
X267213000Y-169586000D03*
X267213000Y-174286000D03*
%TD*%
D24*
%TO.C,C302*%
X240083000Y-290806500D03*
X250083000Y-290806500D03*
%TD*%
D15*
%TO.C,J118*%
X166700000Y-208610000D03*
D16*
X169240000Y-208610000D03*
X171780000Y-208610000D03*
X174320000Y-208610000D03*
%TD*%
D17*
%TO.C,J505*%
X85067500Y-138760000D03*
D18*
X85067500Y-146380000D03*
%TD*%
D17*
%TO.C,J510*%
X85067500Y-221310000D03*
D18*
X85067500Y-228930000D03*
%TD*%
D15*
%TO.C,J108*%
X166700000Y-126060000D03*
D16*
X169240000Y-126060000D03*
X171780000Y-126060000D03*
X174320000Y-126060000D03*
%TD*%
D17*
%TO.C,J507*%
X85067500Y-171780000D03*
D18*
X85067500Y-179400000D03*
%TD*%
D25*
%TO.C,J54*%
X270083000Y-314366500D03*
%TD*%
D15*
%TO.C,J123*%
X118700000Y-258140000D03*
D16*
X121240000Y-258140000D03*
X123780000Y-258140000D03*
X126320000Y-258140000D03*
%TD*%
D17*
%TO.C,J512*%
X85067500Y-254330000D03*
D18*
X85067500Y-261950000D03*
%TD*%
D24*
%TO.C,F1*%
X259483000Y-321766500D03*
X259483000Y-326846500D03*
%TD*%
D15*
%TO.C,J128*%
X166700000Y-291160000D03*
D16*
X169240000Y-291160000D03*
X171780000Y-291160000D03*
X174320000Y-291160000D03*
%TD*%
D17*
%TO.C,J508*%
X85067500Y-188290000D03*
D18*
X85067500Y-195910000D03*
%TD*%
D15*
%TO.C,J106*%
X166700000Y-109550000D03*
D16*
X169240000Y-109550000D03*
X171780000Y-109550000D03*
X174320000Y-109550000D03*
%TD*%
D15*
%TO.C,J103*%
X118700000Y-93040000D03*
D16*
X121240000Y-93040000D03*
X123780000Y-93040000D03*
X126320000Y-93040000D03*
%TD*%
D24*
%TO.C,C301*%
X239733000Y-327156500D03*
X249733000Y-327156500D03*
%TD*%
D15*
%TO.C,J113*%
X118700000Y-175590000D03*
D16*
X121240000Y-175590000D03*
X123780000Y-175590000D03*
X126320000Y-175590000D03*
%TD*%
D26*
%TO.C,FL1*%
X251233000Y-299606500D03*
X251233000Y-319606500D03*
X238733000Y-299606500D03*
X238733000Y-319606500D03*
%TD*%
D15*
%TO.C,J119*%
X118700000Y-225120000D03*
D16*
X121240000Y-225120000D03*
X123780000Y-225120000D03*
X126320000Y-225120000D03*
%TD*%
D15*
%TO.C,J107*%
X118700000Y-126060000D03*
D16*
X121240000Y-126060000D03*
X123780000Y-126060000D03*
X126320000Y-126060000D03*
%TD*%
D15*
%TO.C,J114*%
X166700000Y-175590000D03*
D16*
X169240000Y-175590000D03*
X171780000Y-175590000D03*
X174320000Y-175590000D03*
%TD*%
D27*
%TO.C,RV2*%
X262583000Y-300106500D03*
X260783000Y-305106500D03*
%TD*%
D15*
%TO.C,J130*%
X166700000Y-307670000D03*
D16*
X169240000Y-307670000D03*
X171780000Y-307670000D03*
X174320000Y-307670000D03*
%TD*%
D15*
%TO.C,J111*%
X118700000Y-159080000D03*
D16*
X121240000Y-159080000D03*
X123780000Y-159080000D03*
X126320000Y-159080000D03*
%TD*%
D25*
%TO.C,J56*%
X270083000Y-307366500D03*
%TD*%
D17*
%TO.C,J506*%
X85067500Y-155270000D03*
D18*
X85067500Y-162890000D03*
%TD*%
D28*
%TO.C,PS1*%
X237683000Y-274955000D03*
D29*
X257683000Y-274955000D03*
X277683000Y-274955000D03*
X237683000Y-212955000D03*
X246183000Y-212955000D03*
X257683000Y-212955000D03*
X269183000Y-212955000D03*
%TD*%
D17*
%TO.C,J516*%
X85067500Y-320370000D03*
D18*
X85067500Y-327990000D03*
%TD*%
D15*
%TO.C,J110*%
X166700000Y-142570000D03*
D16*
X169240000Y-142570000D03*
X171780000Y-142570000D03*
X174320000Y-142570000D03*
%TD*%
D25*
%TO.C,J55*%
X270083000Y-300366500D03*
%TD*%
D15*
%TO.C,J101*%
X118700000Y-76530000D03*
D16*
X121240000Y-76530000D03*
X123780000Y-76530000D03*
X126320000Y-76530000D03*
%TD*%
D15*
%TO.C,J121*%
X118700000Y-241630000D03*
D16*
X121240000Y-241630000D03*
X123780000Y-241630000D03*
X126320000Y-241630000D03*
%TD*%
D15*
%TO.C,J109*%
X118700000Y-142570000D03*
D16*
X121240000Y-142570000D03*
X123780000Y-142570000D03*
X126320000Y-142570000D03*
%TD*%
D15*
%TO.C,J115*%
X118700000Y-192100000D03*
D16*
X121240000Y-192100000D03*
X123780000Y-192100000D03*
X126320000Y-192100000D03*
%TD*%
D15*
%TO.C,J120*%
X166700000Y-225120000D03*
D16*
X169240000Y-225120000D03*
X171780000Y-225120000D03*
X174320000Y-225120000D03*
%TD*%
D15*
%TO.C,J102*%
X166700000Y-76530000D03*
D16*
X169240000Y-76530000D03*
X171780000Y-76530000D03*
X174320000Y-76530000D03*
%TD*%
D17*
%TO.C,J513*%
X85067500Y-270840000D03*
D18*
X85067500Y-278460000D03*
%TD*%
D17*
%TO.C,J502*%
X85067500Y-89230000D03*
D18*
X85067500Y-96850000D03*
%TD*%
D15*
%TO.C,J104*%
X166700000Y-93040000D03*
D16*
X169240000Y-93040000D03*
X171780000Y-93040000D03*
X174320000Y-93040000D03*
%TD*%
D17*
%TO.C,J514*%
X85067500Y-287350000D03*
D18*
X85067500Y-294970000D03*
%TD*%
D15*
%TO.C,J127*%
X118700000Y-291160000D03*
D16*
X121240000Y-291160000D03*
X123780000Y-291160000D03*
X126320000Y-291160000D03*
%TD*%
D17*
%TO.C,J501*%
X85067500Y-72720000D03*
D18*
X85067500Y-80340000D03*
%TD*%
D27*
%TO.C,RV1*%
X260783000Y-314706500D03*
X262583000Y-309706500D03*
%TD*%
D15*
%TO.C,J126*%
X166700000Y-274650000D03*
D16*
X169240000Y-274650000D03*
X171780000Y-274650000D03*
X174320000Y-274650000D03*
%TD*%
D17*
%TO.C,J515*%
X85067500Y-303860000D03*
D18*
X85067500Y-311480000D03*
%TD*%
D15*
%TO.C,J125*%
X118700000Y-274650000D03*
D16*
X121240000Y-274650000D03*
X123780000Y-274650000D03*
X126320000Y-274650000D03*
%TD*%
D17*
%TO.C,J511*%
X85067500Y-237820000D03*
D18*
X85067500Y-245440000D03*
%TD*%
%LPD*%
M02*
